<?xml version="1.0" encoding="UTF-8" standalone="no"?>
<svg
   xmlns:dc="http://purl.org/dc/elements/1.1/"
   xmlns:cc="http://creativecommons.org/ns#"
   xmlns:rdf="http://www.w3.org/1999/02/22-rdf-syntax-ns#"
   xmlns:svg="http://www.w3.org/2000/svg"
   xmlns="http://www.w3.org/2000/svg"
   style="enable-background:new"
   id="svg7439"
   version="1.1"
   viewBox="0 0 268.73105 206.81291"
   height="206.81291mm"
   width="268.73105mm">
  <defs
     id="defs7433" />
  <metadata
     id="metadata7436">
    <rdf:RDF>
      <cc:Work
         rdf:about="">
        <dc:format>image/svg+xml</dc:format>
        <dc:type
           rdf:resource="http://purl.org/dc/dcmitype/StillImage" />
        <dc:title></dc:title>
      </cc:Work>
    </rdf:RDF>
  </metadata>
  <g
     transform="translate(206.47847,41.62948)"
     id="layer1">
    <g
       id="g9112">
      <ellipse
         id="ellipse4612"
         ry="8.0697918"
         rx="122.76667"
         cy="157.11365"
         cx="-67.21991"
         style="fill:#3f3d56;stroke-width:0.2;stroke-miterlimit:4;stroke-dasharray:none" />
      <ellipse
         id="ellipse4614"
         ry="4.4979167"
         rx="42.333332"
         cy="156.45219"
         cx="-68.160759"
         style="opacity:0.1;stroke-width:0.2;stroke-miterlimit:4;stroke-dasharray:none" />
      <path
         id="path4616"
         d="m -63.260375,7.9503119 c 0,0 -0.66302,5.3041551 -2.983588,5.6356651 -2.320568,0.33151 -11.271326,0.663019 -12.265855,3.315097 a 26.508811,26.508811 0 0 0 -1.326039,4.972642 l 14.254914,3.315097 14.917936,2.652078 9.613778,-0.66302 c 0,0 0.33151,-8.950758 -4.641133,-10.276797 -4.972642,-1.326039 -8.619252,-1.989058 -8.950761,-4.309626 -0.33151,-2.320568 -0.66302,-3.9781161 -0.66302,-3.9781161 z"
         style="fill:#ffb9b9;stroke-width:0.2;stroke-miterlimit:4;stroke-dasharray:none" />
      <circle
         id="circle4618"
         r="11.441197"
         cy="-0.9879247"
         cx="-60.28088"
         style="fill:#2f2e41;stroke-width:0.2;stroke-miterlimit:4;stroke-dasharray:none" />
      <path
         id="path4620"
         d="M -86.134541,41.432788 -98.06889,60.991843 c 0,0 -10.2768,8.61926 -5.63566,9.94529 4.641128,1.32604 9.282267,-8.61925 9.282267,-8.61925 l 14.586426,-16.57548 z"
         style="fill:#ffb9b9;stroke-width:0.2;stroke-miterlimit:4;stroke-dasharray:none" />
      <path
         id="path4622"
         d="m -37.071113,50.05204 4.972645,18.896053 c 0,0 11.441319,7.59994 6.800184,7.59994 -4.641136,0 -10.115286,-6.60541 -10.115286,-6.60541 l -8.287739,-18.564547 z"
         style="fill:#ffb9b9;stroke-width:0.2;stroke-miterlimit:4;stroke-dasharray:none" />
      <path
         id="path4624"
         d="m -79.504348,82.208473 c 0,0 -0.331522,21.548127 -1.989058,23.205677 -1.657535,1.65755 -2.652077,24.53171 -2.320567,29.17285 0.331509,4.64113 -0.66302,8.28774 -0.66302,8.95076 0,0.66302 5.304155,0.99453 5.304155,0.99453 l 7.62472,-52.378527 z"
         style="fill:#ffb9b9;stroke-width:0.2;stroke-miterlimit:4;stroke-dasharray:none" />
      <path
         id="path4626"
         d="m -82.819444,141.21719 -2.320568,0.66302 c 0,0 -0.66302,5.30415 -0.994529,6.29867 -0.33151,0.99452 -2.652078,8.28775 1.657548,8.95076 4.309626,0.66302 6.961717,-2.65207 6.961717,-2.98358 0,-0.33151 -1.326039,-6.29869 -0.994529,-6.96172 0.331509,-0.66303 0.994529,-5.96717 0.994529,-5.96717 z"
         style="fill:#2f2e41;stroke-width:0.2;stroke-miterlimit:4;stroke-dasharray:none" />
      <path
         id="path4628"
         d="m -82.819444,141.21719 -2.320568,0.66302 c 0,0 -0.66302,5.30415 -0.994529,6.29867 -0.33151,0.99452 -2.652078,8.28775 1.657548,8.95076 4.309626,0.66302 6.961717,-2.65207 6.961717,-2.98358 0,-0.33151 -1.326039,-6.29869 -0.994529,-6.96172 0.331509,-0.66303 0.994529,-5.96717 0.994529,-5.96717 z"
         style="opacity:0.1;stroke-width:0.2;stroke-miterlimit:4;stroke-dasharray:none" />
      <path
         id="path4630"
         d="m -49.336968,142.21172 2.320567,0.66302 c 0,0 0.66302,5.30415 0.99453,6.29867 0.331509,0.99452 2.652077,8.28774 -1.657549,8.95076 -4.309626,0.66302 -6.961717,-2.65207 -6.961717,-2.98358 0,-0.33151 1.326039,-6.29869 0.994529,-6.96172 -0.331509,-0.66303 -0.994529,-5.96717 -0.994529,-5.96717 z"
         style="fill:#2f2e41;stroke-width:0.2;stroke-miterlimit:4;stroke-dasharray:none" />
      <path
         id="path4632"
         d="m -49.336968,142.21172 2.320567,0.66302 c 0,0 0.66302,5.30415 0.99453,6.29867 0.331509,0.99452 2.652077,8.28774 -1.657549,8.95076 -4.309626,0.66302 -6.961717,-2.65207 -6.961717,-2.98358 0,-0.33151 1.326039,-6.29869 0.994529,-6.96172 -0.331509,-0.66303 -0.994529,-5.96717 -0.994529,-5.96717 z"
         style="opacity:0.1;stroke-width:0.2;stroke-miterlimit:4;stroke-dasharray:none" />
      <circle
         id="circle4634"
         r="7.9562325"
         cy="2.9776704"
         cx="-58.619225"
         style="fill:#ffb9b9;stroke-width:0.2;stroke-miterlimit:4;stroke-dasharray:none" />
      <path
         id="path4636"
         d="m -72.542647,43.090336 -1.326036,6.630194 c 0,0 -8.950761,12.597363 -7.293213,28.178323 1.657548,15.58095 1.326039,31.824927 1.657548,36.134547 0.33151,4.30962 1.989059,23.20568 -0.994529,29.83587 -2.983587,6.63019 0.994529,6.96171 1.326039,6.96171 0.33151,0 1.326039,-1.65754 3.646607,0.99453 2.320568,2.65208 8.950759,0.66302 8.950759,0.66302 0,0 12.265858,2.65208 16.906994,0.33151 4.641136,-2.32057 14.254914,-5.96717 13.591894,-8.28774 -0.663019,-2.32057 -7.29321,-13.59189 -5.304155,-20.22209 1.989056,-6.63019 -2.652075,-71.274572 -7.956229,-73.926647 l -1.326039,-6.298671 z"
         style="fill:#2f2e41;stroke-width:0.2;stroke-miterlimit:4;stroke-dasharray:none" />
      <ellipse
         id="ellipse4638"
         ry="4.7342901"
         rx="7.890481"
         cy="-4.1441135"
         cx="-60.28088"
         style="fill:#2f2e41;stroke-width:0.2;stroke-miterlimit:4;stroke-dasharray:none" />
      <circle
         id="circle4640"
         r="4.7342901"
         cy="-12.429121"
         cx="-59.491829"
         style="fill:#2f2e41;stroke-width:0.2;stroke-miterlimit:4;stroke-dasharray:none" />
      <path
         id="path4642"
         d="m -65.804241,-14.993529 a 4.734777,4.734777 0 0 1 4.241136,-4.708692 4.7871883,4.7871883 0 0 0 -0.493157,-0.02558 4.734289,4.734289 0 0 0 0,9.468578 4.7864421,4.7864421 0 0 0 0.493157,-0.02561 4.734777,4.734777 0 0 1 -4.241136,-4.708692 z"
         style="fill:#2f2e41;stroke-width:0.2;stroke-miterlimit:4;stroke-dasharray:none" />
      <path
         id="path4644"
         d="m -80.498877,20.547678 0.66302,1.326038 c 0,0 -0.33151,0.99453 -0.66302,1.326039 -0.331509,0.33151 -11.602839,11.602839 -8.287742,13.923407 3.315097,2.320568 4.309626,2.320568 4.309626,2.320568 0,0 -3.315097,2.320568 -2.652077,2.652077 0.663019,0.33151 7.293213,5.635665 7.956232,4.641136 0.66302,-0.994529 0.994529,-3.315097 0.994529,-3.315097 0,0 1.326039,1.989058 2.652078,1.326039 1.326038,-0.663019 1.326038,-1.657549 1.326038,-1.657549 l 0.994527,1.326039 22.542659,0.994529 c 0,0 1.657548,0.994529 1.657548,-0.331509 0,-1.326039 0.994529,4.972645 3.978117,4.972645 0,0 0.331509,3.315094 1.326038,3.315094 0.994529,0 8.619249,-2.652075 7.95623,-3.315094 -0.663019,-0.663019 -0.994529,-2.983587 -0.994529,-2.983587 0,0 5.635665,-2.983587 0,-9.282272 0,0 -0.994529,-5.967174 -4.309626,-7.293213 0,0 -0.331523,-0.994529 0,-1.326038 a 0.62158033,0.62158033 0 0 0 0,-0.994529 c -0.331523,-0.33151 0.663019,-0.33151 0.663019,-1.326039 0,-0.994529 -1.657548,-1.326039 -1.657548,-1.326039 0,0 -17.901512,-7.95623 -31.493423,-6.298681 z"
         style="fill:#ff6584;stroke-width:0.2;stroke-miterlimit:4;stroke-dasharray:none" />
      <path
         id="path4646"
         d="m 50.450904,139.06874 c 0,13.37657 -7.951704,18.04717 -17.761483,18.04717 q -0.340876,0 -0.68067,-0.008 c -0.454514,-0.01 -0.904698,-0.0314 -1.349462,-0.0617 -8.853138,-0.62657 -15.73135,-5.53741 -15.73135,-17.97791 0,-12.87445 16.452072,-29.11982 17.687888,-30.3221 l 0.0021,-0.002 c 0.04762,-0.0465 0.07144,-0.0693 0.07144,-0.0693 0,0 17.761477,17.01695 17.761477,30.39352 z"
         style="fill:#f57e00;stroke-width:0.2;stroke-miterlimit:4;stroke-dasharray:none" />
      <path
         id="path4648"
         d="m 32.042292,155.06954 6.496201,-9.07714 -6.512435,10.07382 -0.0173,1.04212 c -0.454515,-0.01 -0.904698,-0.0314 -1.349462,-0.0617 l 0.700166,-13.38306 -0.0054,-0.10389 0.01191,-0.0195 0.06601,-1.26397 -6.528676,-10.0987 6.549231,9.15073 0.01516,0.26838 0.529166,-10.11169 -5.589344,-10.43527 5.657512,8.66052 0.550815,-20.96359 0.0021,-0.0714 v 0.0693 l -0.09198,16.53106 5.564468,-6.55355 -5.58719,7.97767 -0.147172,9.05334 5.195459,-8.68865 -5.217096,10.0208 -0.08225,5.03312 7.542665,-12.09313 -7.570806,13.84948 z"
         style="fill:#3f3d56;stroke-width:0.2;stroke-miterlimit:4;stroke-dasharray:none" />
      <line
         id="line4650"
         stroke-miterlimit="10"
         y2="119.95738"
         x2="-134.59308"
         y1="150.67378"
         x1="-134.59308"
         style="fill:#3f3d56;stroke:#3f3d56;stroke-width:0.2;stroke-miterlimit:4;stroke-dasharray:none" />
      <circle
         id="circle4652"
         r="4.3437362"
         cy="119.95738"
         cx="-134.59308"
         style="fill:#3f3d56;stroke-width:0.2;stroke-miterlimit:4;stroke-dasharray:none" />
      <path
         id="path4654"
         d="m -134.59309,138.88853 c 0,0 -0.62053,-13.34635 -13.34147,-11.79502"
         style="fill:#3f3d56;stroke-width:0.2;stroke-miterlimit:4;stroke-dasharray:none" />
      <line
         id="line4656"
         stroke-miterlimit="10"
         y2="55.596054"
         x2="-170.15575"
         y1="156.66783"
         x1="-170.15575"
         style="fill:#3f3d56;stroke:#3f3d56;stroke-width:0.2;stroke-miterlimit:4;stroke-dasharray:none" />
      <circle
         id="circle4658"
         r="4.3437362"
         cy="55.547508"
         cx="-170.15575"
         style="fill:#3f3d56;stroke-width:0.2;stroke-miterlimit:4;stroke-dasharray:none" />
      <circle
         id="circle4660"
         r="4.3437362"
         cy="129.67464"
         cx="-183.49721"
         style="fill:#3f3d56;stroke-width:0.2;stroke-miterlimit:4;stroke-dasharray:none" />
      <path
         id="path4662"
         d="m -170.15576,77.735523 c 0,0 -0.62053,-13.34636 -13.34147,-11.79502"
         style="fill:#3f3d56;stroke-width:0.2;stroke-miterlimit:4;stroke-dasharray:none" />
      <path
         id="path4664"
         d="m -170.15576,115.57094 c 0,0 -0.62053,-13.34636 -13.34147,-11.79502"
         style="fill:#3f3d56;stroke-width:0.2;stroke-miterlimit:4;stroke-dasharray:none" />
      <path
         id="path4666"
         stroke-miterlimit="10"
         d="m -170.15576,155.47383 c 0,0 2.79241,-24.55814 -13.34147,-25.7992"
         style="fill:none;stroke:#3f3d56;stroke-width:0.2;stroke-miterlimit:4;stroke-dasharray:none" />
      <circle
         id="circle4668"
         r="4.3437362"
         cy="129.67464"
         cx="-156.81236"
         style="fill:#3f3d56;stroke-width:0.2;stroke-miterlimit:4;stroke-dasharray:none" />
      <path
         id="path4670"
         stroke-miterlimit="10"
         d="m -170.15386,155.47383 c 0,0 -2.79241,-24.55814 13.34148,-25.7992"
         style="fill:none;stroke:#3f3d56;stroke-width:0.2;stroke-miterlimit:4;stroke-dasharray:none" />
      <circle
         id="circle4672"
         r="4.3437362"
         cy="88.928787"
         cx="-156.54778"
         style="fill:#3f3d56;stroke-width:0.2;stroke-miterlimit:4;stroke-dasharray:none" />
      <path
         id="path4674"
         stroke-miterlimit="10"
         d="m -169.88927,114.728 c 0,0 -2.79242,-24.558137 13.34147,-25.799207"
         style="fill:none;stroke:#3f3d56;stroke-width:0.2;stroke-miterlimit:4;stroke-dasharray:none" />
      <path
         id="path4676"
         d="m -140.97609,-3.7966191 c 0,0 -2.05078,-3.711294 -4.57129,-1.918494 -2.5205,1.792801 0.86,3.96928 0.86,3.96928 l 3.7973,-1.653858"
         style="fill:#3f3d56;stroke-width:0.2;stroke-miterlimit:4;stroke-dasharray:none" />
      <path
         id="path4678"
         d="m -167.79546,52.712724 0.4432,7.799652 c 0,0 9.3411,-8.672861 20.38233,-5.662776 0,0 15.02384,-16.968653 29.20741,-16.717214 0,0 3.85688,-12.886944 26.673706,-20.739436 0,0 1.786229,-12.8538741 12.781177,-17.72944309 l -7.554865,-4.18101201 -13.528675,0.853347 -18.364603,7.303423 -22.51254,16.9289361 -25.68799,17.616938 z"
         style="fill:#f57e00;stroke-width:0.2;stroke-miterlimit:4;stroke-dasharray:none" />
      <path
         id="path4680"
         d="m -167.79546,52.712724 0.4432,7.799652 c 0,0 9.3411,-8.672861 20.38233,-5.662776 0,0 15.02384,-16.968653 29.20741,-16.717214 0,0 3.85688,-12.886944 26.673706,-20.739436 0,0 1.786229,-12.8538741 12.781177,-17.72944309 l -7.554865,-4.18101201 -13.528675,0.853347 -18.364603,7.303423 -22.51254,16.9289361 -25.68799,17.616938 z"
         style="opacity:0.1;stroke-width:0.2;stroke-miterlimit:4;stroke-dasharray:none" />
      <path
         id="path4682"
         d="m -130.76188,22.24857 29.66365,46.764953 c 0,0 4.981425,7.64751 10.558294,2.69915 3.353017,-2.97513 2.552171,-6.40225 1.380313,-8.66239 -1.25168,-2.414082 -4.929876,-0.96012 -4.158213,1.64737 q 0.01879,0.0635 0.03912,0.1283 c 0,0 0.216207,5.58498 -3.542133,2.87346 a 8.1173029,8.1173029 0 0 1 -2.139445,-2.34536 L -126.56765,20.508715 Z"
         style="fill:#3f3d56;stroke-width:0.2;stroke-miterlimit:4;stroke-dasharray:none" />
      <path
         id="path4684"
         d="m -152.11671,36.848858 c 0,0 1.50828,14.633451 5.14678,18.000744"
         style="opacity:0.1;stroke-width:0.2;stroke-miterlimit:4;stroke-dasharray:none" />
      <path
         id="path4686"
         d="m -105.1599,4.2347079 c 0,0 11.934298,9.0500251 14.071073,13.1582581"
         style="opacity:0.1;stroke-width:0.2;stroke-miterlimit:4;stroke-dasharray:none" />
      <path
         id="path4688"
         d="m -143.59913,-3.4360841 c 0,0 -4.07515,4.20743001 -7.47551,5.775285 0,0 -27.09049,24.5697981 -16.12215,57.9317141 0,0 2.59995,-16.770236 13.43611,-16.624655 0,0 6.20538,-15.47359 27.32863,-19.634647 0,0 6.54938,-13.885862 29.174341,-18.7878611 0,0 5.16673,-10.677369 19.105533,-5.80170699 0,0 -17.689724,-20.26990091 -56.211714,-8.18356201 0,2e-6 -6.85366,4.809432 -9.23524,5.325433 z"
         style="fill:#f57e00;stroke-width:0.2;stroke-miterlimit:4;stroke-dasharray:none" />
      <path
         id="path4690"
         d="m -151.23011,2.5806679 c 0,0 -10.67746,19.7670201 -2.68605,41.3070561"
         style="opacity:0.1;stroke-width:0.2;stroke-miterlimit:4;stroke-dasharray:none" />
      <path
         id="path4692"
         d="m -126.58752,24.253077 c -8.11333,-8.538263 -13.79349,-17.6982651 -17.16707,-27.4476971"
         style="opacity:0.1;stroke-width:0.2;stroke-miterlimit:4;stroke-dasharray:none" />
      <path
         id="path4694"
         stroke-miterlimit="10"
         d="M -134.60536,-8.9169781"
         style="fill:none;stroke:#ff00ff;stroke-width:0.2;stroke-miterlimit:4;stroke-dasharray:none" />
      <path
         id="path4696"
         d="m -97.413181,5.4652159 c 0,0 -14.330999,-16.2759069 -37.047609,-13.714915"
         style="opacity:0.1;stroke-width:0.2;stroke-miterlimit:4;stroke-dasharray:none" />
      <path
         id="path4698"
         d="m -10.215312,-36.457378 c -0.482399,2.020043 -1.091777,2.500841 -1.668931,2.36302 -0.577154,-0.137822 -0.903531,-0.842097 -0.421134,-2.862141 0.482396,-2.020043 2.168054,-4.453083 2.168054,-4.453083 0,0 0.4044133,2.93216 -0.07799,4.952204 z"
         style="fill:#f2f2f2;stroke-width:0.2;stroke-miterlimit:4;stroke-dasharray:none" />
      <path
         id="path4700"
         d="m 62.015934,-18.465712 c -0.48241,2.020044 -1.0918,2.500842 -1.66893,2.363021 -0.57717,-0.137822 -0.90353,-0.842098 -0.42114,-2.862141 0.48239,-2.020044 2.16805,-4.453083 2.16805,-4.453083 0,0 0.40441,2.93216 -0.078,4.952203 z"
         style="fill:#f2f2f2;stroke-width:0.2;stroke-miterlimit:4;stroke-dasharray:none" />
      <path
         id="path4702"
         d="m -135.11964,-16.58036 c -0.79058,3.310499 -1.78924,4.098455 -2.73509,3.872577 -0.94586,-0.225877 -1.48073,-1.380048 -0.69017,-4.690533 0.79057,-3.310485 3.55306,-7.29783 3.55306,-7.29783 0,0 0.66276,4.805285 -0.1278,8.115786 z"
         style="fill:#f2f2f2;stroke-width:0.2;stroke-miterlimit:4;stroke-dasharray:none" />
      <path
         id="path4704"
         d="m -164.22382,-2.8220261 c -0.79057,3.31049801 -1.78923,4.098454 -2.73508,3.872576 -0.94586,-0.22587699 -1.48073,-1.38004799 -0.69017,-4.690533 0.79057,-3.310485 3.55306,-7.2978299 3.55306,-7.2978299 0,0 0.66276,4.8052859 -0.12781,8.1157869 z"
         style="fill:#f2f2f2;stroke-width:0.2;stroke-miterlimit:4;stroke-dasharray:none" />
      <path
         id="path4706"
         d="m -190.41757,47.977974 c -0.79057,3.310498 -1.78923,4.098454 -2.73508,3.872576 -0.94586,-0.225877 -1.48073,-1.380048 -0.69017,-4.690533 0.79057,-3.310485 3.55306,-7.29783 3.55306,-7.29783 0,0 0.66276,4.805286 -0.12781,8.115787 z"
         style="fill:#f2f2f2;stroke-width:0.2;stroke-miterlimit:4;stroke-dasharray:none" />
      <path
         id="path4708"
         d="m -192.53423,105.65714 c -0.79058,3.3105 -1.78923,4.09845 -2.73509,3.87257 -0.94586,-0.22587 -1.48073,-1.38004 -0.69016,-4.69054 0.79056,-3.3105 3.55306,-7.297827 3.55306,-7.297827 0,0 0.66275,4.805297 -0.12781,8.115797 z"
         style="fill:#f2f2f2;stroke-width:0.2;stroke-miterlimit:4;stroke-dasharray:none" />
      <path
         id="path4710"
         d="m 8.0199383,-6.5261931 c -0.790575,3.310499 -1.789231,4.098454 -2.735088,3.872577 -0.945856,-0.225878 -1.48073,-1.380048 -0.690163,-4.690534 0.790567,-3.3104849 3.553061,-7.2978299 3.553061,-7.2978299 0,0 0.662757,4.8052859 -0.12781,8.1157869 z"
         style="fill:#f2f2f2;stroke-width:0.2;stroke-miterlimit:4;stroke-dasharray:none" />
      <path
         id="path4712"
         d="m -78.234228,-21.34286 c -0.790575,3.310499 -1.789232,4.098455 -2.735088,3.872577 -0.945857,-0.225877 -1.48073,-1.380048 -0.690163,-4.690533 0.790567,-3.310485 3.55306,-7.29783 3.55306,-7.29783 0,0 0.662758,4.805285 -0.127809,8.115786 z"
         style="fill:#f2f2f2;stroke-width:0.2;stroke-miterlimit:4;stroke-dasharray:none" />
      <path
         id="path4714"
         d="m 4.5803553,20.990474 c -0.790575,3.310498 -1.789232,4.098454 -2.735088,3.872576 -0.94585602,-0.225877 -1.48073002,-1.380048 -0.690163,-4.690533 0.790567,-3.310485 3.55306,-7.29783 3.55306,-7.29783 0,0 0.662758,4.805286 -0.127809,8.115787 z"
         style="fill:#f2f2f2;stroke-width:0.2;stroke-miterlimit:4;stroke-dasharray:none" />
      <path
         id="path4716"
         d="m 40.29911,-33.513693 c -0.790575,3.310498 -1.789245,4.098454 -2.735104,3.872577 -0.945859,-0.225878 -1.480714,-1.380048 -0.690165,-4.690534 0.790575,-3.310485 3.553063,-7.29783 3.553063,-7.29783 0,0 0.662755,4.805286 -0.127794,8.115787 z"
         style="fill:#f2f2f2;stroke-width:0.2;stroke-miterlimit:4;stroke-dasharray:none" />
      <path
         id="path4718"
         d="m 41.643035,3.2301219 c -0.482415,2.020043 -1.091803,2.500841 -1.668939,2.36302 -0.577162,-0.137821 -0.903526,-0.842097 -0.421137,-2.862141 0.482388,-2.02004299 2.168048,-4.453083 2.168048,-4.453083 0,0 0.404416,2.93216 -0.07797,4.952204 z"
         style="fill:#f2f2f2;stroke-width:0.2;stroke-miterlimit:4;stroke-dasharray:none" />
      <path
         id="path4720"
         d="m -40.113229,3.2301219 c -0.482398,2.020043 -1.091776,2.500841 -1.66893,2.36302 -0.577154,-0.137821 -0.903531,-0.842097 -0.421135,-2.862141 0.482396,-2.02004299 2.168054,-4.453083 2.168054,-4.453083 0,0 0.404413,2.93216 -0.07799,4.952204 z"
         style="fill:#f2f2f2;stroke-width:0.2;stroke-miterlimit:4;stroke-dasharray:none" />
      <path
         id="path4722"
         d="m -78.742395,113.82595 c -0.482399,2.02005 -1.091777,2.50084 -1.668931,2.36302 -0.577154,-0.13782 -0.903531,-0.8421 -0.421135,-2.86214 0.482397,-2.02004 2.168054,-4.45308 2.168054,-4.45308 0,0 0.404413,2.93216 -0.07799,4.9522 z"
         style="fill:#f2f2f2;stroke-width:0.2;stroke-miterlimit:4;stroke-dasharray:none" />
      <path
         id="path4724"
         d="m 7.2471883,45.298872 c -0.482399,2.020043 -1.091777,2.500841 -1.668931,2.36302 -0.577154,-0.137821 -0.903531,-0.842097 -0.421134,-2.862141 0.482396,-2.020043 2.168054,-4.453083 2.168054,-4.453083 0,0 0.404413,2.93216 -0.07799,4.952204 z"
         style="fill:#f2f2f2;stroke-width:0.2;stroke-miterlimit:4;stroke-dasharray:none" />
      <path
         id="path4726"
         d="m -158.64657,-34.340712 c -0.48239,2.020044 -1.09177,2.500842 -1.66893,2.363021 -0.57715,-0.137822 -0.90353,-0.842098 -0.42113,-2.862141 0.48239,-2.020044 2.16805,-4.453083 2.16805,-4.453083 0,0 0.40442,2.93216 -0.078,4.952203 z"
         style="fill:#f2f2f2;stroke-width:0.2;stroke-miterlimit:4;stroke-dasharray:none" />
      <path
         id="path4728"
         d="m -176.90282,35.509288 c -0.48239,2.020044 -1.09177,2.500842 -1.66893,2.363021 -0.57715,-0.137822 -0.90353,-0.842098 -0.42113,-2.862141 0.48239,-2.020044 2.16805,-4.453083 2.16805,-4.453083 0,0 0.40442,2.93216 -0.078,4.952203 z"
         style="fill:#f2f2f2;stroke-width:0.2;stroke-miterlimit:4;stroke-dasharray:none" />
      <path
         id="path4730"
         d="m -162.61532,20.163455 c -0.48239,2.020044 -1.09177,2.500842 -1.66893,2.36302 -0.57715,-0.137821 -0.90353,-0.842097 -0.42113,-2.86214 0.48239,-2.020044 2.16805,-4.453084 2.16805,-4.453084 0,0 0.40442,2.932161 -0.078,4.952204 z"
         style="fill:#f2f2f2;stroke-width:0.2;stroke-miterlimit:4;stroke-dasharray:none" />
      <path
         id="path4732"
         d="m -129.27781,-5.2365451 c -0.4824,2.020044 -1.09178,2.500842 -1.66893,2.36302 -0.57716,-0.137821 -0.90353,-0.842097 -0.42114,-2.86214 0.4824,-2.020044 2.16806,-4.4530839 2.16806,-4.4530839 0,0 0.40441,2.9321609 -0.078,4.9522039 z"
         style="fill:#f2f2f2;stroke-width:0.2;stroke-miterlimit:4;stroke-dasharray:none" />
      <path
         id="path4734"
         d="m -168.17157,58.263455 c -0.48239,2.020044 -1.09177,2.500838 -1.66893,2.36302 -0.57715,-0.137821 -0.90353,-0.842097 -0.42113,-2.86214 0.48239,-2.020044 2.16805,-4.453084 2.16805,-4.453084 0,0 0.40442,2.932161 -0.078,4.952204 z"
         style="fill:#f2f2f2;stroke-width:0.2;stroke-miterlimit:4;stroke-dasharray:none" />
      <path
         id="path4736"
         d="m -189.07365,82.075953 c -0.4824,2.02005 -1.09178,2.50084 -1.66893,2.36302 -0.57715,-0.13782 -0.90353,-0.8421 -0.42114,-2.86214 0.4824,-2.02004 2.16806,-4.45308 2.16806,-4.45308 0,0 0.40441,2.93216 -0.078,4.9522 z"
         style="fill:#f2f2f2;stroke-width:0.2;stroke-miterlimit:4;stroke-dasharray:none" />
      <path
         id="path4738"
         d="m -204.1549,91.865543 c -0.4824,2.02004 -1.09178,2.50084 -1.66893,2.36302 -0.57715,-0.13783 -0.90353,-0.8421 -0.42114,-2.86215 0.4824,-2.02004 2.16806,-4.45308 2.16806,-4.45308 0,0 0.40441,2.93216 -0.078,4.95221 z"
         style="fill:#f2f2f2;stroke-width:0.2;stroke-miterlimit:4;stroke-dasharray:none" />
      <path
         id="path4740"
         d="m -48.315312,73.873873 c -0.482399,2.02004 -1.091776,2.50084 -1.66893,2.36302 -0.577155,-0.13782 -0.903531,-0.8421 -0.421135,-2.86214 0.482396,-2.02005 2.168054,-4.45308 2.168054,-4.45308 0,0 0.404413,2.93216 -0.07799,4.9522 z"
         style="fill:#f2f2f2;stroke-width:0.2;stroke-miterlimit:4;stroke-dasharray:none" />
      <path
         id="path4742"
         d="m -52.284062,29.159288 c -0.482399,2.020044 -1.091776,2.500842 -1.66893,2.363021 -0.577155,-0.137822 -0.903531,-0.842098 -0.421135,-2.862141 0.482396,-2.020044 2.168054,-4.453083 2.168054,-4.453083 0,0 0.404413,2.93216 -0.07799,4.952203 z"
         style="fill:#f2f2f2;stroke-width:0.2;stroke-miterlimit:4;stroke-dasharray:none" />
      <path
         id="path4744"
         d="m 27.090938,78.371793 c -0.482399,2.02004 -1.091777,2.50084 -1.668931,2.36302 -0.577154,-0.13783 -0.903531,-0.8421 -0.421134,-2.86215 0.482396,-2.02004 2.168054,-4.45308 2.168054,-4.45308 0,0 0.404413,2.93216 -0.07799,4.95221 z"
         style="fill:#f2f2f2;stroke-width:0.2;stroke-miterlimit:4;stroke-dasharray:none" />
      <path
         id="path4746"
         d="m 4.5803553,105.65714 c -0.790575,3.3105 -1.789232,4.09845 -2.735088,3.87257 -0.94585602,-0.22587 -1.48073002,-1.38004 -0.690163,-4.69054 0.790567,-3.3105 3.55306,-7.297827 3.55306,-7.297827 0,0 0.662758,4.805297 -0.127809,8.115797 z"
         style="fill:#f2f2f2;stroke-width:0.2;stroke-miterlimit:4;stroke-dasharray:none" />
      <path
         id="path4748"
         d="m -25.582145,95.338393 c -0.790575,3.3105 -1.789232,4.09845 -2.735088,3.87257 -0.945856,-0.22587 -1.48073,-1.38004 -0.690163,-4.69054 0.790567,-3.3105 3.55306,-7.29783 3.55306,-7.29783 0,0 0.662758,4.8053 -0.127809,8.1158 z"
         style="fill:#f2f2f2;stroke-width:0.2;stroke-miterlimit:4;stroke-dasharray:none" />
      <path
         id="path4750"
         d="m 48.765774,52.211307 c -0.79057,3.310499 -1.78924,4.098454 -2.7351,3.872577 -0.94586,-0.225878 -1.480715,-1.380048 -0.690167,-4.690534 0.790577,-3.310485 3.553067,-7.29783 3.553067,-7.29783 0,0 0.66275,4.805286 -0.1278,8.115787 z"
         style="fill:#f2f2f2;stroke-width:0.2;stroke-miterlimit:4;stroke-dasharray:none" />
      <path
         id="path4752"
         d="m 51.432614,82.605123 c -0.48241,2.02004 -1.0918,2.50084 -1.66893,2.36302 -0.57717,-0.13782 -0.90353,-0.8421 -0.42114,-2.86214 0.48239,-2.02005 2.16805,-4.45308 2.16805,-4.45308 0,0 0.40441,2.93216 -0.078,4.9522 z"
         style="fill:#f2f2f2;stroke-width:0.2;stroke-miterlimit:4;stroke-dasharray:none" />
      <path
         id="path4754"
         d="m -53.606978,112.23845 c -0.482399,2.02005 -1.091777,2.50084 -1.668931,2.36302 -0.577154,-0.13782 -0.903531,-0.8421 -0.421135,-2.86214 0.482397,-2.02004 2.168054,-4.45308 2.168054,-4.45308 0,0 0.404413,2.93216 -0.07799,4.9522 z"
         style="fill:#f2f2f2;stroke-width:0.2;stroke-miterlimit:4;stroke-dasharray:none" />
      <path
         id="path4756"
         d="m -26.354895,70.169703 c -0.482399,2.02005 -1.091777,2.50084 -1.668931,2.36302 -0.577154,-0.13782 -0.903531,-0.8421 -0.421135,-2.86214 0.482397,-2.02004 2.168054,-4.45308 2.168054,-4.45308 0,0 0.404413,2.93216 -0.07799,4.9522 z"
         style="fill:#f2f2f2;stroke-width:0.2;stroke-miterlimit:4;stroke-dasharray:none" />
      <path
         id="path4758"
         d="m -49.638228,-6.2948781 c -0.482399,2.020043 -1.091777,2.500841 -1.668931,2.36302 -0.577154,-0.137821 -0.903531,-0.842097 -0.421135,-2.862141 0.482397,-2.020043 2.168054,-4.4530829 2.168054,-4.4530829 0,0 0.404413,2.9321599 -0.07799,4.9522039 z"
         style="fill:#f2f2f2;stroke-width:0.2;stroke-miterlimit:4;stroke-dasharray:none" />
      <path
         id="path4760"
         d="m -17.623645,133.6697 c -0.482399,2.02005 -1.091777,2.50084 -1.668931,2.36302 -0.577154,-0.13782 -0.903531,-0.8421 -0.421135,-2.86214 0.482397,-2.02004 2.168054,-4.45308 2.168054,-4.45308 0,0 0.404413,2.93216 -0.07799,4.9522 z"
         style="fill:#f2f2f2;stroke-width:0.2;stroke-miterlimit:4;stroke-dasharray:none" />
      <path
         id="path4762"
         d="m -54.929895,-32.753212 c -0.482399,2.020044 -1.091777,2.500842 -1.668931,2.363021 -0.577154,-0.137822 -0.903531,-0.842098 -0.421134,-2.862141 0.482396,-2.020044 2.168054,-4.453083 2.168054,-4.453083 0,0 0.404413,2.93216 -0.07799,4.952203 z"
         style="fill:#f2f2f2;stroke-width:0.2;stroke-miterlimit:4;stroke-dasharray:none" />
      <path
         id="path4764"
         d="m -18.946562,37.361372 c -0.482399,2.020043 -1.091777,2.500841 -1.668931,2.36302 -0.577154,-0.137821 -0.903531,-0.842097 -0.421134,-2.862141 0.482396,-2.020043 2.168054,-4.453083 2.168054,-4.453083 0,0 0.404413,2.93216 -0.07799,4.952204 z"
         style="fill:#f2f2f2;stroke-width:0.2;stroke-miterlimit:4;stroke-dasharray:none" />
    </g>
  </g>
  <g
     transform="translate(54.532039,39.272337)"
     style="display:inline"
     id="layer2" />
</svg>
