<?xml version="1.0" encoding="UTF-8" standalone="no"?>
<!-- Created with Inkscape (http://www.inkscape.org/) -->

<svg
   xmlns:dc="http://purl.org/dc/elements/1.1/"
   xmlns:cc="http://creativecommons.org/ns#"
   xmlns:rdf="http://www.w3.org/1999/02/22-rdf-syntax-ns#"
   xmlns:svg="http://www.w3.org/2000/svg"
   xmlns="http://www.w3.org/2000/svg"
   xmlns:sodipodi="http://sodipodi.sourceforge.net/DTD/sodipodi-0.dtd"
   xmlns:inkscape="http://www.inkscape.org/namespaces/inkscape"
   width="297.96909mm"
   height="183.67963mm"
   viewBox="0 0 297.96909 183.67962"
   version="1.1"
   id="svg7439"
   style="enable-background:new"
   inkscape:version="0.92.4 (5da689c313, 2019-01-14)"
   sodipodi:docname="drawing-1.svg">
  <defs
     id="defs7433">
    <inkscape:perspective
       sodipodi:type="inkscape:persp3d"
       inkscape:vp_x="0 : 104.32142 : 1"
       inkscape:vp_y="0 : 999.99995 : 0"
       inkscape:vp_z="232.07739 : 104.32142 : 1"
       inkscape:persp3d-origin="116.0387 : 69.547613 : 1"
       id="perspective8029" />
    <linearGradient
       gradientUnits="userSpaceOnUse"
       y2="75.830002"
       x2="600"
       y1="694.20001"
       x1="600"
       id="4673c98d-e8c8-4911-bde5-090ef44e1581">
      <stop
         id="stop1339"
         stop-opacity="0.4"
         stop-color="gray"
         offset="0.2" />
      <stop
         id="stop1341"
         stop-opacity="0.5"
         stop-color="gray"
         offset="0.46" />
      <stop
         id="stop1343"
         stop-opacity="0.6"
         offset="1" />
    </linearGradient>
    <linearGradient
       gradientUnits="userSpaceOnUse"
       y2="223.2"
       x2="597.34998"
       y1="783.63"
       x1="597.34998"
       id="528408a2-f79a-48f6-b2a6-578d2aaf4c5c">
      <stop
         id="stop1346"
         stop-opacity="0.25"
         stop-color="gray"
         offset="0" />
      <stop
         id="stop1348"
         stop-opacity="0.12"
         stop-color="gray"
         offset="0.54" />
      <stop
         id="stop1350"
         stop-opacity="0.1"
         stop-color="gray"
         offset="1" />
    </linearGradient>
  </defs>
  <sodipodi:namedview
     id="base"
     pagecolor="#ffffff"
     bordercolor="#666666"
     borderopacity="1.0"
     inkscape:pageopacity="0.0"
     inkscape:pageshadow="2"
     inkscape:zoom="0.18513539"
     inkscape:cx="-367.20508"
     inkscape:cy="473.81495"
     inkscape:document-units="mm"
     inkscape:current-layer="layer1"
     showgrid="false"
     inkscape:window-width="958"
     inkscape:window-height="476"
     inkscape:window-x="952"
     inkscape:window-y="0"
     inkscape:window-maximized="0" />
  <metadata
     id="metadata7436">
    <rdf:RDF>
      <cc:Work
         rdf:about="">
        <dc:format>image/svg+xml</dc:format>
        <dc:type
           rdf:resource="http://purl.org/dc/dcmitype/StillImage" />
        <dc:title></dc:title>
      </cc:Work>
    </rdf:RDF>
  </metadata>
  <g
     inkscape:label="Layer 1"
     inkscape:groupmode="layer"
     id="layer1"
     transform="translate(189.19574,85.448791)">
    <g
       id="g4296"
       transform="matrix(0.26458333,0,0,0.26458333,-189.19574,-85.448791)">
      <rect
         id="rect3962"
         height="2"
         width="140"
         y="173.90779"
         x="161.18239"
         style="fill:#f2f2f2" />
      <rect
         id="rect3964"
         height="18.5"
         width="2"
         y="155.90779"
         x="199.18239"
         style="fill:#f2f2f2" />
      <rect
         id="rect3966"
         height="18.5"
         width="2"
         y="155.90779"
         x="260.1824"
         style="fill:#f2f2f2" />
      <rect
         id="rect3968"
         height="2"
         width="140"
         y="73.907791"
         x="113.18239"
         style="fill:#f2f2f2" />
      <rect
         id="rect3970"
         height="18.5"
         width="2"
         y="75.407791"
         x="213.18239"
         style="fill:#f2f2f2" />
      <rect
         id="rect3972"
         height="18.5"
         width="2"
         y="75.407791"
         x="152.18239"
         style="fill:#f2f2f2" />
      <rect
         id="rect3974"
         height="2"
         width="140"
         y="213.90779"
         x="335.1824"
         style="fill:#f2f2f2" />
      <rect
         id="rect3976"
         height="18.5"
         width="2"
         y="195.90779"
         x="373.1824"
         style="fill:#f2f2f2" />
      <rect
         id="rect3978"
         height="18.5"
         width="2"
         y="195.90779"
         x="434.1824"
         style="fill:#f2f2f2" />
      <rect
         id="rect3980"
         height="2"
         width="140"
         y="113.90779"
         x="287.1824"
         style="fill:#f2f2f2" />
      <rect
         id="rect3982"
         height="18.5"
         width="2"
         y="115.40779"
         x="387.1824"
         style="fill:#f2f2f2" />
      <rect
         id="rect3984"
         height="18.5"
         width="2"
         y="115.40779"
         x="326.1824"
         style="fill:#f2f2f2" />
      <rect
         id="rect3986"
         height="2"
         width="140"
         y="553.90778"
         x="280.1824"
         style="fill:#f2f2f2" />
      <rect
         id="rect3988"
         height="18.5"
         width="2"
         y="535.90778"
         x="318.1824"
         style="fill:#f2f2f2" />
      <rect
         id="rect3990"
         height="18.5"
         width="2"
         y="535.90778"
         x="379.1824"
         style="fill:#f2f2f2" />
      <rect
         id="rect3992"
         height="2"
         width="140"
         y="453.90778"
         x="232.18239"
         style="fill:#f2f2f2" />
      <rect
         id="rect3994"
         height="18.5"
         width="2"
         y="455.40778"
         x="332.1824"
         style="fill:#f2f2f2" />
      <rect
         id="rect3996"
         height="18.5"
         width="2"
         y="455.40778"
         x="271.1824"
         style="fill:#f2f2f2" />
      <rect
         id="rect3998"
         height="2"
         width="140"
         y="337.90778"
         x="216.18239"
         style="fill:#f2f2f2" />
      <rect
         id="rect4000"
         height="18.5"
         width="2"
         y="319.90778"
         x="254.18239"
         style="fill:#f2f2f2" />
      <rect
         id="rect4002"
         height="18.5"
         width="2"
         y="319.90778"
         x="315.1824"
         style="fill:#f2f2f2" />
      <rect
         id="rect4004"
         height="2"
         width="140"
         y="237.90779"
         x="168.18239"
         style="fill:#f2f2f2" />
      <rect
         id="rect4006"
         height="18.5"
         width="2"
         y="239.40779"
         x="268.1824"
         style="fill:#f2f2f2" />
      <rect
         id="rect4008"
         height="18.5"
         width="2"
         y="239.40779"
         x="207.18239"
         style="fill:#f2f2f2" />
      <rect
         id="rect4010"
         height="2"
         width="140"
         y="489.90778"
         x="115.18239"
         style="fill:#f2f2f2" />
      <rect
         id="rect4012"
         height="18.5"
         width="2"
         y="471.90778"
         x="153.18239"
         style="fill:#f2f2f2" />
      <rect
         id="rect4014"
         height="18.5"
         width="2"
         y="471.90778"
         x="214.18239"
         style="fill:#f2f2f2" />
      <rect
         id="rect4016"
         height="2"
         width="140"
         y="389.90778"
         x="67.182388"
         style="fill:#f2f2f2" />
      <rect
         id="rect4018"
         height="18.5"
         width="2"
         y="391.40778"
         x="167.18239"
         style="fill:#f2f2f2" />
      <rect
         id="rect4020"
         height="18.5"
         width="2"
         y="391.40778"
         x="106.18239"
         style="fill:#f2f2f2" />
      <rect
         id="rect4022"
         height="2"
         width="140"
         y="173.90779"
         x="812.18237"
         style="fill:#f2f2f2" />
      <rect
         id="rect4024"
         height="18.5"
         width="2"
         y="155.90779"
         x="850.18237"
         style="fill:#f2f2f2" />
      <rect
         id="rect4026"
         height="18.5"
         width="2"
         y="155.90779"
         x="911.18237"
         style="fill:#f2f2f2" />
      <rect
         id="rect4028"
         height="2"
         width="140"
         y="73.907791"
         x="764.18237"
         style="fill:#f2f2f2" />
      <rect
         id="rect4030"
         height="18.5"
         width="2"
         y="75.407791"
         x="864.18237"
         style="fill:#f2f2f2" />
      <rect
         id="rect4032"
         height="18.5"
         width="2"
         y="75.407791"
         x="803.18237"
         style="fill:#f2f2f2" />
      <rect
         id="rect4034"
         height="2"
         width="140"
         y="213.90779"
         x="986.18237"
         style="fill:#f2f2f2" />
      <rect
         id="rect4036"
         height="18.5"
         width="2"
         y="195.90779"
         x="1024.1824"
         style="fill:#f2f2f2" />
      <rect
         id="rect4038"
         height="18.5"
         width="2"
         y="195.90779"
         x="1085.1824"
         style="fill:#f2f2f2" />
      <rect
         id="rect4040"
         height="2"
         width="140"
         y="113.90779"
         x="938.18237"
         style="fill:#f2f2f2" />
      <rect
         id="rect4042"
         height="18.5"
         width="2"
         y="115.40779"
         x="1038.1824"
         style="fill:#f2f2f2" />
      <rect
         id="rect4044"
         height="18.5"
         width="2"
         y="115.40779"
         x="977.18237"
         style="fill:#f2f2f2" />
      <rect
         id="rect4046"
         height="2"
         width="140"
         y="553.90778"
         x="931.18237"
         style="fill:#f2f2f2" />
      <rect
         id="rect4048"
         height="18.5"
         width="2"
         y="535.90778"
         x="969.18237"
         style="fill:#f2f2f2" />
      <rect
         id="rect4050"
         height="18.5"
         width="2"
         y="535.90778"
         x="1030.1824"
         style="fill:#f2f2f2" />
      <rect
         id="rect4052"
         height="2"
         width="140"
         y="453.90778"
         x="883.18237"
         style="fill:#f2f2f2" />
      <rect
         id="rect4054"
         height="18.5"
         width="2"
         y="455.40778"
         x="983.18237"
         style="fill:#f2f2f2" />
      <rect
         id="rect4056"
         height="18.5"
         width="2"
         y="455.40778"
         x="922.18237"
         style="fill:#f2f2f2" />
      <rect
         id="rect4058"
         height="2"
         width="140"
         y="337.90778"
         x="867.18237"
         style="fill:#f2f2f2" />
      <rect
         id="rect4060"
         height="18.5"
         width="2"
         y="319.90778"
         x="905.18237"
         style="fill:#f2f2f2" />
      <rect
         id="rect4062"
         height="18.5"
         width="2"
         y="319.90778"
         x="966.18237"
         style="fill:#f2f2f2" />
      <rect
         id="rect4064"
         height="2"
         width="140"
         y="237.90779"
         x="819.18237"
         style="fill:#f2f2f2" />
      <rect
         id="rect4066"
         height="18.5"
         width="2"
         y="239.40779"
         x="919.18237"
         style="fill:#f2f2f2" />
      <rect
         id="rect4068"
         height="18.5"
         width="2"
         y="239.40779"
         x="858.18237"
         style="fill:#f2f2f2" />
      <rect
         id="rect4070"
         height="2"
         width="140"
         y="489.90778"
         x="766.18237"
         style="fill:#f2f2f2" />
      <rect
         id="rect4072"
         height="18.5"
         width="2"
         y="471.90778"
         x="804.18237"
         style="fill:#f2f2f2" />
      <rect
         id="rect4074"
         height="18.5"
         width="2"
         y="471.90778"
         x="865.18237"
         style="fill:#f2f2f2" />
      <rect
         id="rect4076"
         height="2"
         width="140"
         y="389.90778"
         x="718.18237"
         style="fill:#f2f2f2" />
      <rect
         id="rect4078"
         height="18.5"
         width="2"
         y="391.40778"
         x="818.18237"
         style="fill:#f2f2f2" />
      <rect
         id="rect4080"
         height="18.5"
         width="2"
         y="391.40778"
         x="757.18237"
         style="fill:#f2f2f2" />
      <rect
         id="rect4082"
         height="276"
         width="194.5"
         x="362.9339"
         y="0"
         style="fill:#3f3d56" />
      <rect
         id="rect4084"
         height="276"
         width="194.5"
         y="331"
         x="612.4339"
         style="fill:#3f3d56" />
      <rect
         id="rect4086"
         height="276"
         width="194.5"
         x="612.4339"
         y="0"
         style="fill:#3f3d56" />
      <rect
         id="rect4088"
         height="276"
         width="194.5"
         y="331"
         x="362.9339"
         style="fill:#3f3d56" />
      <rect
         id="rect4090"
         height="2.24072"
         width="963.50958"
         y="606.13098"
         x="95.424332"
         style="fill:#2f2e41" />
      <path
         id="path4092"
         transform="translate(-36.9088,-102.88889)"
         d="m 150.8427,693.88889 h -11 v 93 c 0,0 71,23 140,0 v -93 z"
         inkscape:connector-curvature="0"
         style="fill:#3f3d56" />
      <ellipse
         id="ellipse4094"
         ry="10.5"
         rx="69"
         cy="591.5"
         cx="171.93388"
         style="fill:#3f3d56" />
      <ellipse
         id="ellipse4096"
         ry="10.5"
         rx="69"
         cy="591.5"
         cx="171.93388"
         style="opacity:0.1" />
      <path
         id="path4098"
         transform="translate(-36.9088,-102.88889)"
         d="m 289.05074,582.775 c -17.40643,64.34464 -77.02739,104.19489 -77.02739,104.19489 0,0 -31.39956,-64.473 -13.99312,-128.81765 17.40644,-64.34465 77.02739,-104.19488 77.02739,-104.19488 0,0 31.39956,64.47299 13.99312,128.81764 z"
         inkscape:connector-curvature="0"
         style="fill:#3f3d56" />
      <path
         id="path4100"
         transform="translate(-36.9088,-102.88889)"
         d="m 130.70076,582.775 c 17.40643,64.34464 77.02739,104.19489 77.02739,104.19489 0,0 31.39956,-64.473 13.99313,-128.81765 -17.40643,-64.34465 -77.0274,-104.19488 -77.0274,-104.19488 0,0 -31.39955,64.47299 -13.99312,128.81764 z"
         inkscape:connector-curvature="0"
         style="fill:#6c63ff" />
      <path
         id="path4102"
         transform="translate(-36.9088,-102.88889)"
         d="m 156.27828,568.94663 c 47.76351,46.49584 53.59747,117.97078 53.59747,117.97078 0,0 -71.606,-3.90972 -119.36948,-50.40557 C 42.74279,590.01599 36.9088,518.54106 36.9088,518.54106 c 0,0 71.60598,3.90973 119.36948,50.40557 z"
         inkscape:connector-curvature="0"
         style="fill:#3f3d56" />
      <path
         id="path4104"
         transform="translate(-36.9088,-102.88889)"
         d="m 263.47322,568.94663 c -47.7635,46.49584 -53.59747,117.97078 -53.59747,117.97078 0,0 71.606,-3.90972 119.36948,-50.40557 47.76348,-46.49585 53.59747,-117.97078 53.59747,-117.97078 0,0 -71.60598,3.90973 -119.36948,50.40557 z"
         inkscape:connector-curvature="0"
         style="fill:#3f3d56" />
      <circle
         id="circle4106"
         r="22"
         cy="351"
         cx="172.93388"
         style="fill:#6c63ff" />
      <circle
         id="circle4108"
         r="3"
         cy="148"
         cx="439.9339"
         style="fill:#ffffff" />
      <circle
         id="circle4110"
         r="35"
         cy="77"
         cx="425.9339"
         style="fill:#ffffff" />
      <circle
         id="circle4112"
         r="1"
         cy="125"
         cx="481.9339"
         style="fill:#ffffff" />
      <circle
         id="circle4114"
         r="1"
         cy="175"
         cx="657.9339"
         style="fill:#ffffff" />
      <circle
         id="circle4116"
         r="1"
         cy="474"
         cx="646.9339"
         style="fill:#ffffff" />
      <circle
         id="circle4118"
         r="1"
         cy="543"
         cx="435.9339"
         style="fill:#ffffff" />
      <circle
         id="circle4120"
         r="1"
         cy="210"
         cx="730.9339"
         style="fill:#ffffff" />
      <circle
         id="circle4122"
         r="1"
         cy="126"
         cx="720.9339"
         style="fill:#ffffff" />
      <circle
         id="circle4124"
         r="1"
         cy="396"
         cx="686.9339"
         style="fill:#ffffff" />
      <circle
         id="circle4126"
         r="1"
         cy="246"
         cx="632.9339"
         style="fill:#ffffff" />
      <circle
         id="circle4128"
         r="1"
         cy="105"
         cx="640.9339"
         style="fill:#ffffff" />
      <circle
         id="circle4130"
         r="1"
         cy="48"
         cx="731.9339"
         style="fill:#ffffff" />
      <circle
         id="circle4132"
         r="1"
         cy="453"
         cx="437.9339"
         style="fill:#ffffff" />
      <circle
         id="circle4134"
         r="1"
         cy="529"
         cx="523.9339"
         style="fill:#ffffff" />
      <circle
         id="circle4136"
         r="1"
         cy="378"
         cx="413.9339"
         style="fill:#ffffff" />
      <circle
         id="circle4138"
         r="1"
         cy="246"
         cx="438.9339"
         style="fill:#ffffff" />
      <polygon
         id="polygon4140"
         points="438.934,247 557.434,195.93 557.434,209.45 "
         style="opacity:0.1;fill:#ffffff" />
      <polygon
         id="polygon4142"
         points="612.434,172.23 806.934,88.41 806.934,130.38 612.434,192.02 "
         style="opacity:0.1;fill:#ffffff" />
      <path
         id="path4144"
         transform="translate(-36.9088,-102.88889)"
         d="m 533.88268,497.86887 60.46,-33.31 v 4.63 c -33.80998,16.37 -59.28001,28.14002 -60.46,28.68 z"
         inkscape:connector-curvature="0"
         style="opacity:0.1;fill:#ffffff" />
      <path
         id="path4146"
         transform="translate(-36.9088,-102.88889)"
         d="m 650.02269,433.88889 h 15.25 q -7.935,4.095 -15.93,8.13 v -7.75 z"
         inkscape:connector-curvature="0"
         style="opacity:0.1;fill:#ffffff" />
      <path
         id="path4148"
         transform="translate(-36.9088,-102.88889)"
         d="m 769.8427,367.88889 c -0.46,2.65 -3.95,6.41 -9.76,11 h -10.21 z"
         inkscape:connector-curvature="0"
         style="opacity:0.1;fill:#ffffff" />
      <path
         id="path4150"
         transform="translate(-36.9088,-102.88889)"
         d="m 843.8427,547.24887 v 7.06 c -51.92,25.91 -99.35,47.82 -100.96,48.56 z"
         inkscape:connector-curvature="0"
         style="opacity:0.1;fill:#ffffff" />
      <path
         id="path4152"
         transform="translate(-36.9088,-102.88889)"
         d="m 726.8427,557.07638 a 10.385,10.385 0 0 0 -6.03631,-9.42611 l 0.32033,-4.08438 h -22.34427 l 2.59817,26.50134 h 17.66756 l 0.23521,-2.99931 a 10.38963,10.38963 0 0 0 7.55931,-9.99154 z m -7.43524,8.41043 1.23756,-15.77875 a 10.35208,10.35208 0 0 1 -1.23756,15.77875 z"
         inkscape:connector-curvature="0"
         style="fill:#6c63ff" />
      <path
         transform="translate(-36.9088,-102.88889)"
         d="m 702.75265,535.50626 c 0,0 26.42006,18.87147 17.61337,26.42006 -8.80669,7.54859 -26.42002,-22.64576 -26.42002,-22.64576 z"
         data-name="right hand"
         id="f4ac3ff5-258c-4399-9248-8391ae08b365-1"
         inkscape:connector-curvature="0"
         style="fill:#ffb9b9" />
      <path
         transform="translate(-36.9088,-102.88889)"
         d="m 580.71712,564.44252 c 0,0 5.03239,62.90491 6.29049,71.7116 1.2581,8.80669 2.5162,88.06687 5.0324,96.87356 2.5162,8.80669 5.03239,30.19432 5.03239,30.19432 h 15.09718 c 0,0 -1.2581,-39.001 2.51619,-54.09822 3.77429,-15.09722 2.5162,-56.61442 2.5162,-56.61442 0,0 7.54859,-74.22779 3.77429,-84.29258 -3.7743,-10.06479 -40.25914,-3.77426 -40.25914,-3.77426 z"
         data-name="left leg"
         id="bf1f5e13-8e3a-4741-a85e-0bb4d1014665-9"
         inkscape:connector-curvature="0"
         style="fill:#ffb9b9" />
      <path
         transform="translate(-36.9088,-102.88889)"
         d="m 600.84669,759.44774 c 0,0 -6.29049,3.77429 -6.29049,6.29049 0,2.5162 1.2581,8.80669 0,11.32288 -1.2581,2.51619 -10.06478,12.581 -5.03239,15.09718 5.03239,2.51618 27.67816,0 27.67816,0 0,0 -1.2581,-17.61337 -2.5162,-18.87147 -1.2581,-1.2581 1.2581,-13.83908 1.2581,-13.83908 z"
         data-name="left shoe"
         id="fa7b0e16-c331-457f-a12f-a08f2c008952-7"
         inkscape:connector-curvature="0"
         style="fill:#2f2e41" />
      <path
         transform="translate(-36.9088,-102.88889)"
         d="m 676.89143,562.90084 c 0,0 1.59829,63.08564 1.27155,71.97573 -0.32674,8.89009 6.74174,87.84449 5.16385,96.86665 -1.57789,9.02216 -1.83521,30.55578 -1.83521,30.55578 l -15.01378,1.5847 c 0,0 -2.84264,-38.91766 -8.18078,-53.53526 -5.33814,-14.6176 -8.44489,-56.03756 -8.44489,-56.03756 0,0 -15.29829,-73.02539 -12.60131,-83.43075 2.69698,-10.40536 39.64057,-7.97929 39.64057,-7.97929 z"
         data-name="right leg"
         id="f4024e73-c1c2-4428-8611-ad66221c5a25-2"
         inkscape:connector-curvature="0"
         style="fill:#ffb9b9" />
      <path
         transform="translate(-36.9088,-102.88889)"
         d="m 677.342,758.94173 c 0,0 6.65192,3.09316 6.916,5.59545 0.26408,2.50229 -0.32674,8.8901 1.18852,11.26034 1.51526,2.37024 11.32976,11.455 6.58928,14.48555 -4.74048,3.03055 -27.52526,2.90526 -27.52526,2.90526 0,0 -0.59766,-17.64813 0.52144,-19.03133 1.1191,-1.3832 -2.70379,-13.63058 -2.70379,-13.63058 z"
         data-name="right shoe"
         id="a008d2cf-381c-4d23-b52a-803eac2543b7-7"
         inkscape:connector-curvature="0"
         style="fill:#2f2e41" />
      <path
         transform="translate(-36.9088,-102.88889)"
         d="m 598.3305,470.08516 c 0,0 -10.06479,1.25809 -13.83908,22.64576 -3.77429,21.38767 -17.61338,75.48589 -6.29049,79.26019 11.32289,3.7743 45.29153,11.32288 46.54963,8.80669 1.2581,-2.51619 3.77429,-8.80669 3.77429,-8.80669 0,0 -3.77429,11.32289 1.25815,11.32289 5.03244,0 54.09822,-7.54859 52.84013,-11.32288 -1.25809,-3.77429 -3.7743,-31.45246 -3.7743,-31.45246 0,0 -7.54859,-46.54963 -15.09718,-54.09822 a 20.63209,20.63209 0 0 1 -6.29049,-16.35527 z"
         data-name="pants"
         id="f779e54b-d4cb-4215-8e38-13737b8c9741-2"
         inkscape:connector-curvature="0"
         style="fill:#2f2e41" />
      <path
         transform="translate(-36.9088,-102.88889)"
         d="m 579.459,460.02037 c 0,0 16.35528,-3.7743 18.87148,1.2581 2.5162,5.0324 -6.29049,12.581 -10.06479,12.581 -3.7743,0 -10.06478,-3.77429 -10.06478,-3.77429 z"
         data-name="left hand"
         id="ed7973b0-4ac2-4dfd-9025-75a9fc26774c-9"
         inkscape:connector-curvature="0"
         style="fill:#ffb9b9" />
      <circle
         r="22.645769"
         cy="225.89676"
         cx="600.45264"
         data-name="head"
         id="a0973ec9-0189-41bb-9fc7-749accd47115-9"
         style="fill:#ffb9b9" />
      <path
         transform="translate(-36.9088,-102.88889)"
         d="m 623.68,344.30147 c 0,0 -2.70377,20.10344 -5.22,20.10344 -2.51623,0 18.87147,11.32288 18.87147,11.32288 l 16.35528,-2.5162 5.03239,-7.54859 c 0,0 -7.80423,-12.122 -7.80423,-22.18683 0,-10.06483 -27.23491,0.8253 -27.23491,0.8253 z"
         data-name="neck"
         id="fee270f8-9d28-4acf-9daf-d285b710d8cb-5"
         inkscape:connector-curvature="0"
         style="fill:#ffb9b9" />
      <path
         transform="translate(-36.9088,-102.88889)"
         d="m 628.52485,364.40491 c 0,0 -3.77429,-2.5162 -5.03239,-2.5162 h -10.06478 c -1.2581,0 -17.61338,3.77429 -17.61338,3.77429 l -10.06479,56.61442 c 0,0 17.61338,28.93626 5.0324,51.582 0,0 3.77429,-2.5162 21.38767,-1.2581 17.61338,1.2581 49.06583,5.03239 50.32392,5.03239 1.25809,0 1.2581,-10.06478 0,-12.581 -1.2581,-2.51622 1.2581,-1.2581 1.2581,-7.54859 0,-6.29049 3.7743,-17.61337 3.7743,-17.61337 l 17.61337,-64.163 c 0,0 -22.64577,-12.581 -26.42006,-11.32288 -3.77429,1.25812 -15.09718,5.03239 -17.61337,3.77429 -2.51619,-1.2581 -12.58099,-3.77425 -12.58099,-3.77425 z"
         data-name="upper body"
         id="a5149c73-902a-4296-b98c-0ab474a0aab0-0"
         inkscape:connector-curvature="0"
         style="fill:#ff6584" />
      <path
         transform="translate(-36.9088,-102.88889)"
         d="m 599.58859,366.9211 -3.77429,-1.2581 c 0,0 -7.54859,-1.25809 -16.35528,6.2905 -8.80669,7.54859 -41.51724,30.19435 -41.51724,30.19435 0,0 -12.581,10.06479 -8.80668,21.38767 3.77432,11.32288 10.06478,39.001 28.93625,37.743 0,0 11.32289,15.09718 17.61338,12.581 6.29049,-2.51618 11.32288,-12.581 7.54859,-13.83908 -3.77429,-1.25808 -13.83908,-13.83908 -13.83908,-13.83908 l 12.581,-23.90387 h 3.77429 l 13.83908,-7.54859 z"
         data-name="left arm"
         id="b7aca075-39de-44d0-b6a6-9c2227e62ba9-5"
         inkscape:connector-curvature="0"
         style="fill:#ff6584" />
      <path
         transform="translate(-36.9088,-102.88889)"
         d="m 675.07449,374.46969 10.06478,1.2581 c 0,0 8.80669,3.7743 7.54859,20.12957 -1.2581,16.35527 7.54859,90.58307 3.7743,99.38976 0,0 12.581,42.77534 10.06478,44.03344 -2.51622,1.2581 -17.61337,8.80668 -16.35527,3.77429 1.2581,-5.03239 -13.83909,-40.25914 -13.83909,-40.25914 0,0 -17.61337,-18.87147 -10.06478,-45.29154 V 436.1165 Z"
         data-name="right arm"
         id="e668ed40-8c90-4e88-adc6-99915460fb10-7"
         inkscape:connector-curvature="0"
         style="fill:#ff6584" />
      <path
         id="path4166"
         transform="translate(-36.9088,-102.88889)"
         d="m 696.07685,349.11944 c -2.80675,-3.96939 -6.25947,-7.43819 -9.22157,-11.293 -6.82919,-8.88775 -9.19176,-20.7304 -18.35621,-27.546 -9.06824,-6.74406 -23.45862,-13.38193 -34.80642,-12.8501 -14.95536,0.70088 -26.81917,12.303 -37.12888,23.15952 q -11.81783,12.44464 -23.63564,24.88925 c -5.69963,6.00192 -11.60973,12.37378 -13.66391,20.3918 -1.9744,7.70607 -0.0478,15.98467 3.567,23.071 a 56.15191,56.15191 0 0 0 15.44317,18.43539 c 7.91189,-10.89439 18.996,-25.9372 18.996,-25.9372 l 2.58048,37.41712 c 13.40409,4.44229 27.80284,5.31575 41.92837,4.33364 l 4.18393,-15.34112 4.39136,14.49159 c 16.8803,-2.2379 33.83867,-8.06634 44.28822,-21.23892 11.55271,-14.56341 12.16625,-36.80486 1.4341,-51.98297 z"
         inkscape:connector-curvature="0"
         style="fill:#2f2e41" />
      <path
         id="path4168"
         transform="translate(-36.9088,-102.88889)"
         d="m 601.81394,345.341 c -2.33439,-11.72212 0.18784,-23.867 8.02939,-33.16768 14.48709,-17.18284 41.60784,-18.148 60.57591,-2.15577 a 47.75333,47.75333 0 0 1 15.5487,24.32628 47.4946,47.4946 0 0 0 -16.14294,-26.90111 c -18.96808,-15.99224 -46.08883,-15.02707 -60.57592,2.15577 -8.41765,9.98403 -10.70622,23.24495 -7.43514,35.74251 z"
         inkscape:connector-curvature="0"
         style="fill:#2f2e41" />
      <path
         id="path4170"
         transform="translate(-36.9088,-102.88889)"
         d="m 557.24767,400.63619 c -2.33439,-11.72212 0.18784,-23.867 8.02939,-33.16768 14.48709,-17.18285 41.60784,-18.148 60.57591,-2.15577 a 47.75329,47.75329 0 0 1 15.5487,24.32628 47.4946,47.4946 0 0 0 -16.14292,-26.90111 c -18.96808,-15.99224 -46.08883,-15.02707 -60.57592,2.15577 -8.41767,9.98403 -10.70624,23.24495 -7.43516,35.74251 z"
         inkscape:connector-curvature="0"
         style="fill:#2f2e41" />
      <path
         id="path4172"
         transform="translate(-36.9088,-102.88889)"
         d="m 658.32014,339.055 c 11.89484,-1.17063 23.73288,2.53339 32.21759,11.25134 15.67531,16.10623 13.96945,43.19048 -3.81015,60.49439 a 47.75335,47.75335 0 0 1 -25.7371,13.08175 47.49449,47.49449 0 0 0 28.35787,-13.41995 c 17.7796,-17.30392 19.48547,-44.38817 3.81015,-60.4944 -9.10808,-9.35844 -22.07976,-12.93966 -34.83836,-10.91313 z"
         inkscape:connector-curvature="0"
         style="fill:#2f2e41" />
      <path
         id="path4174"
         transform="translate(-36.9088,-102.88889)"
         d="m 714.57986,499.29421 a 5.86707,5.86707 0 0 0 -6.19121,2.43233 7.99632,7.99632 0 0 0 -0.99939,2.46623 13.52019,13.52019 0 0 0 4.298,13.22763 25.95221,25.95221 0 0 1 2.74926,2.3334 7.8174,7.8174 0 0 1 1.51415,7.03828 11.85329,11.85329 0 0 1 -4.12668,6.10266 3.37036,3.37036 0 0 0 -1.01467,1.08578 c -0.67635,1.44778 1.06814,2.82525 1.51208,4.36031"
         inkscape:connector-curvature="0"
         style="opacity:0.1;fill:#ffffff" />
    </g>
  </g>
  <g
     inkscape:groupmode="layer"
     id="layer2"
     inkscape:label="Layer 2"
     style="display:inline"
     transform="translate(37.249321,83.091648)" />
</svg>
