<?xml version="1.0" encoding="UTF-8" standalone="no"?>
<!-- Created with Inkscape (http://www.inkscape.org/) -->

<svg
   xmlns:dc="http://purl.org/dc/elements/1.1/"
   xmlns:cc="http://creativecommons.org/ns#"
   xmlns:rdf="http://www.w3.org/1999/02/22-rdf-syntax-ns#"
   xmlns:svg="http://www.w3.org/2000/svg"
   xmlns="http://www.w3.org/2000/svg"
   xmlns:sodipodi="http://sodipodi.sourceforge.net/DTD/sodipodi-0.dtd"
   xmlns:inkscape="http://www.inkscape.org/namespaces/inkscape"
   width="293.64059mm"
   height="197.99831mm"
   viewBox="0 0 293.6406 197.9983"
   version="1.1"
   id="svg7439"
   style="enable-background:new"
   inkscape:version="0.92.4 (5da689c313, 2019-01-14)"
   sodipodi:docname="drawing-1.svg">
  <defs
     id="defs7433">
    <inkscape:perspective
       sodipodi:type="inkscape:persp3d"
       inkscape:vp_x="0 : 104.32143 : 1"
       inkscape:vp_y="0 : 1000 : 0"
       inkscape:vp_z="232.07741 : 104.32143 : 1"
       inkscape:persp3d-origin="116.03871 : 69.547618 : 1"
       id="perspective8029" />
    <linearGradient
       gradientUnits="userSpaceOnUse"
       y2="75.830002"
       x2="600"
       y1="694.20001"
       x1="600"
       id="4673c98d-e8c8-4911-bde5-090ef44e1581">
      <stop
         id="stop1339"
         stop-opacity="0.4"
         stop-color="gray"
         offset="0.2" />
      <stop
         id="stop1341"
         stop-opacity="0.5"
         stop-color="gray"
         offset="0.46" />
      <stop
         id="stop1343"
         stop-opacity="0.6"
         offset="1" />
    </linearGradient>
    <linearGradient
       gradientUnits="userSpaceOnUse"
       y2="223.2"
       x2="597.34998"
       y1="783.63"
       x1="597.34998"
       id="528408a2-f79a-48f6-b2a6-578d2aaf4c5c">
      <stop
         id="stop1346"
         stop-opacity="0.25"
         stop-color="gray"
         offset="0" />
      <stop
         id="stop1348"
         stop-opacity="0.12"
         stop-color="gray"
         offset="0.54" />
      <stop
         id="stop1350"
         stop-opacity="0.1"
         stop-color="gray"
         offset="1" />
    </linearGradient>
  </defs>
  <sodipodi:namedview
     id="base"
     pagecolor="#ffffff"
     bordercolor="#666666"
     borderopacity="1.0"
     inkscape:pageopacity="0.0"
     inkscape:pageshadow="2"
     inkscape:zoom="0.52364195"
     inkscape:cx="599.19485"
     inkscape:cy="496.65031"
     inkscape:document-units="mm"
     inkscape:current-layer="layer1"
     showgrid="false"
     inkscape:window-width="958"
     inkscape:window-height="476"
     inkscape:window-x="952"
     inkscape:window-y="0"
     inkscape:window-maximized="0" />
  <metadata
     id="metadata7436">
    <rdf:RDF>
      <cc:Work
         rdf:about="">
        <dc:format>image/svg+xml</dc:format>
        <dc:type
           rdf:resource="http://purl.org/dc/dcmitype/StillImage" />
        <dc:title></dc:title>
      </cc:Work>
    </rdf:RDF>
  </metadata>
  <g
     inkscape:label="Layer 1"
     inkscape:groupmode="layer"
     id="layer1"
     transform="translate(231.71774,75.904349)">
    <g
       id="g1913"
       transform="matrix(0.26458333,0,0,0.26458333,-181.6842,-91.567871)">
      <path
         id="path1357"
         transform="translate(-45.11,-75.83)"
         d="m 1151.86,616.41 c 0,44.37 -244.24,207.76 -549.27,207.76 -305.03,0 -545.14,-174.12 -545.14,-218.49 0,-44.37 240.11,57.79 545.14,57.79 305.03,0 549.27,-91.47 549.27,-47.06 z"
         inkscape:connector-curvature="0"
         style="fill:#3f3d56" />
      <path
         id="path1359"
         transform="translate(-45.11,-75.83)"
         d="m 1154.89,598.7 c 0,0.59 0,1.18 0,1.78 -0.67,18.44 -10.94,36.78 -29.68,49.73 -19.88,13.72 -46.54,20.94 -73.91,25.55 -4.28,0.72 -8.58,1.37 -12.87,2 -2.19,0.3 -4.37,0.6 -6.54,0.88 -60.93,8 -123.14,9.53 -185.06,11 -64.77,1.6 -129.6,3.18 -194.44,4 l -12.86,0.15 c -98.38,1.06 -196.72,0.17 -294.74,-5.41 -30.42,-1.72 -61.14,-4 -91.3,-7.84 q -6.45,-0.79 -12.86,-1.73 c -40,-5.73 -78.81,-14.52 -114.17,-28.79 A 254.48,254.48 0 0 1 102,638.72 c -22.21,-11.79 -40.94,-26.7 -50.21,-45 A 63.12,63.12 0 0 1 45.39,559 81.22,81.22 0 0 1 47.62,546.13 114.68,114.68 0 0 1 60.25,516.42 C 74.69,492 96.38,470.11 115.08,447.18 155,398.31 181,336.56 144.16,286.47 c -10.57,-14.39 -25.85,-27 -34.46,-42.05 a 67.72,67.72 0 0 1 -8.44,-26.42 95.07,95.07 0 0 1 -0.53,-12.87 178.53,178.53 0 0 1 3.75,-29.84 c 6,-30.72 17.21,-63.84 51.83,-83 23.63,-13.08 53.75,-17.14 84.29,-16.37 q 6.43,0.15 12.86,0.6 c 11.71,0.77 23.35,2.19 34.59,4 69.44,11.09 133.53,34.26 198.23,55.18 49.26,15.92 100.28,30.81 153.22,37.91 4.28,0.57 8.56,1.1 12.86,1.56 12.41,1.36 24.93,2.26 37.55,2.63 C 752.72,179.6 826,166 867.71,130.68 908,96.54 983.56,93.79 1038.4,114.18 l 0.82,0.31 q 6.19,2.36 12,5.08 c 40.41,19 67.48,51.54 71.3,85.59 a 74.3,74.3 0 0 1 0.34,12.74 0.53,0.53 0 0 1 0,0.13 c -2.62,41.89 -36.86,77.07 -71.63,112.31 -4.3,4.35 -8.61,8.7 -12.87,13.08 -11.28,11.58 -22.21,23.25 -31.69,35.26 a 165.34,165.34 0 0 0 -11.92,17.1 110.45,110.45 0 0 0 -8.47,17.22 71.62,71.62 0 0 0 -4.67,19.3 50.47,50.47 0 0 0 5,27.6 l 0.09,0.2 c 9.28,18.4 28.92,31.44 51.66,43 4.19,2.14 8.5,4.22 12.87,6.28 24.66,11.64 51.23,22.45 71.43,36.82 a 107.09,107.09 0 0 1 15.18,12.8 77.34,77.34 0 0 1 5.36,6.17 54.14,54.14 0 0 1 11.68,32.69 c 0.01,0.3 0.01,0.57 0.01,0.84 z"
         inkscape:connector-curvature="0"
         style="fill:#f50057" />
      <path
         id="path1361"
         transform="translate(-45.11,-75.83)"
         d="m 1154.89,598.7 c 0,0.59 0,1.18 0,1.78 -0.67,18.44 -10.94,36.78 -29.68,49.73 -19.88,13.72 -46.54,20.94 -73.91,25.55 -4.28,0.72 -8.58,1.37 -12.87,2 -2.19,0.3 -4.37,0.6 -6.54,0.88 -60.93,8 -123.14,9.53 -185.06,11 -64.77,1.6 -129.6,3.18 -194.44,4 l -12.86,0.15 c -98.38,1.06 -196.72,0.17 -294.74,-5.41 -30.42,-1.72 -61.14,-4 -91.3,-7.84 q -6.45,-0.79 -12.86,-1.73 c -40,-5.73 -78.81,-14.52 -114.17,-28.79 A 254.48,254.48 0 0 1 102,638.72 c -22.21,-11.79 -40.94,-26.7 -50.21,-45 A 63.12,63.12 0 0 1 45.39,559 81.22,81.22 0 0 1 47.62,546.13 114.68,114.68 0 0 1 60.25,516.42 C 74.69,492 96.38,470.11 115.08,447.18 155,398.31 181,336.56 144.16,286.47 c -10.57,-14.39 -25.85,-27 -34.46,-42.05 a 67.72,67.72 0 0 1 -8.44,-26.42 95.07,95.07 0 0 1 -0.53,-12.87 178.53,178.53 0 0 1 3.75,-29.84 c 6,-30.72 17.21,-63.84 51.83,-83 23.63,-13.08 53.75,-17.14 84.29,-16.37 q 6.43,0.15 12.86,0.6 c 11.71,0.77 23.35,2.19 34.59,4 69.44,11.09 133.53,34.26 198.23,55.18 49.26,15.92 100.28,30.81 153.22,37.91 4.28,0.57 8.56,1.1 12.86,1.56 12.41,1.36 24.93,2.26 37.55,2.63 C 752.72,179.6 826,166 867.71,130.68 908,96.54 983.56,93.79 1038.4,114.18 l 0.82,0.31 q 6.19,2.36 12,5.08 c 40.41,19 67.48,51.54 71.3,85.59 a 74.3,74.3 0 0 1 0.34,12.74 0.53,0.53 0 0 1 0,0.13 c -2.62,41.89 -36.86,77.07 -71.63,112.31 -4.3,4.35 -8.61,8.7 -12.87,13.08 -11.28,11.58 -22.21,23.25 -31.69,35.26 a 165.34,165.34 0 0 0 -11.92,17.1 110.45,110.45 0 0 0 -8.47,17.22 71.62,71.62 0 0 0 -4.67,19.3 50.47,50.47 0 0 0 5,27.6 l 0.09,0.2 c 9.28,18.4 28.92,31.44 51.66,43 4.19,2.14 8.5,4.22 12.87,6.28 24.66,11.64 51.23,22.45 71.43,36.82 a 107.09,107.09 0 0 1 15.18,12.8 77.34,77.34 0 0 1 5.36,6.17 54.14,54.14 0 0 1 11.68,32.69 c 0.01,0.3 0.01,0.57 0.01,0.84 z"
         inkscape:connector-curvature="0"
         style="fill:url(#4673c98d-e8c8-4911-bde5-090ef44e1581)" />
      <path
         id="path1363"
         transform="translate(-45.11,-75.83)"
         d="m 1051.27,119.57 v 210.76 c -4.3,4.36 -8.61,8.71 -12.87,13.09 V 114.18 Z"
         inkscape:connector-curvature="0"
         style="fill:#3f3d56" />
      <path
         id="path1365"
         transform="translate(-45.11,-75.83)"
         d="m 1122.91,217.9 a 0.57,0.57 0 0 1 0,0.13 H 101.26 a 95.21,95.21 0 0 1 -0.53,-12.87 h 1021.84 a 74.27,74.27 0 0 1 0.34,12.74 z"
         inkscape:connector-curvature="0"
         style="fill:#3f3d56" />
      <circle
         id="circle1367"
         r="3.75"
         cy="71.809998"
         cx="241.32001"
         style="fill:#e7effd" />
      <circle
         id="circle1369"
         r="3.75"
         cy="64.300003"
         cx="121.22"
         style="fill:#e7effd" />
      <circle
         id="circle1371"
         r="1.61"
         cy="71.809998"
         cx="283.67999"
         style="fill:#e7effd" />
      <circle
         id="circle1373"
         r="1.61"
         cy="68.059998"
         cx="163.03999"
         style="fill:#e7effd" />
      <circle
         id="circle1375"
         r="1.61"
         cy="180.50999"
         cx="161.44"
         style="fill:#e7effd" />
      <circle
         id="circle1377"
         r="1.61"
         cy="95.529999"
         cx="904.01001"
         style="fill:#e7effd" />
      <circle
         id="circle1379"
         r="1.61"
         cy="97.010002"
         cx="358.73999"
         style="fill:#e7effd" />
      <circle
         id="circle1381"
         r="1.61"
         cy="93.790001"
         cx="824.65997"
         style="fill:#e7effd" />
      <circle
         id="circle1383"
         r="1.61"
         cy="98.620003"
         cx="1027.33"
         style="fill:#e7effd" />
      <path
         id="path1385"
         transform="translate(-45.11,-75.83)"
         d="m 1154.89,598.7 c 0,0.59 0,1.18 0,1.78 -0.51,18.58 -10.8,37.11 -29.68,50.15 -19.88,13.72 -46.54,20.94 -73.91,25.55 -4.28,0.72 -8.58,1.37 -12.87,2 -2.19,0.3 -4.37,0.6 -6.54,0.88 -15,2 -30.08,3.53 -45.21,4.81 -20.3,1.72 -40.7,2.91 -61.12,3.79 -26.22,1.15 -52.49,1.8 -78.73,2.45 -51.29,1.26 -102.62,2.52 -154,3.39 l -18.23,0.3 -22.24,0.3 -12.86,0.15 c -81,0.86 -161.88,0.42 -242.62,-2.88 q -8.06,-0.32 -16.09,-0.7 -18,-0.79 -36,-1.83 c -24.05,-1.36 -48.29,-3.08 -72.27,-5.63 q -9.54,-1 -19,-2.21 -6.45,-0.79 -12.86,-1.73 -7.14,-1 -14.22,-2.18 c -35,-5.72 -68.79,-14 -99.95,-26.62 A 259.37,259.37 0 0 1 102,639.14 v -176 c 4.44,-5.15 8.85,-10.3 13.09,-15.51 5.1,-6.26 10,-12.71 14.5,-19.33 h 96.8 v -59.65 h 170.5 V 499.79 H 674.6 v -104 H 995 a 112,112 0 0 0 -8.39,16.65 V 413 h -0.37 a 71.62,71.62 0 0 0 -4.67,19.3 50.47,50.47 0 0 0 5,27.6 v 0.42 l 0.09,0.2 c 9.28,18.4 28.92,31.44 51.66,43 4.19,2.14 8.5,4.22 12.87,6.28 24.41,11.52 50.71,22.24 70.83,36.4 l 0.6,0.42 a 107.61,107.61 0 0 1 14.81,12.38 c 0.15,0.14 0.28,0.28 0.41,0.42 a 77.34,77.34 0 0 1 5.36,6.17 54.21,54.21 0 0 1 11.68,32.27 c 0.01,0.3 0.01,0.57 0.01,0.84 z"
         inkscape:connector-curvature="0"
         style="fill:#f50057" />
      <path
         id="path1387"
         transform="translate(-45.11,-75.83)"
         d="m 1154.89,598.7 c 0,0.59 0,1.18 0,1.78 -0.51,18.58 -10.8,37.11 -29.68,50.15 -19.88,13.72 -46.54,20.94 -73.91,25.55 -4.28,0.72 -8.58,1.37 -12.87,2 -2.19,0.3 -4.37,0.6 -6.54,0.88 -15,2 -30.08,3.53 -45.21,4.81 -20.3,1.72 -40.7,2.91 -61.12,3.79 -26.22,1.15 -52.49,1.8 -78.73,2.45 -51.29,1.26 -102.62,2.52 -154,3.39 l -18.23,0.3 -22.24,0.3 -12.86,0.15 c -81,0.86 -161.88,0.42 -242.62,-2.88 q -8.06,-0.32 -16.09,-0.7 -18,-0.79 -36,-1.83 c -24.05,-1.36 -48.29,-3.08 -72.27,-5.63 q -9.54,-1 -19,-2.21 -6.45,-0.79 -12.86,-1.73 -7.14,-1 -14.22,-2.18 c -35,-5.72 -68.79,-14 -99.95,-26.62 A 259.37,259.37 0 0 1 102,639.14 v -176 c 4.44,-5.15 8.85,-10.3 13.09,-15.51 5.1,-6.26 10,-12.71 14.5,-19.33 h 96.8 v -59.65 h 170.5 V 499.79 H 674.6 v -104 H 995 a 112,112 0 0 0 -8.39,16.65 V 413 h -0.37 a 71.62,71.62 0 0 0 -4.67,19.3 50.47,50.47 0 0 0 5,27.6 v 0.42 l 0.09,0.2 c 9.28,18.4 28.92,31.44 51.66,43 4.19,2.14 8.5,4.22 12.87,6.28 24.41,11.52 50.71,22.24 70.83,36.4 l 0.6,0.42 a 107.61,107.61 0 0 1 14.81,12.38 c 0.15,0.14 0.28,0.28 0.41,0.42 a 77.34,77.34 0 0 1 5.36,6.17 54.21,54.21 0 0 1 11.68,32.27 c 0.01,0.3 0.01,0.57 0.01,0.84 z"
         inkscape:connector-curvature="0"
         style="opacity:0.3" />
      <rect
         id="rect1389"
         height="19.299999"
         width="28.6"
         y="376.79001"
         x="88.690002"
         style="opacity:0.4" />
      <rect
         id="rect1391"
         height="19.299999"
         width="28.6"
         y="376.79001"
         x="134.45"
         style="opacity:0.4" />
      <rect
         id="rect1393"
         height="19.299999"
         width="28.6"
         y="337.12"
         x="659.88"
         style="opacity:0.4" />
      <rect
         id="rect1395"
         height="19.299999"
         width="28.6"
         y="337.12"
         x="737.09003"
         style="opacity:0.4" />
      <rect
         id="rect1397"
         height="19.299999"
         width="28.6"
         y="337.12"
         x="820.01001"
         style="opacity:0.4" />
      <rect
         id="rect1399"
         height="19.299999"
         width="28.6"
         y="396.10001"
         x="659.88"
         style="opacity:0.4" />
      <rect
         id="rect1401"
         height="19.299999"
         width="28.6"
         y="396.10001"
         x="737.09003"
         style="opacity:0.4" />
      <rect
         id="rect1403"
         height="19.299999"
         width="28.6"
         y="396.10001"
         x="820.01001"
         style="fill:#f50057" />
      <rect
         id="rect1405"
         height="19.299999"
         width="28.6"
         y="455.07001"
         x="659.88"
         style="opacity:0.4" />
      <rect
         id="rect1407"
         height="19.299999"
         width="28.6"
         y="455.07001"
         x="737.09003"
         style="opacity:0.4" />
      <rect
         id="rect1409"
         height="19.299999"
         width="28.6"
         y="455.07001"
         x="820.01001"
         style="opacity:0.4" />
      <rect
         id="rect1411"
         height="19.299999"
         width="28.6"
         y="514.04999"
         x="659.88"
         style="opacity:0.4" />
      <rect
         id="rect1413"
         height="19.299999"
         width="28.6"
         y="514.04999"
         x="737.09003"
         style="opacity:0.4" />
      <rect
         id="rect1415"
         height="19.299999"
         width="28.6"
         y="514.04999"
         x="820.01001"
         style="opacity:0.4" />
      <rect
         id="rect1417"
         height="19.299999"
         width="28.6"
         y="573.03003"
         x="659.88"
         style="opacity:0.4" />
      <rect
         id="rect1419"
         height="19.299999"
         width="28.6"
         y="573.03003"
         x="737.09003"
         style="opacity:0.4" />
      <rect
         id="rect1421"
         height="19.299999"
         width="28.6"
         y="573.03003"
         x="820.01001"
         style="opacity:0.4" />
      <path
         id="path1423"
         transform="translate(-45.11,-75.83)"
         d="m 986.28,413 a 71.62,71.62 0 0 0 -4.67,19.3 H 965.92 V 413 Z"
         inkscape:connector-curvature="0"
         style="opacity:0.4" />
      <rect
         id="rect1425"
         height="19.299999"
         width="28.6"
         y="396.10001"
         x="920.81"
         style="fill:#f50057" />
      <rect
         id="rect1427"
         height="19.299999"
         width="28.6"
         y="455.07001"
         x="920.81"
         style="opacity:0.4" />
      <rect
         id="rect1429"
         height="19.299999"
         width="28.6"
         y="514.04999"
         x="920.81"
         style="opacity:0.4" />
      <rect
         id="rect1431"
         height="19.299999"
         width="28.6"
         y="573.03003"
         x="920.81"
         style="opacity:0.4" />
      <rect
         id="rect1433"
         height="19.299999"
         width="28.6"
         y="314.60001"
         x="247.39999"
         style="opacity:0.4" />
      <rect
         id="rect1435"
         height="19.299999"
         width="28.6"
         y="357.87"
         x="247.39999"
         style="fill:#f50057" />
      <rect
         id="rect1437"
         height="19.299999"
         width="28.6"
         y="401.13"
         x="247.39999"
         style="opacity:0.4" />
      <rect
         id="rect1439"
         height="19.299999"
         width="28.6"
         y="444.39999"
         x="247.39999"
         style="opacity:0.4" />
      <rect
         id="rect1441"
         height="19.299999"
         width="28.6"
         y="487.66"
         x="247.39999"
         style="opacity:0.4" />
      <rect
         id="rect1443"
         height="19.299999"
         width="28.6"
         y="530.92999"
         x="247.39999"
         style="opacity:0.4" />
      <rect
         id="rect1445"
         height="19.299999"
         width="28.6"
         y="574.19"
         x="247.39999"
         style="opacity:0.4" />
      <rect
         id="rect1447"
         height="19.299999"
         width="28.6"
         y="427.23001"
         x="88.690002"
         style="opacity:0.4" />
      <rect
         id="rect1449"
         height="19.299999"
         width="28.6"
         y="427.23001"
         x="134.45"
         style="opacity:0.4" />
      <rect
         id="rect1451"
         height="19.299999"
         width="28.6"
         y="477.67001"
         x="88.690002"
         style="opacity:0.4" />
      <rect
         id="rect1453"
         height="19.299999"
         width="28.6"
         y="477.67001"
         x="134.45"
         style="opacity:0.4" />
      <rect
         id="rect1455"
         height="19.299999"
         width="28.6"
         y="528.10999"
         x="88.690002"
         style="opacity:0.4" />
      <rect
         id="rect1457"
         height="19.299999"
         width="28.6"
         y="528.10999"
         x="134.45"
         style="opacity:0.4" />
      <rect
         id="rect1459"
         height="17.25"
         width="142.98"
         y="446.45001"
         x="408.95999"
         style="opacity:0.4" />
      <rect
         id="rect1461"
         height="17.25"
         width="142.98"
         y="501.48999"
         x="408.95999"
         style="opacity:0.4" />
      <rect
         id="rect1463"
         height="17.25"
         width="142.98"
         y="556.53998"
         x="408.95999"
         style="opacity:0.4" />
      <path
         id="path1465"
         transform="translate(-45.11,-75.83)"
         d="m 253.46,76.52 v 604 q -6.45,-0.79 -12.86,-1.73 V 75.92 c 4.29,0.08 8.57,0.3 12.86,0.6 z"
         inkscape:connector-curvature="0"
         style="fill:#3f3d56" />
      <path
         id="path1467"
         transform="translate(-45.11,-75.83)"
         d="m 652.36,175.15 v 518.51 l -12.86,0.15 V 173.58 q 6.42,0.87 12.86,1.57 z"
         inkscape:connector-curvature="0"
         style="fill:#3f3d56" />
      <path
         id="path1469"
         transform="translate(-45.11,-75.83)"
         d="M 1137.84,559 H 45.39 a 81.22,81.22 0 0 1 2.23,-12.87 H 1122.7 a 105.88,105.88 0 0 1 15.14,12.87 z"
         inkscape:connector-curvature="0"
         style="fill:#3f3d56" />
      <path
         id="path1471"
         transform="translate(-45.11,-75.83)"
         d="m 1038.4,503.06 c 4.19,2.14 8.5,4.22 12.87,6.28 v 166.42 c -4.28,0.72 -8.58,1.37 -12.87,2 z"
         inkscape:connector-curvature="0"
         style="fill:#3f3d56" />
      <polygon
         id="polygon1473"
         points="331.97,230.25 334.43,230.25 334.43,232.71 334.87,232.71 334.87,230.25 337.33,230.25 337.33,229.81 334.87,229.81 334.87,227.35 334.43,227.35 334.43,229.81 331.97,229.81 "
         style="fill:#e7effd" />
      <polygon
         id="polygon1475"
         points="843.25,179.12 845.7,179.12 845.7,181.58 846.15,181.58 846.15,179.12 848.61,179.12 848.61,178.68 846.15,178.68 846.15,176.22 845.7,176.22 845.7,178.68 843.25,178.68 "
         style="fill:#e7effd" />
      <polygon
         id="polygon1477"
         points="390.24,169.18 392.69,169.18 392.69,171.63 393.14,171.63 393.14,169.18 395.6,169.18 395.6,168.73 393.14,168.73 393.14,166.27 392.69,166.27 392.69,168.73 390.24,168.73 "
         style="fill:#e7effd" />
      <circle
         id="circle1479"
         r="1.61"
         cy="325.95999"
         cx="391.85001"
         style="fill:#e7effd" />
      <circle
         id="circle1481"
         r="1.61"
         cy="182.12"
         cx="759.02002"
         style="fill:#e7effd" />
      <circle
         id="circle1483"
         r="1.61"
         cy="258.37"
         cx="920.81"
         style="fill:#e7effd" />
      <circle
         id="circle1485"
         r="1.61"
         cy="272.17999"
         cx="667.42999"
         style="fill:#e7effd" />
      <path
         id="path1487"
         transform="translate(-45.11,-75.83)"
         d="m 760.43,619 c 0,0 -34.31,8.3 -47.89,23.83 -4.55,5.19 -11.3,8.93 -18.27,11.6 V 631 c 7.85,-13.18 15.76,-27.84 15.76,-27.84 0.36,-0.72 3.22,-10.83 3.22,-10.83 6.44,-5.06 -0.36,-22.74 -0.36,-22.74 0,0 3.94,-11.19 1.79,-13.36 -2.15,-2.17 -0.36,-7.94 1.43,-10.47 1.79,-2.53 1.43,-5.78 1.43,-7.94 0,-2.16 -2.86,-5.42 -7.51,-7.22 -4.65,-1.8 0.36,-4.69 3.22,-5.42 2.86,-0.73 3.58,-7.58 0.36,-11.19 -3.22,-3.61 0.36,-5.77 2.14,-9.74 C 717.53,500.28 710,501 710,501 v -36.5 0 c 0,0 -2.15,-11.91 -4.29,-32.85 -2.14,-20.94 -10.37,-23.1 -10.37,-23.1 a 94.19,94.19 0 0 1 -12.87,-5.06 88.15,88.15 0 0 0 -13.58,-5.05 c 0,0 -9.65,0 -17.52,-2.42 -7.87,-2.42 -11.95,-2.59 -11.95,-2.59 l -1.29,-0.64 a 46.83,46.83 0 0 1 -21.69,-23 c -0.22,-0.5 -0.42,-1 -0.62,-1.48 a 50.48,50.48 0 0 0 5.71,-7.58 v -0.06 c 0,0.37 0,0.74 0,1.11 0,0.15 0,0.31 0,0.46 0,0.89 0,1.78 0,2.67 v 0 0.09 c 5.7,-10.07 22.24,-12.37 23.81,-23.87 a 12,12 0 0 0 0.11,-1.58 v -0.07 c 0,-0.38 0,-0.77 0,-1.16 -0.21,-3.21 -1.31,-6.41 -1.52,-9.65 a 18.53,18.53 0 0 1 0,-2.79 v 0.06 c 0.74,-8.93 7.47,-16.7 10.55,-25.37 a 30.41,30.41 0 0 0 1.61,-7.22 v -0.07 c 0.08,-0.74 0.13,-1.49 0.15,-2.24 0,-0.18 0,-0.37 0,-0.55 0,-0.52 0,-1 0,-1.56 a 33.78,33.78 0 0 0 -11.15,-24.4 c -5.7,-4.95 -13.23,-8.06 -17.18,-14.53 -1.84,-3 -2.74,-6.56 -4.75,-9.46 -3.78,-5.48 -10.72,-7.71 -17.29,-8.5 -6.57,-0.79 -13.32,-0.53 -19.6,-2.59 -4.46,-1.46 -8.5,-4.05 -13,-5.35 a 24.87,24.87 0 0 0 -26.71,9.63 c -2.37,3.46 -3.92,7.6 -7.12,10.3 -6.55,5.54 -17.66,3.14 -23.4,9.52 -3.15,3.51 -3.51,8.29 -3.13,13.17 0,0.06 0,0.12 0,0.18 0,0.37 0.07,0.75 0.11,1.13 0,0.18 0,0.36 0,0.53 0,0.17 0,0.38 0.07,0.57 0.2,1.75 0.45,3.49 0.67,5.17 0,0.26 0.06,0.51 0.09,0.77 l 0.18,1.57 c 0,0.38 0.06,0.76 0.1,1.14 0.04,0.38 0.07,1 0.1,1.42 0.03,0.42 0,0.74 0.07,1.12 a 77.16,77.16 0 0 1 -8.2,38.5 c -5.41,10.61 -13.45,20.39 -14.85,32.24 a 34.73,34.73 0 0 0 -0.16,5.85 c 0,0.23 0,0.46 0,0.69 0,0.23 0.06,0.7 0.09,1.05 0.03,0.35 0.08,0.81 0.13,1.21 0,0.23 0.06,0.46 0.09,0.69 0.07,0.53 0.15,1.06 0.24,1.6 l 0.06,0.34 c 1.42,8.08 4.64,16 6.35,24.16 a 65.34,65.34 0 0 1 1.28,9.13 0.13,0.13 0 0 0 0,0.06 c 0.06,1 0.11,1.95 0.14,2.93 0,1.32 0,2.65 0,4 a 63.46,63.46 0 0 1 -8.33,2.56 c -5,0.72 -19.67,13.72 -18.6,17 1.07,3.28 -6.56,26 -6.77,26.69 v 0 l -12,83 c 0,0 -6.37,6.14 -4.38,10.11 1.99,3.97 -0.39,10.83 -0.39,10.83 0,0 -10.76,4.69 -8.37,7.58 2.39,2.89 1.3,8.3 -0.34,11.91 -1.64,3.61 -4.33,10.11 0,11.19 4.33,1.08 0.74,15.17 0.74,15.17 0,0 15.09,-1.74 14,7.22 -0.36,2.85 10.55,10.69 15.1,13.83 V 663 c -6.11,-1.71 -13.29,-3.93 -17.87,-6.07 -9.29,-4.33 -61.48,-12.63 -72.92,12.28 -11.44,24.91 15.73,58.12 22.52,61.73 0,0 6.44,5.05 7.87,7.58 1.43,2.53 9.65,3.25 9.65,3.25 0,0 8.58,4 10.72,6.13 1.58,1.6 14.65,5.75 30.14,9 v 0 c 0,0 -12.51,28.8 7.9,26.43 20.41,-2.37 30.35,-12.42 44.74,-12.42 5.75,0 16.43,-0.81 27.18,-1.77 a 72.24,72.24 0 0 1 8,1.89 102.81,102.81 0 0 0 18.58,4 c 0,0 16.09,8.66 24.67,6.49 a 5.45,5.45 0 0 0 1.94,-1 h 0.2 c 1.56,-0.39 3.33,-2 5.17,-4.43 10.73,1.1 23,2.66 27.56,4.44 8.89,3.43 72.48,-1.32 72.48,-1.32 0,0 41.08,0.81 52.85,4.37 11.77,3.56 7.59,-36.35 -14.13,-40.84 a 89.12,89.12 0 0 0 -17.61,-1.74 39.5,39.5 0 0 0 4.11,-5 c 7.82,-0.71 13,-1.15 13,-1.15 0,0 20.73,-10.11 32.53,-16.25 a 74.22,74.22 0 0 0 20,-15.88 c 0,0 10.36,-6.5 14.65,-9 4.29,-2.5 6.43,-10.83 6.43,-10.83 C 843,609.24 760.43,619 760.43,619 Z m -93.08,-92.38 c 0,-1.21 0,-2.43 0,-3.64 1.16,0.82 0.99,2.11 0,3.63 z m 0.34,25.53 c 0.87,1.14 1.71,2.18 2.31,3 2.31,3 -1.87,4.4 -1.57,9.37 0.07,1.11 0.17,2.66 0.27,4.38 v 0 c -0.44,-7.17 -0.8,-13.07 -1.01,-16.76 z"
         inkscape:connector-curvature="0"
         style="fill:url(#528408a2-f79a-48f6-b2a6-578d2aaf4c5c)" />
      <path
         id="path1489"
         transform="translate(-45.11,-75.83)"
         d="m 481.63,666.07 c 0,0 -20,-4.65 -29.31,-8.94 -9.31,-4.29 -61.48,-12.51 -72.92,12.16 -11.44,24.67 15.73,57.54 22.52,61.12 6.79,3.58 72.92,-45.41 72.92,-45.41 l 52.16,22 10,-34.14 z"
         inkscape:connector-curvature="0"
         style="fill:#65617d" />
      <rect
         id="rect1491"
         ry="36.830002"
         rx="36.830002"
         height="78.989998"
         width="227.07001"
         y="597.03003"
         x="458.59"
         style="fill:#65617d" />
      <path
         id="path1493"
         transform="translate(-45.11,-75.83)"
         d="m 730.77,712.35 a 39.41,39.41 0 0 1 -6.58,21.84 40,40 0 0 1 -5,6.1 39.37,39.37 0 0 1 -27.93,11.57 H 543.2 a 39.5,39.5 0 0 1 0,-79 h 148.07 a 39.5,39.5 0 0 1 39.5,39.49 z"
         inkscape:connector-curvature="0"
         style="opacity:0.1" />
      <path
         id="path1495"
         transform="translate(-45.11,-75.83)"
         d="m 607.14,714.66 c 0,0 -22.77,5.85 -41.35,5.59 -18.58,-0.26 -105.49,35.85 -105.49,35.85 0,0 -12.51,28.52 7.9,26.16 20.41,-2.36 30.35,-12.26 44.74,-12.26 14.39,0 59.66,-5 59.66,-5 l 43.56,-32.18 z"
         inkscape:connector-curvature="0"
         style="fill:#fbbebe" />
      <path
         id="path1497"
         transform="translate(-45.11,-75.83)"
         d="m 621.39,445.53 -40.84,8.05 -2.65,0.53 c 0,0 -32.29,-8.58 -33.36,-9.3 -1.07,-0.72 -30.38,-40.21 -30.38,-40.21 0,0 14.82,0.16 26.46,-6.55 0.42,-0.24 0.83,-0.5 1.24,-0.75 a 25.8,25.8 0 0 0 11,-13.49 c 0.21,-0.59 0.39,-1.2 0.56,-1.84 1.24,-4.78 1.32,-10.57 -0.34,-17.58 -4,-16.67 5.2,-21.26 17.39,-20.86 17.61,0.58 41.58,11.57 41.58,11.57 a 48.87,48.87 0 0 0 3.77,16.3 c 0.19,0.48 0.4,1 0.62,1.46 a 46.54,46.54 0 0 0 21.69,22.75 l 1.29,0.64 c 1.3,0.62 2.67,1.21 4.09,1.74 31.14,11.8 -22.12,47.54 -22.12,47.54 z"
         inkscape:connector-curvature="0"
         style="fill:#fbbebe" />
      <path
         id="path1499"
         transform="translate(-45.11,-75.83)"
         d="m 616.48,372.86 a 51.51,51.51 0 0 1 -63.58,10.95 c 1.76,-5.12 2.09,-11.49 0.22,-19.42 -9.65,-40.75 59,-9.29 59,-9.29 a 49.53,49.53 0 0 0 4.36,17.76 z"
         inkscape:connector-curvature="0"
         style="opacity:0.1" />
      <path
         id="path1501"
         transform="translate(-45.11,-75.83)"
         d="m 629.37,336.66 a 51.12,51.12 0 0 1 -7.8,27.23 50.39,50.39 0 0 1 -5.71,7.51 A 51.18,51.18 0 0 1 581,388 c -1,0.07 -2.07,0.1 -3.11,0.1 a 51.47,51.47 0 1 1 51.47,-51.47 z"
         inkscape:connector-curvature="0"
         style="fill:#fbbebe" />
      <path
         id="path1503"
         transform="translate(-45.11,-75.83)"
         d="m 621.39,445.53 -40.84,8.05 -2.65,0.53 c 0,0 -32.29,-8.58 -33.36,-9.3 -1.07,-0.72 -30.38,-40.21 -30.38,-40.21 0,0 14.82,0.16 26.46,-6.55 0.42,-0.24 0.83,-0.5 1.24,-0.75 3.7,4 15.81,15.31 34.84,15.23 A 50.33,50.33 0 0 0 584,412 c 5.74,-0.88 11.53,-1.45 17.31,-2 11.07,-1.16 28,-4.52 36.89,-14.3 l 1.29,0.64 c 1.3,0.62 2.67,1.21 4.09,1.74 31.07,11.71 -22.19,47.45 -22.19,47.45 z"
         inkscape:connector-curvature="0"
         style="opacity:0.1" />
      <path
         id="path1505"
         transform="translate(-45.11,-75.83)"
         d="m 667.5,549.9 c 0.35,7.87 6.08,96.51 6.08,96.51 H 495.21 l 1.21,-55.81 1,-44.64 0.32,-14.65 1.43,-50.75 L 494,476 465.9,451.24 v 0 c 0.21,-0.66 7.83,-23.25 6.77,-26.43 -1.06,-3.18 13.59,-16.08 18.6,-16.8 a 65.12,65.12 0 0 0 8.38,-2.55 c 8.43,-3 19.68,-7.32 20.92,-6.64 1.75,0.94 19.29,-0.69 20,-0.76 v 0 c 0,0 12.94,16.73 36.06,16.63 a 49,49 0 0 0 7.27,-0.58 c 5.74,-0.88 11.53,-1.45 17.31,-2.05 11.63,-1.21 29.71,-4.86 38.18,-15.8 0,0 4.09,0.17 11.95,2.56 7.86,2.39 17.52,2.4 17.52,2.4 a 88.91,88.91 0 0 1 13.58,5 95,95 0 0 0 12.87,5 c 0,0 8.22,2.14 10.37,22.87 2.15,20.73 4.32,32.53 4.32,32.53 l -42.5,36.81 c 0,0 -0.35,38.57 0,46.47 z"
         inkscape:connector-curvature="0"
         style="fill:#f50057" />
      <polygon
         id="polygon1507"
         points="427.95,505.53 414.37,513.39 420.8,535.91 427.05,545.92 450.46,554.17 466.55,524.83 451.72,514.82 "
         style="fill:#fbbebe" />
      <path
         id="path1509"
         transform="translate(-45.11,-75.83)"
         d="m 665.71,661.06 c 0,0 33.24,-2.5 46.83,-17.87 13.59,-15.37 47.89,-23.59 47.89,-23.59 0,0 82.57,-9.65 50,63.27 0,0 -2.14,8.22 -6.43,10.72 -4.29,2.5 -14.65,8.94 -14.65,8.94 L 662.52,691.45 Z"
         inkscape:connector-curvature="0"
         style="fill:#65617d" />
      <path
         id="path1511"
         transform="translate(-45.11,-75.83)"
         d="m 730.77,712.35 a 39.41,39.41 0 0 1 -6.58,21.84 c -21.34,1.89 -68.6,6.33 -78.49,9.09 -12.15,3.37 -36.74,-2.5 -39.43,-3.16 l -0.25,-0.06 c 0,0 -4.74,-14.38 -7,-23.58 -1,-4.18 -1.53,-7.29 -0.87,-7.52 2.15,-0.71 21.81,-6.08 21.45,-3 -0.36,3.08 59,-23.06 59,-23.06 l 1.82,22.88 c 6.03,6.9 50.35,-3.36 50.35,6.57 z"
         inkscape:connector-curvature="0"
         style="opacity:0.1" />
      <path
         id="path1513"
         transform="translate(-45.11,-75.83)"
         d="m 791.89,693.23 -2.5,9.3 a 74.09,74.09 0 0 1 -20,15.72 c -11.8,6.08 -32.53,16.09 -32.53,16.09 0,0 -76.13,6.43 -89,10 -12.87,3.57 -39.68,-3.22 -39.68,-3.22 0,0 -10,-30.38 -7.86,-31.1 2.14,-0.72 21.8,-6.07 21.45,-3 -0.35,3.07 59,-23.06 59,-23.06 z"
         inkscape:connector-curvature="0"
         style="fill:#65617d" />
      <path
         id="path1515"
         transform="translate(-45.11,-75.83)"
         d="m 579.92,773.37 c 0,0 37.42,2.61 46.32,6 8.9,3.39 72.48,-1.3 72.48,-1.3 0,0 41.08,0.8 52.85,4.32 11.77,3.52 7.59,-36 -14.13,-40.43 -21.72,-4.43 -52.33,2.09 -52.33,2.09 0,0 -34.54,-4.45 -38.73,-5 -4.19,-0.55 -31.78,0.25 -31.78,0.25 z"
         inkscape:connector-curvature="0"
         style="fill:#fbbebe" />
      <path
         id="path1517"
         transform="translate(-45.11,-75.83)"
         d="m 432.87,674.72 c 0,0 49.46,4.45 63.06,12.56 z"
         inkscape:connector-curvature="0"
         style="opacity:0.1" />
      <path
         id="path1519"
         transform="translate(-45.11,-75.83)"
         d="m 741.37,642.28 c 0,0 -38.73,9.42 -53.91,23.28 z"
         inkscape:connector-curvature="0"
         style="opacity:0.1" />
      <path
         id="path1521"
         transform="translate(-45.11,-75.83)"
         d="m 435.75,663.47 c 0.79,0.26 22.77,3.14 22.24,5.23 -0.53,2.09 -22.24,-5.23 -22.24,-5.23 z"
         inkscape:connector-curvature="0"
         style="opacity:0.1" />
      <path
         id="path1523"
         transform="translate(-45.11,-75.83)"
         d="m 401.21,718.61 2.86,10.73 c 0,0 6.43,5 7.86,7.5 1.43,2.5 9.65,3.22 9.65,3.22 0,0 8.58,3.93 10.73,6.07 2.15,2.14 25.37,8.94 47.18,11.8 21.81,2.86 62.19,8.22 70.77,11.08 a 103,103 0 0 0 18.59,3.93 c 0,0 16.08,8.58 24.66,6.44 8.58,-2.14 23.23,-41.11 23.23,-41.11 0,0 -56.47,-13.22 -58.26,-17.51 -1.79,-4.29 -56.12,-24.3 -56.12,-24.3 l -32.17,0.76 z"
         inkscape:connector-curvature="0"
         style="opacity:0.1" />
      <path
         id="path1525"
         transform="translate(-45.11,-75.83)"
         d="m 399.06,719.68 2.86,10.73 c 0,0 6.44,5 7.87,7.5 1.43,2.5 9.65,3.22 9.65,3.22 0,0 8.58,3.93 10.72,6.08 2.14,2.15 25.38,8.93 47.18,11.79 21.8,2.86 62.2,8.22 70.78,11.08 A 103.32,103.32 0 0 0 566.7,774 c 0,0 16.09,8.57 24.67,6.43 8.58,-2.14 23.23,-41.11 23.23,-41.11 0,0 -56.48,-13.22 -58.26,-17.51 -1.78,-4.29 -81.5,-36.81 -81.5,-36.81 l -25,-5.72 z"
         inkscape:connector-curvature="0"
         style="fill:#65617d" />
      <path
         id="path1527"
         transform="translate(-45.11,-75.83)"
         d="m 472.15,447.67 -6.25,3.58 -12,82.21 c 0,0 -6.37,6.08 -4.38,10 1.99,3.92 -0.39,10.72 -0.39,10.72 0,0 -10.76,4.65 -8.37,7.51 2.39,2.86 1.3,8.22 -0.34,11.79 -1.64,3.57 -4.33,10 0,11.08 4.33,1.08 0.74,15 0.74,15 0,0 15.09,-1.72 14,7.14 -0.45,3.58 17.06,15 17.06,15 0,0 -19.9,-36.1 24.68,-31.1 l 3.83,-20.35 c 0,0 3.83,-11.46 0,-15 -3.83,-3.54 0.86,-20.55 0.86,-20.55 l 0.84,-73.81 z"
         inkscape:connector-curvature="0"
         style="fill:#f50057" />
      <path
         id="path1529"
         transform="translate(-45.11,-75.83)"
         d="m 462.44,553.84 c 0.79,1.31 24.86,4 26.43,8.27 1.57,4.27 -26.43,-8.27 -26.43,-8.27 z"
         inkscape:connector-curvature="0"
         style="opacity:0.1" />
      <path
         id="path1531"
         transform="translate(-45.11,-75.83)"
         d="m 454.85,574.25 c 0,0 3.27,-10.21 11,-8.38 7.73,1.83 -11,8.38 -11,8.38 z"
         inkscape:connector-curvature="0"
         style="opacity:0.1" />
      <path
         id="path1533"
         transform="translate(-45.11,-75.83)"
         d="m 450.67,589.16 c 0,0 5.75,-13.61 13.6,-12.56 7.85,1.05 -13.6,12.56 -13.6,12.56 z"
         inkscape:connector-curvature="0"
         style="opacity:0.1" />
      <path
         id="path1535"
         transform="translate(-45.11,-75.83)"
         d="m 712.54,588.86 -2.51,15 c 0,0 -25.73,47.19 -30.38,47.9 -4.65,0.71 -30,-31.45 -30,-31.45 l -6.79,-31.46 26.73,-5.07 11.87,-11.73 c 0,0 30,2.87 31.08,16.81 z"
         inkscape:connector-curvature="0"
         style="fill:#fbbebe" />
      <path
         id="path1537"
         transform="translate(-45.11,-75.83)"
         d="m 700.38,459.83 9.65,6.79 v 36.1 c 0,0 7.51,-0.72 5.72,3.22 -1.79,3.94 -5.36,6.07 -2.14,9.65 3.22,3.58 2.5,10.36 -0.36,11.08 -2.86,0.72 -7.86,3.57 -3.22,5.36 4.64,1.79 7.51,5 7.51,7.15 0,2.15 0.36,5.36 -1.43,7.86 -1.79,2.5 -3.57,8.22 -1.43,10.37 2.14,2.15 -1.79,13.22 -1.79,13.22 0,0 6.8,17.52 0.36,22.52 0,0 -2.86,10 -3.22,10.72 0,0 4.51,-34.79 -40.46,-20.08 0,0 -0.83,-13.26 -1.14,-18.17 -0.31,-4.91 3.88,-6.35 1.57,-9.28 -2.31,-2.93 -8.09,-9.66 -5.36,-11.44 2.73,-1.78 1.79,-5 0.71,-7.51 -1.08,-2.51 -4.85,-2.5 -1.43,-5.54 3.42,-3.04 5.45,-5.89 3.44,-7.32 -2.01,-1.43 -5.5,-6.09 -2.72,-8.23 2.78,-2.14 2.86,-33.24 2.86,-33.24 0,0 11.44,-45.75 32.88,-23.23 z"
         inkscape:connector-curvature="0"
         style="fill:#f50057" />
      <path
         id="path1539"
         transform="translate(-45.11,-75.83)"
         d="m 695.84,521.33 c 0,0 13.74,-3.73 14.19,0 0.45,3.73 -14.19,0 -14.19,0 z"
         inkscape:connector-curvature="0"
         style="opacity:0.1" />
      <path
         id="path1541"
         transform="translate(-45.11,-75.83)"
         d="m 680.4,531.6 c 0,0 18.84,-4.71 21.19,-1.05 2.35,3.66 -21.19,1.05 -21.19,1.05 z"
         inkscape:connector-curvature="0"
         style="opacity:0.1" />
      <path
         id="path1543"
         transform="translate(-45.11,-75.83)"
         d="m 676.21,541.54 c 0,0 28.26,-3.93 30.09,1.83 1.83,5.76 -30.09,-1.83 -30.09,-1.83 z"
         inkscape:connector-curvature="0"
         style="opacity:0.1" />
      <path
         id="path1545"
         transform="translate(-45.11,-75.83)"
         d="m 680.4,553.84 c 1.05,0.26 27.21,2.09 27.73,7.06 0.52,4.97 -27.73,-7.06 -27.73,-7.06 z"
         inkscape:connector-curvature="0"
         style="opacity:0.1" />
      <rect
         id="rect1547"
         ry="10.47"
         rx="10.47"
         height="127.27"
         width="224.08"
         y="494.12"
         x="425.09"
         style="fill:#3f3d56" />
      <circle
         id="circle1549"
         r="8.2600002"
         cy="557.76001"
         cx="537.13"
         style="fill:#e7effd" />
      <path
         id="path1551"
         transform="translate(-45.11,-75.83)"
         d="m 507.72,491.94 c 0,0 21.48,16.42 38.09,3.91 0,0 -28.08,2.55 -38.09,-3.91 z"
         inkscape:connector-curvature="0"
         style="opacity:0.1" />
      <path
         id="path1553"
         transform="translate(-45.11,-75.83)"
         d="m 616.48,496.36 c 0,0 21.47,16.41 38.08,3.9 0,0 -28.07,2.56 -38.08,-3.9 z"
         inkscape:connector-curvature="0"
         style="opacity:0.1" />
      <path
         id="path1555"
         transform="translate(-45.11,-75.83)"
         d="m 629.37,336.66 a 51.12,51.12 0 0 1 -7.8,27.23 c -0.43,-14.33 -3.8,-28.67 -11.6,-40.64 -7.14,-11 -28.85,-30.19 -43.77,-24.84 a 10.57,10.57 0 0 0 -6.52,7 c -1.48,5.62 2.85,8 5.63,12.43 a 38.11,38.11 0 0 1 5.2,25.68 35.72,35.72 0 0 1 -0.75,3.56 c -2.35,8.82 -7.73,18.91 -2.18,26.14 3.87,5 12.19,6.78 13.32,13 A 7.59,7.59 0 0 1 581,388 c -0.26,4.21 -3.85,7.92 -5.42,12.05 -1.84,4.87 -0.8,9.71 1.11,14.6 2.48,6.38 6.44,12.83 7.4,19.57 0.96,6.74 -1.11,13 -3.55,19.33 -2.31,6 -5,11.95 -5.9,18.2 -1.73,11.88 2.63,25.62 -4.85,35 a 5.24,5.24 0 0 1 -3.27,2.21 c -4.79,0.5 -4,-8.11 -7.83,-11 0.41,5 0.8,10.22 -1,14.9 -1.8,4.68 -6.54,8.66 -11.5,7.87 l -1.71,-11.23 a 32.43,32.43 0 0 1 -11.9,7.45 86.74,86.74 0 0 1 12.42,-33.6 c -12.59,6.06 -19.93,19.18 -26.48,31.52 -4.08,7.71 -8.31,16.13 -6.88,24.74 0.58,3.51 2.09,6.85 2.42,10.38 0.33,3.53 -0.95,7.66 -4.24,9 -2.87,1.17 -6.22,-0.23 -8.29,-2.57 l -0.36,-0.43 c -0.2,-0.26 -0.39,-0.53 -0.57,-0.8 a 13.43,13.43 0 0 1 -0.95,-1.7 32.89,32.89 0 0 1 -2,-6.57 l -0.22,-1 c -3.33,-14.61 -6.33,-29.68 -3.89,-44.46 0.9,-5.44 2.54,-10.84 2.34,-16.36 A 30,30 0 0 0 494,476 c -2.92,-8.18 -8.54,-15.69 -11.74,-23.93 a 0.71,0.71 0 0 1 -0.08,-0.18 c -1.68,-4.36 -2.51,-9.81 0.6,-13.31 1.6,-1.81 4,-2.72 6,-4 6.22,-4.05 9,-11.74 10.15,-19.08 a 64.88,64.88 0 0 0 0.78,-10 c 8.43,-3 19.68,-7.32 20.92,-6.64 1.75,0.94 19.29,-0.69 20,-0.76 5.34,-3.08 10,-7.61 12.28,-14.24 0.21,-0.59 0.39,-1.2 0.56,-1.84 a 51.47,51.47 0 1 1 75.91,-45.31 z"
         inkscape:connector-curvature="0"
         style="opacity:0.1" />
      <path
         id="path1557"
         transform="translate(-45.11,-75.83)"
         d="m 569.76,344.94 c -2.36,8.82 -7.73,18.91 -2.17,26.15 3.87,5 12.19,6.77 13.3,13 0.89,5 -3.52,9.12 -5.3,13.82 -4.24,11.23 6.82,22.27 8.5,34.16 1.83,12.9 -7.57,24.65 -9.44,37.54 -1.73,11.88 2.63,25.61 -4.85,35 a 5.18,5.18 0 0 1 -3.27,2.21 c -4.79,0.51 -4,-8.1 -7.83,-11 0.41,5 0.8,10.22 -1,14.9 -1.8,4.68 -6.54,8.65 -11.5,7.87 l -1.71,-11.24 a 32.39,32.39 0 0 1 -11.9,7.45 86.8,86.8 0 0 1 12.41,-33.59 c -12.59,6.06 -19.92,19.18 -26.47,31.51 -4.09,7.71 -8.31,16.14 -6.89,24.75 0.58,3.51 2.09,6.84 2.42,10.38 0.33,3.54 -0.95,7.65 -4.24,9 -3,1.25 -6.63,-0.41 -8.65,-3 -2.02,-2.59 -2.8,-5.89 -3.53,-9.08 -3.42,-14.92 -6.61,-30.32 -4.12,-45.42 0.9,-5.45 2.54,-10.85 2.34,-16.36 -0.43,-12.07 -9.34,-22 -13.68,-33.23 -1.69,-4.37 -2.51,-9.81 0.6,-13.31 1.6,-1.81 4,-2.72 6,-4 6.21,-4.06 9,-11.74 10.14,-19.08 a 66.12,66.12 0 0 0 -0.67,-23.88 c -2.51,-11.75 -8.27,-23.23 -6.84,-35.16 1.4,-11.74 9.44,-21.42 14.85,-31.93 a 75.54,75.54 0 0 0 7.66,-44.15 c -0.93,-7.05 -2.56,-15.21 2.22,-20.48 5.74,-6.32 16.85,-3.94 23.4,-9.42 3.2,-2.67 4.75,-6.78 7.12,-10.2 a 25,25 0 0 1 26.71,-9.54 c 4.5,1.29 8.54,3.85 13,5.3 6.28,2 13,1.78 19.6,2.57 6.6,0.79 13.51,3 17.29,8.41 2,2.88 2.91,6.39 4.75,9.37 3.95,6.4 11.48,9.48 17.18,14.39 a 33.34,33.34 0 0 1 9.38,35.61 c -3.4,9.47 -11.27,17.85 -10.6,27.89 0.27,4.13 2,8.18 1.46,12.27 -1.58,11.39 -18.11,13.66 -23.82,23.64 0.46,-16.36 -2.68,-33.21 -11.61,-46.92 -7.14,-11 -28.85,-30.2 -43.77,-24.85 a 10.61,10.61 0 0 0 -6.52,7 c -1.48,5.61 2.85,8 5.63,12.43 a 37.8,37.8 0 0 1 4.42,29.22 z"
         inkscape:connector-curvature="0"
         style="fill:#3f3d56" />
      <g
         id="g1585"
         style="opacity:0.2">
        <path
           id="path1559"
           transform="translate(-45.11,-75.83)"
           d="m 499.65,401.62 a 65.55,65.55 0 0 0 -1.43,-15.3 c -2.13,-10 -6.59,-19.79 -7,-29.83 -0.58,11.18 4.65,22 7,33 a 65.65,65.65 0 0 1 1.43,12.13 z"
           inkscape:connector-curvature="0" />
        <path
           id="path1561"
           transform="translate(-45.11,-75.83)"
           d="m 542.25,482.77 c 0.87,-1.59 1.77,-3.17 2.74,-4.71 -12.58,6.06 -19.92,19.18 -26.47,31.52 -3.79,7.13 -7.68,14.89 -7.1,22.83 0.48,-6.81 3.83,-13.45 7.1,-19.62 6.06,-11.41 12.8,-23.47 23.73,-30.02 z"
           inkscape:connector-curvature="0" />
        <path
           id="path1563"
           transform="translate(-45.11,-75.83)"
           d="m 514,547.44 c -0.38,2.7 -1.72,5.26 -4.18,6.27 -3,1.24 -6.63,-0.41 -8.64,-3 -2.01,-2.59 -2.81,-5.88 -3.54,-9.08 -2.44,-10.66 -4.76,-21.58 -5,-32.45 -0.24,11.93 2.3,23.95 5,35.67 0.73,3.19 1.52,6.5 3.54,9.08 2.02,2.58 5.61,4.24 8.64,3 3.29,-1.35 4.58,-5.46 4.25,-9 C 514,547.76 514,547.6 514,547.44 Z"
           inkscape:connector-curvature="0" />
        <path
           id="path1565"
           transform="translate(-45.11,-75.83)"
           d="m 570.92,334.2 a 36.29,36.29 0 0 1 -1.16,7.6 c -1.74,6.53 -5.14,13.77 -4.53,20 0.48,-5.44 3.08,-11.36 4.53,-16.81 a 36.14,36.14 0 0 0 1.16,-10.79 z"
           inkscape:connector-curvature="0" />
        <path
           id="path1567"
           transform="translate(-45.11,-75.83)"
           d="m 514.51,286.48 a 75.05,75.05 0 0 0 -0.62,-11.41 c -0.37,-2.78 -0.84,-5.74 -1,-8.63 -0.23,3.85 0.47,8 1,11.85 a 74.85,74.85 0 0 1 0.62,8.19 z"
           inkscape:connector-curvature="0" />
        <path
           id="path1569"
           transform="translate(-45.11,-75.83)"
           d="m 580.9,384.19 c 0,-0.09 0,-0.16 -0.07,-0.25 -0.76,3.72 -3.82,7.12 -5.23,10.86 a 15.23,15.23 0 0 0 -0.88,7 14.38,14.38 0 0 1 0.88,-3.78 c 1.77,-4.71 6.18,-8.87 5.3,-13.83 z"
           inkscape:connector-curvature="0" />
        <path
           id="path1571"
           transform="translate(-45.11,-75.83)"
           d="m 495.86,479.85 c -0.44,-12.07 -9.34,-22 -13.69,-33.23 a 22.78,22.78 0 0 1 -1.4,-5.5 18.58,18.58 0 0 0 1.4,8.72 c 4.28,11.08 12.94,20.83 13.64,32.63 0.05,-0.87 0.08,-1.75 0.05,-2.62 z"
           inkscape:connector-curvature="0" />
        <path
           id="path1573"
           transform="translate(-45.11,-75.83)"
           d="m 610,318 c -7.15,-11 -28.85,-30.2 -43.77,-24.85 a 10.62,10.62 0 0 0 -6.53,7 7.57,7.57 0 0 0 -0.11,3.76 c 0,-0.18 0.06,-0.36 0.11,-0.54 a 10.6,10.6 0 0 1 6.53,-7 c 14.92,-5.35 36.62,13.88 43.77,24.85 8.08,12.42 11.41,27.41 11.63,42.28 0.21,-15.95 -2.98,-32.22 -11.63,-45.5 z"
           inkscape:connector-curvature="0" />
        <path
           id="path1575"
           transform="translate(-45.11,-75.83)"
           d="m 645.4,341.25 c -1.57,11.36 -18,13.65 -23.77,23.57 0,1.09 0,2.19 0,3.28 5.7,-10 22.24,-12.25 23.81,-23.64 a 13.57,13.57 0 0 0 0,-3.37 0.86,0.86 0 0 1 -0.04,0.16 z"
           inkscape:connector-curvature="0" />
        <path
           id="path1577"
           transform="translate(-45.11,-75.83)"
           d="m 654.54,301.08 c -3.4,9.48 -11.27,17.85 -10.6,27.9 0,0.14 0,0.29 0,0.44 0.74,-8.85 7.47,-16.53 10.55,-25.12 a 31.48,31.48 0 0 0 1.75,-12.24 30.57,30.57 0 0 1 -1.7,9.02 z"
           inkscape:connector-curvature="0" />
        <path
           id="path1579"
           transform="translate(-45.11,-75.83)"
           d="m 569.8,501.49 a 5.2,5.2 0 0 1 -3.27,2.22 c -4.79,0.51 -4,-8.1 -7.83,-11 0.1,1.14 0.19,2.29 0.25,3.44 3.56,3.08 2.9,11.27 7.58,10.77 a 5.15,5.15 0 0 0 3.27,-2.21 c 4.27,-5.36 4.68,-12.13 4.57,-19.16 -0.11,5.86 -0.96,11.45 -4.57,15.94 z"
           inkscape:connector-curvature="0" />
        <path
           id="path1581"
           transform="translate(-45.11,-75.83)"
           d="m 557.69,507.61 c -1.82,4.69 -6.54,8.66 -11.51,7.87 q -0.85,-5.61 -1.7,-11.24 a 32.62,32.62 0 0 1 -11.31,7.23 c -0.22,1.14 -0.43,2.29 -0.6,3.44 a 32.42,32.42 0 0 0 11.91,-7.45 q 0.85,5.63 1.7,11.24 c 5,0.78 9.69,-3.18 11.51,-7.87 a 25.62,25.62 0 0 0 1.31,-10.17 21.63,21.63 0 0 1 -1.31,6.95 z"
           inkscape:connector-curvature="0" />
        <path
           id="path1583"
           transform="translate(-45.11,-75.83)"
           d="m 574.65,466.49 a 57.13,57.13 0 0 0 -0.43,9.11 45.61,45.61 0 0 1 0.43,-5.89 c 1.79,-12.29 10.4,-23.54 9.62,-35.73 -0.69,11.02 -7.99,21.31 -9.62,32.51 z"
           inkscape:connector-curvature="0" />
      </g>
      <path
         id="path1587"
         transform="translate(-45.11,-75.83)"
         d="m 872,637 c 0,0 -6.79,31.63 23.43,35.38 l 1.87,-3.51 c 0,0 -23.4,-22 -25.3,-31.87 z"
         inkscape:connector-curvature="0"
         style="fill:#f50057" />
      <path
         id="path1589"
         transform="translate(-45.11,-75.83)"
         d="m 906.94,668.66 -7,1.49 -0.7,0.15 c 0,0 -18.75,-15.22 -18.51,-49.2 a 85,85 0 0 0 8.95,14.17 c 7.41,9.83 15.86,22.96 17.26,33.39 z"
         inkscape:connector-curvature="0"
         style="fill:#f50057" />
      <path
         id="path1591"
         transform="translate(-45.11,-75.83)"
         d="m 909.32,671.92 a 4.43,4.43 0 0 1 -3.78,0.49 c -18,-4.22 -11.95,-63 -11.95,-63 1,0.47 2.09,8 6.24,17.6 7.28,16.99 15.28,40.65 9.49,44.91 z"
         inkscape:connector-curvature="0"
         style="fill:#f50057" />
      <path
         id="path1593"
         transform="translate(-45.11,-75.83)"
         d="m 949.34,637 c 0,0 1.17,31.63 -29.05,35.38 l -1.87,-3.51 c 0,0 29.05,-22 30.92,-31.87 z"
         inkscape:connector-curvature="0"
         style="fill:#f50057" />
      <path
         id="path1595"
         transform="translate(-45.11,-75.83)"
         d="m 940.68,621.1 c 0.22,34 -24.14,49.2 -24.14,49.2 l -0.7,-0.15 -7,-1.49 c 1.39,-10.43 9.86,-23.56 17.28,-33.39 a 76,76 0 0 1 14.56,-14.17 z"
         inkscape:connector-curvature="0"
         style="fill:#f50057" />
      <path
         id="path1597"
         transform="translate(-45.11,-75.83)"
         d="m 915.73,668.84 a 11.18,11.18 0 0 1 -4,3.08 v 0 a 7.69,7.69 0 0 1 -1.47,0.49 c -4.44,1 -6,-2.16 -5.74,-7.6 0.42,-9.69 6.51,-26.49 12,-39 3.94,-9.06 10.37,-15.92 11.33,-16.37 -0.06,-0.05 -0.33,45.74 -12.12,59.4 z"
         inkscape:connector-curvature="0"
         style="fill:#f50057" />
      <path
         id="path1599"
         transform="translate(-45.11,-75.83)"
         d="m 910.69,588.77 c 0,0 -20.15,71.46 -2.81,82.24 17.34,10.78 7.26,-75.91 2.81,-82.24 z"
         inkscape:connector-curvature="0"
         style="fill:#f50057" />
      <path
         id="path1601"
         transform="translate(-45.11,-75.83)"
         d="m 872,637 c 0,0 -6.79,31.63 23.43,35.38 l 1.87,-3.51 c 0,0 -23.4,-22 -25.3,-31.87 z"
         inkscape:connector-curvature="0"
         style="opacity:0.1" />
      <path
         id="path1603"
         transform="translate(-45.11,-75.83)"
         d="m 906.94,668.66 -7,1.49 -0.7,0.15 c 0,0 -18.75,-15.22 -18.51,-49.2 a 85,85 0 0 0 8.95,14.17 c 7.41,9.83 15.86,22.96 17.26,33.39 z"
         inkscape:connector-curvature="0"
         style="opacity:0.1" />
      <path
         id="path1605"
         transform="translate(-45.11,-75.83)"
         d="m 909.32,671.92 a 4.43,4.43 0 0 1 -3.78,0.49 c -18,-4.22 -11.95,-63 -11.95,-63 1,0.47 2.09,8 6.24,17.6 7.28,16.99 15.28,40.65 9.49,44.91 z"
         inkscape:connector-curvature="0"
         style="opacity:0.1" />
      <path
         id="path1607"
         transform="translate(-45.11,-75.83)"
         d="m 949.34,637 c 0,0 1.17,31.63 -29.05,35.38 l -1.87,-3.51 c 0,0 29.05,-22 30.92,-31.87 z"
         inkscape:connector-curvature="0"
         style="opacity:0.1" />
      <path
         id="path1609"
         transform="translate(-45.11,-75.83)"
         d="m 940.68,621.1 c 0.22,34 -24.14,49.2 -24.14,49.2 l -0.7,-0.15 -7,-1.49 c 1.39,-10.43 9.86,-23.56 17.28,-33.39 a 76,76 0 0 1 14.56,-14.17 z"
         inkscape:connector-curvature="0"
         style="opacity:0.1" />
      <path
         id="path1611"
         transform="translate(-45.11,-75.83)"
         d="m 915.73,668.84 a 11.18,11.18 0 0 1 -4,3.08 v 0 a 7.69,7.69 0 0 1 -1.47,0.49 c -4.44,1 -6,-2.16 -5.74,-7.6 0.42,-9.69 6.51,-26.49 12,-39 3.94,-9.06 10.37,-15.92 11.33,-16.37 -0.06,-0.05 -0.33,45.74 -12.12,59.4 z"
         inkscape:connector-curvature="0"
         style="opacity:0.1" />
      <path
         id="path1613"
         transform="translate(-45.11,-75.83)"
         d="m 910.69,588.77 c 0,0 -20.15,71.46 -2.81,82.24 17.34,10.78 7.26,-75.91 2.81,-82.24 z"
         inkscape:connector-curvature="0"
         style="opacity:0.1" />
      <path
         id="path1615"
         transform="translate(-45.11,-75.83)"
         d="m 872,637 c 0,0 -4,31.63 26.24,35.38 l 1.87,-3.51 c 0,0 -26.21,-22 -28.11,-31.87 z"
         inkscape:connector-curvature="0"
         style="fill:#f50057" />
      <path
         id="path1617"
         transform="translate(-45.11,-75.83)"
         d="m 909.75,668.66 -7,1.49 -0.71,0.15 c 0,0 -21.56,-15.22 -21.32,-49.2 0,0 5.52,5.92 11.76,14.17 7.42,9.83 15.87,22.96 17.27,33.39 z"
         inkscape:connector-curvature="0"
         style="fill:#f50057" />
      <path
         id="path1619"
         transform="translate(-45.11,-75.83)"
         d="m 909.75,668.66 -7,1.49 c -6.67,-5.85 -9.31,-21.12 -10.27,-34.88 7.42,9.83 15.87,22.96 17.27,33.39 z"
         inkscape:connector-curvature="0"
         style="opacity:0.1" />
      <path
         id="path1621"
         transform="translate(-45.11,-75.83)"
         d="m 912.13,671.92 a 4.43,4.43 0 0 1 -3.78,0.49 c -18.05,-4.22 -14.76,-63 -14.76,-63 1,0.47 4.9,8 9,17.6 7.33,16.99 15.33,40.65 9.54,44.91 z"
         inkscape:connector-curvature="0"
         style="fill:#f50057" />
      <path
         id="path1623"
         transform="translate(-45.11,-75.83)"
         d="m 949.34,637 c 0,0 4,31.63 -26.24,35.38 l -1.87,-3.51 c 0,0 26.24,-22 28.11,-31.87 z"
         inkscape:connector-curvature="0"
         style="fill:#f50057" />
      <path
         id="path1625"
         transform="translate(-45.11,-75.83)"
         d="m 940.68,621.1 c 0.22,34 -21.33,49.2 -21.33,49.2 l -0.7,-0.15 -7,-1.49 c 1.4,-10.43 9.86,-23.56 17.28,-33.39 6.22,-8.27 11.75,-14.17 11.75,-14.17 z"
         inkscape:connector-curvature="0"
         style="fill:#f50057" />
      <path
         id="path1627"
         transform="translate(-45.11,-75.83)"
         d="m 928.9,635.27 c -0.9,12.84 -3.25,27 -8.95,33.57 a 11.5,11.5 0 0 1 -1.3,1.31 l -7,-1.49 c 1.35,-10.43 9.83,-23.56 17.25,-33.39 z"
         inkscape:connector-curvature="0"
         style="opacity:0.1" />
      <path
         id="path1629"
         transform="translate(-45.11,-75.83)"
         d="m 918.54,668.84 a 11.18,11.18 0 0 1 -4,3.08 v 0 a 7.78,7.78 0 0 1 -1.48,0.49 c -4.44,1 -6,-2.16 -5.74,-7.6 0.43,-9.69 6.51,-26.49 12,-39 3.94,-9.06 7.56,-15.92 8.52,-16.37 -0.05,-0.05 2.49,45.74 -9.3,59.4 z"
         inkscape:connector-curvature="0"
         style="fill:#f50057" />
      <path
         id="path1631"
         transform="translate(-45.11,-75.83)"
         d="m 912.13,671.92 a 5,5 0 0 1 -2.85,-0.91 c -8.49,-5.29 -8.66,-25.14 -6.64,-44 7.28,16.99 15.28,40.65 9.49,44.91 z"
         inkscape:connector-curvature="0"
         style="opacity:0.1" />
      <path
         id="path1633"
         transform="translate(-45.11,-75.83)"
         d="m 918.54,668.84 c -1,2.11 -2.29,3.23 -4,3.08 v 0 a 5.74,5.74 0 0 1 -2.42,-0.91 12.88,12.88 0 0 1 -4.8,-6.2 c 0.43,-9.69 6.51,-26.49 12,-39 1.9,17.39 2.55,35.88 -0.78,43.03 z"
         inkscape:connector-curvature="0"
         style="opacity:0.1" />
      <path
         id="path1635"
         transform="translate(-45.11,-75.83)"
         d="m 910.69,588.77 c 0,0 -17.34,71.46 0,82.24 17.34,10.78 4.45,-75.91 0,-82.24 z"
         inkscape:connector-curvature="0"
         style="fill:#f50057" />
      <polygon
         id="polygon1637"
         points="826.69,603.61 837.7,603.61 837.97,605.02 842.38,628.21 884.33,628.21 888.74,605.02 889.01,603.61 898.85,603.61 898.85,591.66 826.69,591.66 "
         style="fill:#d4dfec" />
      <polygon
         id="polygon1639"
         points="826.66,603.61 837.67,603.61 837.94,605.02 842.35,628.21 884.3,628.21 888.71,605.02 888.98,603.61 898.82,603.61 898.82,591.66 826.66,591.66 "
         style="opacity:0.1" />
      <polygon
         id="polygon1641"
         points="892.76,598.69 891.55,605.02 887.14,628.21 845.19,628.21 840.78,605.02 839.57,598.69 "
         style="fill:#d4dfec" />
      <polygon
         id="polygon1643"
         points="840.78,605.02 839.57,598.69 892.76,598.69 891.55,605.02 "
         style="opacity:0.1" />
      <rect
         id="rect1645"
         height="11.95"
         width="72.160004"
         y="591.65997"
         x="829.5"
         style="fill:#d4dfec" />
      <path
         id="path1647"
         transform="translate(-45.11,-75.83)"
         d="m 330.73,591 a 18.45,18.45 0 0 0 -2.44,4.6 c -0.15,0.4 -0.3,0.86 -0.45,1.3 a 3.55,3.55 0 0 0 -0.85,-0.29 11.81,11.81 0 0 0 -3.82,-0.33 c 0,-0.5 0.05,-1 0.07,-1.57 0.16,-5.66 -0.51,-13.53 -5.9,-10.2 -5.17,3.22 -1.48,8.56 1.86,12 0.29,0.3 0.57,0.57 0.85,0.84 -3,2.19 -3.62,7.22 -4.13,12.49 -0.51,5.27 -5,11 -7.94,14.3 -0.29,0.33 -0.57,0.63 -0.84,0.91 a 10.78,10.78 0 0 0 -8.62,-2.22 l -0.4,-1.46 c -2.4,-8.67 -7.39,-23.69 -13.75,-27 l 0.84,-1.06 c 2.7,-3.54 5.74,-8.79 1.25,-10.13 -4.49,-1.34 -4.9,4.55 -4.65,9 0,0.55 0.08,1.08 0.13,1.57 a 6.63,6.63 0 0 0 -4.71,2.29 c -0.21,-0.26 -0.44,-0.53 -0.69,-0.82 -3.64,-4.31 -10.33,-11.12 -12.35,-6 -1.88,4.8 4,11 8.14,14.66 l 0.26,0.22 c -2.78,11.28 9.34,20.46 15.88,24.48 0.29,0.19 0.57,0.36 0.84,0.52 -9,10.61 -14.57,30.51 -14.57,30.51 L 300,664.2 c 0,0 16.73,-14.43 14.59,-28 h 0.17 c 16.71,-3.35 20.51,-21.17 17.91,-31.75 l 0.29,-0.12 a 19,19 0 0 0 7.74,-5.85 c 4.64,-6.48 -5.17,-13.83 -9.97,-7.48 z"
         inkscape:connector-curvature="0"
         style="fill:#f50057" />
      <path
         id="path1649"
         transform="translate(-45.11,-75.83)"
         d="m 330.73,591 a 18.45,18.45 0 0 0 -2.44,4.6 c -0.15,0.4 -0.3,0.86 -0.45,1.3 a 3.55,3.55 0 0 0 -0.85,-0.29 11.81,11.81 0 0 0 -3.82,-0.33 c 0,-0.5 0.05,-1 0.07,-1.57 0.16,-5.66 -0.51,-13.53 -5.9,-10.2 -5.17,3.22 -1.48,8.56 1.86,12 0.29,0.3 0.57,0.57 0.85,0.84 -3,2.19 -3.62,7.22 -4.13,12.49 -0.51,5.27 -5,11 -7.94,14.3 -0.29,0.33 -0.57,0.63 -0.84,0.91 a 10.78,10.78 0 0 0 -8.62,-2.22 l -0.4,-1.46 c -2.4,-8.67 -7.39,-23.69 -13.75,-27 l 0.84,-1.06 c 2.7,-3.54 5.74,-8.79 1.25,-10.13 -4.49,-1.34 -4.9,4.55 -4.65,9 0,0.55 0.08,1.08 0.13,1.57 a 6.63,6.63 0 0 0 -4.71,2.29 c -0.21,-0.26 -0.44,-0.53 -0.69,-0.82 -3.64,-4.31 -10.33,-11.12 -12.35,-6 -1.88,4.8 4,11 8.14,14.66 l 0.26,0.22 c -2.78,11.28 9.34,20.46 15.88,24.48 0.29,0.19 0.57,0.36 0.84,0.52 -9,10.61 -14.57,30.51 -14.57,30.51 L 300,664.2 c 0,0 16.73,-14.43 14.59,-28 h 0.17 c 16.71,-3.35 20.51,-21.17 17.91,-31.75 l 0.29,-0.12 a 19,19 0 0 0 7.74,-5.85 c 4.64,-6.48 -5.17,-13.83 -9.97,-7.48 z"
         inkscape:connector-curvature="0"
         style="opacity:0.1" />
      <path
         id="path1651"
         transform="translate(-45.11,-75.83)"
         d="m 280.53,598.3 -2.95,8.64 c 0,0 -1.64,-1.16 -3.71,-3 -4.14,-3.62 -10,-9.86 -8.14,-14.66 2,-5.16 8.71,1.65 12.36,6 1.46,1.72 2.44,3.02 2.44,3.02 z"
         inkscape:connector-curvature="0"
         style="fill:#f50057" />
      <path
         id="path1653"
         transform="translate(-45.11,-75.83)"
         d="m 286.75,593.38 a 42.7,42.7 0 0 1 -2.87,3.38 44.25,44.25 0 0 1 -0.53,-4.54 c -0.24,-4.42 0.22,-10.29 4.65,-9 4.43,1.29 1.45,6.62 -1.25,10.16 z"
         inkscape:connector-curvature="0"
         style="fill:#f50057" />
      <path
         id="path1655"
         transform="translate(-45.11,-75.83)"
         d="m 324.79,594.74 c -0.1,2.84 -0.37,5.11 -0.37,5.11 a 37.54,37.54 0 0 1 -3.68,-3.29 c -3.34,-3.46 -7,-8.8 -1.85,-12 5.39,-3.35 6.05,4.52 5.9,10.18 z"
         inkscape:connector-curvature="0"
         style="fill:#f50057" />
      <path
         id="path1657"
         transform="translate(-45.11,-75.83)"
         d="m 342.21,598.46 a 19,19 0 0 1 -7.74,5.85 20.9,20.9 0 0 1 -2.6,0.94 l -3.47,-4.88 a 35,35 0 0 1 1.44,-4.74 18.13,18.13 0 0 1 2.44,-4.6 c 4.8,-6.38 14.6,0.97 9.93,7.43 z"
         inkscape:connector-curvature="0"
         style="fill:#f50057" />
      <path
         id="path1659"
         transform="translate(-45.11,-75.83)"
         d="m 278.09,595.26 c 1.46,1.72 2.44,3 2.44,3 l -2.95,8.64 c 0,0 -1.64,-1.16 -3.71,-3 a 16.92,16.92 0 0 1 3.32,-7.59 q 0.45,-0.54 0.9,-1.05 z"
         inkscape:connector-curvature="0"
         style="opacity:0.1" />
      <path
         id="path1661"
         transform="translate(-45.11,-75.83)"
         d="m 286.75,593.38 a 42.7,42.7 0 0 1 -2.87,3.38 44.25,44.25 0 0 1 -0.53,-4.54 5.86,5.86 0 0 1 3.4,1.16 z"
         inkscape:connector-curvature="0"
         style="opacity:0.1" />
      <path
         id="path1663"
         transform="translate(-45.11,-75.83)"
         d="m 301.25,627.64 -7.33,3.23 a 43.9,43.9 0 0 1 -3.91,-2.21 c -7.71,-4.74 -23.21,-16.67 -12.82,-30.74 10.39,-14.07 19.06,11.16 22.47,23.5 1.04,3.69 1.59,6.22 1.59,6.22 z"
         inkscape:connector-curvature="0"
         style="fill:#f50057" />
      <path
         id="path1665"
         transform="translate(-45.11,-75.83)"
         d="m 320.74,596.56 a 6,6 0 0 1 4.05,-1.82 c -0.1,2.84 -0.37,5.11 -0.37,5.11 a 37.54,37.54 0 0 1 -3.68,-3.29 z"
         inkscape:connector-curvature="0"
         style="opacity:0.1" />
      <path
         id="path1667"
         transform="translate(-45.11,-75.83)"
         d="m 334.47,604.31 a 20.9,20.9 0 0 1 -2.6,0.94 l -3.47,-4.88 a 35,35 0 0 1 1.44,-4.74 c 2.24,1.31 3.89,4.57 4.63,8.68 z"
         inkscape:connector-curvature="0"
         style="opacity:0.1" />
      <path
         id="path1669"
         transform="translate(-45.11,-75.83)"
         d="m 316.26,636.18 c -0.4,0.08 -0.82,0.16 -1.23,0.22 -24.59,3.74 -8.11,-9.53 -8.11,-9.53 0,0 1.11,-1 2.61,-2.68 3,-3.28 7.43,-9 7.94,-14.3 0.77,-8 1.66,-15.45 11.07,-13.25 9.23,2.16 10.99,34.88 -12.28,39.54 z"
         inkscape:connector-curvature="0"
         style="fill:#f50057" />
      <rect
         id="rect1671"
         height="12.35"
         width="46.98"
         y="621.57001"
         x="223.72"
         style="fill:#d4dfec" />
      <rect
         id="rect1673"
         height="43.110001"
         width="61.380001"
         y="581.41998"
         x="216.25"
         style="fill:#d4dfec" />
      <rect
         id="rect1675"
         height="12.35"
         width="46.98"
         y="621.57001"
         x="223.72"
         style="opacity:0.1" />
      <rect
         id="rect1677"
         height="43.110001"
         width="61.380001"
         y="581.41998"
         x="216.25"
         style="opacity:0.1" />
      <rect
         id="rect1679"
         height="12.35"
         width="46.98"
         y="621.57001"
         x="226.8"
         style="fill:#d4dfec" />
      <path
         id="path1681"
         transform="translate(-45.11,-75.83)"
         d="m 299.66,621.42 c 1,3.69 1.59,6.22 1.59,6.22 l -7.33,3.23 a 43.9,43.9 0 0 1 -3.91,-2.21 c 2.87,-3.66 6.11,-6.39 9.65,-7.24 z"
         inkscape:connector-curvature="0"
         style="opacity:0.1" />
      <path
         id="path1683"
         transform="translate(-45.11,-75.83)"
         d="m 316.26,636.18 c -0.4,0.08 -0.82,0.16 -1.23,0.22 -24.59,3.74 -8.11,-9.53 -8.11,-9.53 0,0 1.11,-1 2.61,-2.68 4.59,3.67 6.47,7.81 6.73,11.99 z"
         inkscape:connector-curvature="0"
         style="opacity:0.1" />
      <path
         id="path1685"
         transform="translate(-45.11,-75.83)"
         d="m 276.29,659.69 c 0,0 13.77,-49.28 33.07,-34.1 19.3,15.18 -7.85,38.61 -7.85,38.61 z"
         inkscape:connector-curvature="0"
         style="fill:#f50057" />
      <circle
         id="circle1687"
         r="1.54"
         cy="529.82001"
         cx="238.13"
         style="opacity:0.1" />
      <circle
         id="circle1689"
         r="1.54"
         cy="537.02002"
         cx="238"
         style="opacity:0.1" />
      <circle
         id="circle1691"
         r="1.54"
         cy="531.22998"
         cx="282.78"
         style="opacity:0.1" />
      <circle
         id="circle1693"
         r="1.54"
         cy="568.15997"
         cx="246.75"
         style="opacity:0.1" />
      <circle
         id="circle1695"
         r="1.54"
         cy="543.20001"
         cx="279.57001"
         style="opacity:0.1" />
      <circle
         id="circle1697"
         r="1.54"
         cy="559.15997"
         cx="263.60999"
         style="opacity:0.1" />
      <circle
         id="circle1699"
         r="1.54"
         cy="532.90002"
         cx="243.41"
         style="opacity:0.1" />
      <circle
         id="circle1701"
         r="1.54"
         cy="535.85999"
         cx="278.54001"
         style="opacity:0.1" />
      <circle
         id="circle1703"
         r="1.54"
         cy="547.83002"
         cx="273.26001"
         style="opacity:0.1" />
      <circle
         id="circle1705"
         r="1.54"
         cy="567.01001"
         cx="257.04999"
         style="opacity:0.1" />
      <circle
         id="circle1707"
         r="1.54"
         cy="559.40997"
         cx="253.7"
         style="opacity:0.1" />
      <circle
         id="circle1709"
         r="1.54"
         cy="542.29999"
         cx="245.72"
         style="opacity:0.1" />
      <rect
         id="rect1711"
         height="4.5100002"
         width="46.98"
         y="621.57001"
         x="226.8"
         style="opacity:0.1" />
      <rect
         id="rect1713"
         height="43.110001"
         width="61.380001"
         y="581.41998"
         x="219.34"
         style="fill:#d4dfec" />
      <circle
         id="circle1715"
         r="1.54"
         cy="573.96002"
         cx="259.10999"
         style="opacity:0.1" />
      <circle
         id="circle1717"
         r="1.54"
         cy="575.89001"
         cx="249.84"
         style="opacity:0.1" />
    </g>
  </g>
  <g
     inkscape:groupmode="layer"
     id="layer2"
     inkscape:label="Layer 2"
     style="display:inline"
     transform="translate(79.771317,73.547206)" />
</svg>
