<?xml version="1.0" encoding="UTF-8" standalone="no"?>
<svg
   xmlns:dc="http://purl.org/dc/elements/1.1/"
   xmlns:cc="http://creativecommons.org/ns#"
   xmlns:rdf="http://www.w3.org/1999/02/22-rdf-syntax-ns#"
   xmlns:svg="http://www.w3.org/2000/svg"
   xmlns="http://www.w3.org/2000/svg"
   xmlns:xlink="http://www.w3.org/1999/xlink"
   id="svg12961"
   version="1.1"
   viewBox="0 0 249.48564 175.12835"
   height="175.12836mm"
   width="249.48564mm">
  <defs
     id="defs12955">
    <linearGradient
       gradientUnits="userSpaceOnUse"
       y2="75.830002"
       x2="600"
       y1="694.20001"
       x1="600"
       id="4673c98d-e8c8-4911-bde5-090ef44e1581">
      <stop
         id="stop1339"
         stop-opacity="0.4"
         stop-color="gray"
         offset="0.2" />
      <stop
         id="stop1341"
         stop-opacity="0.5"
         stop-color="gray"
         offset="0.46" />
      <stop
         id="stop1343"
         stop-opacity="0.6"
         offset="1" />
    </linearGradient>
    <linearGradient
       gradientUnits="userSpaceOnUse"
       y2="223.2"
       x2="597.34998"
       y1="783.63"
       x1="597.34998"
       id="528408a2-f79a-48f6-b2a6-578d2aaf4c5c">
      <stop
         id="stop1346"
         stop-opacity="0.25"
         stop-color="gray"
         offset="0" />
      <stop
         id="stop1348"
         stop-opacity="0.12"
         stop-color="gray"
         offset="0.54" />
      <stop
         id="stop1350"
         stop-opacity="0.1"
         stop-color="gray"
         offset="1" />
    </linearGradient>
    <linearGradient
       id="eab5defd-bb13-45ae-a86e-22d39d3e2cea"
       x1="600"
       y1="803.52002"
       x2="600"
       y2="630.46002"
       gradientUnits="userSpaceOnUse">
      <stop
         offset="0"
         stop-color="gray"
         stop-opacity="0.25"
         id="stop13588" />
      <stop
         offset="0.54"
         stop-color="gray"
         stop-opacity="0.12"
         id="stop13590" />
      <stop
         offset="1"
         stop-color="gray"
         stop-opacity="0.1"
         id="stop13592" />
    </linearGradient>
    <linearGradient
       gradientTransform="matrix(0.26458333,0,0,0.26458333,129.92775,206.10083)"
       id="666c504c-cd42-41b9-a03e-d98f4dda3eb5"
       x1="199.25999"
       y1="162.3"
       x2="199.25999"
       y2="0"
       xlink:href="#eab5defd-bb13-45ae-a86e-22d39d3e2cea" />
    <linearGradient
       id="8e152b24-383a-4e7d-b315-0bee7e3d74a2"
       x1="2855.02"
       y1="635.26001"
       x2="2855.02"
       y2="635.21997"
       gradientTransform="matrix(-0.26458333,0,0,0.26458333,787.48617,91.770126)"
       xlink:href="#eab5defd-bb13-45ae-a86e-22d39d3e2cea" />
    <linearGradient
       id="8f2a7dfd-1602-45be-be61-6ebd6ab5a03b"
       x1="2849.78"
       y1="664.28003"
       x2="2849.78"
       y2="634.40997"
       gradientTransform="matrix(-0.26458333,0,0,0.26458333,787.48617,91.770126)"
       xlink:href="#eab5defd-bb13-45ae-a86e-22d39d3e2cea" />
    <linearGradient
       id="6fa74df0-cae9-46f9-9ace-4bf5394eec23"
       x1="902.46997"
       y1="538.96002"
       x2="902.46997"
       y2="500.17001"
       gradientTransform="rotate(0.13,41963.117,-69459.299)"
       gradientUnits="userSpaceOnUse">
      <stop
         offset="0"
         stop-opacity="0.12"
         id="stop13598" />
      <stop
         offset="0.55"
         stop-opacity="0.09"
         id="stop13600" />
      <stop
         offset="1"
         stop-opacity="0.02"
         id="stop13602" />
    </linearGradient>
    <linearGradient
       gradientTransform="matrix(0.26458333,0,0,0.26458333,-129.55965,91.770126)"
       id="1fbefcf2-1d0d-411f-b7ef-97a6712cae01"
       x1="910.63"
       y1="452.78"
       x2="910.63"
       y2="204.14"
       xlink:href="#eab5defd-bb13-45ae-a86e-22d39d3e2cea" />
  </defs>
  <metadata
     id="metadata12958">
    <rdf:RDF>
      <cc:Work
         rdf:about="">
        <dc:format>image/svg+xml</dc:format>
        <dc:type
           rdf:resource="http://purl.org/dc/dcmitype/StillImage" />
        <dc:title></dc:title>
      </cc:Work>
    </rdf:RDF>
  </metadata>
  <g
     transform="translate(14.478885,-193.40902)"
     id="layer1">
    <g
       id="g15296">
      <rect
         style="fill:#f2f2f2;stroke-width:0.26458332"
         x="169.95895"
         y="252.36859"
         width="53.144207"
         height="5.7388124"
         rx="2.6352501"
         ry="2.6352501"
         id="rect13610" />
      <rect
         style="fill:#f2f2f2;stroke-width:0.26458332"
         x="181.86255"
         y="257.25809"
         width="53.144207"
         height="5.7388124"
         rx="2.6352501"
         ry="2.6352501"
         id="rect13612" />
      <rect
         style="fill:#f2f2f2;stroke-width:0.26458332"
         x="161.6669"
         y="261.50995"
         width="53.144207"
         height="5.7388124"
         rx="2.6352501"
         ry="2.6352501"
         id="rect13614" />
      <rect
         style="fill:#f2f2f2;stroke-width:0.26458332"
         x="-3.8044851"
         y="193.92513"
         width="53.144207"
         height="5.7388124"
         rx="2.6352501"
         ry="2.6352501"
         id="rect13616" />
      <rect
         style="fill:#f2f2f2;stroke-width:0.26458332"
         x="8.099124"
         y="198.81462"
         width="53.144207"
         height="5.7388124"
         rx="2.6352501"
         ry="2.6352501"
         id="rect13618" />
      <rect
         style="fill:#f2f2f2;stroke-width:0.26458332"
         x="-12.096526"
         y="203.06383"
         width="53.144207"
         height="5.7388124"
         rx="2.6352501"
         ry="2.6352501"
         id="rect13620" />
      <rect
         style="fill:#f2f2f2;stroke-width:0.26458332"
         x="61.243328"
         y="204.55344"
         width="53.144207"
         height="5.7388124"
         rx="2.6352501"
         ry="2.6352501"
         id="rect13630" />
      <rect
         style="fill:#f2f2f2;stroke-width:0.26458332"
         x="73.149582"
         y="209.44293"
         width="53.144207"
         height="5.7388124"
         rx="2.6352501"
         ry="2.6352501"
         id="rect13632" />
      <rect
         style="fill:#f2f2f2;stroke-width:0.26458332"
         x="52.953934"
         y="213.69479"
         width="53.144207"
         height="5.7388124"
         rx="2.6352501"
         ry="2.6352501"
         id="rect13634" />
      <circle
         id="circle13636"
         r="21.470938"
         cy="227.57176"
         cx="182.64862"
         style="fill:url(#666c504c-cd42-41b9-a03e-d98f4dda3eb5);stroke-width:0.26458332" />
      <circle
         style="fill:#fccc63;stroke-width:0.26458332"
         cx="182.64862"
         cy="227.57176"
         r="19.132019"
         id="circle13640" />
      <path
         style="fill:#e6e6e6;stroke-width:0.26458332"
         d="m 220.38504,294.30907 a 26.082498,26.082498 0 1 0 -50.06462,10.26832 c -0.0255,-0.0284 -0.0519,-0.0559 -0.0772,-0.0844 a 26.105379,26.105379 0 0 0 4.75041,7.35087 c 0.006,0.007 0.012,0.0129 0.018,0.0194 0.16023,0.17463 0.32138,0.34835 0.48625,0.51856 a 26.003289,26.003289 0 0 0 18.39631,8.00458 l -0.88135,47.87085 h 2.7229 l -0.55109,-31.59532 3.93879,-2.0737 -0.60086,-1.14128 -3.36311,1.77059 -0.25873,-14.83354 a 26.08214,26.08214 0 0 0 25.48438,-26.07492 z"
         id="path14613" />
      <path
         style="fill:#e6e6e6;stroke-width:0.26458332"
         d="M 142.97124,281.59653 A 30.566381,30.566381 0 1 0 84.299936,293.6301 c -0.0299,-0.0332 -0.06077,-0.0656 -0.09052,-0.0989 a 30.593191,30.593191 0 0 0 5.567052,8.61457 c 0.007,0.008 0.0141,0.0151 0.02106,0.0228 0.187778,0.20465 0.376629,0.40823 0.569844,0.6077 a 30.473544,30.473544 0 0 0 21.558848,9.38066 l -1.03286,56.1004 h 3.19099 l -0.64582,-37.02692 4.61592,-2.4302 -0.70415,-1.33748 -3.94127,2.07498 -0.30322,-17.38359 a 30.565963,30.565963 0 0 0 29.86542,-30.55751 z"
         id="path14615" />
      <path
         style="fill:#e6e6e6;stroke-width:0.26458332"
         d="m 55.175032,269.63909 a 34.783929,34.783929 0 1 0 -66.766783,13.69395 c -0.03402,-0.0378 -0.06916,-0.0746 -0.103005,-0.11258 a 34.814356,34.814356 0 0 0 6.3351831,9.80321 c 0.00791,0.009 0.016034,0.0172 0.023971,0.0259 0.2136855,0.23289 0.4285959,0.46456 0.64847,0.69155 a 34.678302,34.678302 0 0 0 24.5335349,10.67501 l -1.175378,63.84111 h 3.631288 l -0.734926,-42.13589 5.252805,-2.7655 -0.801309,-1.52204 -4.485092,2.3613 -0.345049,-19.78218 a 34.783447,34.783447 0 0 0 33.98629,-34.77384 z"
         id="path14617" />
      <circle
         style="fill:#2cfa6d;stroke-width:0.26458332"
         cx="50.49189"
         cy="238.99982"
         r="45.590801"
         id="circle14621" />
      <path
         style="opacity:0.2;stroke-width:0.26458332"
         d="M 16.829113,208.54874 A 45.594357,45.594357 0 0 0 92.796866,256.80071 45.59473,45.59473 0 1 1 16.829113,208.54874 Z"
         id="path14623" />
      <polygon
         style="fill:#3f3d56"
         points="246.506,187.616 255.027,676.148 237.038,676.148 246.032,187.616 "
         id="polygon14625"
         transform="matrix(0.26458333,0,0,0.26458333,-14.478885,189.35968)" />
      <rect
         style="fill:#3f3d56;stroke-width:0.26458332"
         x="298.97345"
         y="92.005119"
         width="2.2544909"
         height="8.516964"
         transform="rotate(62.23413)"
         id="rect14627" />
      <path
         style="fill:#3f3d56;stroke-width:0.26458332"
         d="m 120.22452,367.04816 c 0,0 0.16448,-3.44666 3.53653,-3.04603"
         id="path14629" />
      <circle
         style="fill:#2cfa6d;stroke-width:0.26458332"
         cx="119.27173"
         cy="362.08054"
         r="1.6876819"
         id="circle14631" />
      <rect
         style="fill:#3f3d56;stroke-width:0.26458332"
         x="118.99712"
         y="364.92252"
         width="0.47639287"
         height="3.3347476"
         id="rect14633" />
      <path
         style="fill:#3f3d56;stroke-width:0.26458332"
         d="m 3.2701299,366.57176 c 0,0 0.1644888,-3.44666 3.5365293,-3.04603"
         id="path14635" />
      <circle
         style="fill:#2cfa6d;stroke-width:0.26458332"
         cx="2.3173442"
         cy="361.60416"
         r="1.6876819"
         id="circle14637" />
      <rect
         style="fill:#3f3d56;stroke-width:0.26458332"
         x="2.0427322"
         y="364.44611"
         width="0.47639287"
         height="3.3347476"
         id="rect14639" />
      <path
         style="fill:#3f3d56;stroke-width:0.26458332"
         d="m 30.9009,366.80996 c 0,0 0.164492,-3.44667 3.536532,-3.04604"
         id="path14641" />
      <circle
         style="fill:#2cfa6d;stroke-width:0.26458332"
         cx="29.948118"
         cy="361.84235"
         r="1.6876819"
         id="circle14643" />
      <rect
         style="fill:#3f3d56;stroke-width:0.26458332"
         x="29.673506"
         y="364.68433"
         width="0.47639287"
         height="3.3347476"
         id="rect14645" />
      <path
         style="fill:#3f3d56;stroke-width:0.26458332"
         d="m 104.3834,211.39908 3.3853,-2.70759 c -2.62989,-0.29015 -3.71046,1.14414 -4.15269,2.27938 -2.05458,-0.85313 -4.291233,0.26495 -4.291233,0.26495 l 6.773363,2.45897 a 5.1255347,5.1255347 0 0 0 -1.71474,-2.29571 z"
         id="path14647" />
      <path
         style="fill:#3f3d56;stroke-width:0.26458332"
         d="m 155.86701,238.97959 3.3853,-2.7076 c -2.62989,-0.29014 -3.71047,1.14414 -4.1527,2.27939 -2.05458,-0.85314 -4.29123,0.26494 -4.29123,0.26494 l 6.77336,2.45897 a 5.1255718,5.1255718 0 0 0 -1.71473,-2.2957 z"
         id="path14649" />
      <path
         style="fill:#3f3d56;stroke-width:0.26458332"
         d="m 100.33826,262.51494 3.3853,-2.70759 c -2.62989,-0.29015 -3.71046,1.14414 -4.152694,2.27939 -2.054577,-0.85314 -4.291227,0.26494 -4.291227,0.26494 l 6.773361,2.45897 a 5.1255718,5.1255718 0 0 0 -1.71474,-2.29571 z"
         id="path14651" />
      <path
         style="fill:#ffb9b9;stroke-width:0.26458332"
         d="m 80.57409,352.84021 c 0,0 2.651434,7.76492 1.515104,10.60574 l 3.40899,3.03021 2.083271,-2.65143 c 0,0 -2.27266,-2.27266 -2.083271,-3.97716 0.189389,-1.70449 0.378775,-7.76492 0.378775,-7.76492 z"
         id="path14653" />
      <path
         style="fill:#2f2e41;stroke-width:0.26458332"
         d="m 93.262056,367.99023 c -0.154831,0.0905 -0.302514,0.17626 -0.438287,0.25487 h -11.75498 a 0.62039764,0.62039764 0 0 1 -0.304885,-0.63361 c 0.05477,-0.28107 0.195308,-0.85273 0.369203,-1.51015 0.412072,-1.55543 1.017087,-3.59201 1.148106,-3.37526 a 0.00233098,0.00233098 0 0 1 0.0024,0.002 c 0.183415,0.33826 0.562155,1.85318 1.510171,1.665 0.948017,-0.19056 2.462955,-0.56928 2.462955,-0.56928 0,0 -0.54071,-1.21481 -0.02384,-1.70551 a 0.72445562,0.72445562 0 0 1 0.402552,-0.18817 c 1.136201,-0.18817 1.136201,1.51493 1.136201,1.51493 l 4.166052,2.2724 a 6.9201373,6.9201373 0 0 1 1.048068,0.38349 c 0.845584,0.39541 1.681657,1.0719 0.276291,1.88891 z"
         id="path14655" />
      <path
         style="fill:#ffb9b9;stroke-width:0.26458332"
         d="m 72.998558,349.99938 -4.924094,5.87104 -1.325719,3.03021 1.704497,1.32572 1.515104,-0.56816 c 0,0 1.325719,-3.40899 2.651437,-3.97716 1.325719,-0.56816 4.545325,-4.35593 4.545325,-4.35593 z"
         id="path14657" />
      <path
         style="fill:#2f2e41;stroke-width:0.26458332"
         d="m 83.320219,345.49383 -2.51129,4.65517 -1.799188,3.33324 c -0.575734,0.34279 -1.342761,0.3371 -2.168499,0.13446 a 8.3054506,8.3054506 0 0 1 -1.128747,-0.37688 c -2.25372,-0.92233 -4.539641,-2.75371 -4.539641,-2.75371 l 4.325644,-5.40514 1.412827,-1.76321 0.335227,-0.42044 1.615488,0.69127 2.85029,1.21776 z"
         id="path14659" />
      <path
         style="fill:#ffb9b9;stroke-width:0.26458332"
         d="m 72.112416,305.296 -2.006023,8.22862 2.064861,10.55681 c 0,0 0.05086,4.31551 1.943068,3.98802 1.892205,-0.3275 -0.09079,-4.67988 -0.09079,-4.67988 l -0.925555,-8.65603 2.959209,-8.55171 a 1.5712943,1.5712943 0 0 0 -0.75733,-1.86043 v 0 c -1.171684,-0.71561 -2.836783,-0.20648 -3.187438,0.9746 z"
         id="path14661" />
      <path
         style="fill:#ffb9b9;stroke-width:0.26458332"
         d="m 79.153677,298.2017 -1.704494,5.30287 -3.219601,-1.7045 c 0,0 1.325719,-3.78777 1.325719,-4.35593 0,-0.56815 3.598376,0.75756 3.598376,0.75756 z"
         id="path14663" />
      <circle
         style="fill:#ffb9b9;stroke-width:0.26458332"
         cx="77.827957"
         cy="296.30783"
         r="3.9771531"
         id="circle14665" />
      <path
         style="fill:#e3d75d;fill-opacity:1;stroke-width:0.26458332"
         d="m 78.869594,304.73559 -0.757542,-0.75755 -0.189389,-0.94694 c 0,0 -2.462046,-3.2196 -4.545317,-2.08327 -0.651023,0.3551 -1.135591,1.17258 -1.49416,2.12876 a 10.341171,10.341171 0 0 0 0.237874,7.69204 l 3.339557,7.7923 7.575529,-0.75755 -1.325716,-4.9241 c 0,0 1.325716,-3.03021 -1.13633,-5.11348 z"
         id="path14667" />
      <path
         style="opacity:0.3;stroke-width:0.26458332"
         d="m 83.320219,345.49383 -2.51129,4.65517 -1.799188,3.33324 c -0.575734,0.34279 -1.342761,0.3371 -2.168499,0.13446 -0.143933,-0.95831 0.715894,-6.02255 0.03978,-10.15121 l 0.0303,-0.14773 0.335228,-0.42044 1.615487,0.69127 2.85029,1.21776 z"
         id="path14669" />
      <path
         style="fill:#2f2e41;stroke-width:0.26458332"
         d="m 83.320219,317.32991 c 0,0 -4.924095,-3.03021 -8.333084,0.75755 l 0.189389,1.13633 c 0,0 -2.840832,3.21961 -1.13633,10.03758 1.704501,6.81798 4.35593,24.62047 4.35593,24.62047 0,0 6.249813,0.37878 9.090636,-1.70449 0,0 -0.946943,-23.48415 -4.166541,-25.7568 z"
         id="path14671" />
      <path
         style="fill:#ffb9b9;stroke-width:0.26458332"
         d="m 73.052441,306.78166 5.343683,6.5711 9.6588,4.7347 c 0,0 3.469037,2.56749 4.351636,0.862 0.8826,-1.70549 -3.78347,-2.75588 -3.78347,-2.75588 l -7.455863,-4.49372 -5.025067,-7.52579 a 1.5712943,1.5712943 0 0 0 -1.939925,-0.52093 v 0 c -1.27825,0.50105 -1.878885,2.13537 -1.149794,3.12852 z"
         id="path14673" />
      <path
         style="fill:#2f2e41;stroke-width:0.26458332"
         d="m 69.512078,359.24212 c 0,0 1.16087,-1.45999 1.854337,-0.5401 0.693468,0.9199 -0.817771,1.70823 -0.817771,1.70823 l -0.08796,4.74525 c 0,0 0.824675,3.62835 -1.401839,2.22651 -2.226514,-1.40184 -2.314104,-1.56976 -2.752064,-2.40933 -0.437959,-0.83958 -1.342958,-4.21242 -2.124016,-5.30024 -0.781058,-1.08781 -1.496335,-3.27798 -0.569167,-3.54803 0.927169,-0.27004 5.248908,-1.23149 5.0336,-0.91122 -0.215307,0.32026 -1.383442,1.35682 -0.777568,2.10881 0.605875,0.75198 1.642444,1.92012 1.642444,1.92012 z"
         id="path14675" />
      <path
         style="fill:#2f2e41;stroke-width:0.26458332"
         d="m 79.910861,292.91331 c 0,-0.005 2.65e-4,-0.01 2.65e-4,-0.0145 a 5.4922605,5.4922605 0 1 0 -5.492258,5.49226 c 0.127593,0 0.632135,0.9555 0.757552,0.94694 0.0075,-2.8991 1.882889,-6.23006 4.734338,-6.42472 z"
         id="path14677" />
      <circle
         style="fill:#2f2e41;stroke-width:0.26458332"
         cx="68.547935"
         cy="288.7323"
         r="3.5983756"
         id="circle14679" />
      <path
         style="fill:#2f2e41;stroke-width:0.26458332"
         d="m 68.38286,283.28135 a 3.593412,3.593412 0 0 1 1.026602,7.04364 3.5957906,3.5957906 0 1 0 -1.026602,-7.04364 z"
         id="path14681" />
      <path
         style="fill:#2f2e41;stroke-width:0.26458332"
         d="m 76.881017,291.7625 h 1.893887 a 3.4089842,3.4089842 0 0 1 3.408984,3.40899 v 0 h -5.302871 z"
         id="path14683" />
      <path
         style="fill:#3f3d56;stroke-width:0.26458332"
         d="m 166.4049,368.29918 c 0,0 0.16449,-3.44666 3.53653,-3.04603"
         id="path14685" />
      <path
         style="fill:#3f3d56;stroke-width:0.26458332"
         d="m 134.72479,368.29918 c 0,0 0.16449,-3.44666 3.53653,-3.04603"
         id="path14687" />
      <path
         style="fill:#3f3d56;stroke-width:0.26458332"
         d="m 19.199584,368.29918 c 0,0 0.164488,-3.44666 3.536529,-3.04603"
         id="path14689" />
      <path
         style="fill:#3f3d56;stroke-width:0.26458332"
         d="m 180.69668,368.29918 c 0,0 0.16449,-3.44666 3.53653,-3.04603"
         id="path14691" />
      <path
         style="fill:#3f3d56;stroke-width:0.26458332"
         d="m 174.02718,368.29918 c 0,0 0.16449,-3.44666 3.53653,-3.04603"
         id="path14693" />
      <path
         style="fill:#3f3d56;stroke-width:0.26458332"
         d="m 160.26916,368.29918 c 0,0 -0.16449,-3.44666 -3.53653,-3.04603"
         id="path14695" />
      <path
         style="fill:#3f3d56;stroke-width:0.26458332"
         d="m 105.48401,368.29918 c 0,0 -0.16449,-3.44666 -3.53653,-3.04603"
         id="path14697" />
      <path
         style="fill:#3f3d56;stroke-width:0.26458332"
         d="m 59.988514,368.29918 c 0,0 -0.164488,-3.44666 -3.536529,-3.04603"
         id="path14699" />
      <path
         style="fill:#3f3d56;stroke-width:0.26458332"
         d="m 11.634665,368.29918 c 0,0 -0.164492,-3.44666 -3.5365296,-3.04603"
         id="path14701" />
      <path
         style="fill:#3f3d56;stroke-width:0.26458332"
         d="m 195.04582,368.29918 c 0,0 -0.16449,-3.44666 -3.53653,-3.04603"
         id="path14703" />
      <path
         style="fill:#3f3d56;stroke-width:0.26458332"
         d="m 174.56094,368.53738 c 0,0 -0.16449,-3.44666 -3.53653,-3.04603"
         id="path14705" />
      <rect
         style="fill:#3f3d56;stroke-width:0.26458332"
         x="-14.478885"
         y="367.84851"
         width="234.95"
         height="0.52916664"
         id="rect14707" />
    </g>
  </g>
</svg>
