<?xml version="1.0" encoding="UTF-8" standalone="no"?>
<!-- Created with Inkscape (http://www.inkscape.org/) -->

<svg
   xmlns:dc="http://purl.org/dc/elements/1.1/"
   xmlns:cc="http://creativecommons.org/ns#"
   xmlns:rdf="http://www.w3.org/1999/02/22-rdf-syntax-ns#"
   xmlns:svg="http://www.w3.org/2000/svg"
   xmlns="http://www.w3.org/2000/svg"
   xmlns:xlink="http://www.w3.org/1999/xlink"
   xmlns:sodipodi="http://sodipodi.sourceforge.net/DTD/sodipodi-0.dtd"
   xmlns:inkscape="http://www.inkscape.org/namespaces/inkscape"
   width="234.95mm"
   height="179.1777mm"
   viewBox="0 0 234.95 179.1777"
   version="1.1"
   id="svg7439"
   style="enable-background:new"
   inkscape:version="0.92.4 (5da689c313, 2019-01-14)"
   sodipodi:docname="drawing-1.svg">
  <defs
     id="defs7433">
    <inkscape:perspective
       sodipodi:type="inkscape:persp3d"
       inkscape:vp_x="0 : 104.32142 : 1"
       inkscape:vp_y="0 : 999.9999 : 0"
       inkscape:vp_z="232.07739 : 104.32142 : 1"
       inkscape:persp3d-origin="116.0387 : 69.547611 : 1"
       id="perspective8029" />
    <linearGradient
       gradientUnits="userSpaceOnUse"
       y2="75.830002"
       x2="600"
       y1="694.20001"
       x1="600"
       id="4673c98d-e8c8-4911-bde5-090ef44e1581">
      <stop
         id="stop1339"
         stop-opacity="0.4"
         stop-color="gray"
         offset="0.2" />
      <stop
         id="stop1341"
         stop-opacity="0.5"
         stop-color="gray"
         offset="0.46" />
      <stop
         id="stop1343"
         stop-opacity="0.6"
         offset="1" />
    </linearGradient>
    <linearGradient
       gradientUnits="userSpaceOnUse"
       y2="223.2"
       x2="597.34998"
       y1="783.63"
       x1="597.34998"
       id="528408a2-f79a-48f6-b2a6-578d2aaf4c5c">
      <stop
         id="stop1346"
         stop-opacity="0.25"
         stop-color="gray"
         offset="0" />
      <stop
         id="stop1348"
         stop-opacity="0.12"
         stop-color="gray"
         offset="0.54" />
      <stop
         id="stop1350"
         stop-opacity="0.1"
         stop-color="gray"
         offset="1" />
    </linearGradient>
    <linearGradient
       gradientUnits="userSpaceOnUse"
       y2="199.61685"
       x2="278.97311"
       y1="470.29514"
       x1="278.97311"
       id="a3c4672e-2259-4d6c-8c24-5949363a8af1">
      <stop
         id="stop4852"
         stop-opacity="0.25"
         stop-color="gray"
         offset="0" />
      <stop
         id="stop4854"
         stop-opacity="0.12"
         stop-color="gray"
         offset="0.53514" />
      <stop
         id="stop4856"
         stop-opacity="0.1"
         stop-color="gray"
         offset="1" />
    </linearGradient>
    <linearGradient
       xlink:href="#a3c4672e-2259-4d6c-8c24-5949363a8af1"
       y2="0"
       x2="191.7952"
       y1="163.03871"
       x1="191.7952"
       id="acf699b8-10e6-407b-86e3-0f7f8fa4bdb6" />
    <linearGradient
       xlink:href="#a3c4672e-2259-4d6c-8c24-5949363a8af1"
       y2="0.87558001"
       x2="563.67303"
       y1="215.46739"
       x1="563.67303"
       id="b28a1e8f-be05-408d-a6f5-6fd2e5b0337f" />
    <linearGradient
       xlink:href="#a3c4672e-2259-4d6c-8c24-5949363a8af1"
       y2="255.70335"
       x2="639.8775"
       y1="470.29514"
       x1="639.8775"
       id="f1fc4b36-2829-4464-83b0-fd2af5b19fd6" />
    <linearGradient
       xlink:href="#a3c4672e-2259-4d6c-8c24-5949363a8af1"
       gradientTransform="matrix(-1,0,0,1,1039.5847,-85)"
       y2="650.04346"
       x2="453.7012"
       y1="780.90234"
       x1="453.7012"
       id="bb60ebe1-81e2-422a-a970-aa43062904da" />
    <linearGradient
       xlink:href="#a3c4672e-2259-4d6c-8c24-5949363a8af1"
       gradientTransform="matrix(-1,0,0,1,1039.5847,-85)"
       y2="650.04346"
       x2="488.73431"
       y1="780.90234"
       x1="488.73431"
       id="a1b2f907-b002-48c8-973d-a12b277f13d1" />
    <linearGradient
       xlink:href="#a3c4672e-2259-4d6c-8c24-5949363a8af1"
       y2="566.04346"
       x2="235.31857"
       y1="696.90234"
       x1="235.31857"
       id="a8136d5f-4c26-4562-977f-ea29024932d1" />
    <linearGradient
       xlink:href="#a3c4672e-2259-4d6c-8c24-5949363a8af1"
       y2="566.04346"
       x2="270.35168"
       y1="696.90234"
       x1="270.35168"
       id="eaaf4b84-3353-429f-a894-84d4b3cd89b7" />
    <linearGradient
       xlink:href="#a3c4672e-2259-4d6c-8c24-5949363a8af1"
       y2="561.94403"
       x2="319.81015"
       y1="696.88013"
       x1="319.81015"
       id="fa1ca12c-a5d3-4b88-b665-ae3e1db189da" />
    <linearGradient
       xlink:href="#b10df757-55e5-4d99-9006-dc7249c3a778"
       y2="9.6832504"
       x2="138.37538"
       y1="143.68324"
       x1="138.37538"
       id="b5786f2b-186c-4311-b51e-a01aadf48633" />
    <linearGradient
       gradientUnits="userSpaceOnUse"
       y2="191.49162"
       x2="401.19867"
       y1="238.81186"
       x1="401.19867"
       id="b10df757-55e5-4d99-9006-dc7249c3a778">
      <stop
         id="stop3654"
         stop-opacity="0.25"
         stop-color="gray"
         offset="0" />
      <stop
         id="stop3656"
         stop-opacity="0.12"
         stop-color="gray"
         offset="0.53514" />
      <stop
         id="stop3658"
         stop-opacity="0.1"
         stop-color="gray"
         offset="1" />
    </linearGradient>
    <linearGradient
       xlink:href="#b10df757-55e5-4d99-9006-dc7249c3a778"
       y2="124.89013"
       x2="819.19867"
       y1="155.41336"
       x1="819.19867"
       id="a8bee007-5617-4059-9c68-754326cfe534" />
    <linearGradient
       xlink:href="#b10df757-55e5-4d99-9006-dc7249c3a778"
       y2="144.89014"
       x2="548.19867"
       y1="175.41336"
       x1="548.19867"
       id="b7455b34-8431-4804-9964-905371e7992b" />
    <linearGradient
       gradientUnits="userSpaceOnUse"
       y2="227.75999"
       x2="336.95001"
       y1="227.75999"
       x1="335.59"
       id="bc196d5e-e6db-431f-8e4d-c46ceaa79599">
      <stop
         id="stop5210"
         stop-opacity="0.25"
         stop-color="gray"
         offset="0" />
      <stop
         id="stop5212"
         stop-opacity="0.12"
         stop-color="gray"
         offset="0.54" />
      <stop
         id="stop5214"
         stop-opacity="0.1"
         stop-color="gray"
         offset="1" />
    </linearGradient>
    <linearGradient
       xlink:href="#bc196d5e-e6db-431f-8e4d-c46ceaa79599"
       y2="228.28999"
       x2="344.66"
       y1="228.28999"
       x1="336.95001"
       id="f896ccf3-93a4-4918-87f1-59b3ca8c3ed3" />
    <linearGradient
       xlink:href="#bc196d5e-e6db-431f-8e4d-c46ceaa79599"
       y2="588.16998"
       x2="460.73001"
       y1="588.16998"
       x1="458.41"
       id="c21cd8c1-ce7b-4f09-a7b6-09df42e9ccdb" />
  </defs>
  <sodipodi:namedview
     id="base"
     pagecolor="#ffffff"
     bordercolor="#666666"
     borderopacity="1.0"
     inkscape:pageopacity="0.0"
     inkscape:pageshadow="2"
     inkscape:zoom="0.37384826"
     inkscape:cx="59.444043"
     inkscape:cy="191.48504"
     inkscape:document-units="mm"
     inkscape:current-layer="layer1"
     showgrid="false"
     inkscape:window-width="958"
     inkscape:window-height="476"
     inkscape:window-x="952"
     inkscape:window-y="0"
     inkscape:window-maximized="0" />
  <metadata
     id="metadata7436">
    <rdf:RDF>
      <cc:Work
         rdf:about="">
        <dc:format>image/svg+xml</dc:format>
        <dc:type
           rdf:resource="http://purl.org/dc/dcmitype/StillImage" />
        <dc:title></dc:title>
      </cc:Work>
    </rdf:RDF>
  </metadata>
  <g
     inkscape:label="Layer 1"
     inkscape:groupmode="layer"
     id="layer1"
     transform="translate(88.998767,-56.694268)">
    <g
       id="g3497"
       transform="matrix(0.26458333,0,0,0.26458333,-88.998767,56.694268)">
      <path
         id="path3346"
         transform="translate(-156,-111.39647)"
         d="M 1043.6747,508.0556 A 98.57952,98.57952 0 1 0 854.45407,546.865 c -0.0964,-0.10719 -0.196,-0.21147 -0.29192,-0.31907 a 98.666,98.666 0 0 0 17.95428,27.78281 c 0.0224,0.0247 0.0454,0.0487 0.0679,0.0734 0.6056,0.66 1.21467,1.3166 1.8378,1.9599 a 98.28015,98.28015 0 0 0 69.52936,30.25355 l -3.33109,180.92918 h 10.29127 l -2.08284,-119.41539 14.88675,-7.83759 -2.27095,-4.31351 -12.711,6.692 -0.97788,-56.06376 a 98.57817,98.57817 0 0 0 96.31895,-98.5509 z"
         inkscape:connector-curvature="0"
         style="fill:#e6e6e6" />
      <path
         id="path3348"
         transform="translate(-156,-111.39647)"
         d="m 751.08711,460.00819 a 115.52648,115.52648 0 1 0 -221.74983,45.4812 c -0.113,-0.12561 -0.22968,-0.24782 -0.34211,-0.37392 a 115.62781,115.62781 0 0 0 21.04083,32.559 c 0.0263,0.0289 0.0533,0.0571 0.0796,0.086 0.70971,0.7735 1.42348,1.54294 2.15374,2.29683 a 115.1756,115.1756 0 0 0 81.48225,35.45448 l -3.90373,212.033 h 12.06045 l -2.44091,-139.94427 17.446,-9.185 -2.66136,-5.05506 -14.89615,7.84247 -1.146,-65.70176 A 115.5249,115.5249 0 0 0 751.08711,460.00819 Z"
         inkscape:connector-curvature="0"
         style="fill:#e6e6e6" />
      <path
         id="path3350"
         transform="translate(-156,-111.39647)"
         d="M 419.2589,414.81471 A 131.46682,131.46682 0 1 0 166.912,466.5714 c -0.12856,-0.14294 -0.26138,-0.282 -0.38931,-0.42552 a 131.58182,131.58182 0 0 0 23.944,37.05149 c 0.0299,0.0329 0.0606,0.065 0.0906,0.0979 0.80763,0.88023 1.61989,1.75584 2.45091,2.61375 a 131.0676,131.0676 0 0 0 92.72517,40.34649 L 281.291,787.54475 h 13.72455 L 292.23788,628.291 312.091,617.83868 l -3.02857,-5.75256 -16.95153,8.92457 -1.30412,-74.76729 A 131.465,131.465 0 0 0 419.2589,414.81471 Z"
         inkscape:connector-curvature="0"
         style="fill:#e6e6e6" />
      <circle
         id="circle3352"
         r="85.975739"
         cy="85.975739"
         cx="756.68549"
         style="fill:#ff6584" />
      <circle
         id="circle3354"
         r="172.31169"
         cy="187.61627"
         cx="245.55884"
         style="fill:#2cfa6d" />
      <path
         id="path3356"
         transform="translate(-156,-111.39647)"
         d="M 274.32944,183.92206 A 172.32513,172.32513 0 0 0 561.45166,366.29171 172.32654,172.32654 0 1 1 274.32944,183.92206 Z"
         inkscape:connector-curvature="0"
         style="opacity:0.2" />
      <polygon
         id="polygon3358"
         points="255.027,676.148 237.038,676.148 246.032,187.616 246.506,187.616 "
         style="fill:#3f3d56" />
      <rect
         id="rect3360"
         transform="rotate(62.23413,431.45037,383.92822)"
         height="32.190102"
         width="8.5209103"
         y="552.74646"
         x="412.92004"
         style="fill:#3f3d56" />
      <path
         id="path3362"
         transform="translate(-156,-111.39647)"
         d="m 665.11522,782.975 c 0,0 0.62169,-13.02675 13.36641,-11.51257"
         inkscape:connector-curvature="0"
         style="fill:#3f3d56" />
      <circle
         id="circle3364"
         r="6.3786402"
         cy="652.80328"
         cx="505.51413"
         style="fill:#2cfa6d" />
      <rect
         id="rect3366"
         height="12.60377"
         width="1.80054"
         y="663.54456"
         x="504.47623"
         style="fill:#3f3d56" />
      <path
         id="path3368"
         transform="translate(-156,-111.39647)"
         d="m 223.08289,781.17442 c 0,0 0.62169,-13.02675 13.36641,-11.51256"
         inkscape:connector-curvature="0"
         style="fill:#3f3d56" />
      <circle
         id="circle3370"
         r="6.3786402"
         cy="651.00275"
         cx="63.481812"
         style="fill:#2cfa6d" />
      <rect
         id="rect3372"
         height="12.60377"
         width="1.80054"
         y="661.74402"
         x="62.443909"
         style="fill:#3f3d56" />
      <path
         id="path3374"
         transform="translate(-156,-111.39647)"
         d="m 327.51415,782.07469 c 0,0 0.6217,-13.02675 13.36642,-11.51256"
         inkscape:connector-curvature="0"
         style="fill:#3f3d56" />
      <circle
         id="circle3376"
         r="6.3786402"
         cy="651.90302"
         cx="167.91309"
         style="fill:#2cfa6d" />
      <rect
         id="rect3378"
         height="12.60377"
         width="1.80054"
         y="662.64429"
         x="166.87518"
         style="fill:#3f3d56" />
      <path
         id="path3380"
         transform="translate(-156,-111.39647)"
         d="m 605.24329,194.695 12.79484,-10.23342 c -9.93974,-1.09662 -14.02379,4.3243 -15.69523,8.615 -7.76533,-3.22445 -16.21882,1.00136 -16.21882,1.00136 l 25.6001,9.29374 a 19.3721,19.3721 0 0 0 -6.48089,-8.67668 z"
         inkscape:connector-curvature="0"
         style="fill:#3f3d56" />
      <path
         id="path3382"
         transform="translate(-156,-111.39647)"
         d="m 799.827,298.93628 12.79483,-10.23342 c -9.93974,-1.09662 -14.02379,4.3243 -15.69523,8.615 -7.76533,-3.22445 -16.21881,1.00135 -16.21881,1.00135 l 25.6001,9.29375 a 19.37224,19.37224 0 0 0 -6.48089,-8.67668 z"
         inkscape:connector-curvature="0"
         style="fill:#3f3d56" />
      <path
         id="path3384"
         transform="translate(-156,-111.39647)"
         d="m 589.95458,387.88881 12.79483,-10.23342 c -9.93974,-1.09662 -14.02379,4.3243 -15.69523,8.615 -7.76533,-3.22445 -16.21881,1.00136 -16.21881,1.00136 l 25.6001,9.29374 a 19.37224,19.37224 0 0 0 -6.48089,-8.67668 z"
         inkscape:connector-curvature="0"
         style="fill:#3f3d56" />
      <path
         id="path3386"
         transform="translate(-156,-111.39647)"
         d="m 515.25534,729.27564 c 0,0 10.02117,29.34773 5.72638,40.0847 l 12.88437,11.45277 7.87378,-10.02118 c 0,0 -8.58958,-8.58957 -7.87378,-15.03176 0.7158,-6.44219 1.43159,-29.34772 1.43159,-29.34772 z"
         inkscape:connector-curvature="0"
         style="fill:#ffb9b9" />
      <path
         id="path3388"
         transform="translate(-156,-111.39647)"
         d="m 563.20986,786.53557 c -0.58519,0.34211 -1.14336,0.66619 -1.65652,0.9633 h -44.42827 a 2.34481,2.34481 0 0 1 -1.15232,-2.39475 c 0.207,-1.06231 0.73817,-3.22293 1.39541,-5.70768 1.55744,-5.87878 3.84411,-13.57608 4.3393,-12.75686 a 0.00881,0.00881 0 0 1 0.009,0.009 c 0.69322,1.27843 2.12468,7.00413 5.70773,6.29288 3.58306,-0.72021 9.30881,-2.1516 9.30881,-2.1516 0,0 -2.04363,-4.59141 -0.0901,-6.446 a 2.7381,2.7381 0 0 1 1.52146,-0.7112 c 4.2943,-0.71119 4.2943,5.7257 4.2943,5.7257 l 15.74571,8.58861 a 26.15485,26.15485 0 0 1 3.9612,1.44942 c 3.19591,1.49447 6.35587,4.05126 1.04425,7.13918 z"
         inkscape:connector-curvature="0"
         style="fill:#2f2e41" />
      <path
         id="path3390"
         transform="translate(-156,-111.39647)"
         d="m 486.62341,718.53867 -18.61075,22.18974 -5.01059,11.45277 6.44219,5.01059 5.72638,-2.14739 c 0,0 5.01059,-12.88437 10.02118,-15.03176 5.01059,-2.14739 17.17918,-16.46336 17.17918,-16.46336 z"
         inkscape:connector-curvature="0"
         style="fill:#ffb9b9" />
      <path
         id="path3392"
         transform="translate(-156,-111.39647)"
         d="m 525.63441,701.50981 -9.49149,17.59433 -6.80008,12.59807 c -2.176,1.29559 -5.075,1.2741 -8.1959,0.50819 a 31.39068,31.39068 0 0 1 -4.26613,-1.42443 c -8.518,-3.48594 -17.1577,-10.40769 -17.1577,-10.40769 l 16.34889,-20.42891 5.33982,-6.66408 1.267,-1.58905 6.10578,2.61264 10.77275,4.60258 z"
         inkscape:connector-curvature="0"
         style="fill:#2f2e41" />
      <path
         id="path3394"
         transform="translate(-156,-111.39647)"
         d="m 483.27421,549.581 -7.58182,31.1003 7.8042,39.89975 c 0,0 0.19224,16.31058 7.34388,15.07281 7.15164,-1.23777 -0.34315,-17.68773 -0.34315,-17.68773 l -3.49816,-32.71568 11.18441,-32.32145 a 5.93875,5.93875 0 0 0 -2.86235,-7.03152 v 0 c -4.42841,-2.70467 -10.7217,-0.7804 -12.04701,3.68352 z"
         inkscape:connector-curvature="0"
         style="fill:#ffb9b9" />
      <path
         id="path3396"
         transform="translate(-156,-111.39647)"
         d="m 509.88685,522.76789 -6.44218,20.04234 -12.16857,-6.44218 c 0,0 5.01059,-14.316 5.01059,-16.46336 0,-2.14736 13.60016,2.8632 13.60016,2.8632 z"
         inkscape:connector-curvature="0"
         style="fill:#ffb9b9" />
      <circle
         id="circle3398"
         r="15.03176"
         cy="404.21344"
         cx="348.87625"
         style="fill:#ffb9b9" />
      <path
         id="path3400"
         transform="translate(-156,-111.39647)"
         d="m 508.81315,547.46292 -2.86315,-2.86319 -0.7158,-3.579 c 0,0 -9.30537,-12.16857 -17.17915,-7.87378 -2.46056,1.34212 -4.292,4.4318 -5.64722,8.04574 a 39.08474,39.08474 0 0 0 0.89905,29.07228 l 12.62195,29.4512 28.63192,-2.86319 -5.01058,-18.61075 c 0,0 5.01058,-11.45277 -4.29479,-19.32655 z"
         inkscape:connector-curvature="0"
         style="fill:#2cfa6d" />
      <path
         id="path3402"
         transform="translate(-156,-111.39647)"
         d="m 525.63441,701.50981 -9.49149,17.59433 -6.80008,12.59807 c -2.176,1.29559 -5.075,1.2741 -8.1959,0.50819 -0.544,-3.62194 2.70574,-22.76237 0.15033,-38.36676 l 0.11451,-0.55835 1.267,-1.58905 6.10578,2.61264 10.77275,4.60258 z"
         inkscape:connector-curvature="0"
         style="opacity:0.3" />
      <path
         id="path3404"
         transform="translate(-156,-111.39647)"
         d="m 525.63441,595.0635 c 0,0 -18.61075,-11.45277 -31.49512,2.86319 l 0.7158,4.29479 c 0,0 -10.737,12.16857 -4.29479,37.9373 6.44221,25.76873 16.46336,93.05375 16.46336,93.05375 0,0 23.62134,1.4316 34.35831,-6.44218 0,0 -3.579,-88.759 -15.74756,-97.34854 z"
         inkscape:connector-curvature="0"
         style="fill:#2f2e41" />
      <path
         id="path3406"
         transform="translate(-156,-111.39647)"
         d="m 486.82706,555.19609 20.1966,24.83565 36.5057,17.89495 c 0,0 13.11132,9.70389 16.44713,3.25793 3.33581,-6.44596 -14.29973,-10.41591 -14.29973,-10.41591 l -28.17964,-16.98413 -18.99238,-28.44394 a 5.93875,5.93875 0 0 0 -7.332,-1.96888 v 0 c -4.83118,1.89374 -7.1013,8.07069 -4.34568,11.82433 z"
         inkscape:connector-curvature="0"
         style="fill:#ffb9b9" />
      <path
         id="path3408"
         transform="translate(-156,-111.39647)"
         d="m 473.44616,753.47183 c 0,0 4.38754,-5.51807 7.00852,-2.04129 2.62098,3.47678 -3.09079,6.4563 -3.09079,6.4563 l -0.33243,17.93477 c 0,0 3.11688,13.71345 -5.29829,8.41516 -8.41517,-5.29829 -8.74622,-5.93293 -10.4015,-9.10613 -1.65528,-3.1732 -5.07575,-15.92095 -8.02778,-20.03238 -2.95203,-4.11143 -5.65544,-12.38922 -2.15118,-13.40987 3.50426,-1.02065 19.83839,-4.65445 19.02463,-3.444 -0.81376,1.21045 -5.22876,5.12816 -2.93884,7.9703 2.28992,2.84214 6.20766,7.25714 6.20766,7.25714 z"
         inkscape:connector-curvature="0"
         style="fill:#2f2e41" />
      <path
         id="path3410"
         transform="translate(-156,-111.39647)"
         d="m 512.74865,502.78028 c 0,-0.0183 10e-4,-0.0364 10e-4,-0.0547 a 20.75815,20.75815 0 1 0 -20.75814,20.75814 c 0.48224,0 2.38917,3.61137 2.86319,3.579 0.0284,-10.95721 7.11643,-23.54668 17.89356,-24.2824 z"
         inkscape:connector-curvature="0"
         style="fill:#2f2e41" />
      <circle
         id="circle3412"
         r="13.60016"
         cy="375.58151"
         cx="313.80215"
         style="fill:#2f2e41" />
      <path
         id="path3414"
         transform="translate(-156,-111.39647)"
         d="m 469.17825,466.376 a 13.5814,13.5814 0 0 1 3.88007,26.62165 13.59039,13.59039 0 1 0 -3.88007,-26.62165 z"
         inkscape:connector-curvature="0"
         style="fill:#2f2e41" />
      <path
         id="path3416"
         d="m 345.29727,387.03429 h 7.158 a 12.88435,12.88435 0 0 1 12.88435,12.88435 v 0 h -20.04235 z"
         inkscape:connector-curvature="0"
         style="fill:#2f2e41" />
      <path
         id="path3418"
         transform="translate(-156,-111.39647)"
         d="m 839.65525,787.70327 c 0,0 0.6217,-13.02675 13.36642,-11.51257"
         inkscape:connector-curvature="0"
         style="fill:#3f3d56" />
      <path
         id="path3420"
         transform="translate(-156,-111.39647)"
         d="m 719.91941,787.70327 c 0,0 0.62169,-13.02675 13.36641,-11.51257"
         inkscape:connector-curvature="0"
         style="fill:#3f3d56" />
      <path
         id="path3422"
         transform="translate(-156,-111.39647)"
         d="m 283.2887,787.70327 c 0,0 0.62169,-13.02675 13.36641,-11.51257"
         inkscape:connector-curvature="0"
         style="fill:#3f3d56" />
      <path
         id="path3424"
         transform="translate(-156,-111.39647)"
         d="m 893.67142,787.70327 c 0,0 0.6217,-13.02675 13.36642,-11.51257"
         inkscape:connector-curvature="0"
         style="fill:#3f3d56" />
      <path
         id="path3426"
         transform="translate(-156,-111.39647)"
         d="m 868.46388,787.70327 c 0,0 0.62169,-13.02675 13.36641,-11.51257"
         inkscape:connector-curvature="0"
         style="fill:#3f3d56" />
      <path
         id="path3428"
         transform="translate(-156,-111.39647)"
         d="m 816.46505,787.70327 c 0,0 -0.62169,-13.02675 -13.36641,-11.51257"
         inkscape:connector-curvature="0"
         style="fill:#3f3d56" />
      <path
         id="path3430"
         transform="translate(-156,-111.39647)"
         d="m 609.40307,787.70327 c 0,0 -0.6217,-13.02675 -13.36642,-11.51257"
         inkscape:connector-curvature="0"
         style="fill:#3f3d56" />
      <path
         id="path3432"
         transform="translate(-156,-111.39647)"
         d="m 437.45159,787.70327 c 0,0 -0.62169,-13.02675 -13.36641,-11.51257"
         inkscape:connector-curvature="0"
         style="fill:#3f3d56" />
      <path
         id="path3434"
         transform="translate(-156,-111.39647)"
         d="m 254.69688,787.70327 c 0,0 -0.6217,-13.02675 -13.36641,-11.51257"
         inkscape:connector-curvature="0"
         style="fill:#3f3d56" />
      <path
         id="path3436"
         transform="translate(-156,-111.39647)"
         d="m 947.9044,787.70327 c 0,0 -0.62169,-13.02675 -13.36641,-11.51257"
         inkscape:connector-curvature="0"
         style="fill:#3f3d56" />
      <path
         id="path3438"
         transform="translate(-156,-111.39647)"
         d="m 870.48122,788.60353 c 0,0 -0.62169,-13.02674 -13.36641,-11.51256"
         inkscape:connector-curvature="0"
         style="fill:#3f3d56" />
      <rect
         id="rect3440"
         height="2"
         width="888"
         y="674.60352"
         x="0"
         style="fill:#3f3d56" />
    </g>
  </g>
  <g
     inkscape:groupmode="layer"
     id="layer2"
     inkscape:label="Layer 2"
     style="display:inline"
     transform="translate(-62.947655,-59.051411)" />
</svg>
