<?xml version="1.0" encoding="UTF-8" standalone="no"?>
<!-- Created with Inkscape (http://www.inkscape.org/) -->

<svg
   xmlns:dc="http://purl.org/dc/elements/1.1/"
   xmlns:cc="http://creativecommons.org/ns#"
   xmlns:rdf="http://www.w3.org/1999/02/22-rdf-syntax-ns#"
   xmlns:svg="http://www.w3.org/2000/svg"
   xmlns="http://www.w3.org/2000/svg"
   xmlns:xlink="http://www.w3.org/1999/xlink"
   xmlns:sodipodi="http://sodipodi.sourceforge.net/DTD/sodipodi-0.dtd"
   xmlns:inkscape="http://www.inkscape.org/namespaces/inkscape"
   width="208.27188mm"
   height="193.14583mm"
   viewBox="0 0 208.27188 193.14582"
   version="1.1"
   id="svg7439"
   style="enable-background:new"
   inkscape:version="0.92.4 (5da689c313, 2019-01-14)"
   sodipodi:docname="drawing-1.svg">
  <defs
     id="defs7433">
    <inkscape:perspective
       sodipodi:type="inkscape:persp3d"
       inkscape:vp_x="0 : 104.32142 : 1"
       inkscape:vp_y="0 : 999.99994 : 0"
       inkscape:vp_z="232.07739 : 104.32142 : 1"
       inkscape:persp3d-origin="116.0387 : 69.547613 : 1"
       id="perspective8029" />
    <linearGradient
       gradientUnits="userSpaceOnUse"
       y2="75.830002"
       x2="600"
       y1="694.20001"
       x1="600"
       id="4673c98d-e8c8-4911-bde5-090ef44e1581">
      <stop
         id="stop1339"
         stop-opacity="0.4"
         stop-color="gray"
         offset="0.2" />
      <stop
         id="stop1341"
         stop-opacity="0.5"
         stop-color="gray"
         offset="0.46" />
      <stop
         id="stop1343"
         stop-opacity="0.6"
         offset="1" />
    </linearGradient>
    <linearGradient
       gradientUnits="userSpaceOnUse"
       y2="223.2"
       x2="597.34998"
       y1="783.63"
       x1="597.34998"
       id="528408a2-f79a-48f6-b2a6-578d2aaf4c5c">
      <stop
         id="stop1346"
         stop-opacity="0.25"
         stop-color="gray"
         offset="0" />
      <stop
         id="stop1348"
         stop-opacity="0.12"
         stop-color="gray"
         offset="0.54" />
      <stop
         id="stop1350"
         stop-opacity="0.1"
         stop-color="gray"
         offset="1" />
    </linearGradient>
    <linearGradient
       inkscape:collect="always"
       xlink:href="#a3c4672e-2259-4d6c-8c24-5949363a8af1"
       id="linearGradient5685"
       gradientUnits="userSpaceOnUse"
       x1="278.97311"
       y1="470.29514"
       x2="278.97311"
       y2="199.61685" />
    <linearGradient
       gradientUnits="userSpaceOnUse"
       y2="199.61685"
       x2="278.97311"
       y1="470.29514"
       x1="278.97311"
       id="a3c4672e-2259-4d6c-8c24-5949363a8af1">
      <stop
         id="stop4852"
         stop-opacity="0.25"
         stop-color="gray"
         offset="0" />
      <stop
         id="stop4854"
         stop-opacity="0.12"
         stop-color="gray"
         offset="0.53514" />
      <stop
         id="stop4856"
         stop-opacity="0.1"
         stop-color="gray"
         offset="1" />
    </linearGradient>
    <linearGradient
       xlink:href="#a3c4672e-2259-4d6c-8c24-5949363a8af1"
       y2="0"
       x2="191.7952"
       y1="163.03871"
       x1="191.7952"
       id="acf699b8-10e6-407b-86e3-0f7f8fa4bdb6" />
    <linearGradient
       xlink:href="#a3c4672e-2259-4d6c-8c24-5949363a8af1"
       y2="0.87558001"
       x2="563.67303"
       y1="215.46739"
       x1="563.67303"
       id="b28a1e8f-be05-408d-a6f5-6fd2e5b0337f" />
    <linearGradient
       xlink:href="#a3c4672e-2259-4d6c-8c24-5949363a8af1"
       y2="255.70335"
       x2="639.8775"
       y1="470.29514"
       x1="639.8775"
       id="f1fc4b36-2829-4464-83b0-fd2af5b19fd6" />
    <linearGradient
       xlink:href="#a3c4672e-2259-4d6c-8c24-5949363a8af1"
       gradientTransform="matrix(-1,0,0,1,1039.5847,-85)"
       y2="650.04346"
       x2="453.7012"
       y1="780.90234"
       x1="453.7012"
       id="bb60ebe1-81e2-422a-a970-aa43062904da" />
    <linearGradient
       xlink:href="#a3c4672e-2259-4d6c-8c24-5949363a8af1"
       gradientTransform="matrix(-1,0,0,1,1039.5847,-85)"
       y2="650.04346"
       x2="488.73431"
       y1="780.90234"
       x1="488.73431"
       id="a1b2f907-b002-48c8-973d-a12b277f13d1" />
    <linearGradient
       xlink:href="#a3c4672e-2259-4d6c-8c24-5949363a8af1"
       y2="566.04346"
       x2="235.31857"
       y1="696.90234"
       x1="235.31857"
       id="a8136d5f-4c26-4562-977f-ea29024932d1" />
    <linearGradient
       xlink:href="#a3c4672e-2259-4d6c-8c24-5949363a8af1"
       y2="566.04346"
       x2="270.35168"
       y1="696.90234"
       x1="270.35168"
       id="eaaf4b84-3353-429f-a894-84d4b3cd89b7" />
    <linearGradient
       xlink:href="#a3c4672e-2259-4d6c-8c24-5949363a8af1"
       y2="561.94403"
       x2="319.81015"
       y1="696.88013"
       x1="319.81015"
       id="fa1ca12c-a5d3-4b88-b665-ae3e1db189da" />
  </defs>
  <sodipodi:namedview
     id="base"
     pagecolor="#ffffff"
     bordercolor="#666666"
     borderopacity="1.0"
     inkscape:pageopacity="0.0"
     inkscape:pageshadow="2"
     inkscape:zoom="0.18513539"
     inkscape:cx="-528.88915"
     inkscape:cy="808.65968"
     inkscape:document-units="mm"
     inkscape:current-layer="layer1"
     showgrid="false"
     inkscape:window-width="958"
     inkscape:window-height="476"
     inkscape:window-x="952"
     inkscape:window-y="0"
     inkscape:window-maximized="0" />
  <metadata
     id="metadata7436">
    <rdf:RDF>
      <cc:Work
         rdf:about="">
        <dc:format>image/svg+xml</dc:format>
        <dc:type
           rdf:resource="http://purl.org/dc/dcmitype/StillImage" />
        <dc:title></dc:title>
      </cc:Work>
    </rdf:RDF>
  </metadata>
  <g
     inkscape:label="Layer 1"
     inkscape:groupmode="layer"
     id="layer1"
     transform="translate(146.41683,6.3206505)">
    <g
       id="g5101"
       transform="matrix(0.26458333,0,0,0.26458333,-146.41683,-6.3206505)">
      <path
         id="path4871"
         transform="translate(-206.41535,-85)"
         d="m 969.07624,674.78716 c 0,45.23881 -26.89446,61.0365 -60.06793,61.0365 -0.77234,0 -1.54052,-0.008 -2.3045,-0.0292 -1.53635,-0.0334 -3.06018,-0.10019 -4.56313,-0.20874 -29.94213,-2.11666 -53.20445,-18.72843 -53.20445,-60.79853 0,-43.53546 55.62587,-98.47249 59.8216,-102.55134 l 0.008,-0.004 c 0.15865,-0.15862 0.24212,-0.23794 0.24212,-0.23794 0,0 60.06793,57.55047 60.06793,102.79346 z"
         inkscape:connector-curvature="0"
         style="fill:#3f3d56" />
      <path
         id="path4873"
         transform="translate(-206.41535,-85)"
         d="m 906.81651,728.90173 21.97231,-30.69773 -22.02658,34.06687 -0.0584,3.52358 c -1.53635,-0.0334 -3.06018,-0.10019 -4.56313,-0.20874 l 2.36714,-45.25968 -0.0167,-0.3507 0.0418,-0.0668 0.22126,-4.27508 -22.08083,-34.15458 22.14764,30.94826 0.0543,0.906 1.791,-34.19632 -18.90376,-35.2901 19.13337,29.28247 1.862,-70.89335 0.008,-0.24212 v 0.23794 l -0.309,55.90561 18.81611,-22.16436 -18.89543,26.978 -0.49679,30.61846 17.572,-29.38269 -17.64707,33.89146 -0.27553,17.02093 25.5084,-40.90115 -25.60441,46.842 z"
         inkscape:connector-curvature="0"
         style="fill:#f2f2f2" />
      <path
         id="path4875"
         transform="translate(-206.41535,-85)"
         d="m 345,723.419 c 0,27.107 -16.11508,36.57288 -35.99252,36.57288 -0.46278,0 -0.92308,-0.005 -1.38085,-0.0175 -0.92058,-0.02 -1.83365,-0.06 -2.73421,-0.12508 -17.94123,-1.26829 -31.88,-11.222 -31.88,-36.43029 0,-26.08631 33.33085,-59.00441 35.84492,-61.44845 l 0.005,-0.003 c 0.0951,-0.095 0.14508,-0.14258 0.14508,-0.14258 0,0 35.99258,34.48407 35.99258,61.59353 z"
         inkscape:connector-curvature="0"
         style="fill:#3f3d56" />
      <path
         id="path4877"
         transform="translate(-206.41535,-85)"
         d="m 307.69416,755.84428 13.16574,-18.394 -13.19826,20.41276 -0.035,2.11132 c -0.92058,-0.02 -1.83365,-0.06 -2.73421,-0.12508 l 1.41838,-27.11946 -0.01,-0.21013 0.025,-0.04 0.13258,-2.56162 -13.23077,-20.4653 13.2708,18.5441 0.0325,0.54285 1.07317,-20.49033 -11.32711,-21.14573 11.46466,17.546 1.1157,-42.47908 0.005,-0.14508 v 0.14258 l -0.18513,33.49847 11.27456,-13.28082 -11.32209,16.16511 -0.29767,18.34649 10.52908,-17.606 L 308.287,719.399 308.1219,729.59789 323.40649,705.09 308.0644,733.15759 Z"
         inkscape:connector-curvature="0"
         style="fill:#f2f2f2" />
      <rect
         id="rect4879"
         height="270.67828"
         width="284.09027"
         y="199.61685"
         x="136.92798"
         style="fill:url(#linearGradient5685)" />
      <rect
         id="rect4881"
         height="258.48557"
         width="271.89758"
         y="205.71321"
         x="143.02434"
         style="fill:#ffffff" />
      <rect
         id="rect4883"
         height="238.97723"
         width="252.38922"
         y="215.46739"
         x="152.7785"
         style="fill:#f57e00" />
      <path
         id="path4885"
         transform="translate(-206.41535,-85)"
         d="m 531.58409,353.54981 h 30.79707 L 485.38847,486.3622 408.39578,353.54981 h 58.89941 l 18.09328,30.79707 17.70832,-30.79707 z"
         inkscape:connector-curvature="0"
         style="fill:#41b883" />
      <path
         id="path4887"
         transform="translate(-206.41535,-85)"
         d="m 408.39578,353.54981 76.99269,132.81239 76.99269,-132.81239 h -30.79707 l -46.19562,79.68743 -46.58058,-79.68743 z"
         inkscape:connector-curvature="0"
         style="fill:#41b883" />
      <path
         id="path4889"
         transform="translate(-206.41535,-85)"
         d="m 438.80789,353.54981 46.58058,80.07239 46.19562,-80.07239 h -28.4873 l -17.70832,30.79707 -18.09328,-30.79707 z"
         inkscape:connector-curvature="0"
         style="fill:#35495e" />
      <g
         id="g4893"
         style="opacity:0.5">
        <rect
           id="rect4891"
           height="163.03871"
           width="373.09711"
           x="5.2466502"
           y="0"
           style="fill:url(#acf699b8-10e6-407b-86e3-0f7f8fa4bdb6)" />
      </g>
      <rect
         id="rect4895"
         height="156.06676"
         width="363.34293"
         y="2.0948601"
         x="10.12373"
         style="fill:#ffffff" />
      <rect
         id="rect4897"
         height="136.55843"
         width="342.46292"
         y="11.84903"
         x="20.563749"
         style="fill:#f57e00" />
      <path
         id="path4899"
         transform="translate(-206.41535,-85)"
         d="m 510.99016,141.70227 10.25882,0.0565 c 0,0 -19.07316,25.84531 -20.63065,27.95167 a 12.01631,12.01631 0 0 0 -1.66383,2.32955 52.04124,52.04124 0 0 0 -1.99668,7.32054 l -9.38667,0.0469 c 0,0 1.46075,-5.24147 1.40041,-8.0332 -0.0527,-2.43874 -1.29791,-4.87461 -1.9962,-7.32053 -0.706,-2.47611 -1.66431,-7.321 -1.66431,-7.321 h 9.65056 l 1.331,5.32433 14.69759,-20.35479"
         inkscape:connector-curvature="0"
         style="fill:#ffffff" />
      <path
         id="path4901"
         transform="translate(-206.41535,-85)"
         d="m 491.564,147.153 c 1.89324,1.1413 3.05513,7.4374 3.05513,7.4374 0,0 -9.90631,0.14607 -15.29722,0.14607 h -4.65861 l -5.6572,24.624 h -8.6515 c 0,0 5.3842,-26.76008 6.6553,-31.6117 0.41187,-1.57091 2.82189,-1.30127 6.89141,-1.30127 H 480.4 c 4.19643,0 9.10122,-0.53593 11.164,0.70547 m -40.2771,11.99256 a 5.18568,5.18568 0 0 0 -0.91477,-3.411 c -1.012,-1.56038 -1.9464,-1.92341 -4.6088,-2.00674 -7.51691,-0.23612 -7.37084,5.33439 -7.37084,5.33439 z m 8.15245,-6.37943 c 1.10155,3.97374 -0.99811,13.3106 -0.99811,13.3106 0,0 -10.96477,-0.183 -16.97062,0 -1.86737,0.057 -4.10257,-0.20307 -4.65861,0.66572 -0.7821,1.21745 0.28592,3.09153 1.19111,3.88321 1.04169,0.91142 3.07094,1.01535 3.80036,1.10778 4.87462,0.61927 15.07692,0.16 15.07692,0.16 l -1.76728,7.82581 c 0,0 -14.41741,0.7232 -21.62876,-0.9981 a 7.34064,7.34064 0 0 1 -3.66051,-1.9962 c -0.24618,-0.26581 -0.45977,-0.62837 -0.69255,-0.94159 a 8.74491,8.74491 0 0 1 -0.97129,-1.72082 c -1.64706,-4.389 0.193,-12.79718 1.99669,-17.303 0.2093,-0.522 0.47223,-1.18441 0.74905,-1.74716 0.34579,-0.70164 0.63843,-1.4938 0.91477,-1.91335 0.18583,-0.28927 0.41619,-0.47558 0.60921,-0.74857 a 11.17449,11.17449 0 0 1 0.72175,-0.91477 13.71319,13.71319 0 0 1 2.32956,-1.99621 c 3.00437,-2.25 8.44173,-3.99672 14.97394,-3.32813 2.45935,0.25288 6.1735,1.13125 7.98626,3.66051 a 11.17055,11.17055 0 0 1 0.99811,2.99479 z m -39.6813,-6.34926 8.389,-0.0493 c 0,0 -4.67537,22.1781 -7.05808,32.993 h -9.65056 c -6.74438,0 -12.75072,0.83527 -15.30632,-3.99337 -2.479,-4.6883 -0.113,-12.39822 0.9981,-17.63634 0.78545,-3.707 2.4397,-11.28374 2.4397,-11.28374 l 8.69174,-0.0795 c 0,0 -2.456,11.79619 -3.478,17.68615 -0.36591,2.10971 -1.1207,4.09634 -0.33238,5.65624 0.74857,1.4847 1.797,1.591 4.991,1.6643 1.012,0.024 4.32623,0 4.32623,0 l 5.98958,-24.95737 m -39.26558,15.97253 c 0.87836,-3.12075 2.15952,-6.50492 1.99668,-9.31723 a 7.99936,7.99936 0 0 0 -4.32575,-6.322 11.08454,11.08454 0 0 0 -11.31391,2.66193 c -2.35923,2.55561 -3.1581,5.54082 -3.99337,9.65057 -0.62166,3.05082 -1.13124,6.27167 0,8.651 2.00292,4.2065 8.2492,3.2879 14.97443,3.32813 0.9981,-2.67534 1.82331,-5.68019 2.66192,-8.65247 z m 11.64677,-12.31154 c 0.95787,6.96757 -2.71844,14.65832 -5.25106,21.34619 2.58242,0.23324 4.8454,-0.0359 5.00824,0.15661 0.16954,0.24953 -1.73088,7.98291 -2.39324,8.003 -2.04938,0.0532 -8.84069,0.10967 -11.67263,0.10967 -9.24108,0 -17.88588,0.602 -22.29449,-3.99289 a 14.49266,14.49266 0 0 1 -3.32813,-7.321 31.04716,31.04716 0 0 1 0.99859,-11.31343 34.24223,34.24223 0 0 1 3.32765,-8.65246 c 3.88321,-6.77791 10.63812,-11.80913 21.96161,-10.64771 a 21.08953,21.08953 0 0 1 7.321,2.32907 c 0.136,0.08 0.61257,0.4593 0.72176,0.52587 2.66241,1.694 5.08822,5.7367 5.60068,9.45707 z M 351.253,146.45714 c -0.55893,2.54555 -1.11784,5.43114 -1.70693,7.94651 h -9.31722 c 0.72176,-2.78836 1.27444,-5.56045 1.99669,-7.98626 2.98138,0 5.75346,0.0398 9.028,0.0398 M 339.896,156.7332 h 8.98484 c -1.17483,6.502 -3.501,16.99026 -5.32433,24.29117 -1.1413,4.56905 -1.90329,7.90292 -4.99147,10.31532 -0.27635,0.21648 -0.43584,0.11351 -0.66572,0.33286 -0.569,0.54264 -3.20121,1.172 -4.65814,1.331 a 66.98038,66.98038 0 0 1 -7.95992,-0.0263 c 0.762,-2.785 1.62407,-6.12943 2.30321,-8.62565 7.09783,0.85922 7.27743,-5.84972 8.6515,-12.31153 0.795,-3.73379 3.20456,-13.80965 3.66,-15.3068"
         inkscape:connector-curvature="0"
         style="fill:#ffffff" />
      <path
         id="path4903"
         transform="translate(-206.41535,-85)"
         d="m 318.932,173.70382 -0.19253,0.499 c -3.28071,6.389 -9.09452,10.30863 -17.38682,10.48152 a 24.30941,24.30941 0 0 1 -9.983,-1.9962 25.78732,25.78732 0 0 1 -11.97865,-11.31386 c -3.4311,-6.64524 -4.04989,-15.88919 3.08435,-22.79353 0.11015,0 -0.86544,1.49715 -0.75529,1.49715 l -0.19636,0.6389 c -5.1409,16.09513 10.698,29.8885 26.09484,28.31088 a 20.22475,20.22475 0 0 0 11.31343,-5.32385"
         inkscape:connector-curvature="0"
         style="fill:#21609b" />
      <path
         id="path4905"
         transform="translate(-206.41535,-85)"
         d="m 309.61473,167.04853 a 14.73176,14.73176 0 0 0 10.31581,-4.32575 c -2.0963,5.321 -8.16586,8.74106 -16.3049,7.6534 -6.81526,-0.91189 -13.30724,-7.76978 -13.97584,-14.64156 -0.489,-5.00105 1.25386,-7.98578 4.126,-11.60654 a 12.1451,12.1451 0 0 0 -1.46411,4.28552 c -1.091,10.81821 8.64192,18.57794 17.303,18.63493"
         inkscape:connector-curvature="0"
         style="fill:#21609b" />
      <path
         id="path4907"
         transform="translate(-206.41535,-85)"
         d="m 319.54117,153.61149 c -0.602,1.38126 -4.069,3.98954 -5.6002,4.3157 -6.06285,1.29169 -9.94559,-1.58336 -11.97963,-4.855 a 14.983,14.983 0 0 1 -0.96123,-2.16239 c -0.78881,-2.68205 -0.42625,-6.73864 1.92676,-8.83829 a 11.04843,11.04843 0 0 0 -0.43918,5.82338 12.93168,12.93168 0 0 0 1.60395,3.5039 9.21608,9.21608 0 0 0 3.66,3.23474 9.70986,9.70986 0 0 0 1.84008,0.88124 c 1.52733,0.44972 4.752,1.63413 9.9499,-1.90329"
         inkscape:connector-curvature="0"
         style="fill:#21609b" />
      <rect
         id="rect4909"
         height="214.5918"
         width="214.5918"
         y="0.87558001"
         x="456.37714"
         style="fill:url(#b28a1e8f-be05-408d-a6f5-6fd2e5b0337f)" />
      <rect
         id="rect4911"
         height="202.39909"
         width="202.39909"
         y="6.97194"
         x="462.47351"
         style="fill:#ffffff" />
      <rect
         id="rect4913"
         height="182.89075"
         width="182.89075"
         y="16.72612"
         x="472.22766"
         style="fill:#f57e00" />
      <path
         id="path4915"
         transform="translate(-206.41535,-85)"
         d="m 704.13566,154.52327 66.05343,-23.53464 67.83225,23.11618 -10.98318,87.39185 -56.84907,31.48417 -55.95966,-31.06572 z"
         inkscape:connector-curvature="0"
         style="fill:#e23237" />
      <path
         id="path4917"
         transform="translate(-206.41535,-85)"
         d="m 838.02134,154.10481 -67.83225,-23.11618 v 141.9922 l 56.84907,-31.43167 z"
         inkscape:connector-curvature="0"
         style="fill:#b52e31" />
      <path
         id="path4919"
         transform="translate(-206.41535,-85)"
         d="m 770.29358,147.56762 -41.159,91.57584 15.37561,-0.26147 8.26351,-20.6585 h 36.923 l 9.04791,20.92 14.69569,0.26147 -43.14674,-91.83732 z m 0.105,29.33993 13.91129,29.07794 h -26.14982 z"
         inkscape:connector-curvature="0"
         style="fill:#ffffff" />
      <rect
         id="rect4921"
         height="214.5918"
         width="284.09027"
         y="255.70335"
         x="497.83237"
         style="fill:url(#f1fc4b36-2829-4464-83b0-fd2af5b19fd6)" />
      <rect
         id="rect4923"
         height="202.39909"
         width="271.89758"
         y="261.79971"
         x="503.92874"
         style="fill:#ffffff" />
      <rect
         id="rect4925"
         height="182.89075"
         width="252.38922"
         y="271.55389"
         x="513.68292"
         style="fill:#f57e00" />
      <path
         id="path4927"
         transform="translate(-206.41535,-85)"
         d="m 770.19756,447.58909 c -0.0366,11.57015 11.2273,22.40646 29.01941,28.551 -3.61342,17.89464 -0.73923,32.33659 8.99408,37.9908 10.00439,5.81222 24.94893,1.85816 39.16068,-10.48612 13.77737,11.93233 27.72445,16.65507 37.48491,11.04619 10.03193,-5.76518 13.12564,-21.16677 9.529,-39.64358 18.57135,-6.0748 28.97776,-15.25177 29.0148,-26.97426 0.0357,-11.30159 -11.25186,-21.11432 -28.80445,-27.219 3.99574,-19.21575 0.70617,-33.30857 -9.43044,-39.19647 -9.77239,-5.67661 -23.91237,-0.80053 -37.96876,11.35457 -14.543,-12.99453 -28.51521,-16.99177 -38.678,-11.15173 -9.79907,5.631 -12.63642,20.31748 -9.12575,38.56581 -17.22942,5.946 -29.15992,15.90696 -29.19548,27.16279 z"
         inkscape:connector-curvature="0"
         style="fill:#ffffff" />
      <path
         id="path4929"
         transform="translate(-206.41535,-85)"
         d="m 890.85575,426.84936 q -2.1699,-0.752 -4.37562,-1.394 0.37069,-1.48606 0.68624,-2.98508 c 3.36623,-16.08356 1.23949,-29.05572 -6.14976,-33.34709 -7.08451,-4.11578 -18.70608,0.11553 -30.462,10.28058 q -1.7376,1.50591 -3.39747,3.09815 -1.10448,-1.06539 -2.24785,-2.08933 c -12.25223,-10.94841 -24.5533,-15.58407 -31.96173,-11.32681 -7.10378,4.0824 -9.24256,16.26491 -6.30593,31.52659 q 0.4383,2.267 0.99134,4.5096 c -1.74416,0.48946 -3.42881,1.01161 -5.04071,1.56772 -14.4203,4.97635 -23.64468,12.81849 -23.67047,20.98232 -0.0266,8.43239 9.82176,16.92127 24.80972,22.09651 q 1.823,0.62656 3.67545,1.16171 -0.60979,2.41143 -1.08415,4.8541 c -2.89307,14.97831 -0.70816,26.88546 6.35111,30.9873 7.29127,4.23506 19.56455,-0.0556 31.53557,-10.453 q 1.41924,-1.23292 2.84736,-2.60793 1.78636,1.73446 3.66728,3.36735 c 11.53209,9.98692 22.93961,14.04109 30.01866,9.97306 7.3113,-4.20157 9.72292,-16.97813 6.69271,-32.54178 q -0.34662,-1.78316 -0.80441,-3.63951 1.29279,-0.37707 2.5327,-0.782 c 15.6142,-5.1183 25.78848,-13.44095 25.81547,-21.98593 0.0259,-8.19334 -9.44485,-16.14752 -24.12352,-21.25254 z"
         inkscape:connector-curvature="0"
         style="fill:#53c1de" />
      <path
         id="path4931"
         transform="translate(-206.41535,-85)"
         d="m 887.35313,464.56524 c -0.74442,0.24392 -1.50869,0.47936 -2.28738,0.70752 a 136.41926,136.41926 0 0 0 -6.83525,-17.25806 136.36111,136.36111 0 0 0 6.67541,-16.96429 c 1.39027,0.40783 2.74013,0.83661 4.04054,1.28932 12.57709,4.37339 20.23656,10.80624 20.221,15.7438 -0.0166,5.25971 -8.33268,12.06179 -21.81368,16.48171 z m -5.62285,11.05513 c 1.33972,6.882 1.51456,13.10089 0.59719,17.95913 -0.82427,4.36537 -2.46287,7.27218 -4.48132,8.43216 -4.29569,2.46848 -13.45551,-0.78676 -23.317,-9.32746 q -1.69613,-1.46857 -3.41152,-3.1299 a 136.58707,136.58707 0 0 0 11.45037,-14.44547 135.68288,135.68288 0 0 0 18.4363,-2.78208 q 0.41019,1.68128 0.726,3.29363 z m -56.593,25.796 c -4.19378,1.46623 -7.53037,1.49783 -9.54327,0.32873 -4.28425,-2.48836 -6.0376,-12.05 -3.56386,-24.85888 q 0.44121,-2.2706 1.00781,-4.51412 a 136.67722,136.67722 0 0 0 18.32682,2.71217 141.43655,141.43655 0 0 0 11.63355,14.46661 q -1.27041,1.22118 -2.59976,2.3787 c -5.29356,4.59814 -10.59371,7.85467 -15.26069,9.4868 z M 805.6288,464.27454 c -6.62724,-2.28863 -12.09681,-5.25282 -15.84221,-8.48012 -3.36527,-2.90094 -5.06026,-5.77552 -5.05291,-8.104 0.0156,-4.95382 7.42209,-11.25 19.75487,-15.50612 q 2.32189,-0.79778 4.68751,-1.45864 a 139.39663,139.39663 0 0 0 6.5771,17.20426 141.51219,141.51219 0 0 0 -6.76894,17.40657 q -1.69051,-0.48966 -3.35542,-1.06195 z m 6.72047,-44.76048 c -2.516,-13.07635 -0.78683,-22.92865 3.49438,-25.38874 4.56051,-2.62059 14.61344,1.16857 25.19221,10.62138 0.67611,0.60428 1.35514,1.23688 2.03531,1.89115 a 139.28544,139.28544 0 0 0 -11.63534,14.3064 142.02139,142.02139 0 0 0 -18.16468,2.76427 q -0.51373,-2.08559 -0.92188,-4.19506 z m 58.64314,14.67715 q -1.98424,-3.45258 -4.11582,-6.81727 c 4.33971,0.56167 8.4964,1.3034 12.39907,2.2075 a 123.98473,123.98473 0 0 1 -4.3917,11.70211 q -1.87476,-3.58467 -3.89155,-7.09234 z M 847.13273,410.8043 a 124.30213,124.30213 0 0 1 7.97614,9.69087 q -8.03466,-0.40512 -16.08078,-0.0544 c 2.65442,-3.47745 5.37248,-6.70721 8.10464,-9.63645 z m -24.16063,23.27495 q -2.013,3.46638 -3.86268,7.02389 c -1.67994,-4.01983 -3.11562,-7.97144 -4.28619,-11.78673 3.88475,-0.85663 8.02672,-1.55348 12.34156,-2.07876 q -2.17638,3.3711 -4.19269,6.8416 z m 4.18535,34.74689 a 123.7581,123.7581 0 0 1 -12.53262,-2.05559 c 1.21352,-3.8752 2.70633,-7.90246 4.448,-11.99758 q 1.83435,3.57081 3.83508,7.05242 2.04103,3.55055 4.24954,7.00075 z m 19.90045,16.55509 c -2.7454,-2.98147 -5.48259,-6.27785 -8.15516,-9.8227 q 3.90681,0.16589 7.95982,0.17929 4.1602,0.0131 8.21379,-0.1565 a 123.60228,123.60228 0 0 1 -8.01845,9.79991 z m 27.83893,-30.64084 a 123.43714,123.43714 0 0 1 4.53124,11.9832 123.35188,123.35188 0 0 1 -12.69877,2.1234 q 2.168,-3.413 4.19892,-6.91022 2.06415,-3.55359 3.96861,-7.19638 z m -8.99453,4.27694 q -3.10849,5.36068 -6.56048,10.51084 c -4.03767,0.27567 -8.20978,0.41122 -12.4609,0.39779 -4.23365,-0.0134 -8.35189,-0.15826 -12.31738,-0.4279 q -3.50677,-5.15733 -6.61613,-10.56873 -3.09246,-5.37892 -5.77,-10.98093 2.70393,-5.58272 5.82184,-10.95032 v 10e-4 q 3.11489,-5.36488 6.63024,-10.48171 c 4.04736,-0.29311 8.19662,-0.44017 12.39054,-0.42692 4.21258,0.0133 8.36624,0.1878 12.41046,0.50888 q 3.44525,5.12715 6.52244,10.48773 3.09258,5.37138 5.831,10.93535 -2.74377,5.60034 -5.881,10.9947 z m 12.19549,-64.86815 c 4.5475,2.64214 6.28613,13.24362 3.37965,27.13019 q -0.28573,1.35695 -0.62032,2.70289 a 139.23914,139.23914 0 0 0 -18.18282,-2.9315 136.54214,136.54214 0 0 0 -11.45556,-14.39018 q 1.53312,-1.46871 3.13779,-2.85992 c 10.07254,-8.71015 19.47143,-12.132 23.74125,-9.65148 z"
         inkscape:connector-curvature="0"
         style="fill:#ffffff" />
      <path
         id="path4933"
         transform="translate(-206.41535,-85)"
         d="m 846.98892,435.73756 a 12.14977,12.14977 0 1 1 -12.18779,12.111 12.14944,12.14944 0 0 1 12.18779,-12.111"
         inkscape:connector-curvature="0"
         style="fill:#53c1de" />
      <g
         id="g4943"
         style="opacity:0.7">
        <g
           id="g4937"
           style="opacity:0.1">
          <polygon
             id="polygon4935"
             points="602.37,583.59 602.37,589.773 602.37,672.203 602.37,678.386 602.37,695.902 577.64,695.902 569.397,695.902 569.397,678.386 569.397,672.203 569.397,589.773 569.397,583.59 569.397,565.043 577.64,565.043 602.37,565.043 "
             style="fill:url(#bb60ebe1-81e2-422a-a970-aa43062904da)" />
        </g>
        <g
           id="g4941"
           style="opacity:0.1">
          <polygon
             id="polygon4939"
             points="567.337,583.59 567.337,589.773 567.337,672.203 567.337,678.386 567.337,695.902 542.607,695.902 534.364,695.902 534.364,678.386 534.364,672.203 534.364,589.773 534.364,583.59 534.364,565.043 542.607,565.043 567.337,565.043 "
             style="fill:url(#a1b2f907-b002-48c8-973d-a12b277f13d1)" />
        </g>
      </g>
      <rect
         id="rect4945"
         rx="14.2973"
         height="36.866081"
         width="86.635292"
         y="660.51624"
         x="56.363789"
         style="fill:#f57e00" />
      <g
         id="g4959"
         style="opacity:0.7">
        <g
           id="g4949"
           style="opacity:0.1">
          <polygon
             id="polygon4947"
             points="218.832,584.59 218.832,590.773 218.832,673.203 218.832,679.386 218.832,696.902 243.562,696.902 251.805,696.902 251.805,679.386 251.805,673.203 251.805,590.773 251.805,584.59 251.805,566.043 243.562,566.043 218.832,566.043 "
             style="fill:url(#a8136d5f-4c26-4562-977f-ea29024932d1)" />
        </g>
        <g
           id="g4953"
           style="opacity:0.1">
          <polygon
             id="polygon4951"
             points="253.866,584.59 253.866,590.773 253.866,673.203 253.866,679.386 253.866,696.902 278.595,696.902 286.838,696.902 286.838,679.386 286.838,673.203 286.838,590.773 286.838,584.59 286.838,566.043 278.595,566.043 253.866,566.043 "
             style="fill:url(#eaaf4b84-3353-429f-a894-84d4b3cd89b7)" />
        </g>
        <g
           id="g4957"
           style="opacity:0.1">
          <polygon
             id="polygon4955"
             points="352.601,688.383 325.251,585.838 323.658,579.865 318.878,561.944 287.019,570.441 291.799,588.362 293.068,593.119 314.635,673.982 316.228,679.955 320.742,696.88 "
             style="fill:url(#fa1ca12c-a5d3-4b88-b665-ae3e1db189da)" />
        </g>
      </g>
      <rect
         id="rect4961"
         height="124.25606"
         width="31.308611"
         y="569.24146"
         x="222.20723"
         style="fill:#535461" />
      <rect
         id="rect4963"
         height="5.8703699"
         width="31.308611"
         y="586.85254"
         x="222.20723"
         style="fill:#f57e00" />
      <rect
         id="rect4965"
         height="5.8703699"
         width="31.308611"
         y="670.99445"
         x="222.20723"
         style="fill:#f57e00" />
      <rect
         id="rect4967"
         height="124.25606"
         width="7.8271499"
         y="569.24146"
         x="245.68869"
         style="opacity:0.1" />
      <rect
         id="rect4969"
         height="124.25606"
         width="31.308611"
         y="569.24146"
         x="255.47264"
         style="fill:#535461" />
      <rect
         id="rect4971"
         height="5.8703699"
         width="31.308611"
         y="586.85254"
         x="255.47264"
         style="fill:#f57e00" />
      <rect
         id="rect4973"
         height="5.8703699"
         width="31.308611"
         y="670.99445"
         x="255.47264"
         style="fill:#f57e00" />
      <rect
         id="rect4975"
         height="124.25606"
         width="7.8271499"
         y="569.24146"
         x="278.9541"
         style="opacity:0.1" />
      <rect
         id="rect4977"
         transform="rotate(-14.93399,97.034611,1459.3576)"
         height="124.25606"
         width="31.308611"
         y="652.28467"
         x="508.85089"
         style="fill:#535461" />
      <rect
         id="rect4979"
         transform="rotate(-14.93399,86.318726,1419.1804)"
         height="5.8703699"
         width="31.308611"
         y="671.30023"
         x="498.13504"
         style="fill:#f57e00" />
      <rect
         id="rect4981"
         transform="rotate(-14.93399,108.0026,1500.4802)"
         height="5.8703699"
         width="31.308611"
         y="752.6001"
         x="519.81891"
         style="fill:#f57e00" />
      <rect
         id="rect4983"
         transform="rotate(-14.93399,108.37876,1456.332)"
         height="124.25606"
         width="7.8271499"
         y="649.25897"
         x="531.93579"
         style="opacity:0.1" />
      <rect
         id="rect4985"
         transform="rotate(-180,685.72567,673.86947)"
         height="124.25606"
         width="31.308611"
         y="654.24146"
         x="773.27905"
         style="fill:#535461" />
      <rect
         id="rect4987"
         transform="rotate(-180,685.72567,632.28772)"
         height="5.8703699"
         width="31.308611"
         y="671.85254"
         x="773.27905"
         style="fill:#f57e00" />
      <rect
         id="rect4989"
         transform="rotate(-180,685.72567,716.42962)"
         height="5.8703699"
         width="31.308611"
         y="755.99445"
         x="773.27905"
         style="fill:#f57e00" />
      <rect
         id="rect4991"
         transform="rotate(-180,673.98494,673.86947)"
         height="124.25606"
         width="7.8271499"
         y="654.24146"
         x="773.27905"
         style="opacity:0.1" />
      <rect
         id="rect4993"
         transform="rotate(-180,652.46027,673.86947)"
         height="124.25606"
         width="31.308611"
         y="654.24146"
         x="740.01361"
         style="fill:#535461" />
      <rect
         id="rect4995"
         transform="rotate(-180,652.46027,632.28772)"
         height="5.8703699"
         width="31.308611"
         y="671.85254"
         x="740.01361"
         style="fill:#f57e00" />
      <rect
         id="rect4997"
         transform="rotate(-180,652.46027,716.42962)"
         height="5.8703699"
         width="31.308611"
         y="755.99445"
         x="740.01361"
         style="fill:#f57e00" />
      <rect
         id="rect4999"
         transform="rotate(-180,640.71953,673.86947)"
         height="124.25606"
         width="7.8271499"
         y="654.24146"
         x="740.01361"
         style="opacity:0.1" />
      <path
         id="path5001"
         transform="translate(-206.41535,-85)"
         d="m 848.65412,719.16264 h 113.51162 c 0,0 22.39345,28.571 -12.355,71.04128 h -89.5738 c 0,0 -32.43189,-29.34314 -11.58282,-71.04128 z"
         inkscape:connector-curvature="0"
         style="fill:#f57e00" />
      <g
         id="g5005"
         style="opacity:0.1">
        <path
           id="path5003"
           transform="translate(-206.41535,-85)"
           d="M 962.16574,719.16264 H 848.65412 c -0.2586,0.51721 -0.50274,1.031 -0.74508,1.54438 H 958.3048 c 0,0 21.844,27.88077 -11.11731,69.4969 h 2.62324 c 34.74846,-42.47033 12.35501,-71.04128 12.35501,-71.04128 z"
           inkscape:connector-curvature="0" />
      </g>
      <rect
         id="rect5007"
         height="26.68371"
         width="787.16931"
         y="692.40021"
         x="0"
         style="fill:#e0e0e0" />
      <rect
         id="rect5009"
         height="10.91606"
         width="720.46002"
         y="719.08392"
         x="33.35463"
         style="fill:#e0e0e0" />
      <rect
         id="rect5011"
         height="3.63869"
         width="720.46002"
         y="719.08392"
         x="33.35463"
         style="opacity:0.1" />
    </g>
  </g>
  <g
     inkscape:groupmode="layer"
     id="layer2"
     inkscape:label="Layer 2"
     style="display:inline"
     transform="translate(-5.529589,3.9635075)" />
</svg>
