<?xml version="1.0" encoding="UTF-8" standalone="no"?>
<!-- Created with Inkscape (http://www.inkscape.org/) -->

<svg
   xmlns:dc="http://purl.org/dc/elements/1.1/"
   xmlns:cc="http://creativecommons.org/ns#"
   xmlns:rdf="http://www.w3.org/1999/02/22-rdf-syntax-ns#"
   xmlns:svg="http://www.w3.org/2000/svg"
   xmlns="http://www.w3.org/2000/svg"
   xmlns:sodipodi="http://sodipodi.sourceforge.net/DTD/sodipodi-0.dtd"
   xmlns:inkscape="http://www.inkscape.org/namespaces/inkscape"
   width="234.95mm"
   height="204.12953mm"
   viewBox="0 0 234.95 204.12952"
   version="1.1"
   id="svg7439"
   style="enable-background:new"
   inkscape:version="0.92.4 (5da689c313, 2019-01-14)"
   sodipodi:docname="drawing-1.svg">
  <defs
     id="defs7433">
    <inkscape:perspective
       sodipodi:type="inkscape:persp3d"
       inkscape:vp_x="0 : 104.32142 : 1"
       inkscape:vp_y="0 : 999.99996 : 0"
       inkscape:vp_z="232.07739 : 104.32142 : 1"
       inkscape:persp3d-origin="116.0387 : 69.547614 : 1"
       id="perspective8029" />
    <linearGradient
       gradientUnits="userSpaceOnUse"
       y2="75.830002"
       x2="600"
       y1="694.20001"
       x1="600"
       id="4673c98d-e8c8-4911-bde5-090ef44e1581">
      <stop
         id="stop1339"
         stop-opacity="0.4"
         stop-color="gray"
         offset="0.2" />
      <stop
         id="stop1341"
         stop-opacity="0.5"
         stop-color="gray"
         offset="0.46" />
      <stop
         id="stop1343"
         stop-opacity="0.6"
         offset="1" />
    </linearGradient>
    <linearGradient
       gradientUnits="userSpaceOnUse"
       y2="223.2"
       x2="597.34998"
       y1="783.63"
       x1="597.34998"
       id="528408a2-f79a-48f6-b2a6-578d2aaf4c5c">
      <stop
         id="stop1346"
         stop-opacity="0.25"
         stop-color="gray"
         offset="0" />
      <stop
         id="stop1348"
         stop-opacity="0.12"
         stop-color="gray"
         offset="0.54" />
      <stop
         id="stop1350"
         stop-opacity="0.1"
         stop-color="gray"
         offset="1" />
    </linearGradient>
  </defs>
  <sodipodi:namedview
     id="base"
     pagecolor="#ffffff"
     bordercolor="#666666"
     borderopacity="1.0"
     inkscape:pageopacity="0.0"
     inkscape:pageshadow="2"
     inkscape:zoom="0.18513539"
     inkscape:cx="-576.78083"
     inkscape:cy="659.7178"
     inkscape:document-units="mm"
     inkscape:current-layer="layer1"
     showgrid="false"
     inkscape:window-width="958"
     inkscape:window-height="476"
     inkscape:window-x="952"
     inkscape:window-y="0"
     inkscape:window-maximized="0" />
  <metadata
     id="metadata7436">
    <rdf:RDF>
      <cc:Work
         rdf:about="">
        <dc:format>image/svg+xml</dc:format>
        <dc:type
           rdf:resource="http://purl.org/dc/dcmitype/StillImage" />
        <dc:title></dc:title>
      </cc:Work>
    </rdf:RDF>
  </metadata>
  <g
     inkscape:label="Layer 1"
     inkscape:groupmode="layer"
     id="layer1"
     transform="translate(133.74549,56.711897)">
    <g
       id="g1337"
       transform="matrix(0.26458333,0,0,0.26458333,-133.74549,-56.711897)">
      <circle
         id="circle1252"
         r="98"
         cy="118.28656"
         cx="416.64566"
         style="fill:#e6e6e6" />
      <path
         id="path1254"
         transform="translate(-156,-65.2434)"
         d="m 234.67727,821.09609 47.82554,-71.12137 -47.72773,78.77266 0.0998,8.00294 q -5.23719,0.0399 -10.37262,-0.17441 l 2.372,-102.87253 -0.065,-0.79363 0.0875,-0.15334 0.227,-9.72083 -52.37461,-76.04184 52.31281,68.76636 0.18564,2.05468 1.79165,-77.72422 -45.23754,-78.838 45.36638,65.18406 -0.47353,-161.02454 0.001,-0.536 0.0154,0.52709 3.003,126.909 41.22862,-51.5505 -41.09361,62.48352 0.89984,69.5225 37.93881,-67.85132 -37.79937,78.07232 0.5009,38.658 55.17327,-94.51608 -55.00551,108.00223 z"
         inkscape:connector-curvature="0"
         style="fill:#e6e6e6" />
      <path
         id="path1256"
         transform="translate(-156,-65.2434)"
         d="m 340.124,377.06368 -10.74993,23.3846 33.79818,14.8514 c 0,0 2.49469,-28.07943 6.02369,-30.44259 z"
         inkscape:connector-curvature="0"
         style="fill:#a0616a" />
      <circle
         id="circle1258"
         r="25.02647"
         cy="306.29065"
         cx="200.01494"
         style="fill:#ffb9b9" />
      <path
         id="path1260"
         transform="translate(-156,-65.2434)"
         d="m 369.92408,357.84492 a 56.01582,56.01582 0 0 0 -9.06578,1.47828 8.29005,8.29005 0 0 0 -3.473,1.50708 c -1.63563,1.39836 -2.03549,3.72764 -2.33151,5.85907 l -1.45456,10.47315 a 3.54882,3.54882 0 0 1 -0.67038,1.93047 4.11919,4.11919 0 0 1 -2.14224,0.95758 12.95816,12.95816 0 0 0 -7.07421,4.80161 c -2.3468,3.18458 -3.23491,7.45091 -6.2647,9.99433 -0.79526,-7.04923 -6.42372,-12.471 -9.38093,-18.91914 a 26.25291,26.25291 0 0 1 -2.29052,-13.013 20.36647,20.36647 0 0 1 0.93615,-4.7914 16.90209,16.90209 0 0 1 9.6327,-10.20092 c 2.193,-0.87439 4.59154,-1.29266 6.589,-2.55133 1.08629,-0.68452 2.01684,-1.597 3.1156,-2.26132 2.22062,-1.34269 4.93027,-1.5639 7.52525,-1.5631 a 54.04461,54.04461 0 0 1 16.051,2.44826 c 2.35576,0.735 4.83143,1.769 6.10435,3.88317 a 6.53662,6.53662 0 0 1 -1.29392,7.82755 8.63817,8.63817 0 0 1 -8.0046,1.8328"
         inkscape:connector-curvature="0"
         style="fill:#2f2e41" />
      <path
         id="path1262"
         transform="translate(-156,-65.2434)"
         d="m 329.5266,379.04867 c 0,0 30.3694,-29.70716 53.7644,-13.85283 0,0 2.50515,-22.97506 -12.81852,-28.0481 -15.32367,-5.07304 -23.19029,-11.73195 -23.19029,-11.73195 l -15.10844,4.15375 -3.69194,18.65836 c 0,0 -6.03414,25.33815 1.04479,30.82077 z"
         inkscape:connector-curvature="0"
         style="fill:#eaf500" />
      <circle
         id="circle1264"
         r="14.01483"
         cy="252.93575"
         cx="177.91734"
         style="fill:#eaf500" />
      <path
         id="path1266"
         transform="translate(-156,-65.2434)"
         d="m 299.85424,557.37178 c 0,0 15.58072,34.71748 28.7565,45.4883 L 364.49843,679.353 344.64567,800.53 c 0,0 -17.0562,31.10513 31,10 L 416.50356,669.2339 379.76549,560.93824 Z"
         inkscape:connector-curvature="0"
         style="fill:#2f2e41" />
      <path
         id="path1268"
         transform="translate(-156,-65.2434)"
         d="m 344.64567,800.53 c 0,0 -23.21863,31.867 -1.10109,33.94453 22.11754,2.07753 35.40079,1.20192 43.42686,1.12705 7.67423,-0.0716 23.021,0.0179 20.67423,-12.07158 -2.34677,-12.08945 -30,-14 -30,-14 z"
         inkscape:connector-curvature="0"
         style="fill:#2f2e41" />
      <path
         id="path1270"
         transform="translate(-156,-65.2434)"
         d="m 235.324,760.20108 c 0,0 -30.78368,24.63685 -9.99162,32.45938 20.79206,7.82253 33.83784,10.472 41.60092,12.511 7.42278,1.94969 22.20556,6.07306 23.1216,-6.208 0.91604,-12.28106 -25.26064,-21.3986 -25.26064,-21.3986 z"
         inkscape:connector-curvature="0"
         style="fill:#2f2e41" />
      <path
         id="path1272"
         transform="translate(-156,-65.2434)"
         d="m 293.75088,514.79923 c 0,0 0.52858,38.04974 8.35,53.1639 l 2.59541,84.45328 L 233.64567,759.53 c 0,0 -16.48551,22.3077 36,22 l 86.80248,-117.77009 9.24111,-113.98354 z"
         inkscape:connector-curvature="0"
         style="fill:#2f2e41" />
      <path
         id="path1274"
         transform="translate(-156,-65.2434)"
         d="m 392.76445,575.62185 c -0.53031,9.59021 -1.03855,16.5361 -1.289,17.78829 -0.383,1.95931 -10.069,3.52817 -23.69559,3.97015 -20.60939,0.66289 -50.24914,-1.24482 -70.35761,-8.29384 -3.91121,-1.37 -6.92382,-4.84667 -9.20718,-9.60492 -6.9017,-14.35587 -7.24054,-40.34957 -6.02517,-55.33884 a 184.37375,184.37375 0 0 1 3.101,-21.15444 c 0.91335,-4.51521 1.87826,-8.64 2.77686,-12.124 1.74567,-6.84281 3.182,-11.21806 3.182,-11.21806 l 0.1547,-9.94376 0.18414,-12.0209 0.33147,-21.05864 0.0294,-1.7383 c -16.91177,-12.53651 6.1725,-51.84749 6.95326,-55.77344 0.7734,-3.926 23.96812,7.80771 23.96812,7.80771 l 6.26826,-5.90734 14.73886,8.02131 18.952,-5.88527 11.91044,25.25717 c 0,0 4.01429,10.09108 8.31591,24.85939 1.81931,6.24613 3.68287,13.332 5.318,20.83767 0.83971,3.88176 1.62048,7.88873 2.29811,11.94726 0.906,5.38436 1.63522,10.87918 2.08452,16.32985 0.13258,1.51734 0.24308,3.04943 0.35359,4.60359 0.27253,3.88909 0.50086,7.91817 0.67026,11.99878 0.30935,6.93856 0.48612,14.05385 0.5745,21.02187 0.19897,16.60238 -0.71435,39.74554 -1.5909,55.61871 z"
         inkscape:connector-curvature="0"
         style="fill:#3f3d56" />
      <path
         id="path1276"
         transform="translate(-156,-65.2434)"
         d="m 288.06424,490.86164 c 1.75084,-6.83763 3.18883,-11.21663 3.18883,-11.21663 l 0.15042,-9.94022 99.26982,-3.65473 c 0.90423,5.38335 1.63406,10.875 2.085,16.3319 0.1288,1.51533 0.24388,3.04842 0.35495,4.60112 z"
         inkscape:connector-curvature="0"
         style="fill:#eaf500" />
      <path
         id="path1278"
         transform="translate(-156,-65.2434)"
         d="m 394.35489,520.00617 -112.16133,4.13463 a 184.69713,184.69713 0 0 1 3.09386,-21.1544 l 108.49235,-4.0034 c 0.31068,6.93946 0.48435,14.05583 0.57512,21.02317 z"
         inkscape:connector-curvature="0"
         style="fill:#eaf500" />
      <path
         id="path1280"
         transform="translate(-156,-65.2434)"
         d="m 392.76445,575.62185 c -0.53031,9.59021 -1.03855,16.5361 -1.289,17.78829 -0.383,1.95931 -10.069,3.52817 -23.69559,3.97015 -20.60939,0.66289 -50.24914,-1.24482 -70.35761,-8.29384 -3.91121,-1.37 -6.92382,-4.84667 -9.20718,-9.60492 z"
         inkscape:connector-curvature="0"
         style="fill:#eaf500" />
      <path
         id="path1282"
         transform="translate(-156,-65.2434)"
         d="m 405.23,532.81172 c 0,0 21.011,2.11653 13.974,17.05156 -7.037,14.93503 -28.66242,0.45137 -28.66242,0.45137 z"
         inkscape:connector-curvature="0"
         style="fill:#ffb9b9" />
      <path
         id="path1284"
         transform="translate(-156,-65.2434)"
         d="m 414.65112,531.61448 -18.4013,25.95252 c 0,0 -4.42878,-2.73357 -11.134,-6.90743 -2.07192,-1.28761 -4.362,-2.71022 -6.80541,-4.23452 -1.25219,-0.78865 -2.5516,-1.5968 -3.87652,-2.43043 -2.18974,-1.36193 -4.46808,-2.79238 -6.79167,-4.25224 -1.26993,-0.8023 -2.5674,-1.6203 -3.86475,-2.43824 -2.239,-1.42272 -4.50752,-2.85124 -6.76426,-4.28761 -16.52839,-10.48521 -32.69185,-21.01042 -35.85869,-23.98411 -4.71495,-4.43315 -15.39268,-36.85387 -21.6414,-56.8465 a 44.54415,44.54415 0 0 1 6.15638,-39.46788 c 7.96408,-10.95551 16.46477,-11.93688 23.50988,-9.58363 a 23.02083,23.02083 0 0 1 15.39695,22.64982 l -1.502,49.82816 36.221,28.34177 6.28273,4.91683 3.5886,2.802 6.28261,4.91688 3.5789,2.8001 6.28249,4.91678 z"
         inkscape:connector-curvature="0"
         style="fill:#3f3d56" />
      <path
         id="path1286"
         style="opacity:0.1;isolation:isolate"
         transform="translate(-156,-65.2434)"
         d="m 297.03018,424.66241 c 0,0 18.769,-38.12533 42.747,-25.21706 4e-5,10e-6 -25.72678,-4.07011 -42.747,25.21706 z"
         inkscape:connector-curvature="0" />
      <path
         id="path1288"
         transform="translate(-156,-65.2434)"
         d="M 395.44929,516.58987 374.434,543.99456 c -2.18975,-1.36193 -4.46808,-2.79238 -6.79168,-4.25224 l 21.5244,-28.06932 z"
         inkscape:connector-curvature="0"
         style="fill:#eaf500" />
      <path
         id="path1290"
         transform="translate(-156,-65.2434)"
         d="m 405.31069,524.30675 -20.19485,26.3528 c -2.07191,-1.28761 -4.362,-2.71022 -6.8054,-4.23453 L 399.0282,519.39 Z"
         inkscape:connector-curvature="0"
         style="fill:#eaf500" />
      <path
         id="path1292"
         transform="translate(-156,-65.2434)"
         d="m 513.0317,812.001 67.50013,-100.37946 -67.36208,111.17835 0.14086,11.29521 q -7.39167,0.0564 -14.63973,-0.24617 l 3.34786,-145.19248 -0.0917,-1.12011 0.12354,-0.21642 0.32043,-13.71981 -73.92061,-107.32411 73.83339,97.05563 0.262,2.89994 2.5287,-109.69859 -63.84746,-111.27053 64.02932,91.99963 -0.66833,-227.2672 0.001,-0.75643 0.0217,0.74392 4.23834,179.11714 58.18935,-72.75751 -57.99883,88.18805 1.27,98.12284 53.54616,-95.76417 -53.34937,110.18991 0.707,54.56124 77.87058,-133.39835 -77.63388,152.43248 z"
         inkscape:connector-curvature="0"
         style="fill:#e6e6e6" />
      <path
         id="path1294"
         transform="translate(-156,-65.2434)"
         d="m 964.67727,821.09609 47.82553,-71.12137 -47.72772,78.77266 0.0998,8.00294 q -5.23719,0.0399 -10.37262,-0.17441 l 2.372,-102.87253 -0.065,-0.79363 0.0875,-0.15334 0.227,-9.72083 -52.37461,-76.04184 52.31281,68.76636 0.18564,2.05468 1.79165,-77.72422 -45.23754,-78.838 45.36638,65.18406 -0.47353,-161.02454 10e-4,-0.536 0.0154,0.52709 3.003,126.909 41.22864,-51.5505 -41.09363,62.48352 0.89984,69.5225 37.93889,-67.85132 -37.79945,78.07232 0.5009,38.658 55.17335,-94.51608 -55.00559,108.00223 z"
         inkscape:connector-curvature="0"
         style="fill:#e6e6e6" />
      <path
         id="path1296"
         transform="translate(-156,-65.2434)"
         d="m 779.67727,821.09609 47.82554,-71.12137 -47.72773,78.77266 0.0998,8.00294 q -5.23719,0.0399 -10.37262,-0.17441 l 2.372,-102.87253 -0.065,-0.79363 0.0875,-0.15334 0.227,-9.72083 -52.37461,-76.04184 52.31281,68.76636 0.18564,2.05468 1.79165,-77.72422 -45.23754,-78.838 45.36638,65.18406 -0.47353,-161.02454 10e-4,-0.536 0.0154,0.52709 3.003,126.909 41.22862,-51.5505 -41.09361,62.48352 0.89984,69.5225 37.93881,-67.85132 -37.79937,78.07232 0.5009,38.658 55.17327,-94.51608 -55.00551,108.00223 z"
         inkscape:connector-curvature="0"
         style="fill:#e6e6e6" />
      <path
         id="path1298"
         transform="translate(-156,-65.2434)"
         d="m 649.15657,803.073 99.05987,-147.312 -98.85727,163.1599 0.20672,16.5763 q -10.84764,0.0827 -21.48454,-0.36127 l 4.91314,-213.07735 -0.13461,-1.64381 0.18129,-0.3176 0.47025,-20.13452 -108.48224,-157.5036 108.35425,142.43406 0.38451,4.25581 3.711,-160.98826 -93.69942,-163.29513 93.96627,135.01413 -0.98079,-333.52617 0.002,-1.11009 0.0319,1.09174 6.22,262.8635 85.39583,-106.7753 -85.11628,129.42041 1.86381,144.00025 78.58172,-140.53879 -78.29291,161.7093 1.03751,80.07139 L 760.76769,401.317 646.83606,625.01939 Z"
         inkscape:connector-curvature="0"
         style="fill:#3f3d56" />
      <path
         id="path1300"
         transform="translate(-156,-65.2434)"
         d="m 890.67641,809.443 -77.157,-114.74012 76.9992,127.08392 -0.161,12.91115 q 8.44914,0.0644 16.73414,-0.28139 l -3.82681,-165.96427 0.10485,-1.28035 -0.14121,-0.24738 -0.36627,-15.68262 84.496,-122.67831 -84.39631,110.94077 -0.29949,3.31481 -2.89051,-125.39248 72.98174,-127.1893 -73.18956,105.16145 0.76394,-259.78091 -0.002,-0.86464 -0.0248,0.85034 -4.84466,204.74233 -66.51414,-83.16644 66.29639,100.80453 -1.45172,112.16066 -61.20672,-109.46456 60.98174,125.9541 -0.80811,62.367 -89.01105,-152.48285 88.74045,174.24 z"
         inkscape:connector-curvature="0"
         style="fill:#3f3d56" />
      <rect
         id="rect1302"
         height="2.24072"
         width="888"
         y="768.68506"
         x="0"
         style="fill:#3f3d56" />
    </g>
  </g>
  <g
     inkscape:groupmode="layer"
     id="layer2"
     inkscape:label="Layer 2"
     style="display:inline"
     transform="translate(-18.200929,54.354754)" />
</svg>
