<?xml version="1.0" encoding="UTF-8" standalone="no"?>
<svg
   xmlns:dc="http://purl.org/dc/elements/1.1/"
   xmlns:cc="http://creativecommons.org/ns#"
   xmlns:rdf="http://www.w3.org/1999/02/22-rdf-syntax-ns#"
   xmlns:svg="http://www.w3.org/2000/svg"
   xmlns="http://www.w3.org/2000/svg"
   id="svg14592"
   version="1.1"
   viewBox="0 0 16.043646 10.053527"
   height="10.053527mm"
   width="16.043646mm">
  <defs
     id="defs14586">
    <filter
       height="1.0031172"
       y="-0.0015586079"
       width="1.0019511"
       x="-0.00097554456"
       id="filter14025"
       style="color-interpolation-filters:sRGB">
      <feGaussianBlur
         id="feGaussianBlur14027"
         stdDeviation="0.0065086722" />
    </filter>
  </defs>
  <metadata
     id="metadata14589">
    <rdf:RDF>
      <cc:Work
         rdf:about="">
        <dc:format>image/svg+xml</dc:format>
        <dc:type
           rdf:resource="http://purl.org/dc/dcmitype/StillImage" />
        <dc:title></dc:title>
      </cc:Work>
    </rdf:RDF>
  </metadata>
  <g
     transform="translate(-109.90675,-119.61609)"
     id="layer1">
    <g
       id="g15197">
      <rect
         style="opacity:0;fill:#f2f2f2;fill-opacity:1;stroke:#ff5555;stroke-width:0;stroke-linecap:round;stroke-linejoin:round;stroke-miterlimit:4;stroke-dasharray:none;stroke-dashoffset:0;paint-order:normal;filter:url(#filter14025)"
         id="rect5707-4"
         width="16.012403"
         height="10.022285"
         x="109.92237"
         y="119.63171" />
      <ellipse
         style="opacity:1;fill:#ffff00;fill-opacity:1;stroke:#ff5555;stroke-width:0;stroke-linecap:round;stroke-linejoin:round;stroke-miterlimit:4;stroke-dasharray:none;stroke-dashoffset:0;paint-order:normal;filter:url(#filter14025)"
         id="path7459-2"
         cx="118.17001"
         cy="124.45067"
         rx="2.850853"
         ry="2.7474144" />
      <path
         style="opacity:1;fill:#999999;fill-opacity:1;stroke:#ffff55;stroke-width:0;stroke-linecap:round;stroke-linejoin:round;stroke-miterlimit:4;stroke-dasharray:none;stroke-dashoffset:0;stroke-opacity:1;paint-order:normal;filter:url(#filter14025)"
         id="path11433-5"
         d="m 165.81158,121.307 c 0.0127,0.008 0.0259,0.0151 0.0381,0.0239 0.0174,0.0126 0.0335,0.0268 0.0502,0.0401 0.0194,0.0144 0.0386,0.0292 0.0583,0.0434 0.0696,0.0499 0.14099,0.0973 0.21101,0.14662 0.0264,0.0206 0.0531,0.0408 0.0792,0.0617 0.0521,0.0415 0.11917,0.0961 0.16731,0.14179 0.0907,0.086 0.17089,0.18154 0.25083,0.27731 0.13143,0.16358 0.24708,0.34145 0.33114,0.53398 0.0614,0.15687 0.10356,0.31988 0.1318,0.48569 0.0206,0.1189 0.0214,0.23976 0.0225,0.36004 7.9e-4,0.0835 0.001,0.16708 0.001,0.25061 7e-5,0.19366 -0.0114,0.12022 -0.27966,0.23404 7e-5,-0.0142 -0.001,-0.0285 2.1e-4,-0.0426 0.003,-0.0301 0.022,-0.12577 0.0266,-0.14698 0.029,-0.13581 0.065,-0.27017 0.0985,-0.40491 0.0555,-0.22355 0.11359,-0.4465 0.18772,-0.66473 0.0395,-0.11614 0.0585,-0.16125 0.1023,-0.27335 0.0747,-0.17472 0.17078,-0.34485 0.30163,-0.48428 0.0241,-0.0256 0.0506,-0.0489 0.0759,-0.0733 0.083,-0.074 0.17528,-0.13679 0.27135,-0.19247 0.11032,-0.0639 0.22043,-0.12835 0.33252,-0.18915 0.0438,-0.0238 0.15579,-0.0685 0.20181,-0.0874 0.0871,-0.035 0.17632,-0.0642 0.26584,-0.0923 0,0 -0.22239,0.17212 -0.22239,0.17212 v 0 c -0.0878,0.0274 -0.17521,0.0559 -0.26023,0.0911 -0.0336,0.0142 -0.0675,0.0277 -0.10082,0.0427 -0.0334,0.015 -0.12634,0.0715 -0.0992,0.047 0.0403,-0.0363 0.0931,-0.0559 0.13974,-0.0836 0.0318,-0.0189 -0.064,0.0373 -0.0952,0.0571 -0.0958,0.0608 -0.0897,0.0597 -0.17738,0.12964 -0.0258,0.0237 -0.0527,0.046 -0.0772,0.0709 -0.13387,0.13619 -0.23148,0.30567 -0.31029,0.47805 -0.0457,0.11197 -0.0657,0.15734 -0.10669,0.2735 -0.0764,0.21679 -0.13599,0.43873 -0.18808,0.66249 -0.0431,0.18744 -0.0912,0.37438 -0.1128,0.56588 -0.0858,0.0459 -0.17285,0.0894 -0.2573,0.13768 -0.003,0.002 0.008,0.005 0.0109,0.003 0.005,-0.003 0.006,-0.0101 0.008,-0.0156 0.0102,-0.0273 0.006,-0.0553 0.007,-0.0837 0.001,-0.0841 0.002,-0.16819 0.003,-0.25229 -5.3e-4,-0.11931 -0.002,-0.23895 -0.0183,-0.35737 -0.0249,-0.16461 -0.0656,-0.3254 -0.12687,-0.48053 -0.0804,-0.19108 -0.19086,-0.36921 -0.32081,-0.53057 -0.0691,-0.0816 -0.0927,-0.11226 -0.16645,-0.18877 -0.10122,-0.10503 -0.21428,-0.19694 -0.33209,-0.28268 -0.0712,-0.0487 -0.14336,-0.0961 -0.21411,-0.14544 -0.004,-0.003 -0.10148,-0.0728 -0.1107,-0.0786 -0.0134,-0.008 -0.028,-0.015 -0.0419,-0.0225 0,0 0.24426,-0.15741 0.24426,-0.15741 z"
         transform="matrix(0.23981011,0,0,0.16647368,71.480445,102.10876)" />
      <path
         style="opacity:1;fill:#000000;fill-opacity:1;stroke:#ffff55;stroke-width:0;stroke-linecap:round;stroke-linejoin:round;stroke-miterlimit:4;stroke-dasharray:none;stroke-dashoffset:0;stroke-opacity:1;paint-order:normal;filter:url(#filter14025)"
         id="path11433"
         d="m 165.82545,121.45958 c 0.0127,0.008 0.0259,0.0151 0.0381,0.0239 0.0174,0.0126 0.0335,0.0268 0.0502,0.0401 0.0194,0.0144 0.0386,0.0292 0.0583,0.0434 0.0696,0.0499 0.14099,0.0973 0.21101,0.14662 0.0264,0.0206 0.0531,0.0408 0.0792,0.0617 0.0521,0.0415 0.11917,0.0961 0.16731,0.14179 0.0907,0.086 0.17089,0.18154 0.25083,0.27731 0.13143,0.16358 0.24708,0.34145 0.33114,0.53398 0.0614,0.15687 0.10356,0.31988 0.1318,0.48569 0.0206,0.1189 0.0214,0.23976 0.0225,0.36004 7.9e-4,0.0835 0.001,0.16708 0.001,0.25061 7e-5,0.19366 -0.0114,0.12022 -0.27966,0.23404 7e-5,-0.0142 -0.001,-0.0285 2.1e-4,-0.0426 0.003,-0.0301 0.022,-0.12577 0.0266,-0.14698 0.029,-0.13581 0.065,-0.27017 0.0985,-0.40491 0.0555,-0.22355 0.11359,-0.4465 0.18772,-0.66473 0.0395,-0.11614 0.0585,-0.16125 0.1023,-0.27335 0.0747,-0.17472 0.17078,-0.34485 0.30163,-0.48428 0.0241,-0.0256 0.0506,-0.0489 0.0759,-0.0733 0.083,-0.074 0.17528,-0.13679 0.27135,-0.19247 0.11032,-0.0639 0.22043,-0.12835 0.33252,-0.18915 0.0438,-0.0238 0.15579,-0.0685 0.20181,-0.0874 0.0871,-0.035 0.17632,-0.0642 0.26584,-0.0923 0,0 -0.22239,0.17212 -0.22239,0.17212 v 0 c -0.0878,0.0274 -0.17521,0.0559 -0.26023,0.0911 -0.0336,0.0142 -0.0675,0.0277 -0.10082,0.0427 -0.0334,0.015 -0.12634,0.0715 -0.0992,0.047 0.0403,-0.0363 0.0931,-0.0559 0.13974,-0.0836 0.0318,-0.0189 -0.064,0.0373 -0.0952,0.0571 -0.0958,0.0608 -0.0897,0.0597 -0.17738,0.12964 -0.0258,0.0237 -0.0527,0.046 -0.0772,0.0709 -0.13387,0.13619 -0.23148,0.30567 -0.31029,0.47805 -0.0457,0.11197 -0.0657,0.15734 -0.10669,0.2735 -0.0764,0.21679 -0.13599,0.43873 -0.18808,0.66249 -0.0431,0.18744 -0.0912,0.37438 -0.1128,0.56588 -0.0858,0.0459 -0.17285,0.0894 -0.2573,0.13768 -0.003,0.002 0.008,0.005 0.0109,0.003 0.005,-0.003 0.006,-0.0101 0.008,-0.0156 0.0102,-0.0273 0.006,-0.0553 0.007,-0.0837 0.001,-0.0841 0.002,-0.16819 0.003,-0.25229 -5.3e-4,-0.11931 -0.002,-0.23895 -0.0183,-0.35737 -0.0249,-0.16461 -0.0656,-0.3254 -0.12687,-0.48053 -0.0804,-0.19108 -0.19086,-0.36921 -0.32081,-0.53057 -0.0691,-0.0816 -0.0927,-0.11226 -0.16645,-0.18877 -0.10122,-0.10503 -0.21428,-0.19694 -0.33209,-0.28268 -0.0712,-0.0487 -0.14336,-0.0961 -0.21411,-0.14544 -0.004,-0.003 -0.10148,-0.0728 -0.1107,-0.0786 -0.0134,-0.008 -0.028,-0.015 -0.0419,-0.0225 0,0 0.24426,-0.15741 0.24426,-0.15741 z"
         transform="matrix(0.23981011,0,0,0.16647368,71.480445,102.10876)" />
      <path
         style="opacity:1;fill:#999999;fill-opacity:1;stroke:#ffff55;stroke-width:0;stroke-linecap:round;stroke-linejoin:round;stroke-miterlimit:4;stroke-dasharray:none;stroke-dashoffset:0;stroke-opacity:1;paint-order:normal;filter:url(#filter14025)"
         id="path11433-5-2"
         d="m 165.81158,121.307 c 0.0127,0.008 0.0259,0.0151 0.0381,0.0239 0.0174,0.0126 0.0335,0.0268 0.0502,0.0401 0.0194,0.0144 0.0386,0.0292 0.0583,0.0434 0.0696,0.0499 0.14099,0.0973 0.21101,0.14662 0.0264,0.0206 0.0531,0.0408 0.0792,0.0617 0.0521,0.0415 0.11917,0.0961 0.16731,0.14179 0.0907,0.086 0.17089,0.18154 0.25083,0.27731 0.13143,0.16358 0.24708,0.34145 0.33114,0.53398 0.0614,0.15687 0.10356,0.31988 0.1318,0.48569 0.0206,0.1189 0.0214,0.23976 0.0225,0.36004 7.9e-4,0.0835 0.001,0.16708 0.001,0.25061 7e-5,0.19366 -0.0114,0.12022 -0.27966,0.23404 7e-5,-0.0142 -0.001,-0.0285 2.1e-4,-0.0426 0.003,-0.0301 0.022,-0.12577 0.0266,-0.14698 0.029,-0.13581 0.065,-0.27017 0.0985,-0.40491 0.0555,-0.22355 0.11359,-0.4465 0.18772,-0.66473 0.0395,-0.11614 0.0585,-0.16125 0.1023,-0.27335 0.0747,-0.17472 0.17078,-0.34485 0.30163,-0.48428 0.0241,-0.0256 0.0506,-0.0489 0.0759,-0.0733 0.083,-0.074 0.17528,-0.13679 0.27135,-0.19247 0.11032,-0.0639 0.22043,-0.12835 0.33252,-0.18915 0.0438,-0.0238 0.15579,-0.0685 0.20181,-0.0874 0.0871,-0.035 0.17632,-0.0642 0.26584,-0.0923 0,0 -0.22239,0.17212 -0.22239,0.17212 v 0 c -0.0878,0.0274 -0.17521,0.0559 -0.26023,0.0911 -0.0336,0.0142 -0.0675,0.0277 -0.10082,0.0427 -0.0334,0.015 -0.12634,0.0715 -0.0992,0.047 0.0403,-0.0363 0.0931,-0.0559 0.13974,-0.0836 0.0318,-0.0189 -0.064,0.0373 -0.0952,0.0571 -0.0958,0.0608 -0.0897,0.0597 -0.17738,0.12964 -0.0258,0.0237 -0.0527,0.046 -0.0772,0.0709 -0.13387,0.13619 -0.23148,0.30567 -0.31029,0.47805 -0.0457,0.11197 -0.0657,0.15734 -0.10669,0.2735 -0.0764,0.21679 -0.13599,0.43873 -0.18808,0.66249 -0.0431,0.18744 -0.0912,0.37438 -0.1128,0.56588 -0.0858,0.0459 -0.17285,0.0894 -0.2573,0.13768 -0.003,0.002 0.008,0.005 0.0109,0.003 0.005,-0.003 0.006,-0.0101 0.008,-0.0156 0.0102,-0.0273 0.006,-0.0553 0.007,-0.0837 0.001,-0.0841 0.002,-0.16819 0.003,-0.25229 -5.3e-4,-0.11931 -0.002,-0.23895 -0.0183,-0.35737 -0.0249,-0.16461 -0.0656,-0.3254 -0.12687,-0.48053 -0.0804,-0.19108 -0.19086,-0.36921 -0.32081,-0.53057 -0.0691,-0.0816 -0.0927,-0.11226 -0.16645,-0.18877 -0.10122,-0.10503 -0.21428,-0.19694 -0.33209,-0.28268 -0.0712,-0.0487 -0.14336,-0.0961 -0.21411,-0.14544 -0.004,-0.003 -0.10148,-0.0728 -0.1107,-0.0786 -0.0134,-0.008 -0.028,-0.015 -0.0419,-0.0225 0,0 0.24426,-0.15741 0.24426,-0.15741 z"
         transform="matrix(0.23981011,0,0,0.16647368,73.979617,107.9238)" />
      <path
         style="opacity:1;fill:#000000;fill-opacity:1;stroke:#ffff55;stroke-width:0;stroke-linecap:round;stroke-linejoin:round;stroke-miterlimit:4;stroke-dasharray:none;stroke-dashoffset:0;stroke-opacity:1;paint-order:normal;filter:url(#filter14025)"
         id="path11433-1"
         d="m 165.82545,121.45958 c 0.0127,0.008 0.0259,0.0151 0.0381,0.0239 0.0174,0.0126 0.0335,0.0268 0.0502,0.0401 0.0194,0.0144 0.0386,0.0292 0.0583,0.0434 0.0696,0.0499 0.14099,0.0973 0.21101,0.14662 0.0264,0.0206 0.0531,0.0408 0.0792,0.0617 0.0521,0.0415 0.11917,0.0961 0.16731,0.14179 0.0907,0.086 0.17089,0.18154 0.25083,0.27731 0.13143,0.16358 0.24708,0.34145 0.33114,0.53398 0.0614,0.15687 0.10356,0.31988 0.1318,0.48569 0.0206,0.1189 0.0214,0.23976 0.0225,0.36004 7.9e-4,0.0835 0.001,0.16708 0.001,0.25061 7e-5,0.19366 -0.0114,0.12022 -0.27966,0.23404 7e-5,-0.0142 -0.001,-0.0285 2.1e-4,-0.0426 0.003,-0.0301 0.022,-0.12577 0.0266,-0.14698 0.029,-0.13581 0.065,-0.27017 0.0985,-0.40491 0.0555,-0.22355 0.11359,-0.4465 0.18772,-0.66473 0.0395,-0.11614 0.0585,-0.16125 0.1023,-0.27335 0.0747,-0.17472 0.17078,-0.34485 0.30163,-0.48428 0.0241,-0.0256 0.0506,-0.0489 0.0759,-0.0733 0.083,-0.074 0.17528,-0.13679 0.27135,-0.19247 0.11032,-0.0639 0.22043,-0.12835 0.33252,-0.18915 0.0438,-0.0238 0.15579,-0.0685 0.20181,-0.0874 0.0871,-0.035 0.17632,-0.0642 0.26584,-0.0923 0,0 -0.22239,0.17212 -0.22239,0.17212 v 0 c -0.0878,0.0274 -0.17521,0.0559 -0.26023,0.0911 -0.0336,0.0142 -0.0675,0.0277 -0.10082,0.0427 -0.0334,0.015 -0.12634,0.0715 -0.0992,0.047 0.0403,-0.0363 0.0931,-0.0559 0.13974,-0.0836 0.0318,-0.0189 -0.064,0.0373 -0.0952,0.0571 -0.0958,0.0608 -0.0897,0.0597 -0.17738,0.12964 -0.0258,0.0237 -0.0527,0.046 -0.0772,0.0709 -0.13387,0.13619 -0.23148,0.30567 -0.31029,0.47805 -0.0457,0.11197 -0.0657,0.15734 -0.10669,0.2735 -0.0764,0.21679 -0.13599,0.43873 -0.18808,0.66249 -0.0431,0.18744 -0.0912,0.37438 -0.1128,0.56588 -0.0858,0.0459 -0.17285,0.0894 -0.2573,0.13768 -0.003,0.002 0.008,0.005 0.0109,0.003 0.005,-0.003 0.006,-0.0101 0.008,-0.0156 0.0102,-0.0273 0.006,-0.0553 0.007,-0.0837 0.001,-0.0841 0.002,-0.16819 0.003,-0.25229 -5.3e-4,-0.11931 -0.002,-0.23895 -0.0183,-0.35737 -0.0249,-0.16461 -0.0656,-0.3254 -0.12687,-0.48053 -0.0804,-0.19108 -0.19086,-0.36921 -0.32081,-0.53057 -0.0691,-0.0816 -0.0927,-0.11226 -0.16645,-0.18877 -0.10122,-0.10503 -0.21428,-0.19694 -0.33209,-0.28268 -0.0712,-0.0487 -0.14336,-0.0961 -0.21411,-0.14544 -0.004,-0.003 -0.10148,-0.0728 -0.1107,-0.0786 -0.0134,-0.008 -0.028,-0.015 -0.0419,-0.0225 0,0 0.24426,-0.15741 0.24426,-0.15741 z"
         transform="matrix(0.23981011,0,0,0.16647368,73.979617,107.9238)" />
      <path
         style="opacity:1;fill:#999999;fill-opacity:1;stroke:#ffff55;stroke-width:0;stroke-linecap:round;stroke-linejoin:round;stroke-miterlimit:4;stroke-dasharray:none;stroke-dashoffset:0;stroke-opacity:1;paint-order:normal;filter:url(#filter14025)"
         id="path11433-5-0"
         d="m 165.81158,121.307 c 0.0127,0.008 0.0259,0.0151 0.0381,0.0239 0.0174,0.0126 0.0335,0.0268 0.0502,0.0401 0.0194,0.0144 0.0386,0.0292 0.0583,0.0434 0.0696,0.0499 0.14099,0.0973 0.21101,0.14662 0.0264,0.0206 0.0531,0.0408 0.0792,0.0617 0.0521,0.0415 0.11917,0.0961 0.16731,0.14179 0.0907,0.086 0.17089,0.18154 0.25083,0.27731 0.13143,0.16358 0.24708,0.34145 0.33114,0.53398 0.0614,0.15687 0.10356,0.31988 0.1318,0.48569 0.0206,0.1189 0.0214,0.23976 0.0225,0.36004 7.9e-4,0.0835 0.001,0.16708 0.001,0.25061 7e-5,0.19366 -0.0114,0.12022 -0.27966,0.23404 7e-5,-0.0142 -0.001,-0.0285 2.1e-4,-0.0426 0.003,-0.0301 0.022,-0.12577 0.0266,-0.14698 0.029,-0.13581 0.065,-0.27017 0.0985,-0.40491 0.0555,-0.22355 0.11359,-0.4465 0.18772,-0.66473 0.0395,-0.11614 0.0585,-0.16125 0.1023,-0.27335 0.0747,-0.17472 0.17078,-0.34485 0.30163,-0.48428 0.0241,-0.0256 0.0506,-0.0489 0.0759,-0.0733 0.083,-0.074 0.17528,-0.13679 0.27135,-0.19247 0.11032,-0.0639 0.22043,-0.12835 0.33252,-0.18915 0.0438,-0.0238 0.15579,-0.0685 0.20181,-0.0874 0.0871,-0.035 0.17632,-0.0642 0.26584,-0.0923 0,0 -0.22239,0.17212 -0.22239,0.17212 v 0 c -0.0878,0.0274 -0.17521,0.0559 -0.26023,0.0911 -0.0336,0.0142 -0.0675,0.0277 -0.10082,0.0427 -0.0334,0.015 -0.12634,0.0715 -0.0992,0.047 0.0403,-0.0363 0.0931,-0.0559 0.13974,-0.0836 0.0318,-0.0189 -0.064,0.0373 -0.0952,0.0571 -0.0958,0.0608 -0.0897,0.0597 -0.17738,0.12964 -0.0258,0.0237 -0.0527,0.046 -0.0772,0.0709 -0.13387,0.13619 -0.23148,0.30567 -0.31029,0.47805 -0.0457,0.11197 -0.0657,0.15734 -0.10669,0.2735 -0.0764,0.21679 -0.13599,0.43873 -0.18808,0.66249 -0.0431,0.18744 -0.0912,0.37438 -0.1128,0.56588 -0.0858,0.0459 -0.17285,0.0894 -0.2573,0.13768 -0.003,0.002 0.008,0.005 0.0109,0.003 0.005,-0.003 0.006,-0.0101 0.008,-0.0156 0.0102,-0.0273 0.006,-0.0553 0.007,-0.0837 0.001,-0.0841 0.002,-0.16819 0.003,-0.25229 -5.3e-4,-0.11931 -0.002,-0.23895 -0.0183,-0.35737 -0.0249,-0.16461 -0.0656,-0.3254 -0.12687,-0.48053 -0.0804,-0.19108 -0.19086,-0.36921 -0.32081,-0.53057 -0.0691,-0.0816 -0.0927,-0.11226 -0.16645,-0.18877 -0.10122,-0.10503 -0.21428,-0.19694 -0.33209,-0.28268 -0.0712,-0.0487 -0.14336,-0.0961 -0.21411,-0.14544 -0.004,-0.003 -0.10148,-0.0728 -0.1107,-0.0786 -0.0134,-0.008 -0.028,-0.015 -0.0419,-0.0225 0,0 0.24426,-0.15741 0.24426,-0.15741 z"
         transform="matrix(0.23981011,0,0,0.16647368,82.857007,101.43221)" />
      <path
         style="opacity:1;fill:#000000;fill-opacity:1;stroke:#ffff55;stroke-width:0;stroke-linecap:round;stroke-linejoin:round;stroke-miterlimit:4;stroke-dasharray:none;stroke-dashoffset:0;stroke-opacity:1;paint-order:normal;filter:url(#filter14025)"
         id="path11433-6"
         d="m 165.82545,121.45958 c 0.0127,0.008 0.0259,0.0151 0.0381,0.0239 0.0174,0.0126 0.0335,0.0268 0.0502,0.0401 0.0194,0.0144 0.0386,0.0292 0.0583,0.0434 0.0696,0.0499 0.14099,0.0973 0.21101,0.14662 0.0264,0.0206 0.0531,0.0408 0.0792,0.0617 0.0521,0.0415 0.11917,0.0961 0.16731,0.14179 0.0907,0.086 0.17089,0.18154 0.25083,0.27731 0.13143,0.16358 0.24708,0.34145 0.33114,0.53398 0.0614,0.15687 0.10356,0.31988 0.1318,0.48569 0.0206,0.1189 0.0214,0.23976 0.0225,0.36004 7.9e-4,0.0835 0.001,0.16708 0.001,0.25061 7e-5,0.19366 -0.0114,0.12022 -0.27966,0.23404 7e-5,-0.0142 -0.001,-0.0285 2.1e-4,-0.0426 0.003,-0.0301 0.022,-0.12577 0.0266,-0.14698 0.029,-0.13581 0.065,-0.27017 0.0985,-0.40491 0.0555,-0.22355 0.11359,-0.4465 0.18772,-0.66473 0.0395,-0.11614 0.0585,-0.16125 0.1023,-0.27335 0.0747,-0.17472 0.17078,-0.34485 0.30163,-0.48428 0.0241,-0.0256 0.0506,-0.0489 0.0759,-0.0733 0.083,-0.074 0.17528,-0.13679 0.27135,-0.19247 0.11032,-0.0639 0.22043,-0.12835 0.33252,-0.18915 0.0438,-0.0238 0.15579,-0.0685 0.20181,-0.0874 0.0871,-0.035 0.17632,-0.0642 0.26584,-0.0923 0,0 -0.22239,0.17212 -0.22239,0.17212 v 0 c -0.0878,0.0274 -0.17521,0.0559 -0.26023,0.0911 -0.0336,0.0142 -0.0675,0.0277 -0.10082,0.0427 -0.0334,0.015 -0.12634,0.0715 -0.0992,0.047 0.0403,-0.0363 0.0931,-0.0559 0.13974,-0.0836 0.0318,-0.0189 -0.064,0.0373 -0.0952,0.0571 -0.0958,0.0608 -0.0897,0.0597 -0.17738,0.12964 -0.0258,0.0237 -0.0527,0.046 -0.0772,0.0709 -0.13387,0.13619 -0.23148,0.30567 -0.31029,0.47805 -0.0457,0.11197 -0.0657,0.15734 -0.10669,0.2735 -0.0764,0.21679 -0.13599,0.43873 -0.18808,0.66249 -0.0431,0.18744 -0.0912,0.37438 -0.1128,0.56588 -0.0858,0.0459 -0.17285,0.0894 -0.2573,0.13768 -0.003,0.002 0.008,0.005 0.0109,0.003 0.005,-0.003 0.006,-0.0101 0.008,-0.0156 0.0102,-0.0273 0.006,-0.0553 0.007,-0.0837 0.001,-0.0841 0.002,-0.16819 0.003,-0.25229 -5.3e-4,-0.11931 -0.002,-0.23895 -0.0183,-0.35737 -0.0249,-0.16461 -0.0656,-0.3254 -0.12687,-0.48053 -0.0804,-0.19108 -0.19086,-0.36921 -0.32081,-0.53057 -0.0691,-0.0816 -0.0927,-0.11226 -0.16645,-0.18877 -0.10122,-0.10503 -0.21428,-0.19694 -0.33209,-0.28268 -0.0712,-0.0487 -0.14336,-0.0961 -0.21411,-0.14544 -0.004,-0.003 -0.10148,-0.0728 -0.1107,-0.0786 -0.0134,-0.008 -0.028,-0.015 -0.0419,-0.0225 0,0 0.24426,-0.15741 0.24426,-0.15741 z"
         transform="matrix(0.23981011,0,0,0.16647368,82.857007,101.43221)" />
    </g>
  </g>
</svg>
