<?xml version="1.0" encoding="UTF-8" standalone="no"?>
<svg
   xmlns:dc="http://purl.org/dc/elements/1.1/"
   xmlns:cc="http://creativecommons.org/ns#"
   xmlns:rdf="http://www.w3.org/1999/02/22-rdf-syntax-ns#"
   xmlns:svg="http://www.w3.org/2000/svg"
   xmlns="http://www.w3.org/2000/svg"
   xmlns:xlink="http://www.w3.org/1999/xlink"
   id="svg16205"
   version="1.1"
   viewBox="0 0 64.049614 10.062695"
   height="10.062695mm"
   width="64.049614mm">
  <defs
     id="defs16199">
    <filter
       height="1.0031172"
       y="-0.0015586079"
       width="1.0019511"
       x="-0.00097554456"
       id="filter14025-50"
       style="color-interpolation-filters:sRGB">
      <feGaussianBlur
         id="feGaussianBlur14027-9"
         stdDeviation="0.0065086722" />
    </filter>
    <linearGradient
       gradientTransform="translate(170.14228,134.36502)"
       gradientUnits="userSpaceOnUse"
       y2="-232.87634"
       x2="4.16113"
       y1="-228.87346"
       x1="-1.607442"
       id="linearGradient14227-8"
       xlink:href="#linearGradient14225" />
    <linearGradient
       id="linearGradient14225">
      <stop
         id="stop14221"
         offset="0"
         style="stop-color:#ffff43;stop-opacity:0.99862745" />
      <stop
         id="stop14223"
         offset="1"
         style="stop-color:#ffff75;stop-opacity:0;" />
    </linearGradient>
    <filter
       height="1.0031172"
       y="-0.0015586079"
       width="1.0019511"
       x="-0.00097554456"
       id="filter14025-5-1"
       style="color-interpolation-filters:sRGB">
      <feGaussianBlur
         id="feGaussianBlur14027-8-5"
         stdDeviation="0.0065086722" />
    </filter>
    <filter
       height="1.0031172"
       y="-0.0015586079"
       width="1.0019511"
       x="-0.00097554456"
       id="filter14025-21"
       style="color-interpolation-filters:sRGB">
      <feGaussianBlur
         id="feGaussianBlur14027-61"
         stdDeviation="0.0065086722" />
    </filter>
    <linearGradient
       gradientUnits="userSpaceOnUse"
       y2="-260.92136"
       x2="-46.950005"
       y1="-255.74303"
       x1="-54.737583"
       id="linearGradient14217-2"
       xlink:href="#linearGradient14215"
       gradientTransform="translate(90.143438,87.135036)" />
    <linearGradient
       id="linearGradient14215">
      <stop
         id="stop14211"
         offset="0"
         style="stop-color:#ffba04;stop-opacity:1;" />
      <stop
         id="stop14213"
         offset="1"
         style="stop-color:#ffba04;stop-opacity:0;" />
    </linearGradient>
    <filter
       height="1.0031172"
       y="-0.0015586079"
       width="1.0019511"
       x="-0.00097554456"
       id="filter14025-1"
       style="color-interpolation-filters:sRGB">
      <feGaussianBlur
         id="feGaussianBlur14027-6"
         stdDeviation="0.0065086722" />
    </filter>
    <filter
       height="1.0031172"
       y="-0.0015586079"
       width="1.0019511"
       x="-0.00097554456"
       id="filter14025-2"
       style="color-interpolation-filters:sRGB">
      <feGaussianBlur
         id="feGaussianBlur14027-4"
         stdDeviation="0.0065086722" />
    </filter>
    <filter
       height="1.0031172"
       y="-0.0015586079"
       width="1.0019511"
       x="-0.00097554456"
       id="filter14025-12"
       style="color-interpolation-filters:sRGB">
      <feGaussianBlur
         id="feGaussianBlur14027-3"
         stdDeviation="0.0065086722" />
    </filter>
  </defs>
  <metadata
     id="metadata16202">
    <rdf:RDF>
      <cc:Work
         rdf:about="">
        <dc:format>image/svg+xml</dc:format>
        <dc:type
           rdf:resource="http://purl.org/dc/dcmitype/StillImage" />
        <dc:title></dc:title>
      </cc:Work>
    </rdf:RDF>
  </metadata>
  <g
     transform="translate(183.97124,-167.99246)"
     id="layer1">
    <g
       id="g15915"
       transform="translate(-394.19664,52.272712)">
      <g
         id="g15880"
         transform="translate(9.5095968,21.502179)">
        <rect
           y="94.250053"
           x="248.75302"
           height="10.005423"
           width="16.012403"
           id="rect5707-9"
           style="opacity:1;fill:#000000;fill-opacity:1;stroke:#ff5555;stroke-width:0;stroke-linecap:round;stroke-linejoin:round;stroke-miterlimit:4;stroke-dasharray:none;stroke-dashoffset:0;paint-order:normal" />
        <ellipse
           ry="2.841316"
           rx="2.850853"
           cy="99.686501"
           cx="256.89859"
           id="path7459-3"
           style="opacity:1;fill:#ececec;fill-opacity:1;stroke:#ff5555;stroke-width:0;stroke-linecap:round;stroke-linejoin:round;stroke-miterlimit:4;stroke-dasharray:none;stroke-dashoffset:0;paint-order:normal" />
        <path
           transform="matrix(0.01841814,0,0,0.01935475,248.75427,94.610383)"
           d="m 106.54828,54.645224 6.60129,10.291047 12.21989,0.396164 -7.74745,9.45831 3.39938,11.744231 -11.38949,-4.445491 -10.118958,6.86217 0.708368,-12.205775 -9.653242,-7.503176 11.827282,-3.098093 z"
           id="path11308"
           style="opacity:1;fill:#ffffff;fill-opacity:1;stroke:#ffffff;stroke-width:0;stroke-linecap:round;stroke-linejoin:round;stroke-miterlimit:4;stroke-dasharray:none;stroke-dashoffset:0;stroke-opacity:0.96648045;paint-order:normal" />
        <path
           transform="matrix(0.01841814,0,0,0.01935475,250.15339,101.48324)"
           d="m 106.54828,54.645224 6.60129,10.291047 12.21989,0.396164 -7.74745,9.45831 3.39938,11.744231 -11.38949,-4.445491 -10.118958,6.86217 0.708368,-12.205775 -9.653242,-7.503176 11.827282,-3.098093 z"
           id="path11308-6"
           style="opacity:1;fill:#ffffff;fill-opacity:1;stroke:#ffffff;stroke-width:0;stroke-linecap:round;stroke-linejoin:round;stroke-miterlimit:4;stroke-dasharray:none;stroke-dashoffset:0;stroke-opacity:0.96648045;paint-order:normal" />
        <path
           transform="matrix(0.01841814,0,0,0.01935475,252.62457,94.334001)"
           d="m 106.54828,54.645224 6.60129,10.291047 12.21989,0.396164 -7.74745,9.45831 3.39938,11.744231 -11.38949,-4.445491 -10.118958,6.86217 0.708368,-12.205775 -9.653242,-7.503176 11.827282,-3.098093 z"
           id="path11308-9"
           style="opacity:1;fill:#ffffff;fill-opacity:1;stroke:#ffffff;stroke-width:0;stroke-linecap:round;stroke-linejoin:round;stroke-miterlimit:4;stroke-dasharray:none;stroke-dashoffset:0;stroke-opacity:0.96648045;paint-order:normal" />
        <path
           transform="matrix(0.01841814,0,0,0.01935475,248.82695,97.558524)"
           d="m 106.54828,54.645224 6.60129,10.291047 12.21989,0.396164 -7.74745,9.45831 3.39938,11.744231 -11.38949,-4.445491 -10.118958,6.86217 0.708368,-12.205775 -9.653242,-7.503176 11.827282,-3.098093 z"
           id="path11308-5"
           style="opacity:1;fill:#ffffff;fill-opacity:1;stroke:#ffffff;stroke-width:0;stroke-linecap:round;stroke-linejoin:round;stroke-miterlimit:4;stroke-dasharray:none;stroke-dashoffset:0;stroke-opacity:0.96648045;paint-order:normal" />
        <path
           transform="matrix(0.01841814,0,0,0.01935475,260.91029,96.379265)"
           d="m 106.54828,54.645224 6.60129,10.291047 12.21989,0.396164 -7.74745,9.45831 3.39938,11.744231 -11.38949,-4.445491 -10.118958,6.86217 0.708368,-12.205775 -9.653242,-7.503176 11.827282,-3.098093 z"
           id="path11308-69"
           style="opacity:1;fill:#ffffff;fill-opacity:1;stroke:#ffffff;stroke-width:0;stroke-linecap:round;stroke-linejoin:round;stroke-miterlimit:4;stroke-dasharray:none;stroke-dashoffset:0;stroke-opacity:0.96648045;paint-order:normal" />
        <ellipse
           transform="matrix(0.87563089,0.4829809,0.03019475,0.99954403,0,0)"
           ry="0.17480318"
           rx="0.33117461"
           cy="-45.500198"
           cx="296.41916"
           id="path11363"
           style="opacity:1;fill:#ffffff;fill-opacity:1;stroke:#ffff55;stroke-width:0;stroke-linecap:round;stroke-linejoin:round;stroke-miterlimit:4;stroke-dasharray:none;stroke-dashoffset:0;stroke-opacity:1;paint-order:normal" />
        <ellipse
           transform="matrix(0.8438952,0.53650806,0.02620002,0.99965672,0,0)"
           ry="0.143648"
           rx="0.24502479"
           cy="-67.259171"
           cx="308.40695"
           id="path11363-3"
           style="opacity:1;fill:#ffffff;fill-opacity:1;stroke:#ffff55;stroke-width:0;stroke-linecap:round;stroke-linejoin:round;stroke-miterlimit:4;stroke-dasharray:none;stroke-dashoffset:0;stroke-opacity:1;paint-order:normal" />
        <ellipse
           transform="matrix(0.84389519,0.53650806,0.02620002,0.99965672,0,0)"
           ry="0.14364798"
           rx="0.24502479"
           cy="-67.264099"
           cx="307.33505"
           id="path11363-3-0"
           style="opacity:1;fill:#ffffff;fill-opacity:1;stroke:#ffff55;stroke-width:0;stroke-linecap:round;stroke-linejoin:round;stroke-miterlimit:4;stroke-dasharray:none;stroke-dashoffset:0;stroke-opacity:1;paint-order:normal" />
        <ellipse
           ry="0.30832961"
           rx="0.33347982"
           cy="101.27707"
           cx="255.51688"
           id="path11425"
           style="opacity:1;fill:#ffffff;fill-opacity:1;stroke:#ffff55;stroke-width:0;stroke-linecap:round;stroke-linejoin:round;stroke-miterlimit:4;stroke-dasharray:none;stroke-dashoffset:0;stroke-opacity:1;paint-order:normal" />
      </g>
      <g
         transform="translate(236.32288,-71.280826)"
         id="g14419">
        <path
           transform="matrix(0.26458333,0,0,0.26458333,-26.097483,187.01621)"
           d="m 50.090876,23.70297 c 0.01151,0.005 0.02347,0.0095 0.03453,0.01504 0.01577,0.0079 0.03036,0.01686 0.0455,0.02523 0.01758,0.0091 0.03498,0.01837 0.05284,0.02731 0.06308,0.0314 0.127789,0.06122 0.191253,0.09225 0.02393,0.01296 0.04813,0.02567 0.07178,0.03882 0.04722,0.02611 0.108012,0.06047 0.151645,0.08921 0.08221,0.05411 0.154889,0.114224 0.227344,0.174482 0.119124,0.102923 0.223946,0.214837 0.300135,0.335975 0.05565,0.0987 0.09386,0.201266 0.11946,0.305593 0.01867,0.07481 0.0194,0.150855 0.02039,0.226534 7.16e-4,0.05254 9.06e-4,0.105125 9.06e-4,0.157682 6.3e-5,0.121849 -0.01033,0.07564 -0.253475,0.147256 6.3e-5,-0.0089 -9.07e-4,-0.01793 1.9e-4,-0.0268 0.0027,-0.01894 0.01994,-0.07913 0.02411,-0.09248 0.02629,-0.08545 0.05891,-0.169989 0.08928,-0.254766 0.05031,-0.140656 0.102956,-0.280935 0.170145,-0.418243 0.0358,-0.07307 0.05302,-0.101457 0.09272,-0.17199 0.06771,-0.109932 0.15479,-0.216977 0.273388,-0.304705 0.02184,-0.01611 0.04586,-0.03077 0.06879,-0.04612 0.07523,-0.04656 0.158868,-0.08607 0.245943,-0.1211 0.09999,-0.04021 0.199791,-0.08076 0.301386,-0.119012 0.0397,-0.01497 0.141203,-0.0431 0.182914,-0.05499 0.07894,-0.02202 0.159811,-0.04039 0.240949,-0.05807 0,0 -0.201567,0.108297 -0.201567,0.108297 v 0 c -0.07958,0.01724 -0.158805,0.03517 -0.235865,0.05732 -0.03045,0.0089 -0.06118,0.01743 -0.09138,0.02687 -0.03027,0.0094 -0.11451,0.04499 -0.08991,0.02957 0.03653,-0.02284 0.08438,-0.03517 0.126656,-0.0526 0.02882,-0.01189 -0.05801,0.02347 -0.08629,0.03593 -0.08683,0.03825 -0.0813,0.03756 -0.160771,0.08157 -0.02338,0.01491 -0.04777,0.02894 -0.06997,0.04461 -0.121336,0.08569 -0.209807,0.192325 -0.281237,0.300786 -0.04142,0.07045 -0.05955,0.099 -0.0967,0.172084 -0.06925,0.136402 -0.123258,0.276045 -0.170471,0.416833 -0.03906,0.117935 -0.08266,0.235557 -0.102238,0.356047 -0.07777,0.02888 -0.156666,0.05625 -0.233209,0.08663 -0.0027,0.0013 0.0072,0.0031 0.0099,0.0019 0.0045,-0.0019 0.0054,-0.0064 0.0072,-0.0098 0.0092,-0.01718 0.0054,-0.03479 0.0063,-0.05266 9.07e-4,-0.05291 0.0018,-0.105824 0.0027,-0.158739 -4.76e-4,-0.07507 -0.0018,-0.150343 -0.01658,-0.224852 -0.02257,-0.103572 -0.05946,-0.204739 -0.114991,-0.302346 -0.07287,-0.120226 -0.17299,-0.232304 -0.290773,-0.33383 -0.06263,-0.05134 -0.08402,-0.07063 -0.150865,-0.118773 -0.09174,-0.06608 -0.194216,-0.123913 -0.300996,-0.17786 -0.06453,-0.03064 -0.129937,-0.06046 -0.194062,-0.09151 -0.0036,-0.0019 -0.09198,-0.04581 -0.100335,-0.04946 -0.01215,-0.005 -0.02538,-0.0094 -0.03798,-0.01416 0,0 0.221389,-0.09904 0.221389,-0.09904 z"
           id="path11433-5-5-2"
           style="opacity:1;fill:#999999;fill-opacity:1;stroke:#ffff55;stroke-width:0;stroke-linecap:round;stroke-linejoin:round;stroke-miterlimit:4;stroke-dasharray:none;stroke-dashoffset:0;stroke-opacity:1;paint-order:normal;filter:url(#filter14025-50)" />
        <rect
           y="187.0162"
           x="-26.097475"
           height="10.022285"
           width="16.012403"
           id="rect5707-1"
           style="opacity:0.10659999;fill:#00ffff;fill-opacity:1;stroke:#ff5555;stroke-width:0;stroke-linecap:round;stroke-linejoin:round;stroke-miterlimit:4;stroke-dasharray:none;stroke-dashoffset:0;paint-order:normal" />
        <path
           transform="rotate(124.29332)"
           d="m 173.53064,-95.211699 a 2.850853,2.7474144 0 0 1 -3.40727,1.984743 2.850853,2.7474144 0 0 1 -2.14348,-3.233315 2.850853,2.7474144 0 0 1 3.30075,-2.145407"
           id="path7459-1"
           style="opacity:0.41000001;fill:url(#linearGradient14227-8);fill-opacity:1;stroke:#ff5555;stroke-width:0;stroke-linecap:round;stroke-linejoin:round;stroke-miterlimit:4;stroke-dasharray:none;stroke-dashoffset:0;paint-order:normal" />
        <path
           transform="matrix(0.26458333,0,0,0.26458333,-12.90279,193.27892)"
           d="m 0.23377998,0.12890284 c 0.0115109,0.005034 0.023475,0.009501 0.0345327,0.0150377 0.0157708,0.007928 0.0303634,0.0168623 0.0454997,0.0252306 0.0175836,0.00906 0.0349858,0.0183724 0.0528413,0.0273069 0.0630833,0.0313967 0.12778896,0.0612204 0.19125291,0.0922521 0.0239281,0.0129614 0.0481282,0.025671 0.0717844,0.0388211 0.0472218,0.0261115 0.10801198,0.0604653 0.15164458,0.0892131 0.0822077,0.0541105 0.15488939,0.11422349 0.22734453,0.1744812 0.1191241,0.1029232 0.2239456,0.21483756 0.300135,0.33597587 0.055651,0.0987013 0.093864,0.20126589 0.1194594,0.30559219 0.018671,0.074811 0.019396,0.150855 0.020393,0.2265342 7.16e-4,0.052537 9.064e-4,0.1051254 9.064e-4,0.1576818 6.34e-5,0.1218493 -0.010333,0.075641 -0.2534751,0.147256 6.34e-5,-0.00893 -9.064e-4,-0.017932 1.903e-4,-0.026803 0.00272,-0.018939 0.01994,-0.079134 0.024109,-0.092479 0.026285,-0.085451 0.058914,-0.1699887 0.089277,-0.254766 0.050304,-0.1406559 0.1029545,-0.2809342 0.1701436,-0.4182427 0.035802,-0.0730743 0.053023,-0.10145719 0.092722,-0.17198959 0.067706,-0.10993241 0.1547896,-0.21697682 0.273388,-0.30470504 0.021843,-0.0161073 0.045862,-0.0307675 0.068793,-0.0461198 0.075229,-0.0465602 0.1588684,-0.0860672 0.2459432,-0.12110056 0.099991,-0.0402054 0.1997909,-0.0807568 0.3013858,-0.11901164 0.039699,-0.0149748 0.1412032,-0.0430996 0.1829143,-0.0549914 0.078945,-0.0220217 0.159811,-0.0403941 0.2409491,-0.05807441 0,0 -0.2015673,0.10829651 -0.2015673,0.10829651 v 0 c -0.079579,0.0172399 -0.1588049,0.0351718 -0.2358644,0.0573194 -0.030454,0.008935 -0.06118,0.0174286 -0.09138,0.0268665 -0.030273,0.009438 -0.1145107,0.0449872 -0.089912,0.029572 0.036527,-0.0228397 0.084383,-0.0351718 0.126656,-0.0526004 0.028822,-0.0118917 -0.058008,0.0234688 -0.086286,0.0359269 -0.08683,0.0382549 -0.081301,0.0375628 -0.1607717,0.0815684 -0.023384,0.0149119 -0.047766,0.0289428 -0.069972,0.0446097 C 1.9554821,0.51325098 1.8670115,0.61988641 1.7955805,0.72834651 1.7541595,0.79879712 1.7360321,0.82734355 1.69888,0.90043048 1.6296334,1.036833 1.5756229,1.1764758 1.5284102,1.3172638 1.4893457,1.4351995 1.4457493,1.5528206 1.4261717,1.6733109 c -0.077766,0.02888 -0.1566658,0.05625 -0.2332087,0.086627 -0.00272,0.00126 0.00725,0.00315 0.00988,0.00189 0.00453,-0.00189 0.00544,-0.00635 0.00725,-0.00982 0.00924,-0.017177 0.00544,-0.034794 0.00634,-0.052663 9.063e-4,-0.052915 0.00181,-0.1058237 0.00272,-0.1587388 C 1.2186767,1.4655391 1.2173443,1.3902626 1.2025705,1.3157537 1.1800019,1.2121825 1.1431127,1.1110147 1.0875795,1.0134082 1.0147074,0.89318219 0.91458993,0.78110424 0.79680729,0.67957784 0.7341772,0.62823579 0.71278689,0.60894477 0.64594218,0.5608053 0.55419952,0.49472128 0.45172545,0.43689225 0.34494613,0.38294534 0.28041266,0.3523037 0.21500908,0.32248 0.15088348,0.29143568 0.147258,0.2895481 0.05890516,0.24563051 0.05054844,0.2419812 0.0384031,0.23694766 0.02517011,0.23254332 0.01257158,0.22782438 c 0,0 0.22138967,-0.0990411 0.22138967,-0.0990411 z"
           id="path11433-7-38"
           style="opacity:1;fill:#000000;fill-opacity:1;stroke:#ffff55;stroke-width:0;stroke-linecap:round;stroke-linejoin:round;stroke-miterlimit:4;stroke-dasharray:none;stroke-dashoffset:0;stroke-opacity:1;paint-order:normal;filter:url(#filter14025-50)" />
        <path
           transform="matrix(0.26458333,0,0,0.26458333,-24.94182,188.24192)"
           d="m 0.22401147,0.03550058 c 0.0115109,0.005034 0.023475,0.009501 0.0345327,0.0150377 0.0157708,0.007928 0.0303634,0.0168623 0.0454997,0.0252306 0.0175836,0.00906 0.0349858,0.0183724 0.0528413,0.0273069 0.0630833,0.0313967 0.12778896,0.0612204 0.19125291,0.0922521 0.0239281,0.0129614 0.0481282,0.025671 0.0717844,0.0388211 0.0472218,0.0261115 0.10801198,0.0604653 0.15164458,0.0892131 0.0822077,0.0541105 0.15488939,0.11422349 0.22734453,0.1744812 0.11912411,0.1029232 0.22394561,0.21483756 0.30013501,0.33597587 0.055651,0.0987013 0.093864,0.20126585 0.1194594,0.30559215 0.018671,0.074811 0.019396,0.150855 0.020393,0.2265342 7.16e-4,0.052537 9.064e-4,0.1051254 9.064e-4,0.1576818 6.34e-5,0.1218493 -0.010333,0.075641 -0.2534751,0.147256 6.34e-5,-0.00893 -9.064e-4,-0.017932 1.903e-4,-0.026803 0.00272,-0.018939 0.01994,-0.079134 0.024109,-0.092479 0.026285,-0.085451 0.058914,-0.1699887 0.089277,-0.254766 0.050304,-0.1406559 0.1029545,-0.2809342 0.1701436,-0.41824266 0.035802,-0.0730743 0.053023,-0.10145719 0.092722,-0.17198959 0.067706,-0.10993241 0.1547896,-0.21697682 0.273388,-0.30470504 0.021843,-0.0161073 0.045862,-0.0307675 0.068793,-0.0461198 0.075229,-0.0465602 0.1588684,-0.0860672 0.2459432,-0.12110056 0.099991,-0.0402054 0.1997909,-0.0807568 0.3013858,-0.11901164 0.039699,-0.0149748 0.1412032,-0.0430996 0.1829143,-0.0549914 0.078945,-0.0220217 0.159811,-0.0403941 0.2409491,-0.05807441 0,0 -0.2015673,0.10829651 -0.2015673,0.10829651 v 0 c -0.079579,0.0172399 -0.1588049,0.0351718 -0.2358644,0.0573194 -0.030454,0.008935 -0.06118,0.0174286 -0.09138,0.0268665 -0.030273,0.009438 -0.1145107,0.0449872 -0.089912,0.029572 0.036527,-0.0228397 0.084383,-0.0351718 0.126656,-0.0526004 0.028822,-0.0118917 -0.058008,0.0234688 -0.086286,0.0359269 -0.08683,0.0382549 -0.081301,0.0375628 -0.1607717,0.0815684 -0.023384,0.0149119 -0.047766,0.0289428 -0.069972,0.0446097 C 1.9457136,0.41984872 1.857243,0.52648415 1.785812,0.63494425 1.744391,0.70539486 1.7262636,0.73394129 1.6891115,0.80702822 1.6198649,0.94343074 1.5658544,1.0830735 1.5186417,1.2238615 1.4795772,1.3417972 1.4359808,1.4594183 1.4164032,1.5799086 c -0.077766,0.02888 -0.1566658,0.05625 -0.2332087,0.086627 -0.00272,0.00126 0.00725,0.00315 0.00988,0.00189 0.00453,-0.00189 0.00544,-0.00635 0.00725,-0.00982 0.00924,-0.017177 0.00544,-0.034794 0.00634,-0.052663 9.063e-4,-0.052915 0.00181,-0.1058237 0.00272,-0.1587388 C 1.2089082,1.3721368 1.2075758,1.2968603 1.192802,1.2223514 1.1702334,1.1187802 1.1333442,1.0176124 1.077811,0.92000594 1.0049389,0.79977993 0.90482142,0.68770198 0.78703878,0.58617558 0.72440869,0.53483353 0.70301838,0.51554251 0.63617367,0.46740304 0.54443101,0.40131902 0.44195694,0.34348999 0.33517762,0.28954308 0.27064415,0.25890144 0.20524057,0.22907774 0.14111497,0.19803342 0.13748949,0.19614584 0.04913665,0.15222825 0.04077993,0.14857894 0.02863459,0.1435454 0.0154016,0.13914106 0.00280307,0.13442212 c 0,0 0.22138967,-0.0990411 0.22138967,-0.0990411 z"
           id="path11433-7-9-2"
           style="opacity:1;fill:#000000;fill-opacity:1;stroke:#ffff55;stroke-width:0;stroke-linecap:round;stroke-linejoin:round;stroke-miterlimit:4;stroke-dasharray:none;stroke-dashoffset:0;stroke-opacity:1;paint-order:normal;filter:url(#filter14025-5-1)" />
      </g>
      <g
         transform="translate(116.31544,-3.896335)"
         id="g15197">
        <rect
           y="119.63171"
           x="109.92237"
           height="10.022285"
           width="16.012403"
           id="rect5707-4-0"
           style="opacity:0;fill:#f2f2f2;fill-opacity:1;stroke:#ff5555;stroke-width:0;stroke-linecap:round;stroke-linejoin:round;stroke-miterlimit:4;stroke-dasharray:none;stroke-dashoffset:0;paint-order:normal;filter:url(#filter14025-21)" />
        <ellipse
           ry="2.7474144"
           rx="2.850853"
           cy="124.45067"
           cx="118.17001"
           id="path7459-2-9"
           style="opacity:1;fill:#ffff00;fill-opacity:1;stroke:#ff5555;stroke-width:0;stroke-linecap:round;stroke-linejoin:round;stroke-miterlimit:4;stroke-dasharray:none;stroke-dashoffset:0;paint-order:normal;filter:url(#filter14025-21)" />
        <path
           transform="matrix(0.23981011,0,0,0.16647368,71.480445,102.10876)"
           d="m 165.81158,121.307 c 0.0127,0.008 0.0259,0.0151 0.0381,0.0239 0.0174,0.0126 0.0335,0.0268 0.0502,0.0401 0.0194,0.0144 0.0386,0.0292 0.0583,0.0434 0.0696,0.0499 0.14099,0.0973 0.21101,0.14662 0.0264,0.0206 0.0531,0.0408 0.0792,0.0617 0.0521,0.0415 0.11917,0.0961 0.16731,0.14179 0.0907,0.086 0.17089,0.18154 0.25083,0.27731 0.13143,0.16358 0.24708,0.34145 0.33114,0.53398 0.0614,0.15687 0.10356,0.31988 0.1318,0.48569 0.0206,0.1189 0.0214,0.23976 0.0225,0.36004 7.9e-4,0.0835 0.001,0.16708 0.001,0.25061 7e-5,0.19366 -0.0114,0.12022 -0.27966,0.23404 7e-5,-0.0142 -0.001,-0.0285 2.1e-4,-0.0426 0.003,-0.0301 0.022,-0.12577 0.0266,-0.14698 0.029,-0.13581 0.065,-0.27017 0.0985,-0.40491 0.0555,-0.22355 0.11359,-0.4465 0.18772,-0.66473 0.0395,-0.11614 0.0585,-0.16125 0.1023,-0.27335 0.0747,-0.17472 0.17078,-0.34485 0.30163,-0.48428 0.0241,-0.0256 0.0506,-0.0489 0.0759,-0.0733 0.083,-0.074 0.17528,-0.13679 0.27135,-0.19247 0.11032,-0.0639 0.22043,-0.12835 0.33252,-0.18915 0.0438,-0.0238 0.15579,-0.0685 0.20181,-0.0874 0.0871,-0.035 0.17632,-0.0642 0.26584,-0.0923 0,0 -0.22239,0.17212 -0.22239,0.17212 v 0 c -0.0878,0.0274 -0.17521,0.0559 -0.26023,0.0911 -0.0336,0.0142 -0.0675,0.0277 -0.10082,0.0427 -0.0334,0.015 -0.12634,0.0715 -0.0992,0.047 0.0403,-0.0363 0.0931,-0.0559 0.13974,-0.0836 0.0318,-0.0189 -0.064,0.0373 -0.0952,0.0571 -0.0958,0.0608 -0.0897,0.0597 -0.17738,0.12964 -0.0258,0.0237 -0.0527,0.046 -0.0772,0.0709 -0.13387,0.13619 -0.23148,0.30567 -0.31029,0.47805 -0.0457,0.11197 -0.0657,0.15734 -0.10669,0.2735 -0.0764,0.21679 -0.13599,0.43873 -0.18808,0.66249 -0.0431,0.18744 -0.0912,0.37438 -0.1128,0.56588 -0.0858,0.0459 -0.17285,0.0894 -0.2573,0.13768 -0.003,0.002 0.008,0.005 0.0109,0.003 0.005,-0.003 0.006,-0.0101 0.008,-0.0156 0.0102,-0.0273 0.006,-0.0553 0.007,-0.0837 0.001,-0.0841 0.002,-0.16819 0.003,-0.25229 -5.3e-4,-0.11931 -0.002,-0.23895 -0.0183,-0.35737 -0.0249,-0.16461 -0.0656,-0.3254 -0.12687,-0.48053 -0.0804,-0.19108 -0.19086,-0.36921 -0.32081,-0.53057 -0.0691,-0.0816 -0.0927,-0.11226 -0.16645,-0.18877 -0.10122,-0.10503 -0.21428,-0.19694 -0.33209,-0.28268 -0.0712,-0.0487 -0.14336,-0.0961 -0.21411,-0.14544 -0.004,-0.003 -0.10148,-0.0728 -0.1107,-0.0786 -0.0134,-0.008 -0.028,-0.015 -0.0419,-0.0225 0,0 0.24426,-0.15741 0.24426,-0.15741 z"
           id="path11433-5-24"
           style="opacity:1;fill:#999999;fill-opacity:1;stroke:#ffff55;stroke-width:0;stroke-linecap:round;stroke-linejoin:round;stroke-miterlimit:4;stroke-dasharray:none;stroke-dashoffset:0;stroke-opacity:1;paint-order:normal;filter:url(#filter14025-21)" />
        <path
           transform="matrix(0.23981011,0,0,0.16647368,71.480445,102.10876)"
           d="m 165.82545,121.45958 c 0.0127,0.008 0.0259,0.0151 0.0381,0.0239 0.0174,0.0126 0.0335,0.0268 0.0502,0.0401 0.0194,0.0144 0.0386,0.0292 0.0583,0.0434 0.0696,0.0499 0.14099,0.0973 0.21101,0.14662 0.0264,0.0206 0.0531,0.0408 0.0792,0.0617 0.0521,0.0415 0.11917,0.0961 0.16731,0.14179 0.0907,0.086 0.17089,0.18154 0.25083,0.27731 0.13143,0.16358 0.24708,0.34145 0.33114,0.53398 0.0614,0.15687 0.10356,0.31988 0.1318,0.48569 0.0206,0.1189 0.0214,0.23976 0.0225,0.36004 7.9e-4,0.0835 0.001,0.16708 0.001,0.25061 7e-5,0.19366 -0.0114,0.12022 -0.27966,0.23404 7e-5,-0.0142 -0.001,-0.0285 2.1e-4,-0.0426 0.003,-0.0301 0.022,-0.12577 0.0266,-0.14698 0.029,-0.13581 0.065,-0.27017 0.0985,-0.40491 0.0555,-0.22355 0.11359,-0.4465 0.18772,-0.66473 0.0395,-0.11614 0.0585,-0.16125 0.1023,-0.27335 0.0747,-0.17472 0.17078,-0.34485 0.30163,-0.48428 0.0241,-0.0256 0.0506,-0.0489 0.0759,-0.0733 0.083,-0.074 0.17528,-0.13679 0.27135,-0.19247 0.11032,-0.0639 0.22043,-0.12835 0.33252,-0.18915 0.0438,-0.0238 0.15579,-0.0685 0.20181,-0.0874 0.0871,-0.035 0.17632,-0.0642 0.26584,-0.0923 0,0 -0.22239,0.17212 -0.22239,0.17212 v 0 c -0.0878,0.0274 -0.17521,0.0559 -0.26023,0.0911 -0.0336,0.0142 -0.0675,0.0277 -0.10082,0.0427 -0.0334,0.015 -0.12634,0.0715 -0.0992,0.047 0.0403,-0.0363 0.0931,-0.0559 0.13974,-0.0836 0.0318,-0.0189 -0.064,0.0373 -0.0952,0.0571 -0.0958,0.0608 -0.0897,0.0597 -0.17738,0.12964 -0.0258,0.0237 -0.0527,0.046 -0.0772,0.0709 -0.13387,0.13619 -0.23148,0.30567 -0.31029,0.47805 -0.0457,0.11197 -0.0657,0.15734 -0.10669,0.2735 -0.0764,0.21679 -0.13599,0.43873 -0.18808,0.66249 -0.0431,0.18744 -0.0912,0.37438 -0.1128,0.56588 -0.0858,0.0459 -0.17285,0.0894 -0.2573,0.13768 -0.003,0.002 0.008,0.005 0.0109,0.003 0.005,-0.003 0.006,-0.0101 0.008,-0.0156 0.0102,-0.0273 0.006,-0.0553 0.007,-0.0837 0.001,-0.0841 0.002,-0.16819 0.003,-0.25229 -5.3e-4,-0.11931 -0.002,-0.23895 -0.0183,-0.35737 -0.0249,-0.16461 -0.0656,-0.3254 -0.12687,-0.48053 -0.0804,-0.19108 -0.19086,-0.36921 -0.32081,-0.53057 -0.0691,-0.0816 -0.0927,-0.11226 -0.16645,-0.18877 -0.10122,-0.10503 -0.21428,-0.19694 -0.33209,-0.28268 -0.0712,-0.0487 -0.14336,-0.0961 -0.21411,-0.14544 -0.004,-0.003 -0.10148,-0.0728 -0.1107,-0.0786 -0.0134,-0.008 -0.028,-0.015 -0.0419,-0.0225 0,0 0.24426,-0.15741 0.24426,-0.15741 z"
           id="path11433-15"
           style="opacity:1;fill:#000000;fill-opacity:1;stroke:#ffff55;stroke-width:0;stroke-linecap:round;stroke-linejoin:round;stroke-miterlimit:4;stroke-dasharray:none;stroke-dashoffset:0;stroke-opacity:1;paint-order:normal;filter:url(#filter14025-21)" />
        <path
           transform="matrix(0.23981011,0,0,0.16647368,73.979617,107.9238)"
           d="m 165.81158,121.307 c 0.0127,0.008 0.0259,0.0151 0.0381,0.0239 0.0174,0.0126 0.0335,0.0268 0.0502,0.0401 0.0194,0.0144 0.0386,0.0292 0.0583,0.0434 0.0696,0.0499 0.14099,0.0973 0.21101,0.14662 0.0264,0.0206 0.0531,0.0408 0.0792,0.0617 0.0521,0.0415 0.11917,0.0961 0.16731,0.14179 0.0907,0.086 0.17089,0.18154 0.25083,0.27731 0.13143,0.16358 0.24708,0.34145 0.33114,0.53398 0.0614,0.15687 0.10356,0.31988 0.1318,0.48569 0.0206,0.1189 0.0214,0.23976 0.0225,0.36004 7.9e-4,0.0835 0.001,0.16708 0.001,0.25061 7e-5,0.19366 -0.0114,0.12022 -0.27966,0.23404 7e-5,-0.0142 -0.001,-0.0285 2.1e-4,-0.0426 0.003,-0.0301 0.022,-0.12577 0.0266,-0.14698 0.029,-0.13581 0.065,-0.27017 0.0985,-0.40491 0.0555,-0.22355 0.11359,-0.4465 0.18772,-0.66473 0.0395,-0.11614 0.0585,-0.16125 0.1023,-0.27335 0.0747,-0.17472 0.17078,-0.34485 0.30163,-0.48428 0.0241,-0.0256 0.0506,-0.0489 0.0759,-0.0733 0.083,-0.074 0.17528,-0.13679 0.27135,-0.19247 0.11032,-0.0639 0.22043,-0.12835 0.33252,-0.18915 0.0438,-0.0238 0.15579,-0.0685 0.20181,-0.0874 0.0871,-0.035 0.17632,-0.0642 0.26584,-0.0923 0,0 -0.22239,0.17212 -0.22239,0.17212 v 0 c -0.0878,0.0274 -0.17521,0.0559 -0.26023,0.0911 -0.0336,0.0142 -0.0675,0.0277 -0.10082,0.0427 -0.0334,0.015 -0.12634,0.0715 -0.0992,0.047 0.0403,-0.0363 0.0931,-0.0559 0.13974,-0.0836 0.0318,-0.0189 -0.064,0.0373 -0.0952,0.0571 -0.0958,0.0608 -0.0897,0.0597 -0.17738,0.12964 -0.0258,0.0237 -0.0527,0.046 -0.0772,0.0709 -0.13387,0.13619 -0.23148,0.30567 -0.31029,0.47805 -0.0457,0.11197 -0.0657,0.15734 -0.10669,0.2735 -0.0764,0.21679 -0.13599,0.43873 -0.18808,0.66249 -0.0431,0.18744 -0.0912,0.37438 -0.1128,0.56588 -0.0858,0.0459 -0.17285,0.0894 -0.2573,0.13768 -0.003,0.002 0.008,0.005 0.0109,0.003 0.005,-0.003 0.006,-0.0101 0.008,-0.0156 0.0102,-0.0273 0.006,-0.0553 0.007,-0.0837 0.001,-0.0841 0.002,-0.16819 0.003,-0.25229 -5.3e-4,-0.11931 -0.002,-0.23895 -0.0183,-0.35737 -0.0249,-0.16461 -0.0656,-0.3254 -0.12687,-0.48053 -0.0804,-0.19108 -0.19086,-0.36921 -0.32081,-0.53057 -0.0691,-0.0816 -0.0927,-0.11226 -0.16645,-0.18877 -0.10122,-0.10503 -0.21428,-0.19694 -0.33209,-0.28268 -0.0712,-0.0487 -0.14336,-0.0961 -0.21411,-0.14544 -0.004,-0.003 -0.10148,-0.0728 -0.1107,-0.0786 -0.0134,-0.008 -0.028,-0.015 -0.0419,-0.0225 0,0 0.24426,-0.15741 0.24426,-0.15741 z"
           id="path11433-5-2-0"
           style="opacity:1;fill:#999999;fill-opacity:1;stroke:#ffff55;stroke-width:0;stroke-linecap:round;stroke-linejoin:round;stroke-miterlimit:4;stroke-dasharray:none;stroke-dashoffset:0;stroke-opacity:1;paint-order:normal;filter:url(#filter14025-21)" />
        <path
           transform="matrix(0.23981011,0,0,0.16647368,73.979617,107.9238)"
           d="m 165.82545,121.45958 c 0.0127,0.008 0.0259,0.0151 0.0381,0.0239 0.0174,0.0126 0.0335,0.0268 0.0502,0.0401 0.0194,0.0144 0.0386,0.0292 0.0583,0.0434 0.0696,0.0499 0.14099,0.0973 0.21101,0.14662 0.0264,0.0206 0.0531,0.0408 0.0792,0.0617 0.0521,0.0415 0.11917,0.0961 0.16731,0.14179 0.0907,0.086 0.17089,0.18154 0.25083,0.27731 0.13143,0.16358 0.24708,0.34145 0.33114,0.53398 0.0614,0.15687 0.10356,0.31988 0.1318,0.48569 0.0206,0.1189 0.0214,0.23976 0.0225,0.36004 7.9e-4,0.0835 0.001,0.16708 0.001,0.25061 7e-5,0.19366 -0.0114,0.12022 -0.27966,0.23404 7e-5,-0.0142 -0.001,-0.0285 2.1e-4,-0.0426 0.003,-0.0301 0.022,-0.12577 0.0266,-0.14698 0.029,-0.13581 0.065,-0.27017 0.0985,-0.40491 0.0555,-0.22355 0.11359,-0.4465 0.18772,-0.66473 0.0395,-0.11614 0.0585,-0.16125 0.1023,-0.27335 0.0747,-0.17472 0.17078,-0.34485 0.30163,-0.48428 0.0241,-0.0256 0.0506,-0.0489 0.0759,-0.0733 0.083,-0.074 0.17528,-0.13679 0.27135,-0.19247 0.11032,-0.0639 0.22043,-0.12835 0.33252,-0.18915 0.0438,-0.0238 0.15579,-0.0685 0.20181,-0.0874 0.0871,-0.035 0.17632,-0.0642 0.26584,-0.0923 0,0 -0.22239,0.17212 -0.22239,0.17212 v 0 c -0.0878,0.0274 -0.17521,0.0559 -0.26023,0.0911 -0.0336,0.0142 -0.0675,0.0277 -0.10082,0.0427 -0.0334,0.015 -0.12634,0.0715 -0.0992,0.047 0.0403,-0.0363 0.0931,-0.0559 0.13974,-0.0836 0.0318,-0.0189 -0.064,0.0373 -0.0952,0.0571 -0.0958,0.0608 -0.0897,0.0597 -0.17738,0.12964 -0.0258,0.0237 -0.0527,0.046 -0.0772,0.0709 -0.13387,0.13619 -0.23148,0.30567 -0.31029,0.47805 -0.0457,0.11197 -0.0657,0.15734 -0.10669,0.2735 -0.0764,0.21679 -0.13599,0.43873 -0.18808,0.66249 -0.0431,0.18744 -0.0912,0.37438 -0.1128,0.56588 -0.0858,0.0459 -0.17285,0.0894 -0.2573,0.13768 -0.003,0.002 0.008,0.005 0.0109,0.003 0.005,-0.003 0.006,-0.0101 0.008,-0.0156 0.0102,-0.0273 0.006,-0.0553 0.007,-0.0837 0.001,-0.0841 0.002,-0.16819 0.003,-0.25229 -5.3e-4,-0.11931 -0.002,-0.23895 -0.0183,-0.35737 -0.0249,-0.16461 -0.0656,-0.3254 -0.12687,-0.48053 -0.0804,-0.19108 -0.19086,-0.36921 -0.32081,-0.53057 -0.0691,-0.0816 -0.0927,-0.11226 -0.16645,-0.18877 -0.10122,-0.10503 -0.21428,-0.19694 -0.33209,-0.28268 -0.0712,-0.0487 -0.14336,-0.0961 -0.21411,-0.14544 -0.004,-0.003 -0.10148,-0.0728 -0.1107,-0.0786 -0.0134,-0.008 -0.028,-0.015 -0.0419,-0.0225 0,0 0.24426,-0.15741 0.24426,-0.15741 z"
           id="path11433-1-2"
           style="opacity:1;fill:#000000;fill-opacity:1;stroke:#ffff55;stroke-width:0;stroke-linecap:round;stroke-linejoin:round;stroke-miterlimit:4;stroke-dasharray:none;stroke-dashoffset:0;stroke-opacity:1;paint-order:normal;filter:url(#filter14025-21)" />
        <path
           transform="matrix(0.23981011,0,0,0.16647368,82.857007,101.43221)"
           d="m 165.81158,121.307 c 0.0127,0.008 0.0259,0.0151 0.0381,0.0239 0.0174,0.0126 0.0335,0.0268 0.0502,0.0401 0.0194,0.0144 0.0386,0.0292 0.0583,0.0434 0.0696,0.0499 0.14099,0.0973 0.21101,0.14662 0.0264,0.0206 0.0531,0.0408 0.0792,0.0617 0.0521,0.0415 0.11917,0.0961 0.16731,0.14179 0.0907,0.086 0.17089,0.18154 0.25083,0.27731 0.13143,0.16358 0.24708,0.34145 0.33114,0.53398 0.0614,0.15687 0.10356,0.31988 0.1318,0.48569 0.0206,0.1189 0.0214,0.23976 0.0225,0.36004 7.9e-4,0.0835 0.001,0.16708 0.001,0.25061 7e-5,0.19366 -0.0114,0.12022 -0.27966,0.23404 7e-5,-0.0142 -0.001,-0.0285 2.1e-4,-0.0426 0.003,-0.0301 0.022,-0.12577 0.0266,-0.14698 0.029,-0.13581 0.065,-0.27017 0.0985,-0.40491 0.0555,-0.22355 0.11359,-0.4465 0.18772,-0.66473 0.0395,-0.11614 0.0585,-0.16125 0.1023,-0.27335 0.0747,-0.17472 0.17078,-0.34485 0.30163,-0.48428 0.0241,-0.0256 0.0506,-0.0489 0.0759,-0.0733 0.083,-0.074 0.17528,-0.13679 0.27135,-0.19247 0.11032,-0.0639 0.22043,-0.12835 0.33252,-0.18915 0.0438,-0.0238 0.15579,-0.0685 0.20181,-0.0874 0.0871,-0.035 0.17632,-0.0642 0.26584,-0.0923 0,0 -0.22239,0.17212 -0.22239,0.17212 v 0 c -0.0878,0.0274 -0.17521,0.0559 -0.26023,0.0911 -0.0336,0.0142 -0.0675,0.0277 -0.10082,0.0427 -0.0334,0.015 -0.12634,0.0715 -0.0992,0.047 0.0403,-0.0363 0.0931,-0.0559 0.13974,-0.0836 0.0318,-0.0189 -0.064,0.0373 -0.0952,0.0571 -0.0958,0.0608 -0.0897,0.0597 -0.17738,0.12964 -0.0258,0.0237 -0.0527,0.046 -0.0772,0.0709 -0.13387,0.13619 -0.23148,0.30567 -0.31029,0.47805 -0.0457,0.11197 -0.0657,0.15734 -0.10669,0.2735 -0.0764,0.21679 -0.13599,0.43873 -0.18808,0.66249 -0.0431,0.18744 -0.0912,0.37438 -0.1128,0.56588 -0.0858,0.0459 -0.17285,0.0894 -0.2573,0.13768 -0.003,0.002 0.008,0.005 0.0109,0.003 0.005,-0.003 0.006,-0.0101 0.008,-0.0156 0.0102,-0.0273 0.006,-0.0553 0.007,-0.0837 0.001,-0.0841 0.002,-0.16819 0.003,-0.25229 -5.3e-4,-0.11931 -0.002,-0.23895 -0.0183,-0.35737 -0.0249,-0.16461 -0.0656,-0.3254 -0.12687,-0.48053 -0.0804,-0.19108 -0.19086,-0.36921 -0.32081,-0.53057 -0.0691,-0.0816 -0.0927,-0.11226 -0.16645,-0.18877 -0.10122,-0.10503 -0.21428,-0.19694 -0.33209,-0.28268 -0.0712,-0.0487 -0.14336,-0.0961 -0.21411,-0.14544 -0.004,-0.003 -0.10148,-0.0728 -0.1107,-0.0786 -0.0134,-0.008 -0.028,-0.015 -0.0419,-0.0225 0,0 0.24426,-0.15741 0.24426,-0.15741 z"
           id="path11433-5-0-2"
           style="opacity:1;fill:#999999;fill-opacity:1;stroke:#ffff55;stroke-width:0;stroke-linecap:round;stroke-linejoin:round;stroke-miterlimit:4;stroke-dasharray:none;stroke-dashoffset:0;stroke-opacity:1;paint-order:normal;filter:url(#filter14025-21)" />
        <path
           transform="matrix(0.23981011,0,0,0.16647368,82.857007,101.43221)"
           d="m 165.82545,121.45958 c 0.0127,0.008 0.0259,0.0151 0.0381,0.0239 0.0174,0.0126 0.0335,0.0268 0.0502,0.0401 0.0194,0.0144 0.0386,0.0292 0.0583,0.0434 0.0696,0.0499 0.14099,0.0973 0.21101,0.14662 0.0264,0.0206 0.0531,0.0408 0.0792,0.0617 0.0521,0.0415 0.11917,0.0961 0.16731,0.14179 0.0907,0.086 0.17089,0.18154 0.25083,0.27731 0.13143,0.16358 0.24708,0.34145 0.33114,0.53398 0.0614,0.15687 0.10356,0.31988 0.1318,0.48569 0.0206,0.1189 0.0214,0.23976 0.0225,0.36004 7.9e-4,0.0835 0.001,0.16708 0.001,0.25061 7e-5,0.19366 -0.0114,0.12022 -0.27966,0.23404 7e-5,-0.0142 -0.001,-0.0285 2.1e-4,-0.0426 0.003,-0.0301 0.022,-0.12577 0.0266,-0.14698 0.029,-0.13581 0.065,-0.27017 0.0985,-0.40491 0.0555,-0.22355 0.11359,-0.4465 0.18772,-0.66473 0.0395,-0.11614 0.0585,-0.16125 0.1023,-0.27335 0.0747,-0.17472 0.17078,-0.34485 0.30163,-0.48428 0.0241,-0.0256 0.0506,-0.0489 0.0759,-0.0733 0.083,-0.074 0.17528,-0.13679 0.27135,-0.19247 0.11032,-0.0639 0.22043,-0.12835 0.33252,-0.18915 0.0438,-0.0238 0.15579,-0.0685 0.20181,-0.0874 0.0871,-0.035 0.17632,-0.0642 0.26584,-0.0923 0,0 -0.22239,0.17212 -0.22239,0.17212 v 0 c -0.0878,0.0274 -0.17521,0.0559 -0.26023,0.0911 -0.0336,0.0142 -0.0675,0.0277 -0.10082,0.0427 -0.0334,0.015 -0.12634,0.0715 -0.0992,0.047 0.0403,-0.0363 0.0931,-0.0559 0.13974,-0.0836 0.0318,-0.0189 -0.064,0.0373 -0.0952,0.0571 -0.0958,0.0608 -0.0897,0.0597 -0.17738,0.12964 -0.0258,0.0237 -0.0527,0.046 -0.0772,0.0709 -0.13387,0.13619 -0.23148,0.30567 -0.31029,0.47805 -0.0457,0.11197 -0.0657,0.15734 -0.10669,0.2735 -0.0764,0.21679 -0.13599,0.43873 -0.18808,0.66249 -0.0431,0.18744 -0.0912,0.37438 -0.1128,0.56588 -0.0858,0.0459 -0.17285,0.0894 -0.2573,0.13768 -0.003,0.002 0.008,0.005 0.0109,0.003 0.005,-0.003 0.006,-0.0101 0.008,-0.0156 0.0102,-0.0273 0.006,-0.0553 0.007,-0.0837 0.001,-0.0841 0.002,-0.16819 0.003,-0.25229 -5.3e-4,-0.11931 -0.002,-0.23895 -0.0183,-0.35737 -0.0249,-0.16461 -0.0656,-0.3254 -0.12687,-0.48053 -0.0804,-0.19108 -0.19086,-0.36921 -0.32081,-0.53057 -0.0691,-0.0816 -0.0927,-0.11226 -0.16645,-0.18877 -0.10122,-0.10503 -0.21428,-0.19694 -0.33209,-0.28268 -0.0712,-0.0487 -0.14336,-0.0961 -0.21411,-0.14544 -0.004,-0.003 -0.10148,-0.0728 -0.1107,-0.0786 -0.0134,-0.008 -0.028,-0.015 -0.0419,-0.0225 0,0 0.24426,-0.15741 0.24426,-0.15741 z"
           id="path11433-6-3"
           style="opacity:1;fill:#000000;fill-opacity:1;stroke:#ffff55;stroke-width:0;stroke-linecap:round;stroke-linejoin:round;stroke-miterlimit:4;stroke-dasharray:none;stroke-dashoffset:0;stroke-opacity:1;paint-order:normal;filter:url(#filter14025-21)" />
      </g>
      <g
         transform="translate(132.28691,-3.8766206)"
         id="g15618">
        <rect
           y="119.612"
           x="109.9633"
           height="10.022285"
           width="16.012403"
           id="rect5707-2"
           style="opacity:1;fill:#80d5ff;fill-opacity:0.49253732;stroke:#ff5555;stroke-width:0;stroke-linecap:round;stroke-linejoin:round;stroke-miterlimit:4;stroke-dasharray:none;stroke-dashoffset:0;paint-order:normal" />
        <path
           transform="rotate(124.29332)"
           d="m 41.183017,-169.64265 a 2.850853,2.7474144 0 0 1 -3.407267,1.98475 2.850853,2.7474144 0 0 1 -2.143485,-3.23332 2.850853,2.7474144 0 0 1 3.300756,-2.1454"
           id="path7459-7"
           style="opacity:1;fill:url(#linearGradient14217-2);fill-opacity:1;stroke:#ff5555;stroke-width:0;stroke-linecap:round;stroke-linejoin:round;stroke-miterlimit:4;stroke-dasharray:none;stroke-dashoffset:0;paint-order:normal" />
        <path
           transform="matrix(0.26458333,0,0,0.26458333,109.96329,119.61198)"
           d="m 18.181875,17.250187 c 0.01151,0.005 0.02347,0.0095 0.03453,0.01504 0.01577,0.0079 0.03036,0.01686 0.0455,0.02523 0.01758,0.0091 0.03499,0.01837 0.05284,0.02731 0.06308,0.0314 0.127789,0.06122 0.191253,0.09225 0.02393,0.01296 0.04813,0.02567 0.07178,0.03882 0.04722,0.02611 0.108012,0.06047 0.151645,0.08921 0.08221,0.05411 0.154889,0.114224 0.227344,0.174481 0.119124,0.102924 0.223946,0.214838 0.300135,0.335976 0.05565,0.0987 0.09386,0.201266 0.11946,0.305593 0.01867,0.07481 0.0194,0.150855 0.02039,0.226534 7.16e-4,0.05254 9.06e-4,0.105125 9.06e-4,0.157682 6.3e-5,0.121849 -0.01033,0.07564 -0.253475,0.147256 6.3e-5,-0.0089 -9.06e-4,-0.01793 1.9e-4,-0.0268 0.0027,-0.01894 0.01994,-0.07913 0.02411,-0.09248 0.02628,-0.08545 0.05891,-0.169989 0.08928,-0.254766 0.0503,-0.140656 0.102955,-0.280935 0.170144,-0.418243 0.0358,-0.07307 0.05302,-0.101457 0.09272,-0.17199 0.06771,-0.109932 0.154789,-0.216977 0.273388,-0.304705 0.02184,-0.01611 0.04586,-0.03077 0.06879,-0.04612 0.07523,-0.04656 0.158868,-0.08607 0.245943,-0.1211 0.09999,-0.04021 0.199791,-0.08076 0.301386,-0.119012 0.0397,-0.01497 0.141203,-0.0431 0.182914,-0.05499 0.07894,-0.02202 0.159811,-0.04039 0.240949,-0.05807 0,0 -0.201567,0.108297 -0.201567,0.108297 v 0 c -0.07958,0.01724 -0.158805,0.03517 -0.235864,0.05732 -0.03045,0.0089 -0.06118,0.01743 -0.09138,0.02687 -0.03027,0.0094 -0.114511,0.04499 -0.08991,0.02957 0.03653,-0.02284 0.08438,-0.03517 0.126656,-0.0526 0.02882,-0.01189 -0.05801,0.02347 -0.08629,0.03593 -0.08683,0.03825 -0.0813,0.03756 -0.160772,0.08157 -0.02338,0.01491 -0.04777,0.02894 -0.06997,0.04461 -0.121335,0.08569 -0.209805,0.192325 -0.281236,0.300785 -0.04142,0.07045 -0.05955,0.099 -0.0967,0.172084 -0.06925,0.136403 -0.123257,0.276046 -0.17047,0.416834 -0.03906,0.117935 -0.08266,0.235557 -0.102238,0.356047 -0.07777,0.02888 -0.156666,0.05625 -0.233209,0.08663 -0.0027,0.0013 0.0072,0.0031 0.0099,0.0019 0.0045,-0.0019 0.0054,-0.0064 0.0072,-0.0098 0.0092,-0.01718 0.0054,-0.03479 0.0063,-0.05266 9.06e-4,-0.05291 0.0018,-0.105824 0.0027,-0.158739 -4.76e-4,-0.07507 -0.0018,-0.150343 -0.01658,-0.224852 -0.02257,-0.103572 -0.05946,-0.204739 -0.114991,-0.302346 -0.07287,-0.120226 -0.17299,-0.232304 -0.290773,-0.33383 -0.06263,-0.05134 -0.08402,-0.07063 -0.150865,-0.118773 -0.09174,-0.06608 -0.194216,-0.123913 -0.300996,-0.17786 -0.06453,-0.03064 -0.129937,-0.06046 -0.194062,-0.09151 -0.0036,-0.0019 -0.09198,-0.04581 -0.100335,-0.04946 -0.01215,-0.005 -0.02538,-0.0094 -0.03798,-0.01416 0,0 0.221389,-0.09904 0.221389,-0.09904 z"
           id="path11433-7-8"
           style="opacity:1;fill:#000000;fill-opacity:1;stroke:#ffff55;stroke-width:0;stroke-linecap:round;stroke-linejoin:round;stroke-miterlimit:4;stroke-dasharray:none;stroke-dashoffset:0;stroke-opacity:1;paint-order:normal;filter:url(#filter14025-1)" />
        <path
           transform="matrix(0.26458333,0,0,0.26458333,109.96329,119.61198)"
           d="m 55.928319,28.993546 c 0.01151,0.005 0.02347,0.0095 0.03453,0.01504 0.01577,0.0079 0.03036,0.01686 0.0455,0.02523 0.01758,0.0091 0.03498,0.01837 0.05284,0.02731 0.06308,0.0314 0.127789,0.06122 0.191253,0.09225 0.02393,0.01296 0.04813,0.02567 0.07178,0.03882 0.04722,0.02611 0.108012,0.06047 0.151645,0.08921 0.08221,0.05411 0.154889,0.114224 0.227344,0.174481 0.119124,0.102924 0.223946,0.214838 0.300135,0.335976 0.05565,0.0987 0.09386,0.201266 0.11946,0.305593 0.01867,0.07481 0.0194,0.150855 0.02039,0.226534 7.16e-4,0.05254 9.06e-4,0.105125 9.06e-4,0.157682 6.3e-5,0.121849 -0.01033,0.07564 -0.253475,0.147256 6.3e-5,-0.0089 -9.06e-4,-0.01793 1.9e-4,-0.0268 0.0027,-0.01894 0.01994,-0.07913 0.02411,-0.09248 0.02629,-0.08545 0.05891,-0.169989 0.08928,-0.254766 0.0503,-0.140656 0.102955,-0.280935 0.170144,-0.418243 0.0358,-0.07307 0.05302,-0.101457 0.09272,-0.17199 0.06771,-0.109932 0.154789,-0.216977 0.273388,-0.304705 0.02184,-0.01611 0.04586,-0.03077 0.06879,-0.04612 0.07523,-0.04656 0.158868,-0.08607 0.245943,-0.1211 0.09999,-0.04021 0.199791,-0.08076 0.301386,-0.119012 0.0397,-0.01497 0.141203,-0.0431 0.182914,-0.05499 0.07895,-0.02202 0.159811,-0.04039 0.240949,-0.05807 0,0 -0.201567,0.108297 -0.201567,0.108297 v 0 c -0.07958,0.01724 -0.158805,0.03517 -0.235864,0.05732 -0.03045,0.0089 -0.06118,0.01743 -0.09138,0.02687 -0.03027,0.0094 -0.114511,0.04499 -0.08991,0.02957 0.03653,-0.02284 0.08438,-0.03517 0.126656,-0.0526 0.02882,-0.01189 -0.05801,0.02347 -0.08629,0.03593 -0.08683,0.03826 -0.0813,0.03756 -0.160772,0.08157 -0.02338,0.01491 -0.04777,0.02894 -0.06997,0.04461 -0.121335,0.08569 -0.209805,0.192325 -0.281236,0.300785 -0.04142,0.07045 -0.05955,0.099 -0.0967,0.172084 -0.06925,0.136403 -0.123257,0.276046 -0.17047,0.416834 -0.03906,0.117935 -0.08266,0.235557 -0.102238,0.356047 -0.07777,0.02888 -0.156666,0.05625 -0.233209,0.08663 -0.0027,0.0013 0.0072,0.0032 0.0099,0.0019 0.0045,-0.0019 0.0054,-0.0063 0.0072,-0.0098 0.0092,-0.01718 0.0054,-0.03479 0.0063,-0.05266 9.06e-4,-0.05291 0.0018,-0.105824 0.0027,-0.158739 -4.76e-4,-0.07507 -0.0018,-0.150343 -0.01658,-0.224852 -0.02257,-0.103572 -0.05946,-0.204739 -0.114991,-0.302346 -0.07287,-0.120226 -0.17299,-0.232304 -0.290773,-0.33383 -0.06263,-0.05134 -0.08402,-0.07063 -0.150865,-0.118773 -0.09174,-0.06608 -0.194216,-0.123913 -0.300996,-0.17786 -0.06453,-0.03064 -0.129937,-0.06047 -0.194062,-0.09151 -0.0036,-0.0019 -0.09198,-0.04581 -0.100335,-0.04945 -0.01215,-0.005 -0.02538,-0.0094 -0.03798,-0.01416 0,0 0.221389,-0.09904 0.221389,-0.09904 z"
           id="path11433-7-1"
           style="opacity:1;fill:#000000;fill-opacity:1;stroke:#ffff55;stroke-width:0;stroke-linecap:round;stroke-linejoin:round;stroke-miterlimit:4;stroke-dasharray:none;stroke-dashoffset:0;stroke-opacity:1;paint-order:normal;filter:url(#filter14025-2)" />
        <path
           transform="matrix(0.26458333,0,0,0.26458333,109.96329,119.61198)"
           d="m 30.344622,34.026402 c 0.01151,0.005 0.02347,0.0095 0.03453,0.01504 0.01577,0.0079 0.03036,0.01686 0.0455,0.02523 0.01758,0.0091 0.03498,0.01837 0.05284,0.02731 0.06308,0.0314 0.127789,0.06122 0.191253,0.09225 0.02393,0.01296 0.04813,0.02567 0.07178,0.03882 0.04722,0.02611 0.108012,0.06046 0.151645,0.08921 0.08221,0.05411 0.154889,0.114224 0.227344,0.174481 0.119124,0.102924 0.223946,0.214838 0.300135,0.335976 0.05565,0.0987 0.09386,0.201266 0.11946,0.305593 0.01867,0.07481 0.0194,0.150855 0.02039,0.226534 7.16e-4,0.05254 9.06e-4,0.105125 9.06e-4,0.157682 6.3e-5,0.121849 -0.01033,0.07564 -0.253475,0.147256 6.3e-5,-0.0089 -9.06e-4,-0.01793 1.9e-4,-0.0268 0.0027,-0.01894 0.01994,-0.07913 0.02411,-0.09248 0.02628,-0.08545 0.05891,-0.169989 0.08928,-0.254766 0.0503,-0.140656 0.102955,-0.280935 0.170144,-0.418243 0.0358,-0.07307 0.05302,-0.101457 0.09272,-0.17199 0.06771,-0.109932 0.154789,-0.216977 0.273388,-0.304705 0.02184,-0.01611 0.04586,-0.03077 0.06879,-0.04612 0.07523,-0.04656 0.158868,-0.08607 0.245943,-0.1211 0.09999,-0.04021 0.199791,-0.08076 0.301386,-0.119012 0.0397,-0.01497 0.141203,-0.0431 0.182914,-0.05499 0.07895,-0.02202 0.159811,-0.04039 0.240949,-0.05807 0,0 -0.201567,0.108297 -0.201567,0.108297 v 0 c -0.07958,0.01724 -0.158805,0.03517 -0.235864,0.05732 -0.03045,0.0089 -0.06118,0.01743 -0.09138,0.02687 -0.03027,0.0094 -0.114511,0.04499 -0.08991,0.02957 0.03653,-0.02284 0.08438,-0.03517 0.126656,-0.0526 0.02882,-0.01189 -0.05801,0.02347 -0.08629,0.03593 -0.08683,0.03825 -0.0813,0.03756 -0.160772,0.08157 -0.02338,0.01491 -0.04777,0.02894 -0.06997,0.04461 -0.121335,0.08569 -0.209805,0.192325 -0.281236,0.300785 -0.04142,0.07045 -0.05955,0.099 -0.0967,0.172084 -0.06925,0.136403 -0.123257,0.276046 -0.17047,0.416834 -0.03906,0.117935 -0.08266,0.235557 -0.102238,0.356047 -0.07777,0.02888 -0.156666,0.05625 -0.233209,0.08663 -0.0027,0.0013 0.0072,0.0031 0.0099,0.0019 0.0045,-0.0019 0.0054,-0.0063 0.0072,-0.0098 0.0092,-0.01718 0.0054,-0.03479 0.0063,-0.05266 9.06e-4,-0.05291 0.0018,-0.105824 0.0027,-0.158739 -4.76e-4,-0.07507 -0.0018,-0.150343 -0.01658,-0.224852 -0.02257,-0.103572 -0.05946,-0.204739 -0.114991,-0.302346 -0.07287,-0.120226 -0.17299,-0.232304 -0.290773,-0.33383 -0.06263,-0.05134 -0.08402,-0.07063 -0.150865,-0.118773 -0.09174,-0.06608 -0.194216,-0.123913 -0.300996,-0.17786 -0.06453,-0.03064 -0.129937,-0.06047 -0.194062,-0.09151 -0.0036,-0.0019 -0.09198,-0.04581 -0.100335,-0.04946 -0.01215,-0.005 -0.02538,-0.0094 -0.03798,-0.01416 0,0 0.221389,-0.09904 0.221389,-0.09904 z"
           id="path11433-7-3"
           style="opacity:1;fill:#000000;fill-opacity:1;stroke:#ffff55;stroke-width:0;stroke-linecap:round;stroke-linejoin:round;stroke-miterlimit:4;stroke-dasharray:none;stroke-dashoffset:0;stroke-opacity:1;paint-order:normal;filter:url(#filter14025-12)" />
      </g>
    </g>
  </g>
</svg>
