<?xml version="1.0" encoding="UTF-8" standalone="no"?>
<!-- Created with Inkscape (http://www.inkscape.org/) -->

<svg
   xmlns:dc="http://purl.org/dc/elements/1.1/"
   xmlns:cc="http://creativecommons.org/ns#"
   xmlns:rdf="http://www.w3.org/1999/02/22-rdf-syntax-ns#"
   xmlns:svg="http://www.w3.org/2000/svg"
   xmlns="http://www.w3.org/2000/svg"
   xmlns:xlink="http://www.w3.org/1999/xlink"
   xmlns:sodipodi="http://sodipodi.sourceforge.net/DTD/sodipodi-0.dtd"
   xmlns:inkscape="http://www.inkscape.org/namespaces/inkscape"
   width="16.012405mm"
   height="10.04704mm"
   viewBox="0 0 16.012406 10.04704"
   version="1.1"
   id="svg14592"
   sodipodi:docname="evening_final.svg"
   inkscape:version="0.92.4 (5da689c313, 2019-01-14)">
  <defs
     id="defs14586">
    <filter
       inkscape:collect="always"
       style="color-interpolation-filters:sRGB"
       id="filter14025-12"
       x="-0.00097554456"
       width="1.0019511"
       y="-0.0015586079"
       height="1.0031172">
      <feGaussianBlur
         inkscape:collect="always"
         stdDeviation="0.0065086722"
         id="feGaussianBlur14027-3" />
    </filter>
    <filter
       inkscape:collect="always"
       style="color-interpolation-filters:sRGB"
       id="filter14025-2"
       x="-0.00097554456"
       width="1.0019511"
       y="-0.0015586079"
       height="1.0031172">
      <feGaussianBlur
         inkscape:collect="always"
         stdDeviation="0.0065086722"
         id="feGaussianBlur14027-4" />
    </filter>
    <filter
       inkscape:collect="always"
       style="color-interpolation-filters:sRGB"
       id="filter14025-1"
       x="-0.00097554456"
       width="1.0019511"
       y="-0.0015586079"
       height="1.0031172">
      <feGaussianBlur
         inkscape:collect="always"
         stdDeviation="0.0065086722"
         id="feGaussianBlur14027-6" />
    </filter>
    <linearGradient
       gradientTransform="translate(90.143438,87.135036)"
       inkscape:collect="always"
       xlink:href="#linearGradient14215"
       id="linearGradient14217"
       x1="-54.737583"
       y1="-255.74303"
       x2="-46.950005"
       y2="-260.92136"
       gradientUnits="userSpaceOnUse" />
    <linearGradient
       inkscape:collect="always"
       id="linearGradient14215">
      <stop
         style="stop-color:#ffba04;stop-opacity:1;"
         offset="0"
         id="stop14211" />
      <stop
         style="stop-color:#ffba04;stop-opacity:0;"
         offset="1"
         id="stop14213" />
    </linearGradient>
  </defs>
  <sodipodi:namedview
     id="base"
     pagecolor="#ffffff"
     bordercolor="#666666"
     borderopacity="1.0"
     inkscape:pageopacity="0.0"
     inkscape:pageshadow="2"
     inkscape:zoom="12.929314"
     inkscape:cx="30.10496"
     inkscape:cy="18.95883"
     inkscape:document-units="mm"
     inkscape:current-layer="layer1"
     showgrid="false"
     inkscape:window-width="958"
     inkscape:window-height="991"
     inkscape:window-x="952"
     inkscape:window-y="0"
     inkscape:window-maximized="0" />
  <metadata
     id="metadata14589">
    <rdf:RDF>
      <cc:Work
         rdf:about="">
        <dc:format>image/svg+xml</dc:format>
        <dc:type
           rdf:resource="http://purl.org/dc/dcmitype/StillImage" />
        <dc:title></dc:title>
      </cc:Work>
    </rdf:RDF>
  </metadata>
  <g
     inkscape:label="Layer 1"
     inkscape:groupmode="layer"
     id="layer1"
     transform="translate(-109.9633,-119.612)">
    <g
       id="g15618">
      <rect
         inkscape:export-ydpi="96"
         inkscape:export-xdpi="96"
         y="119.612"
         x="109.9633"
         height="10.022285"
         width="16.012403"
         id="rect5707-2"
         style="opacity:1;fill:#80d5ff;fill-opacity:0.49253732;stroke:#ff5555;stroke-width:0;stroke-linecap:round;stroke-linejoin:round;stroke-miterlimit:4;stroke-dasharray:none;stroke-dashoffset:0;paint-order:normal" />
      <path
         sodipodi:open="true"
         transform="rotate(124.29332)"
         d="m 41.183017,-169.64265 a 2.850853,2.7474144 0 0 1 -3.407267,1.98475 2.850853,2.7474144 0 0 1 -2.143485,-3.23332 2.850853,2.7474144 0 0 1 3.300756,-2.1454"
         sodipodi:end="4.8919945"
         sodipodi:start="0.25414879"
         sodipodi:ry="2.7474144"
         sodipodi:rx="2.850853"
         sodipodi:cy="-170.3334"
         sodipodi:cx="38.42374"
         sodipodi:type="arc"
         id="path7459-7"
         style="opacity:1;fill:url(#linearGradient14217);fill-opacity:1;stroke:#ff5555;stroke-width:0;stroke-linecap:round;stroke-linejoin:round;stroke-miterlimit:4;stroke-dasharray:none;stroke-dashoffset:0;paint-order:normal" />
      <path
         transform="matrix(0.26458333,0,0,0.26458333,109.96329,119.61198)"
         inkscape:connector-curvature="0"
         d="m 18.181875,17.250187 c 0.01151,0.005 0.02347,0.0095 0.03453,0.01504 0.01577,0.0079 0.03036,0.01686 0.0455,0.02523 0.01758,0.0091 0.03499,0.01837 0.05284,0.02731 0.06308,0.0314 0.127789,0.06122 0.191253,0.09225 0.02393,0.01296 0.04813,0.02567 0.07178,0.03882 0.04722,0.02611 0.108012,0.06047 0.151645,0.08921 0.08221,0.05411 0.154889,0.114224 0.227344,0.174481 0.119124,0.102924 0.223946,0.214838 0.300135,0.335976 0.05565,0.0987 0.09386,0.201266 0.11946,0.305593 0.01867,0.07481 0.0194,0.150855 0.02039,0.226534 7.16e-4,0.05254 9.06e-4,0.105125 9.06e-4,0.157682 6.3e-5,0.121849 -0.01033,0.07564 -0.253475,0.147256 6.3e-5,-0.0089 -9.06e-4,-0.01793 1.9e-4,-0.0268 0.0027,-0.01894 0.01994,-0.07913 0.02411,-0.09248 0.02628,-0.08545 0.05891,-0.169989 0.08928,-0.254766 0.0503,-0.140656 0.102955,-0.280935 0.170144,-0.418243 0.0358,-0.07307 0.05302,-0.101457 0.09272,-0.17199 0.06771,-0.109932 0.154789,-0.216977 0.273388,-0.304705 0.02184,-0.01611 0.04586,-0.03077 0.06879,-0.04612 0.07523,-0.04656 0.158868,-0.08607 0.245943,-0.1211 0.09999,-0.04021 0.199791,-0.08076 0.301386,-0.119012 0.0397,-0.01497 0.141203,-0.0431 0.182914,-0.05499 0.07894,-0.02202 0.159811,-0.04039 0.240949,-0.05807 0,0 -0.201567,0.108297 -0.201567,0.108297 v 0 c -0.07958,0.01724 -0.158805,0.03517 -0.235864,0.05732 -0.03045,0.0089 -0.06118,0.01743 -0.09138,0.02687 -0.03027,0.0094 -0.114511,0.04499 -0.08991,0.02957 0.03653,-0.02284 0.08438,-0.03517 0.126656,-0.0526 0.02882,-0.01189 -0.05801,0.02347 -0.08629,0.03593 -0.08683,0.03825 -0.0813,0.03756 -0.160772,0.08157 -0.02338,0.01491 -0.04777,0.02894 -0.06997,0.04461 -0.121335,0.08569 -0.209805,0.192325 -0.281236,0.300785 -0.04142,0.07045 -0.05955,0.099 -0.0967,0.172084 -0.06925,0.136403 -0.123257,0.276046 -0.17047,0.416834 -0.03906,0.117935 -0.08266,0.235557 -0.102238,0.356047 -0.07777,0.02888 -0.156666,0.05625 -0.233209,0.08663 -0.0027,0.0013 0.0072,0.0031 0.0099,0.0019 0.0045,-0.0019 0.0054,-0.0064 0.0072,-0.0098 0.0092,-0.01718 0.0054,-0.03479 0.0063,-0.05266 9.06e-4,-0.05291 0.0018,-0.105824 0.0027,-0.158739 -4.76e-4,-0.07507 -0.0018,-0.150343 -0.01658,-0.224852 -0.02257,-0.103572 -0.05946,-0.204739 -0.114991,-0.302346 -0.07287,-0.120226 -0.17299,-0.232304 -0.290773,-0.33383 -0.06263,-0.05134 -0.08402,-0.07063 -0.150865,-0.118773 -0.09174,-0.06608 -0.194216,-0.123913 -0.300996,-0.17786 -0.06453,-0.03064 -0.129937,-0.06046 -0.194062,-0.09151 -0.0036,-0.0019 -0.09198,-0.04581 -0.100335,-0.04946 -0.01215,-0.005 -0.02538,-0.0094 -0.03798,-0.01416 0,0 0.221389,-0.09904 0.221389,-0.09904 z"
         id="path11433-7-8"
         style="opacity:1;fill:#000000;fill-opacity:1;stroke:#ffff55;stroke-width:0;stroke-linecap:round;stroke-linejoin:round;stroke-miterlimit:4;stroke-dasharray:none;stroke-dashoffset:0;stroke-opacity:1;paint-order:normal;filter:url(#filter14025-1)" />
      <path
         transform="matrix(0.26458333,0,0,0.26458333,109.96329,119.61198)"
         inkscape:connector-curvature="0"
         d="m 55.928319,28.993546 c 0.01151,0.005 0.02347,0.0095 0.03453,0.01504 0.01577,0.0079 0.03036,0.01686 0.0455,0.02523 0.01758,0.0091 0.03498,0.01837 0.05284,0.02731 0.06308,0.0314 0.127789,0.06122 0.191253,0.09225 0.02393,0.01296 0.04813,0.02567 0.07178,0.03882 0.04722,0.02611 0.108012,0.06047 0.151645,0.08921 0.08221,0.05411 0.154889,0.114224 0.227344,0.174481 0.119124,0.102924 0.223946,0.214838 0.300135,0.335976 0.05565,0.0987 0.09386,0.201266 0.11946,0.305593 0.01867,0.07481 0.0194,0.150855 0.02039,0.226534 7.16e-4,0.05254 9.06e-4,0.105125 9.06e-4,0.157682 6.3e-5,0.121849 -0.01033,0.07564 -0.253475,0.147256 6.3e-5,-0.0089 -9.06e-4,-0.01793 1.9e-4,-0.0268 0.0027,-0.01894 0.01994,-0.07913 0.02411,-0.09248 0.02629,-0.08545 0.05891,-0.169989 0.08928,-0.254766 0.0503,-0.140656 0.102955,-0.280935 0.170144,-0.418243 0.0358,-0.07307 0.05302,-0.101457 0.09272,-0.17199 0.06771,-0.109932 0.154789,-0.216977 0.273388,-0.304705 0.02184,-0.01611 0.04586,-0.03077 0.06879,-0.04612 0.07523,-0.04656 0.158868,-0.08607 0.245943,-0.1211 0.09999,-0.04021 0.199791,-0.08076 0.301386,-0.119012 0.0397,-0.01497 0.141203,-0.0431 0.182914,-0.05499 0.07895,-0.02202 0.159811,-0.04039 0.240949,-0.05807 0,0 -0.201567,0.108297 -0.201567,0.108297 v 0 c -0.07958,0.01724 -0.158805,0.03517 -0.235864,0.05732 -0.03045,0.0089 -0.06118,0.01743 -0.09138,0.02687 -0.03027,0.0094 -0.114511,0.04499 -0.08991,0.02957 0.03653,-0.02284 0.08438,-0.03517 0.126656,-0.0526 0.02882,-0.01189 -0.05801,0.02347 -0.08629,0.03593 -0.08683,0.03826 -0.0813,0.03756 -0.160772,0.08157 -0.02338,0.01491 -0.04777,0.02894 -0.06997,0.04461 -0.121335,0.08569 -0.209805,0.192325 -0.281236,0.300785 -0.04142,0.07045 -0.05955,0.099 -0.0967,0.172084 -0.06925,0.136403 -0.123257,0.276046 -0.17047,0.416834 -0.03906,0.117935 -0.08266,0.235557 -0.102238,0.356047 -0.07777,0.02888 -0.156666,0.05625 -0.233209,0.08663 -0.0027,0.0013 0.0072,0.0032 0.0099,0.0019 0.0045,-0.0019 0.0054,-0.0063 0.0072,-0.0098 0.0092,-0.01718 0.0054,-0.03479 0.0063,-0.05266 9.06e-4,-0.05291 0.0018,-0.105824 0.0027,-0.158739 -4.76e-4,-0.07507 -0.0018,-0.150343 -0.01658,-0.224852 -0.02257,-0.103572 -0.05946,-0.204739 -0.114991,-0.302346 -0.07287,-0.120226 -0.17299,-0.232304 -0.290773,-0.33383 -0.06263,-0.05134 -0.08402,-0.07063 -0.150865,-0.118773 -0.09174,-0.06608 -0.194216,-0.123913 -0.300996,-0.17786 -0.06453,-0.03064 -0.129937,-0.06047 -0.194062,-0.09151 -0.0036,-0.0019 -0.09198,-0.04581 -0.100335,-0.04945 -0.01215,-0.005 -0.02538,-0.0094 -0.03798,-0.01416 0,0 0.221389,-0.09904 0.221389,-0.09904 z"
         id="path11433-7-1"
         style="opacity:1;fill:#000000;fill-opacity:1;stroke:#ffff55;stroke-width:0;stroke-linecap:round;stroke-linejoin:round;stroke-miterlimit:4;stroke-dasharray:none;stroke-dashoffset:0;stroke-opacity:1;paint-order:normal;filter:url(#filter14025-2)" />
      <path
         transform="matrix(0.26458333,0,0,0.26458333,109.96329,119.61198)"
         inkscape:connector-curvature="0"
         d="m 30.344622,34.026402 c 0.01151,0.005 0.02347,0.0095 0.03453,0.01504 0.01577,0.0079 0.03036,0.01686 0.0455,0.02523 0.01758,0.0091 0.03498,0.01837 0.05284,0.02731 0.06308,0.0314 0.127789,0.06122 0.191253,0.09225 0.02393,0.01296 0.04813,0.02567 0.07178,0.03882 0.04722,0.02611 0.108012,0.06046 0.151645,0.08921 0.08221,0.05411 0.154889,0.114224 0.227344,0.174481 0.119124,0.102924 0.223946,0.214838 0.300135,0.335976 0.05565,0.0987 0.09386,0.201266 0.11946,0.305593 0.01867,0.07481 0.0194,0.150855 0.02039,0.226534 7.16e-4,0.05254 9.06e-4,0.105125 9.06e-4,0.157682 6.3e-5,0.121849 -0.01033,0.07564 -0.253475,0.147256 6.3e-5,-0.0089 -9.06e-4,-0.01793 1.9e-4,-0.0268 0.0027,-0.01894 0.01994,-0.07913 0.02411,-0.09248 0.02628,-0.08545 0.05891,-0.169989 0.08928,-0.254766 0.0503,-0.140656 0.102955,-0.280935 0.170144,-0.418243 0.0358,-0.07307 0.05302,-0.101457 0.09272,-0.17199 0.06771,-0.109932 0.154789,-0.216977 0.273388,-0.304705 0.02184,-0.01611 0.04586,-0.03077 0.06879,-0.04612 0.07523,-0.04656 0.158868,-0.08607 0.245943,-0.1211 0.09999,-0.04021 0.199791,-0.08076 0.301386,-0.119012 0.0397,-0.01497 0.141203,-0.0431 0.182914,-0.05499 0.07895,-0.02202 0.159811,-0.04039 0.240949,-0.05807 0,0 -0.201567,0.108297 -0.201567,0.108297 v 0 c -0.07958,0.01724 -0.158805,0.03517 -0.235864,0.05732 -0.03045,0.0089 -0.06118,0.01743 -0.09138,0.02687 -0.03027,0.0094 -0.114511,0.04499 -0.08991,0.02957 0.03653,-0.02284 0.08438,-0.03517 0.126656,-0.0526 0.02882,-0.01189 -0.05801,0.02347 -0.08629,0.03593 -0.08683,0.03825 -0.0813,0.03756 -0.160772,0.08157 -0.02338,0.01491 -0.04777,0.02894 -0.06997,0.04461 -0.121335,0.08569 -0.209805,0.192325 -0.281236,0.300785 -0.04142,0.07045 -0.05955,0.099 -0.0967,0.172084 -0.06925,0.136403 -0.123257,0.276046 -0.17047,0.416834 -0.03906,0.117935 -0.08266,0.235557 -0.102238,0.356047 -0.07777,0.02888 -0.156666,0.05625 -0.233209,0.08663 -0.0027,0.0013 0.0072,0.0031 0.0099,0.0019 0.0045,-0.0019 0.0054,-0.0063 0.0072,-0.0098 0.0092,-0.01718 0.0054,-0.03479 0.0063,-0.05266 9.06e-4,-0.05291 0.0018,-0.105824 0.0027,-0.158739 -4.76e-4,-0.07507 -0.0018,-0.150343 -0.01658,-0.224852 -0.02257,-0.103572 -0.05946,-0.204739 -0.114991,-0.302346 -0.07287,-0.120226 -0.17299,-0.232304 -0.290773,-0.33383 -0.06263,-0.05134 -0.08402,-0.07063 -0.150865,-0.118773 -0.09174,-0.06608 -0.194216,-0.123913 -0.300996,-0.17786 -0.06453,-0.03064 -0.129937,-0.06047 -0.194062,-0.09151 -0.0036,-0.0019 -0.09198,-0.04581 -0.100335,-0.04946 -0.01215,-0.005 -0.02538,-0.0094 -0.03798,-0.01416 0,0 0.221389,-0.09904 0.221389,-0.09904 z"
         id="path11433-7-3"
         style="opacity:1;fill:#000000;fill-opacity:1;stroke:#ffff55;stroke-width:0;stroke-linecap:round;stroke-linejoin:round;stroke-miterlimit:4;stroke-dasharray:none;stroke-dashoffset:0;stroke-opacity:1;paint-order:normal;filter:url(#filter14025-12)" />
    </g>
  </g>
</svg>
