<?xml version="1.0" encoding="UTF-8" standalone="no"?>
<svg
   xmlns:dc="http://purl.org/dc/elements/1.1/"
   xmlns:cc="http://creativecommons.org/ns#"
   xmlns:rdf="http://www.w3.org/1999/02/22-rdf-syntax-ns#"
   xmlns:svg="http://www.w3.org/2000/svg"
   xmlns="http://www.w3.org/2000/svg"
   id="svg16205"
   version="1.1"
   viewBox="0 0 278.03567 179.17771"
   height="179.1777mm"
   width="278.03568mm">
  <defs
     id="defs16199" />
  <metadata
     id="metadata16202">
    <rdf:RDF>
      <cc:Work
         rdf:about="">
        <dc:format>image/svg+xml</dc:format>
        <dc:type
           rdf:resource="http://purl.org/dc/dcmitype/StillImage" />
        <dc:title></dc:title>
      </cc:Work>
    </rdf:RDF>
  </metadata>
  <g
     transform="translate(255.25755,46.093208)"
     id="layer1">
    <g
       id="g17728">
      <g
         id="g17782">
        <path
           id="path3346"
           d="m -20.393632,58.856184 a 26.082498,26.082498 0 1 0 -50.064625,10.268321 c -0.02551,-0.02836 -0.05186,-0.05595 -0.07724,-0.08442 a 26.105379,26.105379 0 0 0 4.750403,7.350869 c 0.0059,0.0065 0.01201,0.01288 0.01796,0.01942 0.160232,0.174625 0.321382,0.34835 0.486252,0.518557 a 26.003289,26.003289 0 0 0 18.396309,8.004585 l -0.881351,47.870844 h 2.722899 l -0.551085,-31.59532 3.938786,-2.073696 -0.600856,-1.141283 -3.363118,1.770591 -0.258731,-14.833536 A 26.08214,26.08214 0 0 0 -20.393632,58.85619 Z"
           style="fill:#e6e6e6;stroke-width:0.26458332" />
        <path
           id="path3348"
           d="m -97.807431,46.143641 a 30.566381,30.566381 0 1 0 -58.671309,12.033567 c -0.0299,-0.03323 -0.0608,-0.06557 -0.0905,-0.09893 a 30.593191,30.593191 0 0 0 5.56706,8.614569 c 0.007,0.0076 0.0141,0.01511 0.0211,0.02275 0.18777,0.204655 0.37663,0.408236 0.56984,0.607703 a 30.473544,30.473544 0 0 0 21.55885,9.380664 l -1.03287,56.100396 h 3.191 l -0.64583,-37.02692 4.61592,-2.430197 -0.70415,-1.337485 -3.94127,2.074987 -0.30321,-17.383591 A 30.565963,30.565963 0 0 0 -97.807371,46.14364 Z"
           style="fill:#e6e6e6;stroke-width:0.26458332" />
        <path
           id="path3350"
           d="m -185.60364,34.186199 a 34.783929,34.783929 0 1 0 -66.76679,13.693958 c -0.034,-0.03782 -0.0692,-0.07461 -0.103,-0.112586 a 34.814356,34.814356 0 0 0 6.33518,9.803207 c 0.008,0.0087 0.016,0.0172 0.024,0.0259 0.21369,0.232894 0.4286,0.464566 0.64847,0.691554 a 34.678302,34.678302 0 0 0 24.53354,10.675009 l -1.17538,63.841109 h 3.63129 l -0.73493,-42.135886 5.25281,-2.76551 -0.80131,-1.522031 -4.4851,2.361292 -0.34504,-19.782178 a 34.783447,34.783447 0 0 0 33.98629,-34.773841 z"
           style="fill:#e6e6e6;stroke-width:0.26458332" />
        <circle
           id="circle3352"
           r="22.747747"
           cy="-23.345461"
           cx="-55.051193"
           style="fill:#ff6584;stroke-width:0.26458332" />
        <circle
           id="circle3354"
           r="45.590801"
           cy="3.5469289"
           cx="-190.28679"
           style="fill:#2cfa6d;stroke-width:0.26458332" />
        <path
           id="path3356"
           d="m -223.94956,-26.904147 a 45.594357,45.594357 0 0 0 75.96775,48.251969 45.59473,45.59473 0 1 1 -75.96775,-48.251969 z"
           style="opacity:0.2;stroke-width:0.26458332" />
        <polygon
           transform="matrix(0.26458333,0,0,0.26458333,-255.25756,-46.093209)"
           id="polygon3358"
           points="246.506,187.616 255.027,676.148 237.038,676.148 246.032,187.616 "
           style="fill:#3f3d56" />
        <rect
           id="rect3360"
           transform="rotate(62.23413)"
           height="8.516964"
           width="2.2544909"
           y="195.37221"
           x="-21.538143"
           style="fill:#3f3d56;stroke-width:0.26458332" />
        <path
           id="path3362"
           d="m -120.55416,131.59527 c 0,0 0.16449,-3.44666 3.53653,-3.04603"
           style="fill:#3f3d56;stroke-width:0.26458332" />
        <circle
           id="circle3364"
           r="1.6876819"
           cy="126.62766"
           cx="-121.50695"
           style="fill:#2cfa6d;stroke-width:0.26458332" />
        <rect
           id="rect3366"
           height="3.3347476"
           width="0.47639287"
           y="129.46962"
           x="-121.78156"
           style="fill:#3f3d56;stroke-width:0.26458332" />
        <path
           id="path3368"
           d="m -237.50855,131.11887 c 0,0 0.16449,-3.44666 3.53653,-3.04603"
           style="fill:#3f3d56;stroke-width:0.26458332" />
        <circle
           id="circle3370"
           r="1.6876819"
           cy="126.15127"
           cx="-238.46133"
           style="fill:#2cfa6d;stroke-width:0.26458332" />
        <rect
           id="rect3372"
           height="3.3347476"
           width="0.47639287"
           y="128.99323"
           x="-238.73595"
           style="fill:#3f3d56;stroke-width:0.26458332" />
        <path
           id="path3374"
           d="m -209.87778,131.35707 c 0,0 0.1645,-3.44666 3.53654,-3.04603"
           style="fill:#3f3d56;stroke-width:0.26458332" />
        <circle
           id="circle3376"
           r="1.6876819"
           cy="126.38947"
           cx="-210.83055"
           style="fill:#2cfa6d;stroke-width:0.26458332" />
        <rect
           id="rect3378"
           height="3.3347476"
           width="0.47639287"
           y="129.23143"
           x="-211.10516"
           style="fill:#3f3d56;stroke-width:0.26458332" />
        <path
           id="path3380"
           d="m -136.39527,-24.053807 3.3853,-2.707592 c -2.62989,-0.290147 -3.71046,1.144138 -4.1527,2.279385 -2.05458,-0.853135 -4.29123,0.264944 -4.29123,0.264944 l 6.77336,2.458968 a 5.1255347,5.1255347 0 0 0 -1.71473,-2.295705 z"
           style="fill:#3f3d56;stroke-width:0.26458332" />
        <path
           id="path3382"
           d="m -84.911669,3.5266984 3.385299,-2.70759232 c -2.62989,-0.29014737 -3.710461,1.14413772 -4.152696,2.27938542 -2.054577,-0.8531358 -4.291227,0.2649405 -4.291227,0.2649405 l 6.77336,2.4589713 a 5.1255718,5.1255718 0 0 0 -1.714736,-2.2957049 z"
           style="fill:#3f3d56;stroke-width:0.26458332" />
        <path
           id="path3384"
           d="m -140.44041,27.062055 3.3853,-2.707592 c -2.62989,-0.290148 -3.71047,1.144137 -4.1527,2.279385 -2.05458,-0.853136 -4.29123,0.264943 -4.29123,0.264943 l 6.77336,2.458969 a 5.1255718,5.1255718 0 0 0 -1.71473,-2.295705 z"
           style="fill:#3f3d56;stroke-width:0.26458332" />
        <path
           id="path3386"
           d="m -160.20459,117.38732 c 0,0 2.65144,7.76492 1.51511,10.60574 l 3.40899,3.03021 2.08327,-2.65143 c 0,0 -2.27266,-2.27266 -2.08327,-3.97716 0.18939,-1.70449 0.37877,-7.76491 0.37877,-7.76491 z"
           style="fill:#ffb9b9;stroke-width:0.26458332" />
        <path
           id="path3388"
           d="m -147.51662,132.53734 c -0.15483,0.0905 -0.30251,0.17627 -0.43829,0.25488 h -11.75498 a 0.62039764,0.62039764 0 0 1 -0.30488,-0.63362 c 0.0548,-0.28107 0.19531,-0.85273 0.3692,-1.51015 0.41207,-1.55543 1.01709,-3.59201 1.14811,-3.37526 a 0.00233098,0.00233098 0 0 1 0.002,0.002 c 0.18341,0.33825 0.56215,1.85317 1.51017,1.66499 0.94802,-0.19056 2.46295,-0.56928 2.46295,-0.56928 0,0 -0.54071,-1.21481 -0.0238,-1.7055 a 0.72445562,0.72445562 0 0 1 0.40255,-0.18818 c 1.1362,-0.18816 1.1362,1.51493 1.1362,1.51493 l 4.16605,2.2724 a 6.9201373,6.9201373 0 0 1 1.04807,0.38349 c 0.84558,0.39542 1.68166,1.0719 0.27629,1.88891 z"
           style="fill:#2f2e41;stroke-width:0.26458332" />
        <path
           id="path3390"
           d="m -167.78012,114.5465 -4.92409,5.87103 -1.32572,3.03021 1.7045,1.32572 1.5151,-0.56816 c 0,0 1.32572,-3.40899 2.65144,-3.97715 1.32572,-0.56817 4.54532,-4.35594 4.54532,-4.35594 z"
           style="fill:#ffb9b9;stroke-width:0.26458332" />
        <path
           id="path3392"
           d="m -157.45846,110.04094 -2.51129,4.65517 -1.79919,3.33324 c -0.57573,0.34279 -1.34276,0.3371 -2.16849,0.13446 a 8.3054506,8.3054506 0 0 1 -1.12875,-0.37688 c -2.25372,-0.92232 -4.53964,-2.7537 -4.53964,-2.7537 l 4.32564,-5.40515 1.41283,-1.76321 0.33523,-0.42043 1.61548,0.69126 2.85029,1.21776 z"
           style="fill:#2f2e41;stroke-width:0.26458332" />
        <path
           id="path3394"
           d="m -168.66626,69.843113 -2.00602,8.228621 2.06486,10.556809 c 0,0 0.0509,4.315507 1.94307,3.988014 1.8922,-0.327493 -0.0908,-4.679878 -0.0908,-4.679878 l -0.92555,-8.656024 2.95921,-8.551717 a 1.5712943,1.5712943 0 0 0 -0.75733,-1.860423 v 0 c -1.17169,-0.71561 -2.83679,-0.206481 -3.18744,0.974598 z"
           style="fill:#ffb9b9;stroke-width:0.26458332" />
        <path
           id="path3396"
           d="m -161.625,62.748811 -1.70449,5.302869 -3.2196,-1.704493 c 0,0 1.32572,-3.787775 1.32572,-4.355931 0,-0.568155 3.59837,0.757555 3.59837,0.757555 z"
           style="fill:#ffb9b9;stroke-width:0.26458332" />
        <circle
           id="circle3398"
           r="3.9771531"
           cy="60.854931"
           cx="-162.95071"
           style="fill:#ffb9b9;stroke-width:0.26458332" />
        <path
           id="path3400"
           d="m -161.90908,69.282704 -0.75754,-0.757552 -0.18939,-0.946944 c 0,0 -2.46205,-3.2196 -4.54532,-2.083271 -0.65102,0.355103 -1.13559,1.172581 -1.49416,2.128769 a 10.341171,10.341171 0 0 0 0.23787,7.692041 l 3.33956,7.792296 7.57553,-0.757552 -1.32572,-4.924094 c 0,0 1.32572,-3.030212 -1.13633,-5.113483 z"
           style="fill:#2cfa6d;stroke-width:0.26458332" />
        <path
           id="path3402"
           d="m -157.45846,110.04094 -2.51129,4.65517 -1.79919,3.33324 c -0.57573,0.34279 -1.34276,0.3371 -2.16849,0.13446 -0.14394,-0.95831 0.71589,-6.02255 0.0398,-10.15121 l 0.0303,-0.14773 0.33523,-0.42043 1.61548,0.69126 2.85029,1.21776 z"
           style="opacity:0.3;stroke-width:0.26458332" />
        <path
           id="path3404"
           d="m -157.45846,81.877024 c 0,0 -4.92409,-3.030212 -8.33308,0.757553 l 0.18939,1.13633 c 0,0 -2.84083,3.2196 -1.13633,10.037577 1.7045,6.817976 4.35593,24.620466 4.35593,24.620466 0,0 6.24981,0.37878 9.09063,-1.70449 0,0 -0.94694,-23.48415 -4.16654,-25.7568 z"
           style="fill:#2f2e41;stroke-width:0.26458332" />
        <path
           id="path3406"
           d="m -167.72624,71.328772 5.34369,6.571099 9.6588,4.734706 c 0,0 3.46903,2.567487 4.35163,0.861994 0.8826,-1.705494 -3.78347,-2.755876 -3.78347,-2.755876 l -7.45586,-4.493718 -5.02507,-7.525792 a 1.5712943,1.5712943 0 0 0 -1.93992,-0.520933 v 0 c -1.27825,0.501052 -1.87889,2.13537 -1.1498,3.12852 z"
           style="fill:#ffb9b9;stroke-width:0.26458332" />
        <path
           id="path3408"
           d="m -171.2666,123.78923 c 0,0 1.16087,-1.45999 1.85434,-0.54009 0.69347,0.91989 -0.81777,1.70823 -0.81777,1.70823 l -0.088,4.74524 c 0,0 0.82468,3.62835 -1.40184,2.22651 -2.22651,-1.40184 -2.3141,-1.56976 -2.75206,-2.40933 -0.43796,-0.83958 -1.34296,-4.21242 -2.12402,-5.30024 -0.78106,-1.08781 -1.49633,-3.27798 -0.56916,-3.54802 0.92717,-0.27005 5.2489,-1.23149 5.0336,-0.91123 -0.21531,0.32027 -1.38345,1.35683 -0.77757,2.10881 0.60587,0.75198 1.64244,1.92012 1.64244,1.92012 z"
           style="fill:#2f2e41;stroke-width:0.26458332" />
        <path
           id="path3410"
           d="m -160.86781,57.460423 c 0,-0.0048 2.6e-4,-0.0096 2.6e-4,-0.01447 a 5.4922605,5.4922605 0 1 0 -5.49226,5.492258 c 0.12759,0 0.63214,0.955508 0.75755,0.946944 0.008,-2.899096 1.88289,-6.230059 4.73434,-6.424719 z"
           style="fill:#2f2e41;stroke-width:0.26458332" />
        <circle
           id="circle3412"
           r="3.5983756"
           cy="53.2794"
           cx="-172.23074"
           style="fill:#2f2e41;stroke-width:0.26458332" />
        <path
           id="path3414"
           d="m -172.39582,47.828457 a 3.593412,3.593412 0 0 1 1.02661,7.043645 3.5957906,3.5957906 0 1 0 -1.02661,-7.043645 z"
           style="fill:#2f2e41;stroke-width:0.26458332" />
        <path
           id="path3416"
           d="m -163.89766,56.309612 h 1.89389 a 3.4089842,3.4089842 0 0 1 3.40898,3.408985 v 0 h -5.30287 z"
           style="fill:#2f2e41;stroke-width:0.26458332" />
        <path
           id="path3418"
           d="m -74.373778,132.8463 c 0,0 0.164492,-3.44666 3.536532,-3.04604"
           style="fill:#3f3d56;stroke-width:0.26458332" />
        <path
           id="path3420"
           d="m -106.05389,132.8463 c 0,0 0.16449,-3.44666 3.53653,-3.04604"
           style="fill:#3f3d56;stroke-width:0.26458332" />
        <path
           id="path3422"
           d="m -221.57909,132.8463 c 0,0 0.16449,-3.44666 3.53653,-3.04604"
           style="fill:#3f3d56;stroke-width:0.26458332" />
        <path
           id="path3424"
           d="m -60.082,132.8463 c 0,0 0.164492,-3.44666 3.536532,-3.04604"
           style="fill:#3f3d56;stroke-width:0.26458332" />
        <path
           id="path3426"
           d="m -66.751495,132.8463 c 0,0 0.164489,-3.44666 3.53653,-3.04604"
           style="fill:#3f3d56;stroke-width:0.26458332" />
        <path
           id="path3428"
           d="m -80.509518,132.8463 c 0,0 -0.164489,-3.44666 -3.53653,-3.04604"
           style="fill:#3f3d56;stroke-width:0.26458332" />
        <path
           id="path3430"
           d="m -135.29467,132.8463 c 0,0 -0.16449,-3.44666 -3.53653,-3.04604"
           style="fill:#3f3d56;stroke-width:0.26458332" />
        <path
           id="path3432"
           d="m -180.79016,132.8463 c 0,0 -0.16449,-3.44666 -3.53653,-3.04604"
           style="fill:#3f3d56;stroke-width:0.26458332" />
        <path
           id="path3434"
           d="m -229.14401,132.8463 c 0,0 -0.16449,-3.44666 -3.53653,-3.04604"
           style="fill:#3f3d56;stroke-width:0.26458332" />
        <path
           id="path3436"
           d="m -45.732857,132.8463 c 0,0 -0.164489,-3.44666 -3.53653,-3.04604"
           style="fill:#3f3d56;stroke-width:0.26458332" />
        <path
           id="path3438"
           d="m -66.21774,133.08449 c 0,0 -0.164489,-3.44666 -3.536529,-3.04603"
           style="fill:#3f3d56;stroke-width:0.26458332" />
        <rect
           id="rect3440"
           height="0.52916664"
           width="234.95"
           y="132.39563"
           x="-255.25755"
           style="fill:#3f3d56;stroke-width:0.26458332" />
        <circle
           id="circle3354-0"
           r="45.590801"
           cy="3.6674461"
           cx="-22.812687"
           style="fill:#ffff00;stroke-width:0.26458332" />
        <path
           id="path3356-7"
           d="m -56.475449,-26.783638 a 45.594357,45.594357 0 0 0 75.96775,48.25197 45.59473,45.59473 0 1 1 -75.96775,-48.25197 z"
           style="opacity:0.2;stroke-width:0.26458332" />
        <polygon
           transform="matrix(0.26458333,0,0,0.26458333,-87.783449,-45.9727)"
           id="polygon3358-1"
           points="246.032,187.616 246.506,187.616 255.027,676.148 237.038,676.148 "
           style="fill:#3f3d56" />
        <rect
           id="rect3360-5"
           transform="rotate(62.23413)"
           height="8.516964"
           width="2.2544909"
           y="47.237438"
           x="56.58791"
           style="fill:#3f3d56;stroke-width:0.26458332" />
      </g>
    </g>
  </g>
</svg>
