<?xml version="1.0" encoding="UTF-8" standalone="no"?>
<svg
   xmlns:dc="http://purl.org/dc/elements/1.1/"
   xmlns:cc="http://creativecommons.org/ns#"
   xmlns:rdf="http://www.w3.org/1999/02/22-rdf-syntax-ns#"
   xmlns:svg="http://www.w3.org/2000/svg"
   xmlns="http://www.w3.org/2000/svg"
   id="svg14592"
   version="1.1"
   viewBox="0 0 16.012406 10.005424"
   height="10.005424mm"
   width="16.012405mm">
  <defs
     id="defs14586" />
  <metadata
     id="metadata14589">
    <rdf:RDF>
      <cc:Work
         rdf:about="">
        <dc:format>image/svg+xml</dc:format>
        <dc:type
           rdf:resource="http://purl.org/dc/dcmitype/StillImage" />
        <dc:title></dc:title>
      </cc:Work>
    </rdf:RDF>
  </metadata>
  <g
     transform="translate(-110.04032,-119.66315)"
     id="layer1">
    <g
       id="g15832">
      <g
         id="g15816">
        <g
           id="g15801">
          <g
             id="g15787">
            <rect
               y="119.66315"
               x="110.04032"
               height="10.005423"
               width="16.012403"
               id="rect5707-9"
               style="opacity:1;fill:#000000;fill-opacity:1;stroke:#ff5555;stroke-width:0;stroke-linecap:round;stroke-linejoin:round;stroke-miterlimit:4;stroke-dasharray:none;stroke-dashoffset:0;paint-order:normal" />
            <ellipse
               ry="2.841316"
               rx="2.850853"
               cy="125.09959"
               cx="118.18587"
               id="path7459-3"
               style="opacity:1;fill:#ececec;fill-opacity:1;stroke:#ff5555;stroke-width:0;stroke-linecap:round;stroke-linejoin:round;stroke-miterlimit:4;stroke-dasharray:none;stroke-dashoffset:0;paint-order:normal" />
            <path
               transform="matrix(0.01841814,0,0,0.01935475,110.04157,120.02348)"
               d="m 106.54828,54.645224 6.60129,10.291047 12.21989,0.396164 -7.74745,9.45831 3.39938,11.744231 -11.38949,-4.445491 -10.118958,6.86217 0.708368,-12.205775 -9.653242,-7.503176 11.827282,-3.098093 z"
               id="path11308"
               style="opacity:1;fill:#ffffff;fill-opacity:1;stroke:#ffffff;stroke-width:0;stroke-linecap:round;stroke-linejoin:round;stroke-miterlimit:4;stroke-dasharray:none;stroke-dashoffset:0;stroke-opacity:0.96648045;paint-order:normal" />
            <path
               transform="matrix(0.01841814,0,0,0.01935475,111.44069,126.89634)"
               d="m 106.54828,54.645224 6.60129,10.291047 12.21989,0.396164 -7.74745,9.45831 3.39938,11.744231 -11.38949,-4.445491 -10.118958,6.86217 0.708368,-12.205775 -9.653242,-7.503176 11.827282,-3.098093 z"
               id="path11308-6"
               style="opacity:1;fill:#ffffff;fill-opacity:1;stroke:#ffffff;stroke-width:0;stroke-linecap:round;stroke-linejoin:round;stroke-miterlimit:4;stroke-dasharray:none;stroke-dashoffset:0;stroke-opacity:0.96648045;paint-order:normal" />
            <path
               transform="matrix(0.01841814,0,0,0.01935475,113.91187,119.7471)"
               d="m 106.54828,54.645224 6.60129,10.291047 12.21989,0.396164 -7.74745,9.45831 3.39938,11.744231 -11.38949,-4.445491 -10.118958,6.86217 0.708368,-12.205775 -9.653242,-7.503176 11.827282,-3.098093 z"
               id="path11308-9"
               style="opacity:1;fill:#ffffff;fill-opacity:1;stroke:#ffffff;stroke-width:0;stroke-linecap:round;stroke-linejoin:round;stroke-miterlimit:4;stroke-dasharray:none;stroke-dashoffset:0;stroke-opacity:0.96648045;paint-order:normal" />
            <path
               transform="matrix(0.01841814,0,0,0.01935475,110.11425,122.97162)"
               d="m 106.54828,54.645224 6.60129,10.291047 12.21989,0.396164 -7.74745,9.45831 3.39938,11.744231 -11.38949,-4.445491 -10.118958,6.86217 0.708368,-12.205775 -9.653242,-7.503176 11.827282,-3.098093 z"
               id="path11308-5"
               style="opacity:1;fill:#ffffff;fill-opacity:1;stroke:#ffffff;stroke-width:0;stroke-linecap:round;stroke-linejoin:round;stroke-miterlimit:4;stroke-dasharray:none;stroke-dashoffset:0;stroke-opacity:0.96648045;paint-order:normal" />
            <path
               transform="matrix(0.01841814,0,0,0.01935475,122.19759,121.79236)"
               d="m 106.54828,54.645224 6.60129,10.291047 12.21989,0.396164 -7.74745,9.45831 3.39938,11.744231 -11.38949,-4.445491 -10.118958,6.86217 0.708368,-12.205775 -9.653242,-7.503176 11.827282,-3.098093 z"
               id="path11308-69"
               style="opacity:1;fill:#ffffff;fill-opacity:1;stroke:#ffffff;stroke-width:0;stroke-linecap:round;stroke-linejoin:round;stroke-miterlimit:4;stroke-dasharray:none;stroke-dashoffset:0;stroke-opacity:0.96648045;paint-order:normal" />
            <ellipse
               transform="matrix(0.87563089,0.4829809,0.03019475,0.99954403,0,0)"
               ry="0.17480318"
               rx="0.33117461"
               cy="58.198486"
               cx="134.42868"
               id="path11363"
               style="opacity:1;fill:#ffffff;fill-opacity:1;stroke:#ffff55;stroke-width:0;stroke-linecap:round;stroke-linejoin:round;stroke-miterlimit:4;stroke-dasharray:none;stroke-dashoffset:0;stroke-opacity:1;paint-order:normal" />
            <ellipse
               transform="matrix(0.8438952,0.53650806,0.02620002,0.99965672,0,0)"
               ry="0.143648"
               rx="0.24502479"
               cy="48.305401"
               cx="140.44711"
               id="path11363-3"
               style="opacity:1;fill:#ffffff;fill-opacity:1;stroke:#ffff55;stroke-width:0;stroke-linecap:round;stroke-linejoin:round;stroke-miterlimit:4;stroke-dasharray:none;stroke-dashoffset:0;stroke-opacity:1;paint-order:normal" />
            <ellipse
               transform="matrix(0.84389519,0.53650806,0.02620002,0.99965672,0,0)"
               ry="0.14364798"
               rx="0.24502479"
               cy="48.30048"
               cx="139.3752"
               id="path11363-3-0"
               style="opacity:1;fill:#ffffff;fill-opacity:1;stroke:#ffff55;stroke-width:0;stroke-linecap:round;stroke-linejoin:round;stroke-miterlimit:4;stroke-dasharray:none;stroke-dashoffset:0;stroke-opacity:1;paint-order:normal" />
            <ellipse
               ry="0.30832961"
               rx="0.33347982"
               cy="126.69017"
               cx="116.80418"
               id="path11425"
               style="opacity:1;fill:#ffffff;fill-opacity:1;stroke:#ffff55;stroke-width:0;stroke-linecap:round;stroke-linejoin:round;stroke-miterlimit:4;stroke-dasharray:none;stroke-dashoffset:0;stroke-opacity:1;paint-order:normal" />
          </g>
        </g>
      </g>
    </g>
  </g>
</svg>
