<?xml version="1.0" encoding="UTF-8" standalone="no"?>
<svg
   xmlns:dc="http://purl.org/dc/elements/1.1/"
   xmlns:cc="http://creativecommons.org/ns#"
   xmlns:rdf="http://www.w3.org/1999/02/22-rdf-syntax-ns#"
   xmlns:svg="http://www.w3.org/2000/svg"
   xmlns="http://www.w3.org/2000/svg"
   id="svg9532"
   version="1.1"
   viewBox="0 0 16.012405 9.8667145"
   height="9.8667145mm"
   width="16.012405mm">
  <defs
     id="defs9526" />
  <metadata
     id="metadata9529">
    <rdf:RDF>
      <cc:Work
         rdf:about="">
        <dc:format>image/svg+xml</dc:format>
        <dc:type
           rdf:resource="http://purl.org/dc/dcmitype/StillImage" />
        <dc:title></dc:title>
      </cc:Work>
    </rdf:RDF>
  </metadata>
  <g
     transform="translate(13.297872,-165.8226)"
     id="layer1">
    <g
       id="g9524"
       transform="translate(-239.57462,50.214289)">
      <rect
         style="opacity:1;fill:#000000;fill-opacity:1;stroke:#ff5555;stroke-width:0;stroke-linecap:round;stroke-linejoin:round;stroke-miterlimit:4;stroke-dasharray:none;stroke-dashoffset:0;paint-order:normal"
         id="rect5707-9"
         width="16.012403"
         height="9.8667135"
         x="226.27675"
         y="115.60831" />
      <ellipse
         style="opacity:1;fill:#ececec;fill-opacity:1;stroke:#ff5555;stroke-width:0;stroke-linecap:round;stroke-linejoin:round;stroke-miterlimit:4;stroke-dasharray:none;stroke-dashoffset:0;paint-order:normal"
         id="path7459-3"
         cx="234.4223"
         cy="120.96938"
         rx="2.850853"
         ry="2.8019257" />
      <path
         style="opacity:1;fill:#ffffff;fill-opacity:1;stroke:#ffffff;stroke-width:0;stroke-linecap:round;stroke-linejoin:round;stroke-miterlimit:4;stroke-dasharray:none;stroke-dashoffset:0;stroke-opacity:0.96648045;paint-order:normal"
         id="path11308"
         d="m 106.54828,54.645224 6.60129,10.291047 12.21989,0.396164 -7.74745,9.45831 3.39938,11.744231 -11.38949,-4.445491 -10.118958,6.86217 0.708368,-12.205775 -9.653242,-7.503176 11.827282,-3.098093 z"
         transform="matrix(0.01841814,0,0,0.01908643,226.278,115.96364)" />
      <path
         style="opacity:1;fill:#ffffff;fill-opacity:1;stroke:#ffffff;stroke-width:0;stroke-linecap:round;stroke-linejoin:round;stroke-miterlimit:4;stroke-dasharray:none;stroke-dashoffset:0;stroke-opacity:0.96648045;paint-order:normal"
         id="path11308-6"
         d="m 106.54828,54.645224 6.60129,10.291047 12.21989,0.396164 -7.74745,9.45831 3.39938,11.744231 -11.38949,-4.445491 -10.118958,6.86217 0.708368,-12.205775 -9.653242,-7.503176 11.827282,-3.098093 z"
         transform="matrix(0.01841814,0,0,0.01908643,227.67712,122.74122)" />
      <path
         style="opacity:1;fill:#ffffff;fill-opacity:1;stroke:#ffffff;stroke-width:0;stroke-linecap:round;stroke-linejoin:round;stroke-miterlimit:4;stroke-dasharray:none;stroke-dashoffset:0;stroke-opacity:0.96648045;paint-order:normal"
         id="path11308-9"
         d="m 106.54828,54.645224 6.60129,10.291047 12.21989,0.396164 -7.74745,9.45831 3.39938,11.744231 -11.38949,-4.445491 -10.118958,6.86217 0.708368,-12.205775 -9.653242,-7.503176 11.827282,-3.098093 z"
         transform="matrix(0.01841814,0,0,0.01908643,230.1483,115.69109)" />
      <path
         style="opacity:1;fill:#ffffff;fill-opacity:1;stroke:#ffffff;stroke-width:0;stroke-linecap:round;stroke-linejoin:round;stroke-miterlimit:4;stroke-dasharray:none;stroke-dashoffset:0;stroke-opacity:0.96648045;paint-order:normal"
         id="path11308-5"
         d="m 106.54828,54.645224 6.60129,10.291047 12.21989,0.396164 -7.74745,9.45831 3.39938,11.744231 -11.38949,-4.445491 -10.118958,6.86217 0.708368,-12.205775 -9.653242,-7.503176 11.827282,-3.098093 z"
         transform="matrix(0.01841814,0,0,0.01908643,226.35068,118.87091)" />
      <path
         style="opacity:1;fill:#ffffff;fill-opacity:1;stroke:#ffffff;stroke-width:0;stroke-linecap:round;stroke-linejoin:round;stroke-miterlimit:4;stroke-dasharray:none;stroke-dashoffset:0;stroke-opacity:0.96648045;paint-order:normal"
         id="path11308-69"
         d="m 106.54828,54.645224 6.60129,10.291047 12.21989,0.396164 -7.74745,9.45831 3.39938,11.744231 -11.38949,-4.445491 -10.118958,6.86217 0.708368,-12.205775 -9.653242,-7.503176 11.827282,-3.098093 z"
         transform="matrix(0.01841814,0,0,0.01908643,238.43402,117.708)" />
      <ellipse
         style="opacity:1;fill:#ffffff;fill-opacity:1;stroke:#ffff55;stroke-width:0;stroke-linecap:round;stroke-linejoin:round;stroke-miterlimit:4;stroke-dasharray:none;stroke-dashoffset:0;stroke-opacity:1;paint-order:normal"
         id="path11363"
         cx="268.64227"
         cy="-9.3716526"
         rx="0.33010933"
         ry="0.17238204"
         transform="matrix(0.8784566,0.47782214,0.03061884,0.99953113,0,0)" />
      <ellipse
         style="opacity:1;fill:#ffffff;fill-opacity:1;stroke:#ffff55;stroke-width:0;stroke-linecap:round;stroke-linejoin:round;stroke-miterlimit:4;stroke-dasharray:none;stroke-dashoffset:0;stroke-opacity:1;paint-order:normal"
         id="path11363-3"
         cx="279.48163"
         cy="-28.935238"
         rx="0.24405187"
         ry="0.14165793"
         transform="matrix(0.84725939,0.53117937,0.02656809,0.99964701,0,0)" />
      <ellipse
         style="opacity:1;fill:#ffffff;fill-opacity:1;stroke:#ffff55;stroke-width:0;stroke-linecap:round;stroke-linejoin:round;stroke-miterlimit:4;stroke-dasharray:none;stroke-dashoffset:0;stroke-opacity:1;paint-order:normal"
         id="path11363-3-0"
         cx="278.41397"
         cy="-28.940094"
         rx="0.24405187"
         ry="0.14165792"
         transform="matrix(0.84725939,0.53117938,0.02656809,0.99964701,0,0)" />
      <ellipse
         style="opacity:1;fill:#ffffff;fill-opacity:1;stroke:#ffff55;stroke-width:0;stroke-linecap:round;stroke-linejoin:round;stroke-miterlimit:4;stroke-dasharray:none;stroke-dashoffset:0;stroke-opacity:1;paint-order:normal"
         id="path11425"
         cx="233.0406"
         cy="122.5379"
         rx="0.33347982"
         ry="0.30405512" />
    </g>
  </g>
</svg>
